<svg xmlns="http://www.w3.org/2000/svg" xmlns:xlink="http://www.w3.org/1999/xlink" preserveAspectRatio="xMidYMid" width="24" height="24" viewBox="0 0 24 24">
  <defs>
    <style>
      .cls-1 {
        fill: #444;
        fill-rule: evenodd;
      }
    </style>
  </defs>
  <path d="M21.504,9.287 L11.750,18.984 C9.057,21.662 4.690,21.662 1.996,18.984 C-0.697,16.307 -0.697,11.965 1.996,9.287 L11.053,0.282 C11.438,-0.100 12.062,-0.100 12.447,0.282 C12.831,0.665 12.831,1.285 12.447,1.667 L3.390,10.672 C1.466,12.585 1.466,15.687 3.390,17.599 C5.313,19.512 8.433,19.512 10.357,17.599 L20.110,7.901 C21.265,6.754 21.265,4.893 20.110,3.745 C18.956,2.598 17.084,2.598 15.930,3.745 L6.176,13.443 C5.792,13.825 5.792,14.446 6.176,14.828 C6.561,15.211 7.185,15.211 7.570,14.828 L16.627,5.823 C17.012,5.441 17.635,5.441 18.020,5.823 C18.405,6.206 18.405,6.826 18.020,7.209 L8.963,16.214 C7.809,17.361 5.937,17.361 4.783,16.214 C3.629,15.066 3.629,13.205 4.783,12.058 L14.537,2.360 C16.461,0.447 19.580,0.447 21.504,2.360 C23.428,4.273 23.428,7.374 21.504,9.287 Z" transform="translate(0.52 1.5)" class="cls-1"/>
</svg>
