<svg xmlns="http://www.w3.org/2000/svg" xmlns:xlink="http://www.w3.org/1999/xlink" preserveAspectRatio="xMidYMid" width="24" height="24" viewBox="0 0 24 24">
  <defs>
    <style>
      .cls-1 {
        fill: #444;
        fill-rule: evenodd;
      }
    </style>
  </defs>
  <path d="M22.000,24.000 L4.000,24.000 C2.895,24.000 2.000,23.105 2.000,22.000 L2.000,16.000 L0.500,16.000 C0.224,16.000 -0.000,15.776 -0.000,15.500 L-0.000,14.500 C-0.000,14.224 0.224,14.000 0.500,14.000 L2.000,14.000 L2.000,10.000 L0.500,10.000 C0.224,10.000 -0.000,9.776 -0.000,9.500 L-0.000,8.500 C-0.000,8.224 0.224,8.000 0.500,8.000 L2.000,8.000 L2.000,2.000 C2.000,0.895 2.895,0.000 4.000,0.000 L22.000,0.000 C23.105,0.000 24.000,0.895 24.000,2.000 L24.000,22.000 C24.000,23.105 23.105,24.000 22.000,24.000 ZM22.000,3.000 C22.000,2.448 21.552,2.000 21.000,2.000 L5.000,2.000 C4.448,2.000 4.000,2.448 4.000,3.000 L4.000,8.000 L5.500,8.000 C5.776,8.000 6.000,8.224 6.000,8.500 L6.000,9.500 C6.000,9.776 5.776,10.000 5.500,10.000 L4.000,10.000 L4.000,14.000 L5.500,14.000 C5.776,14.000 6.000,14.224 6.000,14.500 L6.000,15.500 C6.000,15.776 5.776,16.000 5.500,16.000 L4.000,16.000 L4.000,21.000 C4.000,21.552 4.448,22.000 5.000,22.000 L21.000,22.000 C21.552,22.000 22.000,21.552 22.000,21.000 L22.000,3.000 ZM19.000,19.000 C18.448,19.000 18.000,18.552 18.000,18.000 C18.000,15.791 16.209,14.000 14.000,14.000 C11.791,14.000 10.000,15.791 10.000,18.000 C10.000,18.552 9.552,19.000 9.000,19.000 C8.448,19.000 8.000,18.552 8.000,18.000 C8.000,15.736 9.269,13.788 11.121,12.767 C10.430,12.048 10.000,11.076 10.000,10.000 C10.000,7.791 11.791,6.000 14.000,6.000 C16.209,6.000 18.000,7.791 18.000,10.000 C18.000,11.076 17.570,12.048 16.879,12.767 C18.731,13.788 20.000,15.736 20.000,18.000 C20.000,18.552 19.552,19.000 19.000,19.000 ZM14.000,8.000 C12.895,8.000 12.000,8.895 12.000,10.000 C12.000,11.105 12.895,12.000 14.000,12.000 C15.105,12.000 16.000,11.105 16.000,10.000 C16.000,8.895 15.105,8.000 14.000,8.000 Z" class="cls-1"/>
</svg>
