<svg xmlns="http://www.w3.org/2000/svg" xmlns:xlink="http://www.w3.org/1999/xlink" preserveAspectRatio="xMidYMid" width="24" height="24" viewBox="0 0 24 24">
  <defs>
    <style>
      .cls-1 {
        fill: #444;
        fill-rule: evenodd;
      }
    </style>
  </defs>
  <path d="M22.000,24.000 L4.000,24.000 C2.895,24.000 2.000,23.105 2.000,22.000 L2.000,16.000 L0.500,16.000 C0.224,16.000 -0.000,15.776 -0.000,15.500 L-0.000,14.500 C-0.000,14.224 0.224,14.000 0.500,14.000 L2.000,14.000 L2.000,10.000 L0.500,10.000 C0.224,10.000 -0.000,9.776 -0.000,9.500 L-0.000,8.500 C-0.000,8.224 0.224,8.000 0.500,8.000 L2.000,8.000 L2.000,2.000 C2.000,0.895 2.895,0.000 4.000,0.000 L22.000,0.000 C23.105,0.000 24.000,0.895 24.000,2.000 L24.000,22.000 C24.000,23.105 23.105,24.000 22.000,24.000 ZM16.879,12.767 C17.570,12.048 18.000,11.076 18.000,10.000 C18.000,7.791 16.209,6.000 14.000,6.000 C11.791,6.000 10.000,7.791 10.000,10.000 C10.000,11.076 10.430,12.048 11.121,12.767 C9.269,13.788 8.000,15.736 8.000,18.000 C8.000,18.552 8.448,19.000 9.000,19.000 C9.552,19.000 10.000,18.552 10.000,18.000 C10.000,15.791 11.791,14.000 14.000,14.000 C16.209,14.000 18.000,15.791 18.000,18.000 C18.000,18.552 18.448,19.000 19.000,19.000 C19.552,19.000 20.000,18.552 20.000,18.000 C20.000,15.736 18.731,13.788 16.879,12.767 ZM14.000,12.000 C12.895,12.000 12.000,11.105 12.000,10.000 C12.000,8.895 12.895,8.000 14.000,8.000 C15.105,8.000 16.000,8.895 16.000,10.000 C16.000,11.105 15.105,12.000 14.000,12.000 Z" class="cls-1"/>
</svg>
