<svg xmlns="http://www.w3.org/2000/svg" xmlns:xlink="http://www.w3.org/1999/xlink" preserveAspectRatio="xMidYMid" width="24" height="24" viewBox="0 0 24 24">
  <defs>
    <style>
      .cls-1 {
        fill: #444;
        fill-rule: evenodd;
      }
    </style>
  </defs>
  <path d="M20.000,5.816 L20.000,23.000 C20.000,23.552 19.552,24.000 19.000,24.000 C18.448,24.000 18.000,23.552 18.000,23.000 L18.000,5.816 C16.837,5.403 16.000,4.304 16.000,3.000 C16.000,1.343 17.343,0.000 19.000,0.000 C20.657,0.000 22.000,1.343 22.000,3.000 C22.000,4.304 21.163,5.403 20.000,5.816 ZM19.000,2.000 C18.448,2.000 18.000,2.448 18.000,3.000 C18.000,3.552 18.448,4.000 19.000,4.000 C19.552,4.000 20.000,3.552 20.000,3.000 C20.000,2.448 19.552,2.000 19.000,2.000 ZM12.000,14.816 L12.000,23.000 C12.000,23.552 11.552,24.000 11.000,24.000 C10.448,24.000 10.000,23.552 10.000,23.000 L10.000,14.816 C8.837,14.403 8.000,13.304 8.000,12.000 C8.000,10.683 8.854,9.576 10.035,9.173 C10.024,9.115 10.000,9.061 10.000,9.000 L10.000,1.000 C10.000,0.448 10.448,0.000 11.000,0.000 C11.552,0.000 12.000,0.448 12.000,1.000 L12.000,9.000 C12.000,9.061 11.976,9.115 11.965,9.173 C13.146,9.576 14.000,10.683 14.000,12.000 C14.000,13.304 13.163,14.403 12.000,14.816 ZM11.000,11.000 C10.448,11.000 10.000,11.448 10.000,12.000 C10.000,12.552 10.448,13.000 11.000,13.000 C11.552,13.000 12.000,12.552 12.000,12.000 C12.000,11.448 11.552,11.000 11.000,11.000 ZM3.000,24.000 C1.343,24.000 -0.000,22.657 -0.000,21.000 C-0.000,19.696 0.837,18.597 2.000,18.184 L2.000,1.000 C2.000,0.448 2.448,0.000 3.000,0.000 C3.552,0.000 4.000,0.448 4.000,1.000 L4.000,18.184 C5.163,18.597 6.000,19.696 6.000,21.000 C6.000,22.657 4.657,24.000 3.000,24.000 ZM3.000,20.000 C2.448,20.000 2.000,20.448 2.000,21.000 C2.000,21.552 2.448,22.000 3.000,22.000 C3.552,22.000 4.000,21.552 4.000,21.000 C4.000,20.448 3.552,20.000 3.000,20.000 Z" transform="translate(1)" class="cls-1"/>
</svg>
