<svg xmlns="http://www.w3.org/2000/svg" xmlns:xlink="http://www.w3.org/1999/xlink" preserveAspectRatio="xMidYMid" width="24" height="24" viewBox="0 0 24 24">
  <defs>
    <style>
      .cls-1 {
        fill: #444;
        fill-rule: evenodd;
      }
    </style>
  </defs>
  <path d="M12.000,24.000 C5.373,24.000 -0.000,18.627 -0.000,12.000 C-0.000,5.373 5.373,0.000 12.000,0.000 C18.627,0.000 24.000,5.373 24.000,12.000 C24.000,18.627 18.627,24.000 12.000,24.000 ZM13.000,2.050 L13.000,5.000 C13.000,5.552 12.552,6.000 12.000,6.000 C11.448,6.000 11.000,5.552 11.000,5.000 L11.000,2.050 C6.276,2.520 2.521,6.276 2.051,11.000 L5.000,11.000 C5.552,11.000 6.000,11.448 6.000,12.000 C6.000,12.552 5.552,13.000 5.000,13.000 L2.051,13.000 C2.521,17.724 6.276,21.480 11.000,21.949 L11.000,19.000 C11.000,18.448 11.448,18.000 12.000,18.000 C12.552,18.000 13.000,18.448 13.000,19.000 L13.000,21.949 C17.724,21.480 21.479,17.724 21.949,13.000 L19.000,13.000 C18.448,13.000 18.000,12.552 18.000,12.000 C18.000,11.448 18.448,11.000 19.000,11.000 L21.949,11.000 C21.479,6.276 17.724,2.520 13.000,2.050 Z" class="cls-1"/>
</svg>
