<svg xmlns="http://www.w3.org/2000/svg" xmlns:xlink="http://www.w3.org/1999/xlink" preserveAspectRatio="xMidYMid" width="23.16" height="23.155" viewBox="0 0 24.125 24.12">
  <defs>
    <style>
      .cls-1 {
        fill: #444;
        fill-rule: evenodd;
      }
    </style>
  </defs>
  <path d="M18.000,2.000 L18.000,0.000 C21.314,0.000 24.000,2.686 24.000,6.000 L22.000,6.000 C22.000,3.791 20.209,2.000 18.000,2.000 ZM23.000,13.000 C23.000,15.421 22.208,17.652 20.883,19.469 L23.828,22.414 C24.219,22.805 24.219,23.438 23.828,23.828 C23.438,24.219 22.805,24.219 22.414,23.828 L19.561,20.975 C17.589,22.845 14.932,24.000 12.000,24.000 C9.053,24.000 6.384,22.835 4.409,20.948 L1.642,23.715 C1.267,24.090 0.660,24.090 0.285,23.715 C-0.090,23.340 -0.090,22.733 0.285,22.358 L3.141,19.501 C1.801,17.679 1.000,15.435 1.000,13.000 C1.000,6.925 5.925,2.000 12.000,2.000 C18.075,2.000 23.000,6.925 23.000,13.000 ZM12.000,4.000 C9.584,4.000 7.394,4.957 5.778,6.507 C5.732,6.551 5.681,6.591 5.636,6.636 C5.602,6.670 5.573,6.708 5.539,6.743 C3.970,8.363 3.000,10.566 3.000,13.000 C3.000,13.000 3.000,13.000 3.000,13.000 C3.000,13.000 3.000,13.000 3.000,13.000 C3.000,13.427 3.040,13.844 3.098,14.255 C3.110,14.346 3.124,14.437 3.139,14.527 C3.209,14.936 3.300,15.338 3.423,15.726 C3.424,15.731 3.426,15.735 3.428,15.739 C3.554,16.135 3.713,16.514 3.891,16.884 C3.916,16.936 3.940,16.989 3.966,17.040 C4.813,18.721 6.166,20.099 7.831,20.972 C7.848,20.981 7.865,20.988 7.882,20.996 C8.113,21.116 8.348,21.228 8.590,21.327 C8.636,21.346 8.684,21.360 8.730,21.378 C8.947,21.463 9.164,21.544 9.389,21.612 C9.478,21.639 9.571,21.658 9.661,21.682 C9.848,21.732 10.033,21.785 10.225,21.823 C10.379,21.854 10.539,21.872 10.696,21.895 C10.829,21.914 10.961,21.941 11.096,21.954 C11.393,21.984 11.695,22.000 12.000,22.000 C12.304,22.000 12.604,21.984 12.900,21.955 C13.033,21.941 13.162,21.915 13.294,21.896 C13.451,21.874 13.610,21.856 13.765,21.825 C13.950,21.788 14.131,21.737 14.312,21.689 C14.406,21.664 14.502,21.645 14.594,21.616 C14.811,21.551 15.021,21.473 15.230,21.393 C15.281,21.373 15.335,21.357 15.386,21.336 C15.619,21.241 15.846,21.134 16.070,21.020 C16.092,21.008 16.115,20.999 16.138,20.987 C16.377,20.863 16.609,20.727 16.835,20.583 C16.840,20.580 16.845,20.577 16.850,20.574 C17.314,20.275 17.748,19.935 18.149,19.559 C18.150,19.558 18.151,19.558 18.152,19.557 C18.152,19.557 18.152,19.557 18.152,19.557 C18.630,19.108 19.063,18.614 19.434,18.071 C19.434,18.071 19.434,18.071 19.434,18.071 C19.434,18.071 19.434,18.071 19.434,18.071 C19.660,17.740 19.858,17.391 20.038,17.031 C20.074,16.960 20.108,16.889 20.142,16.817 C20.311,16.456 20.465,16.087 20.586,15.702 C20.586,15.701 20.587,15.700 20.587,15.698 C20.707,15.317 20.793,14.922 20.862,14.521 C20.878,14.427 20.892,14.332 20.905,14.236 C20.961,13.831 21.000,13.420 21.000,13.000 C21.000,13.000 21.000,13.000 21.000,13.000 C21.000,13.000 21.000,13.000 21.000,13.000 C21.000,8.029 16.971,4.000 12.000,4.000 ZM12.000,15.000 L7.000,15.000 C6.448,15.000 6.000,14.552 6.000,14.000 C6.000,13.448 6.448,13.000 7.000,13.000 L11.000,13.000 L11.000,8.000 C11.000,7.448 11.448,7.000 12.000,7.000 C12.552,7.000 13.000,7.448 13.000,8.000 L13.000,14.000 C13.000,14.552 12.552,15.000 12.000,15.000 ZM2.000,6.000 L0.000,6.000 C0.000,2.686 2.686,0.000 6.000,0.000 L6.000,2.000 C3.791,2.000 2.000,3.791 2.000,6.000 Z" class="cls-1"/>
</svg>
