<svg xmlns="http://www.w3.org/2000/svg" xmlns:xlink="http://www.w3.org/1999/xlink" preserveAspectRatio="xMidYMid" width="23.97" height="24" viewBox="0 0 23.97 24">
  <defs>
    <style>
      .cls-1 {
        fill: #444;
        fill-rule: evenodd;
      }
    </style>
  </defs>
  <path d="M23.980,3.695 L23.980,16.199 L15.920,13.512 C16.170,13.064 16.458,12.517 16.782,11.869 C17.382,10.625 17.782,9.568 17.982,8.697 L13.371,8.697 L13.371,6.942 L19.070,6.942 L19.070,6.233 L13.371,6.233 L13.371,3.509 L10.822,3.509 L10.822,6.196 L5.124,6.196 L5.124,6.980 L10.785,6.980 L10.785,8.659 L5.911,8.659 L5.911,9.518 L15.058,9.518 L14.946,10.451 C14.721,11.248 14.320,12.056 13.745,12.877 C10.746,12.106 8.885,11.695 8.160,11.645 C6.910,11.546 5.961,11.571 5.311,11.720 C4.711,11.819 4.124,12.056 3.549,12.429 L3.024,12.877 C2.675,13.226 2.437,13.574 2.312,13.922 L2.125,14.557 C2.025,15.100 2.025,15.656 2.125,16.199 L2.425,17.207 C2.800,17.953 3.338,18.513 4.037,18.886 L4.862,19.297 C5.561,19.546 6.249,19.658 6.924,19.633 L7.973,19.522 C8.773,19.422 9.473,19.260 10.072,19.036 C10.382,18.921 10.682,18.784 10.972,18.626 C11.672,18.277 12.234,17.892 12.659,17.469 C13.609,16.672 14.270,16.000 14.645,15.453 L23.980,19.409 L23.980,20.342 C23.980,21.362 23.618,22.221 22.893,22.917 C22.193,23.639 21.331,24.000 20.306,24.000 L3.700,24.000 C2.675,24.000 1.800,23.639 1.076,22.917 C0.351,22.221 -0.011,21.362 -0.011,20.342 L-0.011,3.695 C-0.011,2.675 0.351,1.804 1.076,1.082 C1.801,0.360 2.675,0.000 3.700,0.000 L20.306,0.000 C21.331,0.000 22.193,0.360 22.893,1.082 C23.618,1.804 23.980,2.675 23.980,3.695 L23.980,3.695 ZM6.474,12.616 C6.774,12.616 7.023,12.629 7.223,12.653 C7.924,12.702 8.723,12.889 9.623,13.213 C10.222,13.412 11.197,13.847 12.547,14.519 C12.272,14.992 11.747,15.552 10.972,16.199 C10.548,16.597 10.010,16.970 9.360,17.319 C9.086,17.471 8.797,17.596 8.498,17.692 C7.823,17.941 7.148,18.065 6.474,18.065 L5.724,17.953 C5.232,17.936 4.747,17.822 4.300,17.617 L3.850,17.282 C3.450,16.958 3.175,16.598 3.025,16.200 L2.913,15.639 C2.863,15.365 2.913,15.030 3.062,14.631 L3.325,14.109 C3.550,13.710 3.887,13.387 4.337,13.138 L4.899,12.876 C5.349,12.728 5.874,12.641 6.474,12.616 Z" class="cls-1"/>
</svg>
