<svg xmlns="http://www.w3.org/2000/svg" xmlns:xlink="http://www.w3.org/1999/xlink" preserveAspectRatio="xMidYMid" width="24" height="24" viewBox="0 0 24 24">
  <defs>
    <style>
      .cls-1 {
        fill: #444;
        fill-rule: evenodd;
      }
    </style>
  </defs>
  <path d="M12.741,12.691 C12.532,12.899 12.258,12.995 11.985,12.988 C11.712,12.995 11.437,12.899 11.229,12.691 L0.280,1.742 C-0.123,1.339 -0.123,0.685 0.280,0.282 C0.683,-0.121 1.337,-0.121 1.740,0.282 L11.985,10.527 L22.230,0.282 C22.633,-0.121 23.286,-0.121 23.689,0.282 C24.093,0.685 24.093,1.339 23.689,1.742 L12.741,12.691 ZM1.740,11.282 L11.985,21.527 L22.230,11.282 C22.633,10.879 23.286,10.879 23.689,11.282 C24.093,11.685 24.093,12.339 23.689,12.742 L12.741,23.690 C12.532,23.899 12.258,23.995 11.985,23.988 C11.712,23.995 11.437,23.899 11.229,23.690 L0.280,12.742 C-0.123,12.339 -0.123,11.685 0.280,11.282 C0.683,10.879 1.337,10.879 1.740,11.282 Z" class="cls-1"/>
</svg>
