<svg xmlns="http://www.w3.org/2000/svg" xmlns:xlink="http://www.w3.org/1999/xlink" preserveAspectRatio="xMidYMid" width="24" height="24" viewBox="0 0 24 24">
  <defs>
    <style>
      .cls-1 {
        fill: #444;
        fill-rule: evenodd;
      }
    </style>
  </defs>
  <path d="M23.000,2.000 L1.000,2.000 C0.448,2.000 0.000,1.552 0.000,1.000 C0.000,0.448 0.448,0.000 1.000,0.000 L23.000,0.000 C23.552,0.000 24.000,0.448 24.000,1.000 C24.000,1.552 23.552,2.000 23.000,2.000 ZM11.228,4.280 C11.437,4.071 11.711,3.975 11.984,3.982 C12.257,3.975 12.532,4.071 12.740,4.280 L23.689,15.228 C24.092,15.631 24.092,16.285 23.689,16.688 C23.286,17.091 22.632,17.091 22.229,16.688 L11.984,6.443 L1.739,16.688 C1.336,17.091 0.683,17.091 0.280,16.688 C-0.124,16.285 -0.124,15.631 0.280,15.228 L11.228,4.280 Z" transform="translate(0 3.5)" class="cls-1"/>
</svg>
