<svg xmlns="http://www.w3.org/2000/svg" xmlns:xlink="http://www.w3.org/1999/xlink" preserveAspectRatio="xMidYMid" width="24" height="24" viewBox="0 0 24 24">
  <defs>
    <style>
      .cls-1 {
        fill: #444;
        fill-rule: evenodd;
      }
    </style>
  </defs>
  <path d="M23.700,1.648 L12.831,12.517 C12.792,12.578 12.765,12.643 12.712,12.696 C12.513,12.895 12.251,12.985 11.991,12.976 C11.731,12.985 11.469,12.895 11.271,12.696 C11.218,12.643 11.190,12.578 11.152,12.517 L0.283,1.648 C-0.099,1.267 -0.099,0.649 0.283,0.267 C0.664,-0.114 1.282,-0.114 1.664,0.267 L11.991,10.595 L22.319,0.267 C22.700,-0.114 23.318,-0.114 23.700,0.267 C24.081,0.649 24.081,1.267 23.700,1.648 Z" transform="translate(0 5.51)" class="cls-1"/>
</svg>
