<svg xmlns="http://www.w3.org/2000/svg" xmlns:xlink="http://www.w3.org/1999/xlink" preserveAspectRatio="xMidYMid" width="24" height="24.03" viewBox="0 0 24 24.03">
  <defs>
    <style>
      .cls-1 {
        fill: #444;
        fill-rule: evenodd;
      }
    </style>
  </defs>
  <path d="M22.229,12.718 L11.984,2.473 L1.740,12.718 C1.336,13.121 0.683,13.121 0.280,12.718 C-0.123,12.315 -0.123,11.661 0.280,11.258 L11.228,0.309 C11.437,0.101 11.711,0.005 11.984,0.012 C12.257,0.005 12.532,0.101 12.740,0.309 L23.689,11.258 C24.092,11.661 24.092,12.315 23.689,12.718 C23.286,13.121 22.633,13.121 22.229,12.718 ZM11.228,11.310 C11.437,11.101 11.711,11.005 11.984,11.012 C12.257,11.005 12.532,11.101 12.740,11.310 L23.689,22.258 C24.092,22.661 24.092,23.315 23.689,23.718 C23.286,24.121 22.633,24.121 22.229,23.718 L11.984,13.473 L1.740,23.718 C1.336,24.121 0.683,24.121 0.280,23.718 C-0.123,23.315 -0.123,22.661 0.280,22.258 L11.228,11.310 Z" class="cls-1"/>
</svg>
