<svg xmlns="http://www.w3.org/2000/svg" xmlns:xlink="http://www.w3.org/1999/xlink" preserveAspectRatio="xMidYMid" width="24" height="24" viewBox="0 0 24 24">
  <defs>
    <style>
      .cls-1 {
        fill: #444;
        fill-rule: evenodd;
      }
    </style>
  </defs>
  <path d="M24.000,14.000 C24.000,15.105 23.105,16.000 22.000,16.000 L2.000,16.000 C0.895,16.000 0.000,15.105 0.000,14.000 L0.000,7.000 L3.964,0.496 C4.169,0.174 4.544,0.011 4.926,0.015 C4.952,0.013 4.974,0.000 5.000,0.000 L19.000,0.000 C19.026,0.000 19.049,0.013 19.074,0.015 C19.456,0.011 19.831,0.174 20.036,0.496 L24.000,7.000 L24.000,14.000 ZM2.000,9.000 L2.000,13.000 C2.000,13.552 2.448,14.000 3.000,14.000 L21.000,14.000 C21.552,14.000 22.000,13.552 22.000,13.000 L22.000,9.000 C22.000,8.448 21.552,8.000 21.000,8.000 L17.633,8.000 C16.806,10.325 14.609,12.000 12.000,12.000 C9.391,12.000 7.194,10.325 6.367,8.000 L3.000,8.000 C2.448,8.000 2.000,8.448 2.000,9.000 ZM18.471,2.000 L5.529,2.000 L2.990,6.000 L6.000,6.000 L6.000,6.000 L8.000,6.000 C8.000,8.209 9.791,10.000 12.000,10.000 C14.209,10.000 16.000,8.209 16.000,6.000 L18.000,6.000 L18.000,6.000 L21.010,6.000 L18.471,2.000 Z" transform="translate(0 4)" class="cls-1"/>
</svg>
