<svg xmlns="http://www.w3.org/2000/svg" xmlns:xlink="http://www.w3.org/1999/xlink" preserveAspectRatio="xMidYMid" width="24" height="24" viewBox="0 0 24 24">
  <defs>
    <style>
      .cls-1 {
        fill: #444;
        fill-rule: evenodd;
      }
    </style>
  </defs>
  <path d="M21.000,15.000 C19.343,15.000 18.000,13.657 18.000,12.000 C18.000,10.343 19.343,9.000 21.000,9.000 C22.657,9.000 24.000,10.343 24.000,12.000 C24.000,13.657 22.657,15.000 21.000,15.000 ZM21.000,6.000 C19.343,6.000 18.000,4.657 18.000,3.000 C18.000,1.343 19.343,0.000 21.000,0.000 C22.657,0.000 24.000,1.343 24.000,3.000 C24.000,4.657 22.657,6.000 21.000,6.000 ZM12.000,24.000 C10.343,24.000 9.000,22.657 9.000,21.000 C9.000,19.343 10.343,18.000 12.000,18.000 C13.657,18.000 15.000,19.343 15.000,21.000 C15.000,22.657 13.657,24.000 12.000,24.000 ZM12.000,15.000 C10.343,15.000 9.000,13.657 9.000,12.000 C9.000,10.343 10.343,9.000 12.000,9.000 C13.657,9.000 15.000,10.343 15.000,12.000 C15.000,13.657 13.657,15.000 12.000,15.000 ZM12.000,6.000 C10.343,6.000 9.000,4.657 9.000,3.000 C9.000,1.343 10.343,0.000 12.000,0.000 C13.657,0.000 15.000,1.343 15.000,3.000 C15.000,4.657 13.657,6.000 12.000,6.000 ZM3.000,24.000 C1.343,24.000 0.000,22.657 0.000,21.000 C0.000,19.343 1.343,18.000 3.000,18.000 C4.657,18.000 6.000,19.343 6.000,21.000 C6.000,22.657 4.657,24.000 3.000,24.000 ZM3.000,15.000 C1.343,15.000 0.000,13.657 0.000,12.000 C0.000,10.343 1.343,9.000 3.000,9.000 C4.657,9.000 6.000,10.343 6.000,12.000 C6.000,13.657 4.657,15.000 3.000,15.000 ZM3.000,6.000 C1.343,6.000 0.000,4.657 0.000,3.000 C0.000,1.343 1.343,0.000 3.000,0.000 C4.657,0.000 6.000,1.343 6.000,3.000 C6.000,4.657 4.657,6.000 3.000,6.000 ZM21.000,18.000 C22.657,18.000 24.000,19.343 24.000,21.000 C24.000,22.657 22.657,24.000 21.000,24.000 C19.343,24.000 18.000,22.657 18.000,21.000 C18.000,19.343 19.343,18.000 21.000,18.000 Z" class="cls-1"/>
</svg>
