<svg xmlns="http://www.w3.org/2000/svg" xmlns:xlink="http://www.w3.org/1999/xlink" preserveAspectRatio="xMidYMid" width="24" height="24" viewBox="0 0 24 24">
  <defs>
    <style>
      .cls-1 {
        fill: #444;
        fill-rule: evenodd;
      }
    </style>
  </defs>
  <path d="M23.998,11.991 C23.998,11.994 24.000,11.997 24.000,12.000 C24.000,12.004 23.998,12.007 23.998,12.010 C24.002,12.265 23.909,12.520 23.715,12.715 C23.673,12.756 23.621,12.774 23.574,12.806 L12.666,23.715 C12.285,24.096 11.667,24.096 11.285,23.715 C10.904,23.333 10.904,22.715 11.285,22.333 L20.619,13.000 L1.000,13.000 C0.448,13.000 -0.000,12.552 -0.000,12.000 C-0.000,11.448 0.448,11.000 1.000,11.000 L20.619,11.000 L11.285,1.667 C10.904,1.285 10.904,0.667 11.285,0.285 C11.667,-0.096 12.285,-0.096 12.666,0.285 L23.572,11.191 C23.619,11.224 23.672,11.243 23.715,11.286 C23.909,11.480 24.002,11.736 23.998,11.991 Z" class="cls-1"/>
</svg>
