<svg xmlns="http://www.w3.org/2000/svg" xmlns:xlink="http://www.w3.org/1999/xlink" preserveAspectRatio="xMidYMid" width="24" height="24" viewBox="0 0 24 24">
  <defs>
    <style>
      .cls-1 {
        fill: #444;
        fill-rule: evenodd;
      }
    </style>
  </defs>
  <path d="M23.000,13.000 L3.381,13.000 L12.715,22.333 C13.096,22.715 13.096,23.333 12.715,23.715 C12.333,24.096 11.715,24.096 11.334,23.715 L0.426,12.806 C0.379,12.774 0.327,12.756 0.285,12.715 C0.091,12.520 -0.002,12.265 0.002,12.010 C0.002,12.007 -0.000,12.004 -0.000,12.000 C-0.000,11.997 0.002,11.994 0.002,11.991 C-0.002,11.736 0.091,11.480 0.285,11.286 C0.328,11.243 0.381,11.224 0.428,11.191 L11.334,0.285 C11.715,-0.096 12.333,-0.096 12.715,0.285 C13.096,0.667 13.096,1.285 12.715,1.667 L3.381,11.000 L23.000,11.000 C23.552,11.000 24.000,11.448 24.000,12.000 C24.000,12.552 23.552,13.000 23.000,13.000 Z" class="cls-1"/>
</svg>
