<svg xmlns="http://www.w3.org/2000/svg" xmlns:xlink="http://www.w3.org/1999/xlink" preserveAspectRatio="xMidYMid" width="24" height="24" viewBox="0 0 24 24">
  <defs>
    <style>
      .cls-1 {
        fill: #444;
        fill-rule: evenodd;
      }
    </style>
  </defs>
  <path d="M23.994,15.029 C23.990,15.079 23.975,15.127 23.964,15.176 C23.946,15.275 23.923,15.368 23.878,15.454 C23.875,15.459 23.875,15.465 23.873,15.471 C23.864,15.488 23.848,15.497 23.838,15.513 C23.784,15.601 23.723,15.682 23.645,15.749 C23.601,15.789 23.552,15.815 23.502,15.845 C23.449,15.877 23.398,15.910 23.338,15.932 C23.267,15.958 23.195,15.967 23.121,15.976 C23.079,15.981 23.043,16.000 23.000,16.000 C22.981,16.000 22.964,15.990 22.945,15.989 C22.905,15.985 22.867,15.974 22.827,15.965 C22.637,15.931 22.463,15.856 22.326,15.729 L13.000,9.919 L13.000,15.000 C13.000,15.010 12.994,15.019 12.994,15.029 C12.990,15.079 12.975,15.127 12.964,15.176 C12.946,15.275 12.923,15.368 12.878,15.454 C12.875,15.459 12.876,15.465 12.873,15.471 C12.863,15.488 12.848,15.497 12.838,15.513 C12.784,15.601 12.723,15.682 12.645,15.749 C12.601,15.789 12.552,15.815 12.502,15.845 C12.448,15.877 12.398,15.910 12.338,15.932 C12.267,15.958 12.195,15.967 12.120,15.976 C12.079,15.981 12.043,16.000 12.000,16.000 C11.980,16.000 11.964,15.990 11.945,15.989 C11.905,15.985 11.867,15.974 11.827,15.965 C11.637,15.931 11.463,15.856 11.326,15.730 L0.486,8.976 C0.187,8.789 0.031,8.456 0.015,8.110 C0.009,8.073 0.010,8.037 0.008,8.000 C0.010,7.963 0.009,7.927 0.015,7.890 C0.031,7.544 0.187,7.211 0.486,7.024 L11.329,0.269 C11.465,0.144 11.638,0.069 11.827,0.035 C11.867,0.026 11.905,0.015 11.945,0.011 C11.964,0.010 11.980,0.000 12.000,0.000 C12.043,0.000 12.079,0.019 12.120,0.024 C12.195,0.033 12.267,0.042 12.338,0.068 C12.398,0.090 12.448,0.122 12.501,0.154 C12.551,0.185 12.601,0.211 12.645,0.251 C12.723,0.318 12.783,0.398 12.837,0.486 C12.847,0.503 12.863,0.512 12.873,0.529 C12.876,0.535 12.875,0.541 12.878,0.546 C12.923,0.632 12.946,0.726 12.964,0.824 C12.975,0.873 12.990,0.921 12.994,0.971 C12.994,0.981 13.000,0.990 13.000,1.000 L13.000,6.081 L22.328,0.269 C22.464,0.144 22.638,0.069 22.827,0.035 C22.867,0.026 22.905,0.015 22.945,0.011 C22.964,0.010 22.981,0.000 23.000,0.000 C23.043,0.000 23.079,0.019 23.120,0.024 C23.195,0.033 23.267,0.042 23.338,0.068 C23.398,0.090 23.448,0.122 23.502,0.154 C23.551,0.185 23.601,0.211 23.645,0.251 C23.723,0.318 23.783,0.399 23.838,0.486 C23.848,0.503 23.863,0.512 23.873,0.529 C23.876,0.535 23.875,0.541 23.878,0.546 C23.923,0.632 23.946,0.726 23.964,0.824 C23.975,0.873 23.990,0.921 23.994,0.971 C23.994,0.981 24.000,0.990 24.000,1.000 L24.000,15.000 C24.000,15.010 23.994,15.019 23.994,15.029 Z" transform="translate(0 4)" class="cls-1"/>
</svg>
