<?xml version="1.0" standalone="no"?><!DOCTYPE svg PUBLIC "-//W3C//DTD SVG 1.1//EN" "http://www.w3.org/Graphics/SVG/1.1/DTD/svg11.dtd"><svg class="icon" width="24px" height="24.00px" viewBox="0 0 1024 1024" version="1.1" xmlns="http://www.w3.org/2000/svg"><path fill="#666666" d="M853.333333 1024H170.666667a85.333333 85.333333 0 0 1-85.333334-85.333333V341.333333a85.333333 85.333333 0 0 1 85.333334-85.333333h128a42.666667 42.666667 0 0 0-42.666667 42.666667v128a42.666667 42.666667 0 0 0 85.333333 0V298.666667a42.666667 42.666667 0 0 0-42.666666-42.666667h426.666666a42.666667 42.666667 0 0 0-42.666666 42.666667v128a42.666667 42.666667 0 0 0 85.333333 0V298.666667a42.666667 42.666667 0 0 0-42.666667-42.666667h128a85.333333 85.333333 0 0 1 85.333334 85.333333v597.333334a85.333333 85.333333 0 0 1-85.333334 85.333333zM512 85.333333a170.666667 170.666667 0 0 0-170.666667 170.666667H256a256 256 0 1 1 512 0h-85.333333a170.666667 170.666667 0 0 0-170.666667-170.666667z" /></svg>