<svg xmlns="http://www.w3.org/2000/svg" xmlns:xlink="http://www.w3.org/1999/xlink" preserveAspectRatio="xMidYMid" width="24" height="24" viewBox="0 0 24 24">
  <defs>
    <style>
      .cls-1 {
        fill: #444;
        fill-rule: evenodd;
      }
    </style>
  </defs>
  <path d="M17.000,14.709 L19.793,19.421 C19.882,19.542 19.940,19.680 19.967,19.834 C19.975,19.873 19.986,19.910 19.990,19.950 C19.991,19.967 20.000,19.982 20.000,20.000 C20.000,20.037 19.983,20.069 19.979,20.106 C19.971,20.193 19.958,20.277 19.927,20.359 C19.916,20.388 19.900,20.413 19.886,20.441 C19.844,20.528 19.794,20.608 19.725,20.680 C19.701,20.706 19.673,20.725 19.646,20.748 C19.597,20.790 19.559,20.841 19.500,20.874 C19.475,20.888 19.447,20.888 19.422,20.899 C19.383,20.918 19.341,20.926 19.299,20.940 C19.213,20.966 19.130,20.988 19.042,20.991 C19.027,20.992 19.015,21.000 19.000,21.000 L13.000,21.000 C13.000,22.657 11.657,24.000 10.000,24.000 C8.343,24.000 7.000,22.657 7.000,21.000 L1.000,21.000 C0.985,21.000 0.973,20.992 0.958,20.991 C0.870,20.988 0.787,20.966 0.702,20.940 C0.660,20.926 0.617,20.918 0.578,20.899 C0.553,20.888 0.525,20.888 0.500,20.874 C0.442,20.841 0.403,20.790 0.354,20.748 C0.327,20.725 0.299,20.706 0.275,20.680 C0.207,20.608 0.156,20.529 0.114,20.442 C0.100,20.414 0.084,20.388 0.072,20.359 C0.042,20.277 0.029,20.194 0.022,20.107 C0.017,20.070 -0.000,20.038 -0.000,20.000 C-0.000,19.982 0.009,19.967 0.010,19.949 C0.014,19.910 0.025,19.874 0.033,19.835 C0.060,19.680 0.118,19.542 0.207,19.420 L3.000,14.709 L3.000,8.000 C3.000,8.000 3.000,8.000 3.000,7.999 C3.000,4.469 5.623,1.579 9.020,1.099 C9.016,1.065 9.000,1.035 9.000,1.000 C9.000,0.448 9.448,0.000 10.000,0.000 C10.552,0.000 11.000,0.448 11.000,1.000 C11.000,1.035 10.984,1.065 10.980,1.099 C14.378,1.579 17.000,4.470 17.000,8.000 L17.000,8.000 C17.000,8.000 17.000,8.000 17.000,8.000 L17.000,14.709 ZM10.000,22.000 C10.552,22.000 11.000,21.552 11.000,21.000 L9.000,21.000 C9.000,21.552 9.448,22.000 10.000,22.000 ZM15.207,15.579 C15.118,15.458 15.060,15.319 15.033,15.165 C15.025,15.126 15.014,15.090 15.010,15.051 C15.009,15.033 15.000,15.018 15.000,15.000 L15.000,8.000 C15.000,8.000 15.000,8.000 15.000,8.000 L15.000,8.000 C15.000,5.239 12.761,3.000 10.000,3.000 C7.239,3.000 5.000,5.239 5.000,8.000 L5.000,8.000 C5.000,8.000 5.000,8.000 5.000,8.000 L5.000,15.000 C5.000,15.018 4.991,15.033 4.990,15.050 C4.987,15.090 4.975,15.127 4.967,15.166 C4.940,15.319 4.883,15.457 4.795,15.577 L2.766,19.000 L17.234,19.000 L15.207,15.579 Z" transform="translate(2)" class="cls-1"/>
</svg>
