<?xml version="1.0" standalone="no"?><!DOCTYPE svg PUBLIC "-//W3C//DTD SVG 1.1//EN" "http://www.w3.org/Graphics/SVG/1.1/DTD/svg11.dtd"><svg class="icon" width="24px" height="23.03px" viewBox="0 0 1067 1024" version="1.1" xmlns="http://www.w3.org/2000/svg"><path fill="#666666" d="M1019.953975 327.950328l-181.53758 181.582041a85.677912 85.677912 0 0 1-121.069515 0l-181.537579-181.582041a85.633451 85.633451 0 0 1 0-121.025053L717.34688 25.387695a85.588989 85.588989 0 0 1 121.069515 0l181.53758 181.53758a85.633451 85.633451 0 0 1 0 121.025053zM378.814641 1024h-266.770874a88.923625 88.923625 0 0 1-88.923625-88.923625v-266.770874a88.923625 88.923625 0 0 1 88.923625-88.923624h266.770874a88.923625 88.923625 0 0 1 88.923625 88.923624v266.770874a88.923625 88.923625 0 0 1-88.923625 88.923625z m0-489.079936h-266.770874a88.923625 88.923625 0 0 1-88.923625-88.923624v-266.770874a88.923625 88.923625 0 0 1 88.923625-88.923625h266.770874a88.923625 88.923625 0 0 1 88.923625 88.923625v266.770874a88.923625 88.923625 0 0 1-88.923625 88.923624z m222.309062 44.461813h266.770874a88.923625 88.923625 0 0 1 88.923625 88.923624v266.770874a88.923625 88.923625 0 0 1-88.923625 88.923625h-266.770874a88.923625 88.923625 0 0 1-88.923625-88.923625v-266.770874a88.923625 88.923625 0 0 1 88.923625-88.923624z" /></svg>