<?xml version="1.0" standalone="no"?><!DOCTYPE svg PUBLIC "-//W3C//DTD SVG 1.1//EN" "http://www.w3.org/Graphics/SVG/1.1/DTD/svg11.dtd"><svg class="icon" width="24px" height="24.00px" viewBox="0 0 1024 1024" version="1.1" xmlns="http://www.w3.org/2000/svg"><path fill="#666666" d="M997.873572 327.950328l-181.53758 181.582041a85.633451 85.633451 0 0 1-121.025053 0l-181.582041-181.582041a85.633451 85.633451 0 0 1 0-121.025053L695.310939 25.387695a85.633451 85.633451 0 0 1 121.025053 0l181.53758 181.53758a85.633451 85.633451 0 0 1 0 121.025053z m-90.168555-90.746559L786.679964 116.178716a42.772263 42.772263 0 0 0-60.512527 0l-121.025053 121.025053a42.772263 42.772263 0 0 0 0 60.512526l121.025053 121.025054a42.772263 42.772263 0 0 0 60.512527 0l121.025053-121.025054a42.772263 42.772263 0 0 0 0-60.512526zM356.734238 1024H89.963364a88.923625 88.923625 0 0 1-88.923625-88.923625v-266.770874a88.923625 88.923625 0 0 1 88.923625-88.923624h266.770874a88.923625 88.923625 0 0 1 88.923625 88.923624v266.770874a88.923625 88.923625 0 0 1-88.923625 88.923625z m0-311.232686a44.461812 44.461812 0 0 0-44.461812-44.461813H134.425177a44.461812 44.461812 0 0 0-44.461813 44.461813v177.847249a44.461812 44.461812 0 0 0 44.461813 44.461812h177.847249a44.461812 44.461812 0 0 0 44.461812-44.461812v-177.847249z m0-177.84725H89.963364a88.923625 88.923625 0 0 1-88.923625-88.923624v-266.770874a88.923625 88.923625 0 0 1 88.923625-88.923625h266.770874a88.923625 88.923625 0 0 1 88.923625 88.923625v266.770874a88.923625 88.923625 0 0 1-88.923625 88.923624z m0-311.232686a44.461812 44.461812 0 0 0-44.461812-44.461812H134.425177a44.461812 44.461812 0 0 0-44.461813 44.461812v177.847249a44.461812 44.461812 0 0 0 44.461813 44.461813h177.847249a44.461812 44.461812 0 0 0 44.461812-44.461813v-177.847249z m222.309062 355.694499h266.770874a88.923625 88.923625 0 0 1 88.923625 88.923624v266.770874a88.923625 88.923625 0 0 1-88.923625 88.923625h-266.770874a88.923625 88.923625 0 0 1-88.923625-88.923625v-266.770874a88.923625 88.923625 0 0 1 88.923625-88.923624z m0 311.232686a44.461812 44.461812 0 0 0 44.461812 44.461812h177.84725a44.461812 44.461812 0 0 0 44.461812-44.461812v-177.847249a44.461812 44.461812 0 0 0-44.461812-44.461813h-177.84725a44.461812 44.461812 0 0 0-44.461812 44.461813v177.847249z" /></svg>