<svg xmlns="http://www.w3.org/2000/svg" xmlns:xlink="http://www.w3.org/1999/xlink" preserveAspectRatio="xMidYMid" width="24" height="24" viewBox="0 0 24 24">
  <defs>
    <style>
      .cls-1 {
        fill: #444;
        fill-rule: evenodd;
      }
    </style>
  </defs>
  <path d="M23.000,23.000 L14.221,23.000 C13.672,23.610 12.885,24.000 12.000,24.000 C11.115,24.000 10.328,23.610 9.779,23.000 L1.000,23.000 C0.448,23.000 -0.000,22.552 -0.000,22.000 L-0.000,1.000 C-0.000,0.448 0.448,0.000 1.000,0.000 L9.000,0.000 L10.000,0.000 L11.000,0.000 C11.000,0.552 11.448,1.000 12.000,1.000 C12.552,1.000 13.000,0.552 13.000,0.000 L14.000,0.000 L15.000,0.000 L23.000,0.000 C23.552,0.000 24.000,0.448 24.000,1.000 L24.000,22.000 C24.000,22.552 23.552,23.000 23.000,23.000 ZM9.779,2.000 L2.000,2.000 L2.000,21.000 L10.000,21.000 C10.000,21.000 10.000,21.000 10.001,21.000 L11.000,21.000 L11.000,3.000 C11.000,2.939 11.024,2.885 11.035,2.827 C10.546,2.660 10.117,2.376 9.779,2.000 ZM22.000,2.000 L14.221,2.000 C13.883,2.376 13.454,2.660 12.965,2.827 C12.976,2.885 13.000,2.939 13.000,3.000 L13.000,21.000 L13.999,21.000 C14.000,21.000 14.000,21.000 14.000,21.000 L22.000,21.000 L22.000,2.000 Z" class="cls-1"/>
</svg>
