<svg xmlns="http://www.w3.org/2000/svg" xmlns:xlink="http://www.w3.org/1999/xlink" preserveAspectRatio="xMidYMid" width="24" height="24" viewBox="0 0 24 24">
  <defs>
    <style>
      .cls-1 {
        fill: #444;
        fill-rule: evenodd;
      }
    </style>
  </defs>
  <path d="M17.000,24.000 L1.000,24.000 C0.448,24.000 -0.000,23.552 -0.000,23.000 L-0.000,3.000 C-0.000,1.343 1.343,0.000 3.000,0.000 L15.000,0.000 C15.552,0.000 16.000,0.448 16.000,1.000 L16.000,4.000 L17.000,4.000 C17.552,4.000 18.000,4.448 18.000,5.000 L18.000,23.000 C18.000,23.552 17.552,24.000 17.000,24.000 ZM14.000,2.000 L3.000,2.000 C2.448,2.000 2.000,2.448 2.000,3.000 C2.000,3.552 2.448,4.000 3.000,4.000 L14.000,4.000 L14.000,2.000 ZM14.000,7.000 C14.000,6.448 13.552,6.000 13.000,6.000 C12.448,6.000 12.000,6.448 12.000,7.000 L12.000,10.000 C12.000,10.552 12.448,11.000 13.000,11.000 C13.552,11.000 14.000,10.552 14.000,10.000 L14.000,7.000 Z" transform="translate(3)" class="cls-1"/>
</svg>
