<svg xmlns="http://www.w3.org/2000/svg" xmlns:xlink="http://www.w3.org/1999/xlink" preserveAspectRatio="xMidYMid" width="24" height="24" viewBox="0 0 24 24">
  <defs>
    <style>
      .cls-1 {
        fill: #444;
        fill-rule: evenodd;
      }
    </style>
  </defs>
  <path d="M23.000,23.000 L14.221,23.000 C13.672,23.610 12.885,24.000 12.000,24.000 C11.115,24.000 10.328,23.610 9.779,23.000 L1.000,23.000 C0.448,23.000 -0.000,22.552 -0.000,22.000 L-0.000,1.000 C-0.000,0.448 0.448,0.000 1.000,0.000 L9.000,0.000 L10.000,0.000 L11.000,0.000 L11.000,22.000 C11.000,22.552 11.448,23.000 12.000,23.000 C12.552,23.000 13.000,22.552 13.000,22.000 L13.000,0.000 L14.000,0.000 L15.000,0.000 L23.000,0.000 C23.552,0.000 24.000,0.448 24.000,1.000 L24.000,22.000 C24.000,22.552 23.552,23.000 23.000,23.000 Z" class="cls-1"/>
</svg>
