<svg xmlns="http://www.w3.org/2000/svg" xmlns:xlink="http://www.w3.org/1999/xlink" preserveAspectRatio="xMidYMid" width="24" height="24" viewBox="0 0 24 24">
  <defs>
    <style>
      .cls-1 {
        fill: #444;
        fill-rule: evenodd;
      }
    </style>
  </defs>
  <path d="M17.000,24.000 L1.000,24.000 C0.448,24.000 0.000,23.552 0.000,23.000 L0.000,3.000 C0.000,3.000 0.000,3.000 0.000,3.000 C0.000,3.000 0.000,3.000 0.000,3.000 C0.000,1.344 1.342,0.002 2.997,0.001 C2.998,0.001 2.999,-0.000 3.000,-0.000 L15.000,-0.000 C15.552,-0.000 16.000,0.448 16.000,1.000 L16.000,4.000 L17.000,4.000 C17.552,4.000 18.000,4.448 18.000,5.000 L18.000,23.000 C18.000,23.552 17.552,24.000 17.000,24.000 ZM14.000,2.000 L3.000,2.000 C2.448,2.000 2.000,2.448 2.000,3.000 C2.000,3.552 2.448,4.000 3.000,4.000 L14.000,4.000 L14.000,2.000 ZM16.000,6.000 L13.000,6.000 L13.000,10.000 C13.000,10.552 12.552,11.000 12.000,11.000 C11.448,11.000 11.000,10.552 11.000,10.000 L11.000,6.000 L2.000,6.000 L2.000,22.000 L16.000,22.000 L16.000,6.000 Z" transform="translate(3)" class="cls-1"/>
</svg>
