<svg xmlns="http://www.w3.org/2000/svg" xmlns:xlink="http://www.w3.org/1999/xlink" preserveAspectRatio="xMidYMid" width="24" height="24" viewBox="0 0 24 24">
  <defs>
    <style>
      .cls-1 {
        fill: #444;
        fill-rule: evenodd;
      }
    </style>
  </defs>
  <path d="M24.000,6.000 L24.000,22.000 C24.000,23.105 23.105,24.000 22.000,24.000 L2.000,24.000 C0.895,24.000 -0.000,23.105 -0.000,22.000 L-0.000,8.000 C-0.000,7.809 0.000,6.000 0.000,6.000 L4.059,0.708 C4.149,0.417 4.358,0.182 4.640,0.073 C4.804,-0.003 4.979,-0.022 5.155,-0.000 L19.000,-0.000 C19.469,-0.000 19.845,0.330 19.953,0.766 L24.000,6.000 M5.636,15.121 L9.879,19.364 C10.269,19.755 10.902,19.755 11.293,19.364 L18.364,12.293 C18.754,11.903 18.754,11.269 18.364,10.879 C17.973,10.488 17.340,10.488 16.950,10.879 L10.586,17.243 L7.050,13.707 C6.660,13.317 6.027,13.317 5.636,13.707 C5.245,14.098 5.245,14.731 5.636,15.121 ZM2.760,6.000 L21.217,6.000 L18.532,2.000 L5.450,2.000 L2.760,6.000 Z" class="cls-1"/>
</svg>
