<svg xmlns="http://www.w3.org/2000/svg" xmlns:xlink="http://www.w3.org/1999/xlink" preserveAspectRatio="xMidYMid" width="24.031" height="24" viewBox="0 0 24.031 24">
  <defs>
    <style>
      .cls-1 {
        fill: #444;
        fill-rule: evenodd;
      }
    </style>
  </defs>
  <path d="M24.031,7.000 L19.897,0.508 C19.881,0.481 19.855,0.465 19.837,0.440 C19.787,0.367 19.733,0.301 19.666,0.244 C19.630,0.214 19.593,0.193 19.555,0.169 C19.485,0.125 19.415,0.087 19.335,0.061 C19.287,0.046 19.239,0.040 19.189,0.032 C19.136,0.023 19.087,-0.000 19.031,-0.000 L5.031,-0.000 C4.975,-0.000 4.926,0.023 4.873,0.032 C4.823,0.040 4.775,0.046 4.727,0.061 C4.647,0.087 4.577,0.125 4.507,0.169 C4.469,0.193 4.432,0.214 4.396,0.244 C4.329,0.301 4.275,0.367 4.225,0.440 C4.207,0.465 4.181,0.481 4.165,0.508 L0.031,7.000 C0.012,7.032 0.031,22.000 0.031,22.000 C0.031,23.105 0.926,24.000 2.031,24.000 L22.031,24.000 C23.136,24.000 24.031,23.105 24.031,22.000 C24.031,22.000 24.074,7.060 24.031,7.000 ZM2.031,9.000 L2.031,21.000 C2.031,21.552 2.479,22.000 3.031,22.000 L21.031,22.000 C21.583,22.000 22.031,21.552 22.031,21.000 L22.031,9.000 C22.031,8.448 21.583,8.000 21.031,8.000 L3.031,8.000 C2.479,8.000 2.031,8.448 2.031,9.000 ZM3.222,6.000 L20.828,6.000 L18.453,2.000 L5.608,2.000 L3.222,6.000 ZM11.324,19.364 C10.933,19.755 10.300,19.755 9.910,19.364 L5.667,15.121 C5.276,14.731 5.276,14.098 5.667,13.707 C6.058,13.317 6.691,13.317 7.081,13.707 L10.617,17.243 L16.981,10.879 C17.371,10.488 18.004,10.488 18.395,10.879 C18.785,11.269 18.785,11.903 18.395,12.293 L11.324,19.364 Z" class="cls-1"/>
</svg>
