<svg xmlns="http://www.w3.org/2000/svg" xmlns:xlink="http://www.w3.org/1999/xlink" preserveAspectRatio="xMidYMid" width="24" height="24" viewBox="0 0 24 24">
  <defs>
    <style>
      .cls-1 {
        fill: #444;
        fill-rule: evenodd;
      }
    </style>
  </defs>
  <path d="M22.000,21.000 L2.000,21.000 C0.895,21.000 -0.000,20.105 -0.000,19.000 L-0.000,13.000 C-0.000,13.000 -0.000,13.000 -0.000,13.000 L6.000,13.000 L6.000,14.000 C6.000,15.105 6.895,16.000 8.000,16.000 L16.000,16.000 C17.105,16.000 18.000,15.105 18.000,14.000 L18.000,13.000 L24.000,13.000 L24.000,19.000 C24.000,20.105 23.105,21.000 22.000,21.000 ZM9.000,10.000 L15.000,10.000 C15.552,10.000 16.000,10.448 16.000,11.000 L16.000,13.000 C16.000,13.552 15.552,14.000 15.000,14.000 L9.000,14.000 C8.448,14.000 8.000,13.552 8.000,13.000 L8.000,12.000 C8.000,12.000 8.000,12.000 8.000,12.000 C8.000,12.000 8.000,12.000 8.000,12.000 L8.000,11.000 C8.000,10.448 8.448,10.000 9.000,10.000 ZM18.000,10.000 C18.000,8.895 17.105,8.000 16.000,8.000 L8.000,8.000 C6.895,8.000 6.000,8.895 6.000,10.000 L6.000,11.000 L-0.000,11.000 C-0.000,11.000 -0.000,11.000 -0.000,11.000 L-0.000,5.000 C-0.000,3.895 0.895,3.000 2.000,3.000 L6.000,3.000 L6.000,2.000 C6.000,0.896 6.895,-0.000 8.000,-0.000 L16.000,-0.000 C17.105,-0.000 18.000,0.896 18.000,2.000 L18.000,3.000 L22.000,3.000 C23.105,3.000 24.000,3.895 24.000,5.000 L24.000,11.000 L18.000,11.000 L18.000,10.000 ZM15.000,2.000 L9.000,2.000 C8.448,2.000 8.000,2.448 8.000,3.000 L16.000,3.000 C16.000,2.448 15.552,2.000 15.000,2.000 Z" transform="translate(0 1.5)" class="cls-1"/>
</svg>
