<svg xmlns="http://www.w3.org/2000/svg" xmlns:xlink="http://www.w3.org/1999/xlink" preserveAspectRatio="xMidYMid" width="24" height="24" viewBox="0 0 24 24">
  <defs>
    <style>
      .cls-1 {
        fill: #444;
        fill-rule: evenodd;
      }
    </style>
  </defs>
  <path d="M21.000,24.000 L1.000,24.000 C0.448,24.000 -0.000,23.552 -0.000,23.000 L-0.000,1.000 C-0.000,0.448 0.448,0.000 1.000,0.000 L14.000,0.000 C14.552,0.000 15.000,0.448 15.000,1.000 L15.000,9.000 L21.000,9.000 C21.552,9.000 22.000,9.448 22.000,10.000 L22.000,23.000 C22.000,23.552 21.552,24.000 21.000,24.000 ZM13.000,2.000 L2.000,2.000 L2.000,22.000 L13.000,22.000 L13.000,2.000 ZM20.000,11.000 L15.000,11.000 L15.000,22.000 L20.000,22.000 L20.000,11.000 ZM5.000,4.000 L10.000,4.000 C10.552,4.000 11.000,4.448 11.000,5.000 C11.000,5.552 10.552,6.000 10.000,6.000 L5.000,6.000 C4.448,6.000 4.000,5.552 4.000,5.000 C4.000,4.448 4.448,4.000 5.000,4.000 ZM5.000,8.000 L10.000,8.000 C10.552,8.000 11.000,8.448 11.000,9.000 C11.000,9.552 10.552,10.000 10.000,10.000 L5.000,10.000 C4.448,10.000 4.000,9.552 4.000,9.000 C4.000,8.448 4.448,8.000 5.000,8.000 ZM5.000,12.000 L10.000,12.000 C10.552,12.000 11.000,12.448 11.000,13.000 C11.000,13.552 10.552,14.000 10.000,14.000 L5.000,14.000 C4.448,14.000 4.000,13.552 4.000,13.000 C4.000,12.448 4.448,12.000 5.000,12.000 Z" transform="translate(1)" class="cls-1"/>
</svg>
