<svg xmlns="http://www.w3.org/2000/svg" xmlns:xlink="http://www.w3.org/1999/xlink" preserveAspectRatio="xMidYMid" width="24" height="24" viewBox="0 0 24 24">
  <defs>
    <style>
      .cls-1 {
        fill: #444;
        fill-rule: evenodd;
      }
    </style>
  </defs>
  <path d="M12.000,14.920 L12.000,17.000 C12.000,17.552 11.552,18.000 11.000,18.000 L5.000,18.000 C4.448,18.000 4.000,17.552 4.000,17.000 L4.000,14.920 C1.611,13.537 0.000,10.959 0.000,8.000 C0.000,3.582 3.582,-0.000 8.000,-0.000 C12.418,-0.000 16.000,3.582 16.000,8.000 C16.000,10.959 14.390,13.537 12.000,14.920 ZM8.000,2.000 C4.686,2.000 2.000,4.686 2.000,8.000 C2.000,10.127 3.117,11.979 4.787,13.043 C4.858,13.027 4.925,13.000 5.000,13.000 C5.552,13.000 6.000,13.448 6.000,14.000 L6.000,16.000 L10.000,16.000 L10.000,14.000 C10.000,13.448 10.448,13.000 11.000,13.000 C11.075,13.000 11.141,13.027 11.211,13.043 C12.882,11.979 14.000,10.128 14.000,8.000 C14.000,4.686 11.314,2.000 8.000,2.000 ZM5.000,20.000 L11.000,20.000 C11.552,20.000 12.000,20.448 12.000,21.000 C12.000,21.552 11.552,22.000 11.000,22.000 L5.000,22.000 C4.448,22.000 4.000,21.552 4.000,21.000 C4.000,20.448 4.448,20.000 5.000,20.000 Z" transform="translate(4 1)" class="cls-1"/>
</svg>
