<svg xmlns="http://www.w3.org/2000/svg" xmlns:xlink="http://www.w3.org/1999/xlink" preserveAspectRatio="xMidYMid" width="24" height="24" viewBox="0 0 24 24">
  <defs>
    <style>
      .cls-1 {
        fill: #444;
        fill-rule: evenodd;
      }
    </style>
  </defs>
  <path d="M12.000,24.000 C5.373,24.000 -0.000,18.627 -0.000,12.000 C-0.000,5.373 5.373,0.000 12.000,0.000 C18.627,0.000 24.000,5.373 24.000,12.000 C24.000,18.627 18.627,24.000 12.000,24.000 ZM17.559,20.297 C18.641,19.570 19.581,18.648 20.308,17.565 L17.700,16.041 C17.244,16.683 16.680,17.241 16.041,17.699 L17.559,20.297 ZM7.000,12.000 C7.000,14.761 9.239,17.000 12.000,17.000 C14.761,17.000 17.000,14.761 17.000,12.000 C17.000,9.239 14.761,7.000 12.000,7.000 C9.239,7.000 7.000,9.239 7.000,12.000 ZM12.000,22.000 C13.344,22.000 14.623,21.728 15.794,21.247 L14.255,18.614 C13.547,18.858 12.792,19.000 12.000,19.000 C11.209,19.000 10.462,18.840 9.754,18.598 L8.204,21.250 C9.375,21.731 10.656,22.000 12.000,22.000 ZM6.435,20.308 L7.959,17.700 C7.317,17.244 6.759,16.680 6.301,16.041 L3.703,17.559 C4.430,18.641 5.352,19.581 6.435,20.308 ZM2.750,8.204 C2.269,9.375 2.000,10.656 2.000,12.000 C2.000,13.344 2.272,14.623 2.753,15.794 L5.386,14.256 C5.142,13.547 5.000,12.792 5.000,12.000 C5.000,11.209 5.160,10.462 5.402,9.754 L2.750,8.204 ZM3.692,6.435 L6.300,7.959 C6.756,7.317 7.320,6.759 7.959,6.301 L6.441,3.703 C5.359,4.430 4.419,5.352 3.692,6.435 ZM12.000,2.000 C10.656,2.000 9.377,2.272 8.206,2.753 L9.745,5.386 C10.453,5.143 11.208,5.000 12.000,5.000 C12.791,5.000 13.538,5.160 14.246,5.402 L15.796,2.750 C14.625,2.269 13.344,2.000 12.000,2.000 ZM17.565,3.692 L16.041,6.300 C16.683,6.756 17.241,7.320 17.699,7.960 L20.297,6.441 C19.570,5.359 18.648,4.419 17.565,3.692 ZM18.614,9.744 C18.858,10.453 19.000,11.208 19.000,12.000 C19.000,12.791 18.840,13.538 18.598,14.247 L21.250,15.796 C21.731,14.625 22.000,13.344 22.000,12.000 C22.000,10.656 21.728,9.377 21.247,8.206 L18.614,9.744 Z" class="cls-1"/>
</svg>
