<svg xmlns="http://www.w3.org/2000/svg" xmlns:xlink="http://www.w3.org/1999/xlink" preserveAspectRatio="xMidYMid" width="24" height="24" viewBox="0 0 24 24">
  <defs>
    <style>
      .cls-1 {
        fill: #444;
        fill-rule: evenodd;
      }
    </style>
  </defs>
  <path d="M22.000,24.000 L2.000,24.000 C0.895,24.000 -0.000,23.105 -0.000,22.000 L-0.000,4.000 C-0.000,2.895 0.895,2.000 2.000,2.000 L7.000,2.000 L7.000,1.000 C7.000,0.448 7.448,-0.000 8.000,-0.000 C8.552,-0.000 9.000,0.448 9.000,1.000 L9.000,2.000 L15.000,2.000 L15.000,1.000 C15.000,0.448 15.448,-0.000 16.000,-0.000 C16.552,-0.000 17.000,0.448 17.000,1.000 L17.000,2.000 L22.000,2.000 C23.105,2.000 24.000,2.895 24.000,4.000 L24.000,22.000 C24.000,23.105 23.105,24.000 22.000,24.000 ZM3.000,4.000 C2.448,4.000 2.000,4.448 2.000,5.000 L2.000,6.000 L7.000,6.000 L7.000,4.000 L3.000,4.000 ZM15.000,4.000 L9.000,4.000 L9.000,6.000 L15.000,6.000 L15.000,4.000 ZM22.000,5.000 C22.000,4.448 21.552,4.000 21.000,4.000 L17.000,4.000 L17.000,6.000 L22.000,6.000 L22.000,5.000 ZM22.000,8.000 L2.000,8.000 L2.000,21.000 C2.000,21.552 2.448,22.000 3.000,22.000 L21.000,22.000 C21.552,22.000 22.000,21.552 22.000,21.000 L22.000,8.000 ZM17.000,19.000 L7.000,19.000 C6.448,19.000 6.000,18.552 6.000,18.000 C6.000,17.448 6.448,17.000 7.000,17.000 L17.000,17.000 C17.552,17.000 18.000,17.448 18.000,18.000 C18.000,18.552 17.552,19.000 17.000,19.000 ZM17.000,13.000 L7.000,13.000 C6.448,13.000 6.000,12.552 6.000,12.000 C6.000,11.448 6.448,11.000 7.000,11.000 L17.000,11.000 C17.552,11.000 18.000,11.448 18.000,12.000 C18.000,12.552 17.552,13.000 17.000,13.000 Z" class="cls-1"/>
</svg>
