<?xml version="1.0" standalone="no"?><!DOCTYPE svg PUBLIC "-//W3C//DTD SVG 1.1//EN" "http://www.w3.org/Graphics/SVG/1.1/DTD/svg11.dtd"><svg class="icon" width="24px" height="24.00px" viewBox="0 0 1024 1024" version="1.1" xmlns="http://www.w3.org/2000/svg"><path fill="#666666" d="M853.333 1024H170.667a85.333 85.333 0 0 1-85.334-85.333v-768a85.333 85.333 0 0 1 85.334-85.334h170.666V42.667a42.667 42.667 0 0 1 85.334 0v42.666h170.666V42.667a42.667 42.667 0 0 1 85.334 0v42.666h170.666a85.333 85.333 0 0 1 85.334 85.334v768A85.333 85.333 0 0 1 853.333 1024z m-640-85.333h597.334A42.667 42.667 0 0 0 853.333 896V426.667H170.667V896a42.667 42.667 0 0 0 42.666 42.667z m597.334-768h-128v42.666a42.667 42.667 0 0 1-85.334 0v-42.666H426.667v42.666a42.667 42.667 0 0 1-85.334 0v-42.666h-128a42.667 42.667 0 0 0-42.666 42.666v128h682.666v-128a42.667 42.667 0 0 0-42.666-42.666z" /></svg>