<?xml version="1.0" standalone="no"?><!DOCTYPE svg PUBLIC "-//W3C//DTD SVG 1.1//EN" "http://www.w3.org/Graphics/SVG/1.1/DTD/svg11.dtd"><svg class="icon" width="24px" height="24.00px" viewBox="0 0 1024 1024" version="1.1" xmlns="http://www.w3.org/2000/svg"><path fill="#666666" d="M853.318667 341.318667V213.026055a42.537214 42.537214 0 0 0-42.664208-42.366221h-85.330417v43.09119c0 23.295022-18.943205 42.238226-42.664208 42.238226A42.665208 42.665208 0 0 1 639.994625 213.751024v-43.09119H384.005375v43.09119c0 23.252024-18.943205 42.238226-42.665209 42.238226a42.665208 42.665208 0 0 1-42.664208-42.238226v-43.09119h-85.330417c-23.679006 0-42.664208 18.985203-42.664208 42.366221v128.292612h682.637334z m0 85.330417v469.61228a42.451217 42.451217 0 0 1-42.664208 42.366221H213.345541c-23.551011 0-42.664208-18.986203-42.664208-42.366221V426.649084h682.637334z m-127.994625-341.319667H853.745649c46.846033 0 84.903435 37.972405 84.903435 84.946433v768.777717c0 46.932029-38.313391 84.946433-84.903435 84.946433H170.254351c-46.846033-0.042998-84.903435-38.014404-84.903435-84.988431V170.232852c0-46.888031 38.313391-84.903435 84.903435-84.903435h128.421607V42.238226C298.675958 18.986203 317.618163 0 341.340166 0A42.665208 42.665208 0 0 1 384.005375 42.238226v43.091191h255.98925V42.238226C639.994625 18.943205 658.93783 0 682.659834 0a42.665208 42.665208 0 0 1 42.664208 42.238226v43.091191z" /></svg>