<svg xmlns="http://www.w3.org/2000/svg" xmlns:xlink="http://www.w3.org/1999/xlink" preserveAspectRatio="xMidYMid" width="24" height="24" viewBox="0 0 24 24">
  <defs>
    <style>
      .cls-1 {
        fill: #444;
        fill-rule: evenodd;
      }
    </style>
  </defs>
  <path d="M18.000,24.000 L2.000,24.000 C0.895,24.000 -0.000,23.105 -0.000,22.000 L-0.000,4.000 C-0.000,2.895 0.895,2.000 2.000,2.000 L6.000,2.000 L6.000,1.000 C6.000,0.448 6.448,0.000 7.000,0.000 C7.552,0.000 8.000,0.448 8.000,1.000 L8.000,2.000 L12.000,2.000 L12.000,1.000 C12.000,0.448 12.448,0.000 13.000,0.000 C13.552,0.000 14.000,0.448 14.000,1.000 L14.000,2.000 L18.000,2.000 C19.105,2.000 20.000,2.895 20.000,4.000 L20.000,22.000 C20.000,23.105 19.105,24.000 18.000,24.000 ZM17.000,4.000 L14.000,4.000 L14.000,5.000 C14.000,5.552 13.552,6.000 13.000,6.000 C12.448,6.000 12.000,5.552 12.000,5.000 L12.000,4.000 L8.000,4.000 L8.000,5.000 C8.000,5.552 7.552,6.000 7.000,6.000 C6.448,6.000 6.000,5.552 6.000,5.000 L6.000,4.000 L3.000,4.000 C2.448,4.000 2.000,4.448 2.000,5.000 L2.000,8.000 L18.000,8.000 L18.000,5.000 C18.000,4.448 17.552,4.000 17.000,4.000 Z" transform="translate(2)" class="cls-1"/>
</svg>
