<svg xmlns="http://www.w3.org/2000/svg" xmlns:xlink="http://www.w3.org/1999/xlink" preserveAspectRatio="xMidYMid" width="24" height="24" viewBox="0 0 24 24">
  <defs>
    <style>
      .cls-1 {
        fill: #444;
        fill-rule: evenodd;
      }
    </style>
  </defs>
  <path d="M23.000,22.000 L1.000,22.000 C0.448,22.000 -0.000,21.552 -0.000,21.000 L-0.000,5.000 C-0.000,4.448 0.448,4.000 1.000,4.000 L4.624,4.000 L8.214,0.410 C8.396,0.167 8.673,0.000 9.000,0.000 L15.000,0.000 C15.003,0.000 15.005,0.002 15.007,0.002 C15.257,-0.000 15.507,0.092 15.697,0.281 L19.435,4.000 L23.000,4.000 C23.144,4.000 23.279,4.033 23.403,4.088 C23.754,4.244 24.000,4.592 24.000,5.000 L24.000,21.000 C24.000,21.552 23.552,22.000 23.000,22.000 ZM22.000,6.000 L19.187,6.000 C19.167,6.000 19.151,5.990 19.131,5.989 C18.877,5.995 18.621,5.905 18.427,5.712 L14.695,2.000 L9.339,2.000 L5.862,5.477 C5.692,5.784 5.376,6.000 5.000,6.000 L2.000,6.000 L2.000,20.000 L22.000,20.000 L22.000,6.000 ZM12.000,8.000 C14.761,8.000 17.000,10.239 17.000,13.000 C17.000,15.761 14.761,18.000 12.000,18.000 C9.239,18.000 7.000,15.761 7.000,13.000 C7.000,10.239 9.239,8.000 12.000,8.000 ZM12.000,16.000 C13.657,16.000 15.000,14.657 15.000,13.000 C15.000,11.343 13.657,10.000 12.000,10.000 C10.343,10.000 9.000,11.343 9.000,13.000 C9.000,14.657 10.343,16.000 12.000,16.000 ZM13.000,6.000 L11.000,6.000 C10.448,6.000 10.000,5.552 10.000,5.000 C10.000,4.448 10.448,4.000 11.000,4.000 L13.000,4.000 C13.552,4.000 14.000,4.448 14.000,5.000 C14.000,5.552 13.552,6.000 13.000,6.000 Z" transform="translate(0 1)" class="cls-1"/>
</svg>
