<svg xmlns="http://www.w3.org/2000/svg" xmlns:xlink="http://www.w3.org/1999/xlink" preserveAspectRatio="xMidYMid" width="24" height="24" viewBox="0 0 24 24">
  <defs>
    <style>
      .cls-1 {
        fill: #444;
        fill-rule: evenodd;
      }
    </style>
  </defs>
  <path d="M12.000,24.000 C5.373,24.000 -0.000,18.627 -0.000,12.000 C-0.000,5.373 5.373,0.000 12.000,0.000 C18.627,0.000 24.000,5.373 24.000,12.000 C24.000,18.627 18.627,24.000 12.000,24.000 ZM16.950,8.465 C17.340,8.074 17.340,7.441 16.950,7.050 C16.559,6.660 15.926,6.660 15.536,7.050 L12.000,10.586 L8.465,7.050 C8.074,6.660 7.441,6.660 7.050,7.050 C6.660,7.441 6.660,8.074 7.050,8.465 L10.586,12.000 L7.050,15.535 C6.660,15.926 6.660,16.559 7.050,16.950 C7.441,17.340 8.074,17.340 8.465,16.950 L12.000,13.414 L15.536,16.950 C15.926,17.340 16.559,17.340 16.950,16.950 C17.340,16.559 17.340,15.926 16.950,15.535 L13.414,12.000 L16.950,8.465 Z" class="cls-1"/>
</svg>
