<svg xmlns="http://www.w3.org/2000/svg" xmlns:xlink="http://www.w3.org/1999/xlink" preserveAspectRatio="xMidYMid" width="24" height="24" viewBox="0 0 24 24">
  <defs>
    <style>
      .cls-1 {
        fill: #444;
        fill-rule: evenodd;
      }
    </style>
  </defs>
  <path d="M12.000,24.000 C5.373,24.000 0.000,18.627 0.000,12.000 C0.000,5.373 5.373,0.000 12.000,0.000 C18.627,0.000 24.000,5.373 24.000,12.000 C24.000,18.627 18.627,24.000 12.000,24.000 ZM12.000,2.000 C6.477,2.000 2.000,6.477 2.000,12.000 C2.000,17.523 6.477,22.000 12.000,22.000 C17.523,22.000 22.000,17.523 22.000,12.000 C22.000,6.477 17.523,2.000 12.000,2.000 ZM16.950,16.950 C16.559,17.340 15.926,17.340 15.536,16.950 L12.000,13.414 L8.464,16.950 C8.074,17.340 7.441,17.340 7.050,16.950 C6.660,16.559 6.660,15.926 7.050,15.536 L10.586,12.000 L7.050,8.465 C6.660,8.074 6.660,7.441 7.050,7.050 C7.441,6.660 8.074,6.660 8.464,7.050 L12.000,10.586 L15.536,7.050 C15.926,6.660 16.559,6.660 16.950,7.050 C17.340,7.441 17.340,8.074 16.950,8.465 L13.414,12.000 L16.950,15.536 C17.340,15.926 17.340,16.559 16.950,16.950 Z" class="cls-1"/>
</svg>
