<svg xmlns="http://www.w3.org/2000/svg" xmlns:xlink="http://www.w3.org/1999/xlink" preserveAspectRatio="xMidYMid" width="24" height="23.97" viewBox="0 0 24 23.97">
  <defs>
    <style>
      .cls-1 {
        fill: #444;
        fill-rule: evenodd;
      }
    </style>
  </defs>
  <path d="M23.697,1.690 L13.404,11.970 L23.697,22.250 C24.089,22.641 24.089,23.276 23.697,23.668 C23.305,24.059 22.670,24.059 22.278,23.668 L11.984,13.388 L1.691,23.668 C1.299,24.059 0.663,24.059 0.271,23.668 C-0.121,23.276 -0.121,22.641 0.271,22.250 L10.565,11.970 L0.271,1.690 C-0.121,1.299 -0.121,0.664 0.271,0.272 C0.663,-0.119 1.299,-0.119 1.691,0.272 L11.984,10.552 L22.278,0.272 C22.670,-0.119 23.305,-0.119 23.697,0.272 C24.090,0.664 24.090,1.299 23.697,1.690 Z" class="cls-1"/>
</svg>
