<svg xmlns="http://www.w3.org/2000/svg" xmlns:xlink="http://www.w3.org/1999/xlink" preserveAspectRatio="xMidYMid" width="24" height="24" viewBox="0 0 24 24">
  <defs>
    <style>
      .cls-1 {
        fill: #444;
        fill-rule: evenodd;
      }
    </style>
  </defs>
  <path d="M22.000,20.000 L2.000,20.000 C0.895,20.000 0.000,19.105 0.000,18.000 L0.000,2.000 C0.000,0.895 0.895,0.000 2.000,0.000 L22.000,0.000 C23.105,0.000 24.000,0.895 24.000,2.000 L24.000,18.000 C24.000,19.105 23.105,20.000 22.000,20.000 ZM5.000,16.000 L7.000,16.000 C7.552,16.000 8.000,15.552 8.000,15.000 C8.000,14.448 7.552,14.000 7.000,14.000 L5.000,14.000 C4.448,14.000 4.000,14.448 4.000,15.000 C4.000,15.552 4.448,16.000 5.000,16.000 ZM19.000,4.000 L5.000,4.000 C4.448,4.000 4.000,4.448 4.000,5.000 C4.000,5.552 4.448,6.000 5.000,6.000 L19.000,6.000 C19.552,6.000 20.000,5.552 20.000,5.000 C20.000,4.448 19.552,4.000 19.000,4.000 Z" transform="translate(0 2)" class="cls-1"/>
</svg>
