<svg xmlns="http://www.w3.org/2000/svg" xmlns:xlink="http://www.w3.org/1999/xlink" preserveAspectRatio="xMidYMid" width="24" height="24" viewBox="0 0 24 24">
  <defs>
    <style>
      .cls-1 {
        fill: #444;
        fill-rule: evenodd;
      }
    </style>
  </defs>
  <path d="M24.000,14.000 L24.000,14.000 C24.000,14.324 23.836,14.598 23.597,14.782 C23.531,14.832 23.467,14.888 23.389,14.921 C23.344,14.941 23.289,14.939 23.240,14.951 C23.162,14.972 23.085,15.000 23.000,15.000 L23.000,15.000 L23.000,15.000 L5.000,15.000 C5.000,16.105 5.895,17.000 7.000,17.000 L21.000,17.000 C21.552,17.000 22.000,17.448 22.000,18.000 C22.000,18.552 21.552,19.000 21.000,19.000 L7.000,19.000 C7.000,19.000 7.000,19.000 6.999,19.000 C4.791,18.999 3.001,17.209 3.000,15.001 C3.000,15.001 3.000,15.000 3.000,15.000 L3.000,5.000 C3.000,5.000 3.000,5.000 3.000,5.000 L3.000,4.000 L4.000,4.000 C4.000,4.000 4.000,4.000 4.000,4.000 C4.000,4.000 4.000,4.000 4.000,4.000 L5.000,4.000 L23.000,4.000 C23.000,4.000 23.000,4.000 23.000,4.000 C23.294,4.000 23.552,4.132 23.735,4.335 C23.896,4.512 24.000,4.742 24.000,5.000 C24.000,5.000 24.000,5.000 24.000,5.000 L24.000,14.000 ZM1.000,2.000 L1.000,2.000 L1.000,2.000 C0.448,2.000 0.000,1.552 0.000,1.000 C0.000,0.448 0.448,0.000 1.000,0.000 L1.000,0.000 L1.000,0.000 C3.209,0.000 5.000,1.791 5.000,4.000 L4.000,4.000 L3.000,4.000 C3.000,2.895 2.105,2.000 1.000,2.000 ZM9.000,20.000 C10.105,20.000 11.000,20.895 11.000,22.000 C11.000,23.104 10.105,24.000 9.000,24.000 C7.895,24.000 7.000,23.104 7.000,22.000 C7.000,20.895 7.895,20.000 9.000,20.000 ZM19.000,20.000 C20.105,20.000 21.000,20.895 21.000,22.000 C21.000,23.104 20.105,24.000 19.000,24.000 C17.895,24.000 17.000,23.104 17.000,22.000 C17.000,20.895 17.895,20.000 19.000,20.000 Z" class="cls-1"/>
</svg>
