<svg xmlns="http://www.w3.org/2000/svg" xmlns:xlink="http://www.w3.org/1999/xlink" preserveAspectRatio="xMidYMid" width="24" height="24" viewBox="0 0 24 24">
  <defs>
    <style>
      .cls-1 {
        fill: #444;
        fill-rule: evenodd;
      }
    </style>
  </defs>
  <path d="M23.000,10.000 L15.000,10.000 C14.448,10.000 14.000,9.552 14.000,9.000 L14.000,1.000 C14.000,0.448 14.448,0.000 15.000,0.000 C19.971,0.000 24.000,4.029 24.000,9.000 C24.000,9.552 23.552,10.000 23.000,10.000 ZM24.000,12.000 C24.000,18.627 18.627,24.000 12.000,24.000 C5.373,24.000 -0.000,18.627 -0.000,12.000 C-0.000,5.373 5.373,0.000 12.000,0.000 C12.552,0.000 13.000,0.448 13.000,1.000 L13.000,11.000 L23.000,11.000 C23.552,11.000 24.000,11.448 24.000,12.000 Z" class="cls-1"/>
</svg>
