<svg xmlns="http://www.w3.org/2000/svg" xmlns:xlink="http://www.w3.org/1999/xlink" preserveAspectRatio="xMidYMid" width="24" height="24" viewBox="0 0 24 24">
  <defs>
    <style>
      .cls-1 {
        fill: #444;
        fill-rule: evenodd;
      }
    </style>
  </defs>
  <path d="M12.000,24.000 C5.373,24.000 -0.000,18.627 -0.000,12.000 C-0.000,5.373 5.373,0.000 12.000,0.000 C18.627,0.000 24.000,5.373 24.000,12.000 C24.000,18.627 18.627,24.000 12.000,24.000 ZM18.364,7.879 C17.973,7.488 17.340,7.488 16.950,7.879 L10.586,14.243 L7.050,10.707 C6.660,10.317 6.027,10.317 5.636,10.707 C5.246,11.098 5.246,11.731 5.636,12.121 L9.879,16.364 C10.269,16.754 10.902,16.754 11.293,16.364 L18.364,9.293 C18.755,8.902 18.755,8.269 18.364,7.879 Z" class="cls-1"/>
</svg>
