<svg xmlns="http://www.w3.org/2000/svg" xmlns:xlink="http://www.w3.org/1999/xlink" preserveAspectRatio="xMidYMid" width="24" height="24" viewBox="0 0 24 24">
  <defs>
    <style>
      .cls-1 {
        fill: #444;
        fill-rule: evenodd;
      }
    </style>
  </defs>
  <path d="M18.000,24.000 L2.000,24.000 C0.895,24.000 0.000,23.105 0.000,22.000 L0.000,2.000 C0.000,0.895 0.895,-0.000 2.000,-0.000 L22.000,-0.000 C23.105,-0.000 24.000,0.895 24.000,2.000 L24.000,18.000 C24.000,21.314 21.314,24.000 18.000,24.000 ZM22.000,18.000 C22.000,15.791 20.209,14.000 18.000,14.000 C15.791,14.000 14.000,15.791 14.000,18.000 C14.000,20.209 15.791,22.000 18.000,22.000 C20.209,22.000 22.000,20.209 22.000,18.000 ZM22.000,3.000 C22.000,2.448 21.552,2.000 21.000,2.000 L3.000,2.000 C2.448,2.000 2.000,2.448 2.000,3.000 L2.000,5.000 L22.000,5.000 L22.000,3.000 ZM2.000,7.000 L2.000,21.000 C2.000,21.552 2.448,22.000 3.000,22.000 L13.557,22.000 C12.599,20.937 12.000,19.544 12.000,18.000 C12.000,14.686 14.686,12.000 18.000,12.000 C19.544,12.000 20.937,12.599 22.000,13.557 L22.000,7.000 L2.000,7.000 ZM7.000,16.000 L5.000,16.000 C4.448,16.000 4.000,15.552 4.000,15.000 C4.000,14.448 4.448,14.000 5.000,14.000 L7.000,14.000 C7.552,14.000 8.000,14.448 8.000,15.000 C8.000,15.552 7.552,16.000 7.000,16.000 ZM7.000,12.000 L5.000,12.000 C4.448,12.000 4.000,11.552 4.000,11.000 C4.000,10.448 4.448,10.000 5.000,10.000 L7.000,10.000 C7.552,10.000 8.000,10.448 8.000,11.000 C8.000,11.552 7.552,12.000 7.000,12.000 ZM15.285,17.753 C15.660,17.347 16.267,17.347 16.642,17.753 L17.321,18.488 L19.358,16.284 C19.733,15.878 20.340,15.878 20.715,16.284 C21.090,16.690 21.090,17.347 20.715,17.753 L18.000,20.692 C17.625,21.098 17.017,21.098 16.642,20.692 L15.285,19.223 C14.910,18.817 14.910,18.159 15.285,17.753 Z" class="cls-1"/>
</svg>
