<svg xmlns="http://www.w3.org/2000/svg" xmlns:xlink="http://www.w3.org/1999/xlink" preserveAspectRatio="xMidYMid" width="24" height="24" viewBox="0 0 24 24">
  <defs>
    <style>
      .cls-1 {
        fill: #444;
        fill-rule: evenodd;
      }
    </style>
  </defs>
  <path d="M12.000,24.000 C5.373,24.000 -0.000,18.627 -0.000,12.000 C-0.000,5.373 5.373,0.000 12.000,0.000 C18.627,0.000 24.000,5.373 24.000,12.000 C24.000,18.627 18.627,24.000 12.000,24.000 ZM12.000,2.000 C6.477,2.000 2.000,6.477 2.000,12.000 C2.000,17.523 6.477,22.000 12.000,22.000 C17.523,22.000 22.000,17.523 22.000,12.000 C22.000,6.477 17.523,2.000 12.000,2.000 ZM11.293,16.657 C10.902,17.048 10.269,17.048 9.879,16.657 L5.636,12.415 C5.245,12.024 5.245,11.391 5.636,11.001 C6.027,10.610 6.660,10.610 7.050,11.001 L10.586,14.536 L16.950,8.172 C17.340,7.782 17.973,7.782 18.364,8.172 C18.754,8.562 18.754,9.196 18.364,9.586 L11.293,16.657 Z" class="cls-1"/>
</svg>
