<svg xmlns="http://www.w3.org/2000/svg" xmlns:xlink="http://www.w3.org/1999/xlink" preserveAspectRatio="xMidYMid" width="24" height="24" viewBox="0 0 24 24">
  <defs>
    <style>
      .cls-1 {
        fill: #444;
        fill-rule: evenodd;
      }
    </style>
  </defs>
  <path d="M18.000,2.000 L18.000,0.000 C21.314,0.000 24.000,2.686 24.000,6.000 L22.000,6.000 C22.000,3.791 20.209,2.000 18.000,2.000 ZM23.000,13.000 C23.000,15.421 22.208,17.652 20.883,19.469 L23.828,22.414 C24.219,22.805 24.219,23.438 23.828,23.828 C23.438,24.219 22.805,24.219 22.414,23.828 L19.561,20.975 C17.589,22.845 14.932,24.000 12.000,24.000 C9.053,24.000 6.384,22.835 4.409,20.948 L1.642,23.715 C1.267,24.090 0.660,24.090 0.285,23.715 C-0.090,23.340 -0.090,22.733 0.285,22.358 L3.141,19.501 C1.801,17.679 1.000,15.435 1.000,13.000 C1.000,6.925 5.925,2.000 12.000,2.000 C18.075,2.000 23.000,6.925 23.000,13.000 ZM12.000,4.000 C7.029,4.000 3.000,8.029 3.000,13.000 C3.000,13.000 3.000,13.000 3.000,13.000 C3.000,13.000 3.000,13.000 3.000,13.000 C3.000,13.427 3.040,13.844 3.098,14.255 C3.110,14.346 3.124,14.437 3.139,14.527 C3.209,14.936 3.300,15.338 3.423,15.726 C3.424,15.731 3.426,15.735 3.428,15.740 C3.554,16.135 3.713,16.514 3.891,16.884 C3.916,16.936 3.940,16.989 3.966,17.040 C4.813,18.721 6.166,20.100 7.832,20.972 C7.847,20.980 7.863,20.987 7.878,20.995 C8.111,21.115 8.347,21.227 8.591,21.327 C8.634,21.345 8.679,21.358 8.723,21.375 C8.942,21.461 9.163,21.544 9.390,21.612 C9.474,21.638 9.561,21.655 9.646,21.678 C9.838,21.730 10.029,21.784 10.226,21.823 C10.370,21.852 10.518,21.868 10.664,21.890 C10.809,21.912 10.951,21.940 11.097,21.954 C11.394,21.984 11.695,22.000 12.000,22.000 C12.303,22.000 12.603,21.984 12.898,21.955 C13.040,21.941 13.177,21.914 13.317,21.893 C13.466,21.871 13.617,21.854 13.764,21.825 C13.953,21.787 14.136,21.736 14.321,21.687 C14.411,21.663 14.504,21.644 14.594,21.617 C14.811,21.551 15.023,21.473 15.233,21.392 C15.284,21.372 15.335,21.356 15.385,21.336 C15.620,21.241 15.847,21.133 16.071,21.019 C16.093,21.008 16.116,20.999 16.137,20.987 C16.377,20.863 16.609,20.727 16.836,20.582 C16.840,20.579 16.845,20.577 16.850,20.574 C17.315,20.275 17.750,19.934 18.151,19.557 C18.151,19.557 18.152,19.557 18.152,19.557 C18.152,19.557 18.152,19.557 18.152,19.557 C18.921,18.835 19.560,17.982 20.038,17.031 C20.074,16.960 20.108,16.889 20.142,16.817 C20.311,16.457 20.465,16.088 20.586,15.703 C20.586,15.702 20.587,15.700 20.587,15.698 C20.707,15.317 20.793,14.923 20.862,14.522 C20.878,14.427 20.892,14.332 20.905,14.236 C20.961,13.831 21.000,13.420 21.000,13.000 C21.000,13.000 21.000,13.000 21.000,13.000 C21.000,13.000 21.000,13.000 21.000,13.000 C21.000,8.029 16.971,4.000 12.000,4.000 ZM12.000,15.000 L7.000,15.000 C6.448,15.000 6.000,14.552 6.000,14.000 C6.000,13.448 6.448,13.000 7.000,13.000 L11.000,13.000 L11.000,8.000 C11.000,7.448 11.448,7.000 12.000,7.000 C12.552,7.000 13.000,7.448 13.000,8.000 L13.000,14.000 C13.000,14.552 12.552,15.000 12.000,15.000 ZM2.000,6.000 L0.000,6.000 C0.000,2.686 2.686,0.000 6.000,0.000 L6.000,2.000 C3.791,2.000 2.000,3.791 2.000,6.000 Z" transform="translate(-0.06 -0.06)" class="cls-1"/>
</svg>
