<svg xmlns="http://www.w3.org/2000/svg" xmlns:xlink="http://www.w3.org/1999/xlink" preserveAspectRatio="xMidYMid" width="24" height="24" viewBox="0 0 24 24">
  <defs>
    <style>
      .cls-1 {
        fill: #444;
        fill-rule: evenodd;
      }
    </style>
  </defs>
  <path d="M23.974,12.210 C23.963,12.265 23.941,12.314 23.920,12.366 C23.897,12.420 23.878,12.474 23.845,12.523 C23.794,12.608 23.726,12.679 23.650,12.746 C23.632,12.761 23.618,12.778 23.599,12.792 C23.569,12.815 23.550,12.847 23.517,12.866 L19.000,15.544 L19.000,23.000 C19.000,23.552 18.552,24.000 18.000,24.000 L6.000,24.000 C5.448,24.000 5.000,23.552 5.000,23.000 L5.000,15.544 L0.483,12.866 C0.450,12.847 0.431,12.815 0.401,12.792 C0.382,12.778 0.368,12.761 0.350,12.746 C0.274,12.679 0.206,12.608 0.155,12.523 C0.122,12.474 0.103,12.420 0.080,12.366 C0.059,12.314 0.037,12.265 0.026,12.210 C0.001,12.110 -0.002,12.009 0.005,11.903 C0.006,11.890 0.006,11.877 0.007,11.863 C0.013,11.810 0.003,11.757 0.017,11.704 L2.975,0.763 C3.062,0.442 3.300,0.213 3.588,0.094 C3.613,0.083 3.640,0.077 3.666,0.067 C3.751,0.040 3.835,0.020 3.926,0.015 C3.952,0.013 3.974,0.000 4.000,0.000 L20.000,0.000 C20.026,0.000 20.048,0.013 20.074,0.015 C20.165,0.020 20.249,0.040 20.334,0.067 C20.360,0.077 20.387,0.083 20.412,0.094 C20.700,0.213 20.938,0.442 21.025,0.763 L23.983,11.704 C23.997,11.757 23.987,11.810 23.993,11.863 C23.994,11.877 23.994,11.890 23.995,11.903 C24.002,12.009 23.999,12.110 23.974,12.210 ZM19.208,2.000 L4.792,2.000 L2.203,11.577 L5.000,13.235 L5.000,10.000 C5.000,9.448 5.448,9.000 6.000,9.000 C6.552,9.000 7.000,9.448 7.000,10.000 L7.000,22.000 L17.000,22.000 L17.000,10.000 C17.000,9.448 17.448,9.000 18.000,9.000 C18.552,9.000 19.000,9.448 19.000,10.000 L19.000,13.235 L21.797,11.577 L19.208,2.000 Z" class="cls-1"/>
</svg>
