<svg xmlns="http://www.w3.org/2000/svg" xmlns:xlink="http://www.w3.org/1999/xlink" preserveAspectRatio="xMidYMid" width="24" height="24" viewBox="0 0 25 25">
  <defs>
    <style>
      .cls-1 {
        fill: #444;
        fill-rule: evenodd;
      }
    </style>
  </defs>
  <path d="M23.950,10.367 L19.707,14.610 C19.317,15.000 18.683,15.000 18.293,14.610 C17.902,14.219 17.902,13.586 18.293,13.196 L21.828,9.660 L18.293,6.124 C17.902,5.734 17.902,5.101 18.293,4.710 C18.683,4.320 19.317,4.320 19.707,4.710 L23.950,8.953 C24.340,9.343 24.340,9.977 23.950,10.367 ZM7.869,18.820 C7.593,19.299 6.981,19.462 6.503,19.186 C6.025,18.910 5.861,18.298 6.137,17.820 L16.137,0.500 C16.413,0.021 17.025,-0.142 17.503,0.134 C17.981,0.410 18.145,1.022 17.869,1.500 L7.869,18.820 ZM5.719,14.373 C5.344,14.746 4.736,14.746 4.361,14.373 L0.288,10.321 C-0.087,9.948 -0.087,9.343 0.288,8.970 L4.361,4.917 C4.736,4.544 5.344,4.544 5.719,4.917 C6.094,5.290 6.094,5.895 5.719,6.268 L2.325,9.645 L5.719,13.022 C6.094,13.395 6.094,14.000 5.719,14.373 Z" transform="translate(0.38 2.84)" class="cls-1"/>
</svg>
