<svg xmlns="http://www.w3.org/2000/svg" xmlns:xlink="http://www.w3.org/1999/xlink" preserveAspectRatio="xMidYMid" width="24" height="17" viewBox="0 0 24 17">
  <defs>
    <style>
      .cls-1 {
        fill: #444;
        fill-rule: evenodd;
      }
    </style>
  </defs>
  <path d="M20.000,10.000 C19.142,10.000 18.352,9.725 17.701,9.265 C17.049,11.774 15.339,13.843 13.082,15.000 L17.000,15.000 C17.552,15.000 18.000,15.448 18.000,16.000 C18.000,16.552 17.552,17.000 17.000,17.000 L1.000,17.000 C0.448,17.000 0.000,16.552 0.000,16.000 C0.000,15.448 0.448,15.000 1.000,15.000 L4.889,15.000 C1.988,13.506 0.000,10.488 0.000,7.000 L0.000,-0.000 L18.000,-0.000 L18.000,2.555 C18.590,2.211 19.268,2.000 20.000,2.000 C22.209,2.000 24.000,3.791 24.000,6.000 C24.000,8.209 22.209,10.000 20.000,10.000 ZM16.000,2.000 L2.000,2.000 L2.000,7.000 C2.000,10.860 5.140,14.000 9.000,14.000 C12.860,14.000 16.000,10.860 16.000,7.000 L16.000,2.000 ZM20.000,4.000 C18.896,4.000 18.000,4.895 18.000,6.000 C18.000,7.105 18.896,8.000 20.000,8.000 C21.105,8.000 22.000,7.105 22.000,6.000 C22.000,4.895 21.105,4.000 20.000,4.000 Z" class="cls-1"/>
</svg>
