<svg xmlns="http://www.w3.org/2000/svg" xmlns:xlink="http://www.w3.org/1999/xlink" preserveAspectRatio="xMidYMid" width="24" height="24" viewBox="0 0 24 24">
  <defs>
    <style>
      .cls-1 {
        fill: #444;
        fill-rule: evenodd;
      }
    </style>
  </defs>
  <path d="M24.005,0.957 C24.006,0.968 24.012,0.977 24.012,0.989 C24.012,1.000 24.006,1.010 24.005,1.021 C24.006,1.137 23.984,1.251 23.936,1.364 C23.933,1.371 23.931,1.378 23.928,1.385 C23.917,1.410 23.915,1.436 23.901,1.460 L15.888,15.489 C15.883,15.498 15.873,15.503 15.868,15.512 C15.845,15.547 15.813,15.576 15.784,15.606 C15.768,15.625 15.762,15.648 15.744,15.666 C15.728,15.682 15.706,15.688 15.689,15.702 C15.659,15.732 15.630,15.762 15.595,15.785 C15.585,15.791 15.580,15.802 15.569,15.807 L1.494,23.870 C1.471,23.883 1.445,23.885 1.421,23.896 C1.400,23.905 1.378,23.911 1.356,23.919 C1.274,23.948 1.191,23.966 1.106,23.969 C1.073,23.972 1.045,23.988 1.012,23.988 C0.534,23.988 0.153,23.646 0.054,23.197 C0.044,23.164 0.039,23.131 0.033,23.096 C0.029,23.059 0.012,23.027 0.012,22.988 C0.012,22.965 0.024,22.945 0.025,22.921 C0.028,22.840 0.047,22.762 0.074,22.682 C0.087,22.641 0.097,22.601 0.115,22.563 C0.122,22.548 0.122,22.531 0.131,22.516 L8.152,8.504 C8.161,8.487 8.177,8.478 8.188,8.463 C8.220,8.413 8.262,8.372 8.305,8.330 C8.307,8.329 8.307,8.326 8.309,8.324 C8.310,8.324 8.311,8.323 8.312,8.322 C8.316,8.319 8.319,8.314 8.323,8.310 C8.360,8.275 8.394,8.240 8.436,8.212 C8.454,8.200 8.465,8.180 8.485,8.169 L22.555,0.098 C22.568,0.091 22.582,0.092 22.595,0.085 C22.627,0.071 22.660,0.064 22.693,0.053 C22.782,0.021 22.869,0.001 22.960,-0.001 C22.978,-0.002 22.993,-0.012 23.012,-0.012 C23.044,-0.012 23.071,0.004 23.102,0.006 C23.153,0.014 23.201,0.021 23.250,0.036 C23.613,0.128 23.885,0.407 23.968,0.773 C23.987,0.834 24.000,0.894 24.005,0.957 ZM3.268,20.733 L13.474,14.886 L9.087,10.568 L3.268,20.733 ZM10.569,9.095 L14.960,13.416 L20.770,3.244 L10.569,9.095 Z" class="cls-1"/>
</svg>
