<svg xmlns="http://www.w3.org/2000/svg" xmlns:xlink="http://www.w3.org/1999/xlink" preserveAspectRatio="xMidYMid" width="24" height="24" viewBox="0 0 24 24">
  <defs>
    <style>
      .cls-1 {
        fill: #444;
        fill-rule: evenodd;
      }
    </style>
  </defs>
  <path d="M23.713,16.691 L16.727,23.677 C16.628,23.784 16.510,23.870 16.373,23.925 C16.012,24.076 15.580,24.007 15.287,23.713 C15.087,23.514 14.994,23.251 15.000,22.989 L15.000,1.000 C15.000,0.448 15.448,0.000 16.000,0.000 C16.552,0.000 17.000,0.448 17.000,1.000 L17.000,20.596 L22.309,15.287 C22.697,14.899 23.326,14.899 23.713,15.287 C24.101,15.674 24.101,16.303 23.713,16.691 ZM8.000,24.000 C7.448,24.000 7.000,23.552 7.000,23.000 L7.000,3.405 L1.691,8.713 C1.303,9.101 0.674,9.101 0.287,8.713 C-0.101,8.325 -0.101,7.697 0.287,7.309 L7.273,0.323 C7.372,0.216 7.490,0.130 7.627,0.075 C7.988,-0.076 8.419,-0.007 8.713,0.287 C8.913,0.486 9.006,0.749 9.000,1.011 L9.000,23.000 C9.000,23.552 8.552,24.000 8.000,24.000 Z" class="cls-1"/>
</svg>
