<svg xmlns="http://www.w3.org/2000/svg" xmlns:xlink="http://www.w3.org/1999/xlink" preserveAspectRatio="xMidYMid" width="24" height="24" viewBox="0 0 24 24">
  <defs>
    <style>
      .cls-1 {
        fill: #444;
        fill-rule: evenodd;
      }
    </style>
  </defs>
  <path d="M18.000,19.000 L16.000,19.000 L16.000,22.000 C16.000,23.105 15.104,24.000 14.000,24.000 L2.000,24.000 C0.895,24.000 -0.000,23.105 -0.000,22.000 L-0.000,6.000 C-0.000,4.895 0.895,4.000 2.000,4.000 L5.000,4.000 L5.000,2.000 C5.000,0.895 5.895,0.000 7.000,0.000 L15.988,0.000 C16.268,-0.012 16.551,0.082 16.765,0.296 L19.704,3.234 C19.918,3.448 20.012,3.732 20.000,4.012 L20.000,17.000 C20.000,18.104 19.104,19.000 18.000,19.000 ZM11.000,9.000 L14.000,9.000 L14.000,8.469 L11.531,6.000 L11.000,6.000 L11.000,9.000 ZM8.000,2.000 C7.448,2.000 7.000,2.448 7.000,3.000 L7.000,4.000 L11.988,4.000 C12.268,3.988 12.551,4.082 12.765,4.296 L13.000,4.531 L13.000,2.000 L8.000,2.000 ZM18.000,4.469 L15.531,2.000 L15.000,2.000 L15.000,5.000 L18.000,5.000 L18.000,4.469 ZM18.000,7.000 L15.469,7.000 L15.704,7.235 C15.918,7.449 16.012,7.732 16.000,8.012 L16.000,17.000 L17.000,17.000 C17.552,17.000 18.000,16.552 18.000,16.000 L18.000,7.000 Z" transform="translate(2)" class="cls-1"/>
</svg>
