<?xml version="1.0" standalone="no"?><!DOCTYPE svg PUBLIC "-//W3C//DTD SVG 1.1//EN" "http://www.w3.org/Graphics/SVG/1.1/DTD/svg11.dtd"><svg class="icon" width="24px" height="24.00px" viewBox="0 0 1024 1024" version="1.1" xmlns="http://www.w3.org/2000/svg"><path fill="#666666" d="M511.597034 1023.488043C229.09079 1023.488043 0.043051 794.482301 0.043051 511.934061 0.043051 370.702937 57.294237 242.813691 149.885451 150.223477l0.042996 0.042997 0.127989-0.169986a43.610333 43.610333 0 0 1 61.641817 0l329.015332 329.312308a43.610333 43.610333 0 0 1-61.642816 61.641816L181.090827 242.771695A424.462306 424.462306 0 0 0 85.301882 511.933061c0 235.443201 190.852951 426.295152 426.295152 426.295152s426.295152-190.851951 426.295152-426.294152c0-221.035413-168.257851-402.765131-383.665737-424.164332v125.756425a42.629415 42.629415 0 1 1-85.25883 0V43.009493A42.629415 42.629415 0 0 1 511.597034 0.380078h31.972311c1.875842 0 9.123233-0.852928 10.657104 0 265.198699 19.012401 468.925567 241.538689 468.925567 511.553983 0 282.54824-229.048739 511.553983-511.554982 511.553982z" /></svg>