<svg xmlns="http://www.w3.org/2000/svg" xmlns:xlink="http://www.w3.org/1999/xlink" preserveAspectRatio="xMidYMid" width="24" height="24" viewBox="0 0 24 24">
  <defs>
    <style>
      .cls-1 {
        fill: #444;
        fill-rule: evenodd;
      }
    </style>
  </defs>
  <path d="M12.000,18.000 C5.159,18.000 0.000,15.421 0.000,12.000 C0.000,11.155 0.317,10.363 0.894,9.647 C1.263,10.172 1.742,10.663 2.308,11.116 C2.114,11.410 2.000,11.708 2.000,12.000 C2.000,13.888 6.276,16.000 12.000,16.000 C17.724,16.000 22.000,13.888 22.000,12.000 C22.000,11.708 21.886,11.410 21.692,11.116 C22.258,10.663 22.737,10.172 23.106,9.647 C23.683,10.363 24.000,11.155 24.000,12.000 C24.000,15.421 18.841,18.000 12.000,18.000 ZM12.000,12.000 C5.159,12.000 0.000,9.421 0.000,6.000 C0.000,2.580 5.159,0.000 12.000,0.000 C18.841,0.000 24.000,2.580 24.000,6.000 C24.000,9.421 18.841,12.000 12.000,12.000 ZM12.000,2.000 C6.276,2.000 2.000,4.112 2.000,6.000 C2.000,7.888 6.276,10.000 12.000,10.000 C17.724,10.000 22.000,7.888 22.000,6.000 C22.000,4.112 17.724,2.000 12.000,2.000 ZM2.308,17.116 C2.114,17.410 2.000,17.708 2.000,18.000 C2.000,19.888 6.276,22.000 12.000,22.000 C17.724,22.000 22.000,19.888 22.000,18.000 C22.000,17.708 21.886,17.410 21.692,17.116 C22.258,16.663 22.737,16.172 23.106,15.647 C23.683,16.363 24.000,17.155 24.000,18.000 C24.000,21.420 18.841,24.000 12.000,24.000 C5.159,24.000 0.000,21.420 0.000,18.000 C0.000,17.155 0.317,16.363 0.894,15.647 C1.263,16.172 1.742,16.663 2.308,17.116 Z" class="cls-1"/>
</svg>
