<svg xmlns="http://www.w3.org/2000/svg" xmlns:xlink="http://www.w3.org/1999/xlink" preserveAspectRatio="xMidYMid" width="24" height="24" viewBox="0 0 24 24">
  <defs>
    <style>
      .cls-1 {
        fill: #444;
        fill-rule: evenodd;
      }
    </style>
  </defs>
  <path d="M12.000,24.000 C5.373,24.000 -0.000,18.628 -0.000,12.000 C-0.000,5.373 5.373,0.000 12.000,0.000 C18.627,0.000 24.000,5.373 24.000,12.000 C24.000,18.628 18.627,24.000 12.000,24.000 ZM12.000,2.000 C6.477,2.000 2.000,6.477 2.000,12.000 C2.000,17.523 6.477,22.000 12.000,22.000 C17.523,22.000 22.000,17.523 22.000,12.000 C22.000,6.477 17.523,2.000 12.000,2.000 ZM14.000,20.000 L11.000,20.000 C10.448,20.000 10.000,19.552 10.000,19.000 L10.000,15.000 C9.448,15.000 9.000,14.552 9.000,14.000 L9.000,11.000 C9.000,10.448 9.448,10.000 10.000,10.000 L13.000,10.000 L14.000,10.000 C14.276,10.000 14.526,10.112 14.707,10.293 C14.888,10.474 15.000,10.724 15.000,11.000 L15.000,12.000 L15.000,19.000 C15.000,19.552 14.552,20.000 14.000,20.000 ZM13.000,13.000 L13.000,12.500 L13.000,12.000 L12.500,12.000 L12.000,12.000 L11.500,12.000 C11.224,12.000 11.000,12.224 11.000,12.500 C11.000,12.776 11.224,13.000 11.500,13.000 L12.000,13.000 L12.000,17.500 C12.000,17.776 12.224,18.000 12.500,18.000 C12.776,18.000 13.000,17.776 13.000,17.500 L13.000,13.000 ZM12.500,9.000 C11.119,9.000 10.000,7.881 10.000,6.500 C10.000,5.119 11.119,4.000 12.500,4.000 C13.881,4.000 15.000,5.119 15.000,6.500 C15.000,7.881 13.881,9.000 12.500,9.000 ZM12.500,6.000 C12.224,6.000 12.000,6.224 12.000,6.500 C12.000,6.776 12.224,7.000 12.500,7.000 C12.776,7.000 13.000,6.776 13.000,6.500 C13.000,6.224 12.776,6.000 12.500,6.000 Z" class="cls-1"/>
</svg>
