<svg xmlns="http://www.w3.org/2000/svg" xmlns:xlink="http://www.w3.org/1999/xlink" preserveAspectRatio="xMidYMid" width="24" height="24" viewBox="0 0 24 24">
  <defs>
    <style>
      .cls-1 {
        fill: #444;
        fill-rule: evenodd;
      }
    </style>
  </defs>
  <path d="M5.000,8.000 C2.791,8.000 1.000,6.209 1.000,4.000 C1.000,1.791 2.791,0.000 5.000,0.000 C7.209,0.000 9.000,1.791 9.000,4.000 C9.000,6.209 7.209,8.000 5.000,8.000 ZM5.000,2.000 C3.895,2.000 3.000,2.895 3.000,4.000 C3.000,5.105 3.895,6.000 5.000,6.000 C6.105,6.000 7.000,5.105 7.000,4.000 C7.000,2.895 6.105,2.000 5.000,2.000 ZM7.000,10.000 C7.552,10.000 8.000,10.448 8.000,11.000 L8.000,23.000 C8.000,23.552 7.552,24.000 7.000,24.000 L3.000,24.000 C2.448,24.000 2.000,23.552 2.000,23.000 L2.000,16.000 L1.000,16.000 C0.448,16.000 -0.000,15.552 -0.000,15.000 L-0.000,11.000 C-0.000,10.448 0.448,10.000 1.000,10.000 L5.000,10.000 L7.000,10.000 ZM2.000,12.000 L2.000,14.000 L4.000,14.000 L4.000,16.000 L4.000,16.000 L4.000,22.000 L6.000,22.000 L6.000,12.000 L5.000,12.000 L2.000,12.000 Z" transform="translate(7.5)" class="cls-1"/>
</svg>
