<svg xmlns="http://www.w3.org/2000/svg" xmlns:xlink="http://www.w3.org/1999/xlink" preserveAspectRatio="xMidYMid" width="24" height="24" viewBox="0 0 24 24">
  <defs>
    <style>
      .cls-1 {
        fill: #444;
        fill-rule: evenodd;
      }
    </style>
  </defs>
  <path d="M23.959,15.201 C23.946,15.264 23.946,15.331 23.921,15.389 C23.920,15.393 23.917,15.394 23.916,15.398 C23.762,15.752 23.410,16.000 23.000,16.000 L12.445,16.000 L6.767,21.678 C6.661,21.784 6.537,21.860 6.405,21.911 C6.281,21.966 6.145,22.000 6.000,22.000 C5.571,22.000 5.212,21.727 5.070,21.348 C5.003,21.190 4.986,21.022 5.000,20.854 L5.000,16.000 L1.000,16.000 C0.448,16.000 0.000,15.552 0.000,15.000 L0.000,1.000 C0.000,0.448 0.448,-0.000 1.000,-0.000 L23.000,-0.000 C23.552,-0.000 24.000,0.448 24.000,1.000 L24.000,15.000 L24.000,15.000 L24.000,15.000 C24.000,15.071 23.974,15.134 23.959,15.201 ZM10.000,8.000 C10.000,6.896 10.896,6.000 12.000,6.000 C13.105,6.000 14.000,6.896 14.000,8.000 C14.000,9.105 13.105,10.000 12.000,10.000 C10.896,10.000 10.000,9.105 10.000,8.000 ZM18.000,6.000 C19.105,6.000 20.000,6.896 20.000,8.000 C20.000,9.105 19.105,10.000 18.000,10.000 C16.895,10.000 16.000,9.105 16.000,8.000 C16.000,6.896 16.895,6.000 18.000,6.000 ZM6.000,10.000 C4.895,10.000 4.000,9.105 4.000,8.000 C4.000,6.896 4.895,6.000 6.000,6.000 C7.105,6.000 8.000,6.896 8.000,8.000 C8.000,9.105 7.105,10.000 6.000,10.000 Z" transform="translate(0 1)" class="cls-1"/>
</svg>
