<svg xmlns="http://www.w3.org/2000/svg" xmlns:xlink="http://www.w3.org/1999/xlink" preserveAspectRatio="xMidYMid" width="24" height="24" viewBox="0 0 24 24">
  <defs>
    <style>
      .cls-1 {
        fill: #444;
        fill-rule: evenodd;
      }
    </style>
  </defs>
  <path d="M20.000,-0.000 L23.620,5.232 C23.830,5.401 23.953,5.633 23.978,5.889 C23.982,5.909 23.988,5.929 23.990,5.949 C23.991,5.967 24.000,5.982 24.000,6.000 C24.000,6.019 23.994,6.036 23.989,6.053 C23.986,6.102 23.972,6.147 23.961,6.195 C23.952,6.250 23.947,6.306 23.928,6.359 C23.916,6.388 23.900,6.413 23.886,6.441 C23.881,6.452 23.872,6.461 23.866,6.471 C23.866,6.471 23.866,6.471 23.866,6.472 L12.926,21.419 C12.862,21.556 12.769,21.667 12.649,21.754 C12.617,21.782 12.586,21.807 12.551,21.830 C12.542,21.835 12.536,21.844 12.527,21.848 C12.517,21.855 12.511,21.866 12.500,21.872 C12.471,21.889 12.438,21.889 12.409,21.902 C12.400,21.905 12.391,21.908 12.383,21.911 C12.175,21.997 11.950,22.010 11.727,21.947 C11.710,21.942 11.692,21.944 11.675,21.938 C11.659,21.934 11.648,21.921 11.633,21.916 C11.589,21.899 11.542,21.896 11.500,21.872 C11.467,21.853 11.448,21.822 11.418,21.801 C11.343,21.752 11.280,21.699 11.223,21.632 C11.207,21.612 11.195,21.592 11.181,21.572 C11.136,21.508 11.078,21.455 11.049,21.380 L0.134,6.472 C0.134,6.471 0.134,6.471 0.134,6.471 C0.128,6.461 0.119,6.452 0.114,6.441 C0.100,6.413 0.084,6.388 0.073,6.359 C0.053,6.306 0.048,6.250 0.039,6.195 C0.028,6.147 0.014,6.102 0.011,6.053 C0.006,6.036 0.000,6.019 0.000,6.000 C0.000,5.982 0.009,5.967 0.010,5.949 C0.012,5.929 0.018,5.909 0.023,5.889 C0.048,5.633 0.170,5.401 0.380,5.232 L4.000,-0.000 L20.000,-0.000 ZM12.000,17.162 L15.298,7.000 L8.702,7.000 L12.000,17.162 ZM5.286,2.190 L3.065,5.000 L6.048,5.000 L5.286,2.190 ZM2.842,7.000 L9.305,15.012 L6.591,7.000 L2.842,7.000 ZM7.347,2.000 L8.160,5.000 L15.840,5.000 L16.654,2.000 L7.347,2.000 ZM14.695,15.012 L21.158,7.000 L17.410,7.000 L14.695,15.012 ZM18.714,2.190 L17.952,5.000 L20.935,5.000 L18.714,2.190 Z" transform="translate(0 1.01)" class="cls-1"/>
</svg>
