<svg xmlns="http://www.w3.org/2000/svg" xmlns:xlink="http://www.w3.org/1999/xlink" preserveAspectRatio="xMidYMid" width="24" height="24" viewBox="0 0 24 24">
  <defs>
    <style>
      .cls-1 {
        fill: #444;
        fill-rule: evenodd;
      }
    </style>
  </defs>
  <path d="M12.000,24.000 C5.373,24.000 0.000,18.627 0.000,12.000 C0.000,5.373 5.373,-0.000 12.000,-0.000 C18.627,-0.000 24.000,5.373 24.000,12.000 C24.000,18.627 18.627,24.000 12.000,24.000 ZM12.000,2.000 C6.477,2.000 2.000,6.477 2.000,12.000 C2.000,17.523 6.477,22.000 12.000,22.000 C17.523,22.000 22.000,17.523 22.000,12.000 C22.000,6.477 17.523,2.000 12.000,2.000 ZM12.000,20.000 C12.000,20.000 12.000,20.000 12.000,20.000 C12.000,20.000 12.000,20.000 12.000,20.000 C12.000,20.000 12.000,20.000 12.000,20.000 L12.000,20.000 C11.448,20.000 11.000,19.552 11.000,19.000 C11.000,18.448 11.448,18.000 12.000,18.000 C12.000,18.000 12.000,18.000 12.000,18.000 C15.314,18.000 18.000,15.314 18.000,12.000 C18.000,11.448 18.448,11.000 19.000,11.000 C19.552,11.000 20.000,11.448 20.000,12.000 C20.000,16.418 16.418,20.000 12.000,20.000 ZM12.000,16.000 C9.791,16.000 8.000,14.209 8.000,12.000 C8.000,9.791 9.791,8.000 12.000,8.000 C14.209,8.000 16.000,9.791 16.000,12.000 C16.000,14.209 14.209,16.000 12.000,16.000 ZM12.000,10.000 C10.895,10.000 10.000,10.895 10.000,12.000 C10.000,13.105 10.895,14.000 12.000,14.000 C13.105,14.000 14.000,13.105 14.000,12.000 C14.000,10.895 13.105,10.000 12.000,10.000 ZM12.000,6.000 C12.000,6.000 12.000,6.000 12.000,6.000 L12.000,6.000 C8.686,6.000 6.000,8.686 6.000,12.000 C6.000,12.552 5.552,13.000 5.000,13.000 C4.448,13.000 4.000,12.552 4.000,12.000 L4.000,12.000 C4.000,7.582 7.582,4.000 12.000,4.000 L12.000,4.000 C12.000,4.000 12.000,4.000 12.000,4.000 C12.552,4.000 13.000,4.448 13.000,5.000 C13.000,5.552 12.552,6.000 12.000,6.000 Z" class="cls-1"/>
</svg>
