<svg xmlns="http://www.w3.org/2000/svg" xmlns:xlink="http://www.w3.org/1999/xlink" preserveAspectRatio="xMidYMid" width="24" height="24" viewBox="0 0 24 24">
  <defs>
    <style>
      .cls-1 {
        fill: #444;
        fill-rule: evenodd;
      }
    </style>
  </defs>
  <path d="M22.000,16.000 L16.000,16.000 L16.000,20.000 L19.000,20.000 C19.552,20.000 20.000,20.448 20.000,21.000 C20.000,21.552 19.552,22.000 19.000,22.000 L5.000,22.000 C4.448,22.000 4.000,21.552 4.000,21.000 C4.000,20.448 4.448,20.000 5.000,20.000 L8.000,20.000 L8.000,16.000 L2.000,16.000 C0.895,16.000 -0.000,15.105 -0.000,14.000 L-0.000,2.000 C-0.000,0.895 0.895,-0.000 2.000,-0.000 L22.000,-0.000 C23.105,-0.000 24.000,0.895 24.000,2.000 L24.000,14.000 C24.000,15.105 23.105,16.000 22.000,16.000 ZM10.000,20.000 L14.000,20.000 L14.000,16.000 L10.000,16.000 L10.000,20.000 ZM22.000,3.000 C22.000,2.448 21.552,2.000 21.000,2.000 L3.000,2.000 C2.448,2.000 2.000,2.448 2.000,3.000 L2.000,13.000 C2.000,13.552 2.448,14.000 3.000,14.000 L21.000,14.000 C21.552,14.000 22.000,13.552 22.000,13.000 L22.000,3.000 Z" transform="translate(0 1)" class="cls-1"/>
</svg>
