<svg xmlns="http://www.w3.org/2000/svg" xmlns:xlink="http://www.w3.org/1999/xlink" preserveAspectRatio="xMidYMid" width="24" height="24" viewBox="0 0 24 24">
  <defs>
    <style>
      .cls-1 {
        fill: #444;
        fill-rule: evenodd;
      }
    </style>
  </defs>
  <path d="M24.000,13.000 C24.000,14.105 23.105,15.000 22.000,15.000 C20.895,15.000 20.000,14.105 20.000,13.000 C20.000,12.241 20.428,11.589 21.050,11.250 C21.029,11.168 21.000,11.089 21.000,11.000 L21.000,8.178 L17.994,9.968 C17.994,9.979 18.000,9.989 18.000,10.000 L18.000,16.000 C18.000,16.156 17.957,16.299 17.894,16.431 C18.119,16.838 17.966,17.461 17.414,17.871 C13.634,20.681 9.366,20.681 5.586,17.871 C5.034,17.461 4.881,16.838 5.106,16.431 C5.043,16.299 5.000,16.156 5.000,16.000 L5.000,10.555 L0.476,7.851 C0.473,7.849 0.472,7.846 0.469,7.845 C0.377,7.787 0.299,7.713 0.228,7.624 C0.211,7.604 0.192,7.586 0.177,7.564 C0.160,7.540 0.136,7.526 0.122,7.500 C0.091,7.446 0.086,7.387 0.066,7.330 C0.049,7.284 0.031,7.240 0.021,7.192 C0.008,7.125 0.007,7.060 0.008,6.993 C0.007,6.923 0.008,6.856 0.022,6.786 C0.031,6.743 0.047,6.705 0.062,6.663 C0.082,6.602 0.089,6.538 0.121,6.480 C0.137,6.451 0.164,6.434 0.183,6.408 C0.190,6.398 0.199,6.390 0.206,6.380 C0.294,6.262 0.400,6.172 0.523,6.106 L10.298,0.286 C10.467,0.117 10.680,0.024 10.909,0.011 C10.919,0.009 10.928,0.010 10.938,0.009 C11.012,0.007 11.083,0.009 11.156,0.024 C11.349,0.049 11.527,0.126 11.675,0.262 L21.515,6.143 C21.660,6.060 21.820,6.000 22.000,6.000 C22.552,6.000 23.000,6.448 23.000,7.000 L23.000,11.000 C23.000,11.089 22.971,11.168 22.950,11.250 C23.572,11.589 24.000,12.241 24.000,13.000 ZM16.075,16.371 C16.029,16.256 16.000,16.132 16.000,16.000 L16.000,11.155 L11.702,13.714 C11.533,13.883 11.321,13.975 11.091,13.989 C11.081,13.991 11.072,13.990 11.062,13.991 C10.988,13.993 10.917,13.991 10.844,13.976 C10.651,13.951 10.473,13.874 10.325,13.738 L7.000,11.751 L7.000,16.000 C7.000,16.132 6.971,16.256 6.925,16.371 C9.912,18.533 13.088,18.533 16.075,16.371 ZM11.001,2.178 L2.916,6.991 L10.999,11.823 L19.084,7.009 L11.001,2.178 ZM22.000,12.000 C21.448,12.000 21.000,12.448 21.000,13.000 C21.000,13.552 21.448,14.000 22.000,14.000 C22.552,14.000 23.000,13.552 23.000,13.000 C23.000,12.448 22.552,12.000 22.000,12.000 Z" transform="translate(0 2)" class="cls-1"/>
</svg>
