<svg xmlns="http://www.w3.org/2000/svg" xmlns:xlink="http://www.w3.org/1999/xlink" preserveAspectRatio="xMidYMid" width="24" height="24" viewBox="0 0 24 24">
  <defs>
    <style>
      .cls-1 {
        fill: #444;
        fill-rule: evenodd;
      }
    </style>
  </defs>
  <path d="M23.000,24.000 C23.552,24.000 24.000,23.552 24.000,23.000 L24.000,18.000 C24.000,17.635 23.795,17.329 23.503,17.155 L20.886,14.541 C21.587,13.176 22.000,11.640 22.000,10.000 C22.000,4.477 17.523,0.000 12.000,0.000 C6.477,0.000 2.000,4.477 2.000,10.000 C2.000,10.706 2.085,11.391 2.228,12.055 C1.717,12.172 1.230,12.422 0.832,12.820 C-0.295,13.947 -0.295,15.775 0.832,16.903 L8.000,24.000 L23.000,24.000 ZM12.000,2.000 C7.582,2.000 4.000,5.582 4.000,10.000 C4.000,10.836 4.129,11.642 4.367,12.400 C4.561,12.518 4.748,12.652 4.915,12.820 L11.096,18.000 L15.000,18.000 C15.000,18.000 15.000,17.732 15.000,17.000 C15.000,14.822 16.743,13.059 18.909,13.009 C18.927,13.008 18.944,13.003 18.963,13.004 C18.975,13.004 18.987,13.000 19.000,13.000 L19.000,13.011 C19.125,13.018 19.248,13.053 19.364,13.107 C19.769,12.151 20.000,11.104 20.000,10.000 C20.000,5.582 16.418,2.000 12.000,2.000 ZM19.000,20.000 L19.000,18.000 C17.895,18.000 17.000,18.104 17.000,17.000 C17.000,16.006 17.728,15.187 18.679,15.032 L22.000,18.350 L22.000,22.000 L9.000,22.000 C8.897,22.000 8.803,22.030 8.710,22.058 L2.193,15.542 C1.817,15.166 1.817,14.556 2.193,14.181 C2.569,13.805 3.178,13.805 3.554,14.181 L10.359,19.986 C10.359,19.986 18.772,20.000 19.000,20.000 ZM14.000,11.000 C14.552,11.000 15.000,11.448 15.000,12.000 C15.000,12.552 14.552,13.000 14.000,13.000 L13.000,13.000 L13.000,14.000 C13.000,14.552 12.552,15.000 12.000,15.000 C11.448,15.000 11.000,14.552 11.000,14.000 L11.000,13.000 L10.000,13.000 C9.448,13.000 9.000,12.552 9.000,12.000 C9.000,11.448 9.448,11.000 10.000,11.000 L11.000,11.000 L11.000,10.000 L10.000,10.000 C9.448,10.000 9.000,9.552 9.000,9.000 C9.000,8.448 9.448,8.000 10.000,8.000 L11.000,8.000 C11.000,7.818 11.062,7.657 11.147,7.510 L9.288,5.651 C8.909,5.273 8.909,4.659 9.288,4.280 C9.666,3.901 10.280,3.901 10.659,4.280 L12.000,5.621 L13.341,4.280 C13.720,3.901 14.334,3.901 14.712,4.280 C15.091,4.659 15.091,5.273 14.712,5.651 L12.853,7.511 C12.938,7.657 13.000,7.818 13.000,8.000 L14.000,8.000 C14.552,8.000 15.000,8.448 15.000,9.000 C15.000,9.552 14.552,10.000 14.000,10.000 L13.000,10.000 L13.000,11.000 L14.000,11.000 Z" class="cls-1"/>
</svg>
