<svg xmlns="http://www.w3.org/2000/svg" xmlns:xlink="http://www.w3.org/1999/xlink" preserveAspectRatio="xMidYMid" width="24" height="24.03" viewBox="0 0 24 24.03">
  <defs>
    <style>
      .cls-1 {
        fill: #444;
        fill-rule: evenodd;
      }
    </style>
  </defs>
  <path d="M24.000,12.000 C24.000,14.761 21.761,17.000 19.000,17.000 L15.000,17.000 L15.000,15.000 L19.000,15.000 C20.657,15.000 22.000,13.657 22.000,12.000 C22.000,10.343 20.657,9.000 19.000,9.000 C18.448,9.000 18.000,8.552 18.000,8.000 L18.000,7.000 C18.000,6.990 18.006,6.981 18.006,6.971 C17.988,4.228 15.761,2.010 13.011,2.011 C10.250,2.011 8.011,4.248 8.010,7.007 L6.011,7.007 C6.011,7.005 6.011,7.002 6.011,7.000 L6.000,7.000 C3.791,7.000 2.000,8.791 2.000,11.000 C2.000,13.209 3.791,15.000 6.000,15.000 L11.000,15.000 L11.000,17.000 L6.000,17.000 C2.686,17.000 0.000,14.314 0.000,11.000 C0.000,7.686 2.686,5.000 6.000,5.000 L6.307,5.000 C7.172,2.117 9.845,0.013 13.012,0.012 C16.877,0.012 20.010,3.142 20.009,7.004 L20.000,7.004 L20.000,7.108 C22.281,7.571 24.000,9.582 24.000,12.000 ZM10.800,19.304 L12.000,20.498 L12.000,9.000 C12.000,8.448 12.448,8.000 13.000,8.000 C13.552,8.000 14.000,8.448 14.000,9.000 L14.000,20.530 L15.233,19.304 C15.641,18.899 16.303,18.899 16.711,19.304 C17.119,19.710 17.119,20.368 16.711,20.774 L13.755,23.712 C13.347,24.118 12.685,24.118 12.278,23.712 L9.322,20.774 C8.914,20.368 8.914,19.710 9.322,19.304 C9.730,18.899 10.392,18.899 10.800,19.304 Z" class="cls-1"/>
</svg>
