<svg xmlns="http://www.w3.org/2000/svg" xmlns:xlink="http://www.w3.org/1999/xlink" preserveAspectRatio="xMidYMid" width="24" height="24" viewBox="0 0 24 24">
  <defs>
    <style>
      .cls-1 {
        fill: #444;
        fill-rule: evenodd;
      }
    </style>
  </defs>
  <path d="M22.000,24.000 L2.000,24.000 C0.895,24.000 -0.000,23.104 -0.000,22.000 L-0.000,16.000 C-0.000,15.448 0.448,15.000 1.000,15.000 C1.552,15.000 2.000,15.448 2.000,16.000 L2.000,21.000 C2.000,21.552 2.448,22.000 3.000,22.000 L21.000,22.000 C21.552,22.000 22.000,21.552 22.000,21.000 L22.000,16.000 C22.000,15.448 22.448,15.000 23.000,15.000 C23.552,15.000 24.000,15.448 24.000,16.000 L24.000,22.000 C24.000,23.104 23.105,24.000 22.000,24.000 ZM12.879,17.535 C12.852,17.562 12.815,17.566 12.787,17.589 C12.604,17.832 12.327,18.000 12.000,18.000 C11.673,18.000 11.396,17.832 11.213,17.589 C11.184,17.566 11.148,17.562 11.121,17.535 L5.464,11.879 C5.074,11.488 5.074,10.855 5.464,10.464 C5.855,10.074 6.488,10.074 6.879,10.464 L11.000,14.586 L11.000,1.000 C11.000,0.448 11.448,-0.000 12.000,-0.000 C12.552,-0.000 13.000,0.448 13.000,1.000 L13.000,14.586 L17.121,10.464 C17.512,10.074 18.145,10.074 18.536,10.464 C18.926,10.855 18.926,11.488 18.536,11.879 L12.879,17.535 Z" class="cls-1"/>
</svg>
