<svg xmlns="http://www.w3.org/2000/svg" xmlns:xlink="http://www.w3.org/1999/xlink" preserveAspectRatio="xMidYMid" width="24" height="24.03" viewBox="0 0 24 24.03">
  <defs>
    <style>
      .cls-1 {
        fill: #444;
        fill-rule: evenodd;
      }
    </style>
  </defs>
  <path d="M23.707,6.715 C23.526,6.896 23.276,7.007 23.000,7.007 L20.845,7.007 L18.003,23.195 C17.905,23.748 17.380,24.117 16.829,24.020 C16.818,24.018 16.810,24.010 16.798,24.008 L7.000,24.008 C6.962,24.008 6.930,23.990 6.893,23.986 C6.863,23.982 6.834,23.986 6.805,23.979 C6.774,23.973 6.746,23.961 6.717,23.950 C6.717,23.950 6.717,23.950 6.717,23.950 C6.667,23.935 6.618,23.925 6.571,23.902 C6.553,23.897 6.534,23.894 6.517,23.884 C6.500,23.875 6.491,23.858 6.475,23.848 C6.454,23.835 6.440,23.815 6.420,23.801 C6.420,23.801 6.420,23.801 6.420,23.801 C6.358,23.755 6.300,23.709 6.249,23.650 C6.249,23.650 6.249,23.650 6.249,23.650 C6.232,23.633 6.214,23.618 6.200,23.599 C6.181,23.574 6.174,23.541 6.158,23.514 C6.158,23.514 6.158,23.514 6.158,23.514 C6.121,23.454 6.088,23.394 6.064,23.326 L6.064,23.326 C6.059,23.311 6.049,23.300 6.044,23.285 C6.041,23.277 6.037,23.270 6.035,23.262 C6.025,23.228 6.004,23.202 5.997,23.166 L3.150,7.007 L1.000,7.007 C0.724,7.007 0.474,6.896 0.293,6.715 C0.112,6.534 -0.000,6.284 -0.000,6.008 C-0.000,5.731 0.112,5.481 0.293,5.300 C0.474,5.119 0.724,5.008 1.000,5.008 L16.421,5.008 L19.070,0.502 C19.266,0.169 19.627,0.000 19.993,0.009 C19.996,0.009 19.998,0.007 20.000,0.007 L20.013,0.007 C20.046,0.009 20.077,0.003 20.110,0.007 L22.000,0.007 C22.552,0.007 23.000,0.455 23.000,1.007 C23.000,1.560 22.552,2.007 22.000,2.007 L20.574,2.007 L18.810,5.008 L19.764,5.008 C19.894,4.977 20.031,4.971 20.171,4.996 C20.182,4.997 20.190,5.005 20.201,5.008 L23.000,5.008 C23.276,5.008 23.526,5.119 23.707,5.300 C23.888,5.481 24.000,5.731 24.000,6.008 C24.000,6.284 23.888,6.534 23.707,6.715 ZM5.207,7.007 L7.521,20.145 L15.245,7.007 L5.207,7.007 ZM17.634,7.007 L8.815,22.008 L16.155,22.008 L18.789,7.007 L17.634,7.007 Z" class="cls-1"/>
</svg>
