<svg xmlns="http://www.w3.org/2000/svg" xmlns:xlink="http://www.w3.org/1999/xlink" preserveAspectRatio="xMidYMid" width="24" height="24" viewBox="0 0 24 24">
  <defs>
    <style>
      .cls-1 {
        fill: #444;
        fill-rule: evenodd;
      }
    </style>
  </defs>
  <path d="M14.000,11.000 L14.000,20.000 C14.000,20.552 13.552,21.000 13.000,21.000 L9.808,21.000 C9.633,21.480 9.352,21.909 8.976,22.241 C8.855,23.231 8.022,24.000 7.000,24.000 C5.978,24.000 5.145,23.231 5.024,22.241 C4.648,21.909 4.367,21.480 4.192,21.000 L1.000,21.000 C0.448,21.000 0.000,20.552 0.000,20.000 L0.000,11.000 C0.000,8.791 1.791,7.000 4.000,7.000 L7.000,7.000 L10.000,7.000 C12.209,7.000 14.000,8.791 14.000,11.000 ZM6.000,20.000 C6.000,20.089 6.029,20.168 6.050,20.250 C6.334,20.096 6.654,20.000 7.000,20.000 C7.346,20.000 7.666,20.096 7.950,20.250 C7.971,20.168 8.000,20.089 8.000,20.000 L8.000,18.000 C8.000,17.448 7.552,17.000 7.000,17.000 C6.448,17.000 6.000,17.448 6.000,18.000 L6.000,20.000 ZM4.000,9.000 C2.895,9.000 2.000,9.895 2.000,11.000 L2.000,19.000 L4.000,19.000 L4.000,18.000 C4.000,16.343 5.343,15.000 7.000,15.000 C8.657,15.000 10.000,16.343 10.000,18.000 L10.000,19.000 L12.000,19.000 L12.000,11.000 C12.000,9.895 11.105,9.000 10.000,9.000 L4.000,9.000 ZM4.000,4.000 L1.000,4.000 C0.448,4.000 0.000,3.552 0.000,3.000 C0.000,2.448 0.448,2.000 1.000,2.000 L4.184,2.000 C4.597,0.837 5.696,0.000 7.000,0.000 C8.304,0.000 9.403,0.837 9.816,2.000 L13.000,2.000 C13.552,2.000 14.000,2.448 14.000,3.000 C14.000,3.552 13.552,4.000 13.000,4.000 L10.000,4.000 C10.000,5.657 8.657,7.000 7.000,7.000 C5.343,7.000 4.000,5.657 4.000,4.000 ZM6.000,4.000 C6.000,4.552 6.448,5.000 7.000,5.000 C7.552,5.000 8.000,4.552 8.000,4.000 L8.000,3.000 C8.000,2.448 7.552,2.000 7.000,2.000 C6.448,2.000 6.000,2.448 6.000,3.000 L6.000,4.000 Z" transform="translate(5)" class="cls-1"/>
</svg>
