<svg xmlns="http://www.w3.org/2000/svg" xmlns:xlink="http://www.w3.org/1999/xlink" preserveAspectRatio="xMidYMid" width="24" height="24" viewBox="0 0 24 24">
  <defs>
    <style>
      .cls-1 {
        fill: #444;
        fill-rule: evenodd;
      }
    </style>
  </defs>
  <path d="M22.000,20.000 L2.000,20.000 C0.895,20.000 -0.000,19.105 -0.000,18.000 L-0.000,2.000 C-0.000,0.896 0.895,-0.000 2.000,-0.000 L22.000,-0.000 C23.105,-0.000 24.000,0.896 24.000,2.000 L24.000,18.000 C24.000,19.105 23.105,20.000 22.000,20.000 ZM3.000,18.000 L21.000,18.000 C21.552,18.000 22.000,17.552 22.000,17.000 L22.000,3.383 L12.707,12.676 C12.317,13.067 11.683,13.067 11.293,12.676 L2.000,3.383 L2.000,17.000 C2.000,17.552 2.448,18.000 3.000,18.000 ZM20.555,2.000 L3.445,2.000 L12.000,10.555 L20.555,2.000 Z" transform="translate(0 2)" class="cls-1"/>
</svg>
