<svg xmlns="http://www.w3.org/2000/svg" xmlns:xlink="http://www.w3.org/1999/xlink" preserveAspectRatio="xMidYMid" width="24" height="24" viewBox="0 0 24 24">
  <defs>
    <style>
      .cls-1 {
        fill: #444;
        fill-rule: evenodd;
      }
    </style>
  </defs>
  <path d="M22.334,0.294 L12.003,10.625 L1.666,0.264 C1.592,0.190 1.504,0.142 1.415,0.097 C1.601,0.040 1.795,-0.000 2.000,-0.000 L22.000,-0.000 C22.217,-0.000 22.421,0.043 22.617,0.107 C22.516,0.154 22.417,0.211 22.334,0.294 ZM11.286,12.723 C11.483,12.920 11.742,13.011 12.000,13.004 C12.258,13.011 12.517,12.919 12.714,12.722 C12.754,12.682 12.773,12.630 12.805,12.585 L23.715,1.675 C23.796,1.594 23.852,1.498 23.898,1.400 C23.959,1.590 24.000,1.789 24.000,2.000 L24.000,18.000 C24.000,19.105 23.105,20.000 22.000,20.000 L2.000,20.000 C0.895,20.000 -0.000,19.105 -0.000,18.000 L-0.000,2.000 C-0.000,1.782 0.043,1.577 0.108,1.381 C0.154,1.476 0.206,1.569 0.285,1.648 L11.191,12.580 C11.224,12.628 11.244,12.681 11.286,12.723 Z" transform="translate(0 2)" class="cls-1"/>
</svg>
