<svg xmlns="http://www.w3.org/2000/svg" xmlns:xlink="http://www.w3.org/1999/xlink" preserveAspectRatio="xMidYMid" width="23.97" height="23.97" viewBox="0 0 23.97 23.97">
  <defs>
    <style>
      .cls-1 {
        fill: #444;
        fill-rule: evenodd;
      }
    </style>
  </defs>
  <path d="M22.970,8.001 L22.967,8.001 C22.416,8.001 21.969,7.554 21.969,7.003 L21.969,3.350 L15.617,9.702 C15.245,10.074 14.641,10.074 14.268,9.702 C13.896,9.329 13.896,8.725 14.268,8.353 L20.620,2.001 L16.967,2.001 C16.416,2.001 15.969,1.554 15.969,1.003 L15.969,1.000 C15.969,0.448 16.416,0.001 16.967,0.001 L22.920,0.001 C23.202,-0.034 23.495,0.041 23.712,0.258 C23.929,0.475 24.004,0.767 23.969,1.050 L23.969,7.003 C23.969,7.554 23.522,8.001 22.970,8.001 ZM3.376,21.939 L7.003,21.939 C7.554,21.939 8.000,22.385 8.000,22.936 L8.000,22.942 C8.000,23.492 7.554,23.939 7.003,23.939 L1.155,23.939 C1.102,23.947 1.055,23.970 1.000,23.970 C0.891,23.970 0.792,23.940 0.694,23.908 C0.678,23.904 0.662,23.904 0.646,23.899 C0.563,23.867 0.492,23.816 0.421,23.764 C0.378,23.734 0.326,23.722 0.287,23.683 C0.198,23.594 0.138,23.489 0.092,23.380 C0.082,23.356 0.077,23.331 0.068,23.307 C0.044,23.234 0.029,23.161 0.023,23.086 C0.019,23.046 -0.000,23.011 -0.000,22.970 L-0.000,16.970 C-0.000,16.418 0.448,15.970 1.000,15.970 C1.552,15.970 2.000,16.418 2.000,16.970 L2.000,20.625 L8.357,14.269 C8.728,13.897 9.330,13.897 9.701,14.269 C10.073,14.640 10.073,15.242 9.701,15.613 L3.376,21.939 Z" class="cls-1"/>
</svg>
