<svg xmlns="http://www.w3.org/2000/svg" xmlns:xlink="http://www.w3.org/1999/xlink" preserveAspectRatio="xMidYMid" width="24" height="24" viewBox="0 0 24 24">
  <defs>
    <style>
      .cls-1 {
        fill: #444;
        fill-rule: evenodd;
      }
    </style>
  </defs>
  <path d="M21.785,15.626 C21.785,16.161 21.350,16.596 20.815,16.596 L17.906,16.596 C17.621,16.596 17.372,16.468 17.194,16.273 C16.841,16.119 16.593,15.768 16.593,15.358 L16.593,12.358 C16.593,11.806 17.040,11.358 17.593,11.358 C18.048,11.358 18.416,11.668 18.537,12.084 C19.283,9.403 18.641,6.421 16.532,4.312 C13.899,1.679 9.899,1.293 6.832,3.098 L5.360,1.626 C9.243,-0.946 14.525,-0.523 17.946,2.898 C21.133,6.085 21.684,10.875 19.668,14.656 L20.815,14.656 C21.350,14.656 21.785,15.090 21.785,15.626 ZM4.534,8.808 C3.989,8.782 3.526,8.319 3.500,7.773 L3.465,7.043 C2.327,9.915 2.894,13.302 5.218,15.626 C7.851,18.259 11.851,18.645 14.918,16.840 L16.390,18.312 C12.507,20.884 7.225,20.461 3.804,17.040 C0.662,13.898 0.080,9.200 1.993,5.444 L1.052,5.399 C0.490,5.372 0.012,4.895 -0.014,4.333 C-0.041,3.770 0.393,3.336 0.955,3.363 L4.010,3.508 C4.428,3.528 4.797,3.798 4.971,4.165 C5.178,4.355 5.320,4.616 5.334,4.905 L5.475,7.867 C5.501,8.413 5.080,8.834 4.534,8.808 Z" transform="translate(1.11 2.02)" class="cls-1"/>
</svg>
