<svg xmlns="http://www.w3.org/2000/svg" xmlns:xlink="http://www.w3.org/1999/xlink" preserveAspectRatio="xMidYMid" width="24" height="24" viewBox="0 0 24 24">
  <defs>
    <style>
      .cls-1 {
        fill: #444;
        fill-rule: evenodd;
      }
    </style>
  </defs>
  <path d="M22.970,8.021 C22.418,8.021 21.971,7.574 21.971,7.022 L21.971,3.378 L15.617,9.732 C15.245,10.104 14.641,10.104 14.268,9.732 C13.896,9.359 13.896,8.755 14.268,8.383 L20.622,2.029 L16.978,2.029 C16.426,2.029 15.979,1.581 15.979,1.030 C15.979,0.478 16.426,0.031 16.978,0.031 L22.920,0.031 C23.203,-0.004 23.495,0.071 23.712,0.288 C23.929,0.504 24.004,0.797 23.969,1.080 L23.969,7.022 C23.969,7.574 23.522,8.021 22.970,8.021 ZM3.374,21.971 L6.993,21.971 C7.543,21.971 7.990,22.418 7.990,22.968 L7.990,22.972 C7.990,23.523 7.543,23.969 6.993,23.969 L1.154,23.969 C1.102,23.977 1.055,24.000 1.000,24.000 C0.891,24.000 0.792,23.970 0.694,23.938 C0.678,23.934 0.662,23.934 0.646,23.928 C0.563,23.897 0.493,23.846 0.422,23.794 C0.378,23.764 0.326,23.753 0.287,23.713 C0.198,23.624 0.138,23.519 0.092,23.410 C0.082,23.386 0.077,23.361 0.068,23.336 C0.044,23.264 0.029,23.192 0.023,23.116 C0.019,23.076 -0.000,23.041 -0.000,23.000 L-0.000,17.000 C-0.000,16.448 0.448,16.000 1.000,16.000 C1.552,16.000 2.000,16.448 2.000,17.000 L2.000,20.655 L8.357,14.299 C8.728,13.927 9.330,13.927 9.701,14.299 C10.073,14.670 10.073,15.272 9.701,15.643 L3.374,21.971 Z" class="cls-1"/>
</svg>
