<svg xmlns="http://www.w3.org/2000/svg" xmlns:xlink="http://www.w3.org/1999/xlink" preserveAspectRatio="xMidYMid" width="23.622" height="24" viewBox="0 0 23.622 24">
  <defs>
    <style>
      .cls-1 {
        fill: #444;
        fill-rule: evenodd;
      }
    </style>
  </defs>
  <path d="M23.540,1.314 C23.542,1.315 23.545,1.316 23.547,1.316 C22.800,2.766 21.801,4.051 20.622,5.133 C20.633,5.151 20.650,5.161 20.660,5.179 L22.679,8.975 C22.958,9.499 22.797,10.167 22.320,10.465 C21.843,10.764 21.230,10.582 20.951,10.057 L19.006,6.401 C18.047,7.040 17.011,7.569 15.904,7.939 L16.792,11.302 C16.935,11.842 16.618,12.398 16.085,12.543 C15.552,12.688 15.004,12.367 14.862,11.826 L13.963,8.426 C13.263,8.543 12.545,8.611 11.812,8.611 C11.078,8.611 10.361,8.543 9.660,8.426 L8.762,11.826 C8.619,12.367 8.071,12.688 7.539,12.543 C7.005,12.398 6.688,11.842 6.831,11.302 L7.720,7.939 C6.612,7.569 5.576,7.040 4.618,6.401 L2.672,10.057 C2.393,10.582 1.781,10.764 1.303,10.465 C0.826,10.167 0.665,9.499 0.944,8.975 L2.964,5.179 C2.974,5.161 2.991,5.151 3.002,5.133 C1.823,4.051 0.823,2.766 0.077,1.316 C0.079,1.315 0.082,1.314 0.084,1.313 C0.031,1.196 -0.001,1.067 -0.001,0.930 C-0.001,0.417 0.415,0.002 0.927,0.002 C1.348,0.002 1.700,0.284 1.813,0.669 C1.815,0.668 1.817,0.668 1.819,0.667 C3.771,4.238 7.548,6.656 11.812,6.656 C16.076,6.656 19.852,4.238 21.805,0.667 C21.809,0.668 21.813,0.670 21.817,0.671 C21.930,0.289 22.280,0.008 22.700,0.008 C23.210,0.008 23.624,0.422 23.624,0.933 C23.624,1.069 23.593,1.198 23.540,1.314 Z" transform="translate(0 5.71)" class="cls-1"/>
</svg>
