<svg xmlns="http://www.w3.org/2000/svg" xmlns:xlink="http://www.w3.org/1999/xlink" preserveAspectRatio="xMidYMid" width="24" height="24" viewBox="0 0 24 24">
  <defs>
    <style>
      .cls-1 {
        fill: #444;
        fill-rule: evenodd;
      }
    </style>
  </defs>
  <path d="M24.009,8.123 C21.872,12.776 17.305,16.000 12.000,16.000 C6.695,16.000 2.128,12.776 -0.009,8.123 C0.010,8.081 0.034,8.042 0.054,8.000 C0.034,7.958 0.010,7.919 -0.009,7.877 C2.128,3.224 6.695,0.000 12.000,0.000 C17.305,0.000 21.872,3.224 24.009,7.877 C23.990,7.919 23.966,7.958 23.946,8.000 C23.966,8.042 23.990,8.081 24.009,8.123 ZM12.000,1.969 C7.733,1.969 4.027,4.405 2.073,8.000 C4.027,11.595 7.733,14.031 12.000,14.031 C16.267,14.031 19.973,11.595 21.927,8.000 C19.973,4.405 16.267,1.969 12.000,1.969 ZM12.000,11.000 C10.343,11.000 9.000,9.657 9.000,8.000 C9.000,6.343 10.343,5.000 12.000,5.000 C13.657,5.000 15.000,6.343 15.000,8.000 C15.000,9.657 13.657,11.000 12.000,11.000 ZM12.000,7.000 C11.448,7.000 11.000,7.448 11.000,8.000 C11.000,8.552 11.448,9.000 12.000,9.000 C12.552,9.000 13.000,8.552 13.000,8.000 C13.000,7.448 12.552,7.000 12.000,7.000 Z" transform="translate(0 4)" class="cls-1"/>
</svg>
