<svg xmlns="http://www.w3.org/2000/svg" xmlns:xlink="http://www.w3.org/1999/xlink" preserveAspectRatio="xMidYMid" width="24" height="24" viewBox="0 0 24 24">
  <defs>
    <style>
      .cls-1 {
        fill: #444;
        fill-rule: evenodd;
      }
    </style>
  </defs>
  <path d="M10.000,17.941 L10.000,20.000 L13.000,20.000 C13.552,20.000 14.000,20.448 14.000,21.000 C14.000,21.552 13.552,22.000 13.000,22.000 L10.000,22.000 L10.000,23.000 C10.000,23.552 9.552,24.000 9.000,24.000 C8.448,24.000 8.000,23.552 8.000,23.000 L8.000,22.000 L5.000,22.000 C4.448,22.000 4.000,21.552 4.000,21.000 C4.000,20.448 4.448,20.000 5.000,20.000 L8.000,20.000 L8.000,17.941 C3.501,17.443 -0.000,13.632 -0.000,9.000 C-0.000,4.029 4.029,0.000 9.000,0.000 C13.971,0.000 18.000,4.029 18.000,9.000 C18.000,13.632 14.499,17.443 10.000,17.941 ZM9.000,2.000 C5.134,2.000 2.000,5.134 2.000,9.000 C2.000,12.866 5.134,16.000 9.000,16.000 C12.866,16.000 16.000,12.866 16.000,9.000 C16.000,5.134 12.866,2.000 9.000,2.000 Z" transform="translate(3)" class="cls-1"/>
</svg>
