<svg xmlns="http://www.w3.org/2000/svg" xmlns:xlink="http://www.w3.org/1999/xlink" preserveAspectRatio="xMidYMid" width="26" height="25.97" viewBox="0 0 26 25.97">
  <defs>
    <style>
      .cls-1 {
        stroke: #444;
        stroke-linecap: round;
        stroke-linejoin: round;
        stroke-width: 2px;
        fill: none;
        fill-rule: evenodd;
      }
    </style>
  </defs>
  <path d="M24.000,14.970 C24.000,14.970 24.014,11.590 24.000,9.970 C23.986,8.272 24.000,7.970 24.000,7.970 C24.000,7.970 21.861,8.728 21.004,9.970 C20.136,11.229 19.958,14.956 19.007,14.970 C17.500,14.992 17.225,12.436 17.010,10.970 C16.549,7.820 17.000,1.973 17.010,1.970 C17.010,1.970 13.208,3.610 12.017,5.970 C10.481,9.015 10.004,12.970 8.023,12.970 C6.071,12.970 6.026,5.970 6.026,5.970 C6.026,5.970 3.989,7.289 3.030,8.970 C1.995,10.784 2.031,12.970 2.031,12.970 C2.031,12.970 1.044,23.970 12.017,23.970 C24.892,23.970 24.000,14.970 24.000,14.970 Z" class="cls-1"/>
</svg>
