<svg xmlns="http://www.w3.org/2000/svg" xmlns:xlink="http://www.w3.org/1999/xlink" preserveAspectRatio="xMidYMid" width="24" height="24" viewBox="0 0 24 24">
  <defs>
    <style>
      .cls-1 {
        fill: #444;
        fill-rule: evenodd;
      }
    </style>
  </defs>
  <path d="M11.011,24.012 C7.493,24.012 4.738,22.949 2.822,20.852 C-0.287,17.450 -0.025,12.549 0.019,11.961 C0.020,11.580 0.074,9.387 1.150,7.499 C2.218,5.626 4.381,4.211 4.473,4.152 C4.780,3.953 5.170,3.939 5.491,4.112 C5.813,4.285 6.015,4.620 6.017,4.986 C6.037,7.779 6.557,10.656 7.110,11.022 C7.655,10.999 8.306,9.179 8.829,7.717 C9.188,6.714 9.596,5.577 10.118,4.542 C11.259,2.279 14.319,0.678 15.305,0.209 C15.410,0.126 15.545,0.082 15.719,0.029 C16.229,-0.122 16.764,0.148 16.946,0.645 C17.001,0.797 17.018,0.954 17.000,1.105 C16.937,1.720 16.583,7.024 16.996,9.853 L17.035,10.119 C17.245,11.583 17.482,12.495 17.743,12.842 C17.891,12.436 18.053,11.777 18.169,11.297 C18.428,10.231 18.696,9.128 19.179,8.428 C20.192,6.960 22.416,6.140 22.666,6.051 C22.979,5.940 23.329,5.991 23.597,6.190 C23.863,6.388 24.015,6.707 24.000,7.039 C23.999,7.072 23.988,7.428 24.001,8.988 C24.014,10.507 24.003,13.569 24.001,13.963 C24.036,14.454 24.159,17.623 21.732,20.305 C19.506,22.765 15.898,24.012 11.011,24.012 ZM4.092,7.017 C3.648,7.442 3.197,7.949 2.888,8.492 C2.008,10.036 2.020,11.966 2.020,11.985 C2.021,12.018 2.019,12.055 2.016,12.087 C2.012,12.132 1.660,16.625 4.308,19.511 C5.829,21.169 8.084,22.010 11.011,22.010 C15.291,22.010 18.392,20.992 20.227,18.985 C22.221,16.804 22.007,14.123 22.005,14.095 C22.002,14.065 22.000,14.029 22.000,13.998 C22.000,13.997 22.014,10.623 22.000,9.005 C21.999,8.852 21.998,8.711 21.997,8.579 C21.535,8.854 21.083,9.194 20.827,9.565 C20.554,9.961 20.310,10.964 20.113,11.771 C19.694,13.495 19.332,14.984 18.019,15.003 C18.006,15.003 17.993,15.003 17.980,15.003 C15.713,15.003 15.301,12.126 15.054,10.403 L15.017,10.143 C14.816,8.772 14.753,6.800 14.830,4.281 C14.849,3.668 14.864,3.149 14.881,2.708 C13.757,3.385 12.445,4.370 11.904,5.444 C11.438,6.369 11.070,7.397 10.714,8.392 C9.865,10.762 9.064,13.001 7.015,13.001 C4.973,13.001 4.294,9.822 4.092,7.017 Z" class="cls-1"/>
</svg>
