<svg xmlns="http://www.w3.org/2000/svg" xmlns:xlink="http://www.w3.org/1999/xlink" preserveAspectRatio="xMidYMid" width="24" height="24" viewBox="0 0 24 24">
  <defs>
    <style>
      .cls-1 {
        fill: #444;
        fill-rule: evenodd;
      }
    </style>
  </defs>
  <path d="M15.993,9.188 C15.979,9.257 15.954,9.318 15.927,9.382 C15.910,9.421 15.909,9.463 15.887,9.500 C15.876,9.518 15.858,9.528 15.846,9.545 C15.809,9.601 15.762,9.646 15.713,9.694 C15.665,9.742 15.618,9.790 15.562,9.826 C15.544,9.838 15.535,9.856 15.516,9.866 L2.000,17.578 L2.000,23.000 C2.000,23.552 1.552,24.000 1.000,24.000 C0.448,24.000 0.000,23.552 0.000,23.000 L0.000,17.167 C-0.015,17.082 -0.008,16.999 0.000,16.915 L0.000,1.085 C-0.018,0.888 0.005,0.685 0.113,0.500 C0.156,0.427 0.219,0.375 0.277,0.317 C0.287,0.306 0.295,0.294 0.306,0.284 C0.380,0.216 0.460,0.164 0.548,0.121 C0.584,0.103 0.616,0.084 0.653,0.070 C0.729,0.043 0.805,0.032 0.885,0.023 C0.924,0.019 0.959,0.000 1.000,0.000 C1.020,0.000 1.037,0.010 1.057,0.011 C1.118,0.015 1.175,0.032 1.235,0.048 C1.310,0.066 1.381,0.084 1.448,0.118 C1.463,0.126 1.480,0.125 1.496,0.134 L15.516,8.134 C15.534,8.144 15.544,8.162 15.562,8.174 C15.618,8.210 15.665,8.258 15.714,8.306 C15.762,8.354 15.809,8.399 15.846,8.455 C15.858,8.472 15.876,8.482 15.887,8.500 C15.909,8.537 15.910,8.579 15.927,8.618 C15.954,8.682 15.979,8.743 15.993,8.812 C16.005,8.875 16.006,8.936 16.006,9.000 C16.006,9.064 16.005,9.125 15.993,9.188 Z" transform="translate(4)" class="cls-1"/>
</svg>
