<svg xmlns="http://www.w3.org/2000/svg" xmlns:xlink="http://www.w3.org/1999/xlink" preserveAspectRatio="xMidYMid" width="24" height="24" viewBox="0 0 24 24">
  <defs>
    <style>
      .cls-1 {
        fill: #444;
        fill-rule: evenodd;
      }
    </style>
  </defs>
  <path d="M20.075,10.098 C19.927,10.184 19.772,10.247 19.616,10.305 C19.488,9.635 19.287,8.993 19.020,8.385 C19.038,8.376 19.058,8.376 19.075,8.366 C19.554,8.090 19.717,7.478 19.441,7.000 C19.165,6.522 18.554,6.358 18.075,6.634 C18.056,6.645 18.045,6.665 18.026,6.677 C17.627,6.135 17.172,5.638 16.663,5.198 C16.792,5.092 16.926,4.988 17.075,4.902 C18.510,4.074 20.345,4.565 21.173,6.000 C22.002,7.435 21.510,9.270 20.075,10.098 ZM14.155,14.000 C13.797,14.636 13.825,15.387 14.154,15.983 L12.453,17.005 C12.118,16.407 11.498,16.000 10.781,16.000 C10.064,16.000 9.445,16.406 9.110,17.004 L7.409,15.981 C7.737,15.385 7.765,14.636 7.407,14.000 C7.059,13.381 6.437,13.031 5.789,13.006 L5.789,10.994 C6.437,10.969 7.059,10.619 7.407,10.000 C7.763,9.367 7.737,8.622 7.414,8.027 L9.115,7.005 C9.449,7.595 10.062,7.996 10.772,7.999 L7.786,9.991 L7.786,13.989 L10.782,15.988 L13.778,13.989 L13.778,9.991 L10.792,7.999 C11.502,7.995 12.114,7.593 12.448,7.003 L14.149,8.025 C13.825,8.620 13.799,9.367 14.155,10.000 C14.504,10.620 15.127,10.970 15.777,10.993 L15.777,13.007 C15.127,13.030 14.504,13.380 14.155,14.000 ZM11.770,3.057 C11.771,3.037 11.781,3.020 11.781,3.000 C11.781,2.448 11.333,2.000 10.781,2.000 C10.229,2.000 9.781,2.448 9.781,3.000 C9.781,3.020 9.791,3.037 9.793,3.057 C9.112,3.131 8.458,3.287 7.832,3.504 C7.804,3.340 7.781,3.173 7.781,3.000 C7.781,1.343 9.124,0.000 10.781,0.000 C12.438,0.000 13.781,1.343 13.781,3.000 C13.781,3.173 13.758,3.340 13.730,3.504 C13.104,3.287 12.450,3.131 11.770,3.057 ZM3.536,6.677 C3.517,6.665 3.506,6.645 3.487,6.634 C3.009,6.358 2.397,6.522 2.121,7.000 C1.845,7.478 2.008,8.090 2.487,8.366 C2.504,8.376 2.524,8.376 2.542,8.385 C2.275,8.993 2.074,9.635 1.946,10.305 C1.790,10.247 1.635,10.184 1.487,10.098 C0.052,9.270 -0.440,7.435 0.389,6.000 C1.217,4.565 3.052,4.074 4.487,4.902 C4.637,4.988 4.770,5.092 4.899,5.198 C4.390,5.638 3.935,6.135 3.536,6.677 ZM1.487,13.902 C1.635,13.816 1.790,13.753 1.946,13.695 C2.074,14.365 2.275,15.007 2.542,15.615 C2.524,15.624 2.504,15.624 2.487,15.634 C2.008,15.910 1.845,16.522 2.121,17.000 C2.397,17.478 3.009,17.642 3.487,17.366 C3.506,17.355 3.517,17.335 3.536,17.323 C3.935,17.865 4.390,18.362 4.899,18.802 C4.770,18.908 4.637,19.012 4.487,19.098 C3.052,19.926 1.217,19.435 0.389,18.000 C-0.440,16.565 0.052,14.730 1.487,13.902 ZM9.793,20.943 C9.791,20.963 9.781,20.980 9.781,21.000 C9.781,21.552 10.229,22.000 10.781,22.000 C11.333,22.000 11.781,21.552 11.781,21.000 C11.781,20.980 11.771,20.963 11.769,20.943 C12.450,20.869 13.104,20.713 13.730,20.496 C13.758,20.660 13.781,20.827 13.781,21.000 C13.781,22.657 12.438,24.000 10.781,24.000 C9.124,24.000 7.781,22.657 7.781,21.000 C7.781,20.827 7.804,20.660 7.832,20.496 C8.458,20.713 9.112,20.869 9.793,20.943 ZM18.026,17.323 C18.045,17.335 18.056,17.355 18.075,17.366 C18.554,17.642 19.165,17.478 19.441,17.000 C19.717,16.522 19.554,15.910 19.075,15.634 C19.058,15.624 19.038,15.624 19.020,15.615 C19.287,15.007 19.488,14.365 19.616,13.695 C19.772,13.753 19.927,13.816 20.075,13.902 C21.510,14.730 22.002,16.565 21.173,18.000 C20.345,19.435 18.510,19.926 17.075,19.098 C16.926,19.012 16.792,18.908 16.664,18.802 C17.172,18.362 17.627,17.865 18.026,17.323 Z" transform="translate(1.22)" class="cls-1"/>
</svg>
