<svg xmlns="http://www.w3.org/2000/svg" xmlns:xlink="http://www.w3.org/1999/xlink" preserveAspectRatio="xMidYMid" width="24" height="24" viewBox="0 0 24 24">
  <defs>
    <style>
      .cls-1 {
        fill: #444;
        fill-rule: evenodd;
      }
    </style>
  </defs>
  <path d="M23.923,21.380 C23.922,21.383 23.923,21.386 23.921,21.389 C23.885,21.476 23.824,21.548 23.766,21.621 C23.744,21.648 23.732,21.683 23.707,21.707 C23.526,21.888 23.276,22.000 23.000,22.000 C23.000,22.000 23.000,22.000 23.000,22.000 L23.000,22.000 L1.000,22.000 C0.448,22.000 0.000,21.552 0.000,21.000 L0.000,1.000 C0.000,0.448 0.448,-0.000 1.000,-0.000 L9.988,-0.000 C10.268,-0.012 10.552,0.082 10.765,0.296 L13.469,3.000 L23.000,3.000 C23.000,3.000 23.000,3.000 23.000,3.000 C23.414,3.000 23.770,3.252 23.921,3.611 C23.930,3.632 23.928,3.658 23.935,3.679 C23.970,3.781 24.000,3.886 24.000,4.000 L24.000,21.000 C24.000,21.135 23.972,21.262 23.923,21.380 ZM2.000,20.000 L22.000,20.000 L22.000,9.000 L2.000,9.000 L2.000,20.000 ZM13.012,5.000 C12.732,5.011 12.449,4.918 12.235,4.704 L9.531,2.000 L2.000,2.000 L2.000,7.000 L22.000,7.000 L22.000,5.000 L13.012,5.000 Z" transform="translate(0 1)" class="cls-1"/>
</svg>
