<svg xmlns="http://www.w3.org/2000/svg" xmlns:xlink="http://www.w3.org/1999/xlink" preserveAspectRatio="xMidYMid" width="24" height="23.88" viewBox="0 0 24 23.88">
  <defs>
    <style>
      .cls-1 {
        fill: #444;
        fill-rule: evenodd;
      }
    </style>
  </defs>
  <path d="M21.887,22.194 C21.208,23.281 19.950,23.876 18.340,23.876 C18.274,23.876 18.208,23.875 18.142,23.868 C15.950,23.588 15.245,21.932 14.679,20.600 C14.103,19.249 13.649,18.180 11.971,17.812 C9.606,17.469 7.761,16.239 6.845,14.360 C5.940,12.500 6.090,10.280 7.258,8.271 C8.445,6.438 10.274,5.329 12.435,5.105 C14.558,4.890 16.816,5.574 18.055,6.817 C19.685,8.454 19.959,10.353 20.224,12.188 C20.421,13.551 20.625,14.959 21.372,16.412 C22.913,19.405 22.503,21.209 21.887,22.194 ZM19.567,17.328 C18.666,15.577 18.428,13.929 18.218,12.475 C17.970,10.756 17.774,9.398 16.614,8.234 C16.005,7.623 14.701,7.077 13.240,7.077 C13.044,7.077 12.845,7.087 12.645,7.107 C11.558,7.221 10.041,7.695 8.988,9.320 C8.186,10.700 8.061,12.233 8.670,13.483 C9.284,14.742 10.585,15.577 12.337,15.833 C15.108,16.439 15.939,18.391 16.546,19.816 C17.088,21.090 17.396,21.720 18.344,21.863 C18.981,21.862 19.791,21.731 20.165,21.132 C20.639,20.373 20.421,18.987 19.567,17.328 ZM17.000,4.000 C16.448,4.000 16.000,3.552 16.000,3.000 C16.000,2.448 16.448,2.000 17.000,2.000 C17.552,2.000 18.000,2.448 18.000,3.000 C18.000,3.552 17.552,4.000 17.000,4.000 ZM12.500,3.000 C11.672,3.000 11.000,2.328 11.000,1.500 C11.000,0.672 11.672,0.000 12.500,0.000 C13.328,0.000 14.000,0.672 14.000,1.500 C14.000,2.328 13.328,3.000 12.500,3.000 ZM7.000,4.000 C5.895,4.000 5.000,3.105 5.000,2.000 C5.000,0.895 5.895,0.000 7.000,0.000 C8.105,0.000 9.000,0.895 9.000,2.000 C9.000,3.105 8.105,4.000 7.000,4.000 ZM2.500,9.000 C1.119,9.000 0.000,7.881 0.000,6.500 C0.000,5.119 1.119,4.000 2.500,4.000 C3.881,4.000 5.000,5.119 5.000,6.500 C5.000,7.881 3.881,9.000 2.500,9.000 ZM2.500,6.000 C2.224,6.000 2.000,6.224 2.000,6.500 C2.000,6.776 2.224,7.000 2.500,7.000 C2.776,7.000 3.000,6.776 3.000,6.500 C3.000,6.224 2.776,6.000 2.500,6.000 Z" transform="translate(0.78)" class="cls-1"/>
</svg>
