<svg xmlns="http://www.w3.org/2000/svg" xmlns:xlink="http://www.w3.org/1999/xlink" preserveAspectRatio="xMidYMid" width="24" height="24" viewBox="0 0 24 24">
  <defs>
    <style>
      .cls-1 {
        fill: #444;
        fill-rule: evenodd;
      }
    </style>
  </defs>
  <path d="M18.000,24.000 L2.000,24.000 C0.895,24.000 -0.000,23.105 -0.000,22.000 L-0.000,3.000 C-0.000,1.895 0.895,1.000 2.000,1.000 L6.277,1.000 C6.624,0.405 7.262,0.000 8.000,0.000 L12.000,0.000 C12.738,0.000 13.376,0.405 13.723,1.000 L18.000,1.000 C19.105,1.000 20.000,1.895 20.000,3.000 L20.000,22.000 C20.000,23.105 19.105,24.000 18.000,24.000 ZM18.000,4.000 C18.000,3.448 17.552,3.000 17.000,3.000 L13.723,3.000 C13.376,3.595 12.738,4.000 12.000,4.000 L8.000,4.000 C7.262,4.000 6.624,3.595 6.277,3.000 L3.000,3.000 C2.448,3.000 2.000,3.448 2.000,4.000 L2.000,21.000 C2.000,21.552 2.448,22.000 3.000,22.000 L17.000,22.000 C17.552,22.000 18.000,21.552 18.000,21.000 L18.000,4.000 ZM15.000,18.000 L5.000,18.000 C4.448,18.000 4.000,17.552 4.000,17.000 C4.000,16.448 4.448,16.000 5.000,16.000 L15.000,16.000 C15.552,16.000 16.000,16.448 16.000,17.000 C16.000,17.552 15.552,18.000 15.000,18.000 ZM15.000,14.000 L5.000,14.000 C4.448,14.000 4.000,13.552 4.000,13.000 C4.000,12.448 4.448,12.000 5.000,12.000 L15.000,12.000 C15.552,12.000 16.000,12.448 16.000,13.000 C16.000,13.552 15.552,14.000 15.000,14.000 ZM15.000,10.000 L5.000,10.000 C4.448,10.000 4.000,9.552 4.000,9.000 C4.000,8.448 4.448,8.000 5.000,8.000 L15.000,8.000 C15.552,8.000 16.000,8.448 16.000,9.000 C16.000,9.552 15.552,10.000 15.000,10.000 Z" transform="translate(2)" class="cls-1"/>
</svg>
