<svg xmlns="http://www.w3.org/2000/svg" xmlns:xlink="http://www.w3.org/1999/xlink" preserveAspectRatio="xMidYMid" width="24" height="24" viewBox="0 0 24 24">
  <defs>
    <style>
      .cls-1 {
        fill: #444;
        fill-rule: evenodd;
      }
    </style>
  </defs>
  <path d="M18.000,23.000 L2.000,23.000 C0.895,23.000 -0.000,22.105 -0.000,21.000 L-0.000,2.000 C-0.000,0.895 0.895,-0.000 2.000,-0.000 L6.277,-0.000 C6.106,0.295 6.000,0.634 6.000,1.000 C6.000,2.105 6.895,3.000 8.000,3.000 L12.000,3.000 C13.105,3.000 14.000,2.105 14.000,1.000 C14.000,0.634 13.894,0.295 13.723,-0.000 L18.000,-0.000 C19.105,-0.000 20.000,0.895 20.000,2.000 L20.000,21.000 C20.000,22.105 19.105,23.000 18.000,23.000 ZM15.000,7.000 L5.000,7.000 C4.448,7.000 4.000,7.448 4.000,8.000 C4.000,8.552 4.448,9.000 5.000,9.000 L15.000,9.000 C15.552,9.000 16.000,8.552 16.000,8.000 C16.000,7.448 15.552,7.000 15.000,7.000 ZM15.000,11.000 L5.000,11.000 C4.448,11.000 4.000,11.448 4.000,12.000 C4.000,12.552 4.448,13.000 5.000,13.000 L15.000,13.000 C15.552,13.000 16.000,12.552 16.000,12.000 C16.000,11.448 15.552,11.000 15.000,11.000 ZM15.000,15.000 L5.000,15.000 C4.448,15.000 4.000,15.448 4.000,16.000 C4.000,16.552 4.448,17.000 5.000,17.000 L15.000,17.000 C15.552,17.000 16.000,16.552 16.000,16.000 C16.000,15.448 15.552,15.000 15.000,15.000 ZM11.000,2.000 L9.000,2.000 C8.448,2.000 8.000,1.552 8.000,1.000 C8.000,0.448 8.448,-0.000 9.000,-0.000 L11.000,-0.000 C11.552,-0.000 12.000,0.448 12.000,1.000 C12.000,1.552 11.552,2.000 11.000,2.000 Z" transform="translate(2 0.5)" class="cls-1"/>
</svg>
