<svg xmlns="http://www.w3.org/2000/svg" xmlns:xlink="http://www.w3.org/1999/xlink" preserveAspectRatio="xMidYMid" width="24" height="24" viewBox="0 0 24 24">
  <defs>
    <style>
      .cls-1 {
        fill: #444;
        fill-rule: evenodd;
      }
    </style>
  </defs>
  <path d="M23.992,8.000 C23.990,8.037 23.991,8.073 23.985,8.110 C23.969,8.456 23.813,8.789 23.514,8.976 L12.672,15.730 C12.536,15.856 12.363,15.931 12.173,15.965 C12.133,15.974 12.095,15.986 12.055,15.989 C12.036,15.990 12.020,16.000 12.000,16.000 C11.957,16.000 11.921,15.981 11.879,15.976 C11.805,15.967 11.733,15.958 11.662,15.932 C11.602,15.910 11.551,15.877 11.498,15.845 C11.448,15.815 11.399,15.789 11.355,15.749 C11.277,15.682 11.216,15.601 11.162,15.513 C11.152,15.497 11.136,15.488 11.127,15.471 C11.125,15.465 11.125,15.459 11.122,15.454 C11.077,15.368 11.054,15.274 11.036,15.176 C11.025,15.126 11.010,15.079 11.006,15.029 C11.006,15.019 11.000,15.010 11.000,15.000 L11.000,9.919 L1.672,15.730 C1.536,15.856 1.363,15.931 1.173,15.965 C1.133,15.974 1.095,15.986 1.055,15.989 C1.036,15.990 1.020,16.000 1.000,16.000 C0.957,16.000 0.921,15.981 0.879,15.976 C0.805,15.967 0.733,15.958 0.662,15.932 C0.602,15.910 0.551,15.877 0.497,15.845 C0.448,15.815 0.399,15.789 0.355,15.749 C0.277,15.682 0.216,15.601 0.162,15.513 C0.152,15.496 0.136,15.488 0.127,15.471 C0.125,15.465 0.125,15.459 0.122,15.454 C0.077,15.368 0.054,15.274 0.035,15.175 C0.025,15.126 0.010,15.079 0.006,15.029 C0.006,15.019 -0.000,15.011 -0.000,15.000 L-0.000,1.000 C-0.000,0.989 0.006,0.981 0.006,0.970 C0.010,0.921 0.025,0.874 0.035,0.825 C0.054,0.726 0.077,0.632 0.122,0.546 C0.125,0.541 0.125,0.535 0.127,0.529 C0.136,0.513 0.152,0.503 0.162,0.487 C0.216,0.399 0.277,0.319 0.355,0.251 C0.399,0.211 0.449,0.185 0.498,0.155 C0.552,0.122 0.602,0.090 0.662,0.068 C0.733,0.042 0.805,0.032 0.880,0.024 C0.921,0.019 0.957,0.000 1.000,0.000 C1.019,0.000 1.036,0.010 1.055,0.011 C1.095,0.015 1.133,0.026 1.173,0.035 C1.362,0.069 1.534,0.144 1.670,0.268 L11.000,6.081 L11.000,1.000 C11.000,0.989 11.006,0.981 11.006,0.971 C11.010,0.921 11.025,0.873 11.036,0.824 C11.054,0.725 11.077,0.632 11.122,0.546 C11.125,0.541 11.125,0.535 11.127,0.529 C11.137,0.512 11.152,0.503 11.162,0.487 C11.217,0.399 11.277,0.318 11.355,0.251 C11.399,0.211 11.449,0.185 11.498,0.154 C11.552,0.122 11.602,0.090 11.662,0.068 C11.733,0.042 11.805,0.032 11.880,0.024 C11.921,0.019 11.957,0.000 12.000,0.000 C12.019,0.000 12.036,0.010 12.055,0.011 C12.095,0.015 12.133,0.026 12.173,0.035 C12.362,0.069 12.534,0.144 12.670,0.268 L23.514,7.024 C23.813,7.211 23.969,7.544 23.985,7.890 C23.991,7.927 23.990,7.963 23.992,8.000 Z" transform="translate(0 4)" class="cls-1"/>
</svg>
