<svg xmlns="http://www.w3.org/2000/svg" xmlns:xlink="http://www.w3.org/1999/xlink" preserveAspectRatio="xMidYMid" width="24" height="24" viewBox="0 0 24 24">
  <defs>
    <style>
      .cls-1 {
        fill: #444;
        fill-rule: evenodd;
      }
    </style>
  </defs>
  <path d="M22.000,24.000 L15.000,24.000 C13.895,24.000 13.000,23.105 13.000,22.000 L13.000,15.000 C13.000,13.895 13.895,13.000 15.000,13.000 L22.000,13.000 C23.105,13.000 24.000,13.895 24.000,15.000 L24.000,22.000 C24.000,23.105 23.105,24.000 22.000,24.000 ZM22.000,16.000 C22.000,15.448 21.552,15.000 21.000,15.000 L16.000,15.000 C15.448,15.000 15.000,15.448 15.000,16.000 L15.000,21.000 C15.000,21.552 15.448,22.000 16.000,22.000 L21.000,22.000 C21.552,22.000 22.000,21.552 22.000,21.000 L22.000,16.000 ZM22.000,11.000 L15.000,11.000 C13.895,11.000 13.000,10.105 13.000,9.000 L13.000,2.000 C13.000,0.895 13.895,-0.000 15.000,-0.000 L22.000,-0.000 C23.105,-0.000 24.000,0.895 24.000,2.000 L24.000,9.000 C24.000,10.105 23.105,11.000 22.000,11.000 ZM22.000,3.000 C22.000,2.448 21.552,2.000 21.000,2.000 L16.000,2.000 C15.448,2.000 15.000,2.448 15.000,3.000 L15.000,8.000 C15.000,8.552 15.448,9.000 16.000,9.000 L21.000,9.000 C21.552,9.000 22.000,8.552 22.000,8.000 L22.000,3.000 ZM9.000,24.000 L2.000,24.000 C0.895,24.000 0.000,23.105 0.000,22.000 L0.000,15.000 C0.000,13.895 0.895,13.000 2.000,13.000 L9.000,13.000 C10.105,13.000 11.000,13.895 11.000,15.000 L11.000,22.000 C11.000,23.105 10.105,24.000 9.000,24.000 ZM9.000,16.000 C9.000,15.448 8.552,15.000 8.000,15.000 L3.000,15.000 C2.448,15.000 2.000,15.448 2.000,16.000 L2.000,21.000 C2.000,21.552 2.448,22.000 3.000,22.000 L8.000,22.000 C8.552,22.000 9.000,21.552 9.000,21.000 L9.000,16.000 ZM9.000,11.000 L2.000,11.000 C0.895,11.000 0.000,10.105 0.000,9.000 L0.000,2.000 C0.000,0.895 0.895,-0.000 2.000,-0.000 L9.000,-0.000 C10.105,-0.000 11.000,0.895 11.000,2.000 L11.000,9.000 C11.000,10.105 10.105,11.000 9.000,11.000 ZM9.000,3.000 C9.000,2.448 8.552,2.000 8.000,2.000 L3.000,2.000 C2.448,2.000 2.000,2.448 2.000,3.000 L2.000,8.000 C2.000,8.552 2.448,9.000 3.000,9.000 L8.000,9.000 C8.552,9.000 9.000,8.552 9.000,8.000 L9.000,3.000 Z" class="cls-1"/>
</svg>
