<svg xmlns="http://www.w3.org/2000/svg" xmlns:xlink="http://www.w3.org/1999/xlink" preserveAspectRatio="xMidYMid" width="24" height="22" viewBox="0 0 24 22">
  <defs>
    <style>
      .cls-1 {
        fill: #444;
        fill-rule: evenodd;
      }
    </style>
  </defs>
  <path d="M23.000,22.000 C22.857,22.000 22.723,21.968 22.600,21.915 C22.458,21.864 22.323,21.790 22.209,21.676 L16.521,16.000 L7.448,16.000 L1.760,21.676 C1.657,21.778 1.539,21.855 1.412,21.906 C1.286,21.964 1.148,22.000 1.000,22.000 C0.578,22.000 0.221,21.737 0.074,21.367 C-0.004,21.193 -0.022,21.007 -0.000,20.821 L-0.000,1.000 C-0.000,0.448 0.448,-0.000 1.000,-0.000 L23.000,-0.000 C23.552,-0.000 24.000,0.448 24.000,1.000 L24.000,21.000 C24.000,21.552 23.552,22.000 23.000,22.000 ZM2.000,2.000 L2.000,18.491 L6.208,14.292 C6.433,14.067 6.733,13.978 7.026,14.000 L16.942,14.000 C17.236,13.978 17.536,14.067 17.761,14.292 L22.000,18.522 L22.000,2.000 L2.000,2.000 ZM19.000,9.000 L15.000,9.000 C14.448,9.000 14.000,8.552 14.000,8.000 C14.000,7.448 14.448,7.000 15.000,7.000 L19.000,7.000 C19.552,7.000 20.000,7.448 20.000,8.000 C20.000,8.552 19.552,9.000 19.000,9.000 ZM9.000,9.000 L8.000,9.000 L8.000,10.000 C8.000,10.552 7.552,11.000 7.000,11.000 C6.448,11.000 6.000,10.552 6.000,10.000 L6.000,9.000 L5.000,9.000 C4.448,9.000 4.000,8.552 4.000,8.000 C4.000,7.448 4.448,7.000 5.000,7.000 L6.000,7.000 L6.000,6.000 C6.000,5.448 6.448,5.000 7.000,5.000 C7.552,5.000 8.000,5.448 8.000,6.000 L8.000,7.000 L9.000,7.000 C9.552,7.000 10.000,7.448 10.000,8.000 C10.000,8.552 9.552,9.000 9.000,9.000 Z" class="cls-1"/>
</svg>
