<svg xmlns="http://www.w3.org/2000/svg" xmlns:xlink="http://www.w3.org/1999/xlink" preserveAspectRatio="xMidYMid" width="24" height="24" viewBox="0 0 24 24">
  <defs>
    <style>
      .cls-1 {
        fill: #444;
        fill-rule: evenodd;
      }
    </style>
  </defs>
  <path d="M23.904,13.499 L23.829,14.098 L21.018,15.151 C20.936,15.389 20.843,15.623 20.742,15.852 L22.073,18.539 L21.719,19.029 C21.048,19.954 20.251,20.779 19.350,21.478 L18.872,21.849 L16.142,20.605 C15.916,20.714 15.685,20.814 15.452,20.904 L14.493,23.749 L13.895,23.844 C13.187,23.956 12.476,24.007 11.782,23.994 C11.357,23.986 10.923,23.955 10.492,23.900 L9.892,23.825 L8.841,21.013 C8.603,20.930 8.368,20.837 8.139,20.736 L5.454,22.068 L4.964,21.714 C4.039,21.043 3.216,20.245 2.517,19.343 L2.146,18.865 L3.389,16.134 C3.280,15.907 3.181,15.676 3.090,15.443 L0.247,14.484 L0.152,13.885 C0.040,13.177 -0.011,12.466 0.002,11.771 C0.010,11.346 0.041,10.912 0.095,10.480 L0.171,9.880 L2.981,8.828 C3.064,8.590 3.157,8.355 3.258,8.126 L1.926,5.439 L2.281,4.949 C2.951,4.024 3.749,3.200 4.650,2.501 L5.128,2.129 L7.857,3.374 C8.084,3.264 8.314,3.165 8.548,3.074 L9.507,0.229 L10.105,0.134 C11.244,-0.046 12.370,-0.066 13.508,0.078 L14.107,0.153 L15.159,2.966 C15.397,3.048 15.632,3.141 15.860,3.242 L18.546,1.910 L19.036,2.265 C19.960,2.936 20.784,3.733 21.482,4.636 L21.854,5.113 L20.610,7.845 C20.720,8.071 20.819,8.302 20.910,8.535 L23.753,9.495 L23.848,10.094 C23.960,10.801 24.010,11.513 23.998,12.207 C23.990,12.632 23.959,13.067 23.904,13.499 ZM21.949,10.998 L19.336,10.116 L19.180,9.638 C19.038,9.199 18.850,8.766 18.622,8.353 L18.381,7.914 L19.524,5.402 C19.159,4.986 18.761,4.601 18.333,4.249 L15.865,5.474 L15.418,5.245 C15.005,5.037 14.566,4.862 14.112,4.730 L13.631,4.590 L12.664,2.006 C12.125,1.969 11.569,1.978 11.009,2.034 L10.128,4.649 L9.650,4.805 C9.211,4.947 8.779,5.134 8.365,5.363 L7.926,5.604 L5.416,4.461 C5.001,4.826 4.615,5.224 4.264,5.652 L5.488,8.122 L5.260,8.569 C5.051,8.982 4.877,9.422 4.745,9.875 L4.604,10.356 L2.022,11.324 C2.011,11.484 2.004,11.645 2.002,11.808 C1.994,12.193 2.011,12.586 2.051,12.980 L4.664,13.862 L4.819,14.340 C4.962,14.780 5.149,15.212 5.377,15.626 L5.618,16.065 L4.476,18.576 C4.840,18.992 5.239,19.378 5.666,19.730 L8.135,18.505 L8.582,18.733 C8.994,18.942 9.434,19.116 9.887,19.249 L10.368,19.389 L11.335,21.973 C11.877,22.010 12.431,22.001 12.990,21.944 L13.872,19.329 L14.349,19.174 C14.789,19.031 15.221,18.844 15.634,18.616 L16.073,18.375 L18.583,19.518 C18.999,19.153 19.384,18.754 19.736,18.327 L18.512,15.857 L18.740,15.409 C18.948,14.997 19.122,14.557 19.255,14.103 L19.395,13.622 L21.978,12.654 C21.988,12.494 21.995,12.333 21.998,12.171 C22.005,11.785 21.989,11.393 21.949,10.998 ZM12.000,17.000 C9.239,17.000 7.000,14.761 7.000,12.000 C7.000,9.239 9.239,7.000 12.000,7.000 C14.761,7.000 17.000,9.239 17.000,12.000 C17.000,14.761 14.761,17.000 12.000,17.000 ZM12.000,9.000 C10.343,9.000 9.000,10.343 9.000,12.000 C9.000,13.657 10.343,15.000 12.000,15.000 C13.657,15.000 15.000,13.657 15.000,12.000 C15.000,10.343 13.657,9.000 12.000,9.000 Z" class="cls-1"/>
</svg>
