<?xml version="1.0" standalone="no"?><!DOCTYPE svg PUBLIC "-//W3C//DTD SVG 1.1//EN" "http://www.w3.org/Graphics/SVG/1.1/DTD/svg11.dtd"><svg class="icon" width="24px" height="24.00px" viewBox="0 0 1024 1024" version="1.1" xmlns="http://www.w3.org/2000/svg"><path fill="#666666" d="M908.8 593.066667c-4.266667-4.266667-12.8-4.266667-21.333333-8.533334 8.533333-46.933333 8.533333-98.133333 0-145.066666 8.533333-4.266667 12.8-4.266667 21.333333-8.533334 59.733333-34.133333 81.066667-110.933333 46.933333-174.933333-34.133333-59.733333-115.2-81.066667-174.933333-46.933333-4.266667 4.266667-12.8 8.533333-17.066667 12.8-17.066667-17.066667-38.4-29.866667-59.733333-42.666667-21.333333-12.8-42.666667-21.333333-68.266667-29.866667 0-8.533333 4.266667-12.8 4.266667-21.333333 0-72.533333-55.466667-128-128-128s-128 55.466667-128 128c0 8.533333 0 12.8 4.266667 21.333333-46.933333 17.066667-89.6 42.666667-128 72.533334-4.266667-4.266667-8.533333-8.533333-17.066667-12.8-59.733333-34.133333-140.8-12.8-174.933333 46.933333s-12.8 140.8 46.933333 174.933333c4.266667 4.266667 12.8 4.266667 21.333333 8.533334-8.533333 46.933333-8.533333 98.133333 0 145.066666-8.533333 4.266667-12.8 4.266667-21.333333 8.533334-59.733333 34.133333-81.066667 115.2-46.933333 174.933333 34.133333 59.733333 115.2 81.066667 174.933333 46.933333 8.533333-4.266667 12.8-8.533333 17.066667-12.8 17.066667 17.066667 38.4 29.866667 59.733333 42.666667 21.333333 12.8 42.666667 21.333333 68.266667 29.866667 0 8.533333-4.266667 12.8-4.266667 21.333333 0 72.533333 55.466667 128 128 128s128-55.466667 128-128c0-8.533333 0-12.8-4.266667-21.333333 46.933333-17.066667 89.6-42.666667 128-72.533334 4.266667 4.266667 8.533333 8.533333 17.066667 12.8 59.733333 34.133333 140.8 12.8 174.933333-46.933333 34.133333-64 12.8-140.8-46.933333-174.933333z m-247.466667 0s0 4.266667 0 0c-51.2 85.333333-153.6 110.933333-234.666666 64s-106.666667-149.333333-59.733334-230.4c46.933333-81.066667 149.333333-110.933333 230.4-64s110.933333 149.333333 64 230.4z" /></svg>