<?xml version="1.0" standalone="no"?><!DOCTYPE svg PUBLIC "-//W3C//DTD SVG 1.1//EN" "http://www.w3.org/Graphics/SVG/1.1/DTD/svg11.dtd"><svg class="icon" width="24px" height="24.00px" viewBox="0 0 1024 1024" version="1.1" xmlns="http://www.w3.org/2000/svg"><path fill="#666666" d="M384.043 896c0-7.424 1.322-14.421 2.602-21.461a379.563 379.563 0 0 1-66.602-29.995 375.68 375.68 0 0 1-59.264-42.71c-5.462 4.651-10.88 9.302-17.28 13.014a128 128 0 1 1-128-221.696c6.442-3.712 13.269-5.803 20.01-8.192a383.915 383.915 0 0 1-0.213-146.048c-6.656-2.39-13.44-4.395-19.797-8.064a128 128 0 1 1 128-221.696c6.357 3.67 11.477 8.533 16.896 13.141a382.89 382.89 0 0 1 126.549-72.832c-1.28-7.082-2.901-13.994-2.901-21.461a128 128 0 1 1 256 0c0 7.424-1.323 14.464-2.603 21.461a379.563 379.563 0 0 1 66.603 29.995c21.589 12.459 41.173 26.923 59.264 42.71 5.461-4.651 10.88-9.302 17.28-13.014a128 128 0 0 1 128 221.696c-6.443 3.712-13.27 5.803-20.011 8.192a383.915 383.915 0 0 1 0.213 146.048c6.656 2.39 13.44 4.395 19.798 8.064a128 128 0 1 1-128 221.696c-6.358-3.67-11.478-8.533-16.854-13.141a383.488 383.488 0 0 1-126.592 72.832c1.28 7.082 2.902 14.037 2.902 21.461a128 128 0 1 1-256 0zM212.992 733.91l64.768-37.377a294.613 294.613 0 0 0 84.95 74.112c33.962 19.627 70.143 31.36 106.666 36.523V896a42.667 42.667 0 0 0 85.333 0v-21.333 0.938-69.376a298.795 298.795 0 0 0 190.934-110.08l56.533 32.64 2.603 1.494 18.474 10.666a42.667 42.667 0 0 0 42.667-73.898l-18.475-10.667-2.602-1.536-56.534-32.597a298.923 298.923 0 0 0-0.128-220.416l60.203-34.774-0.939 0.555 18.475-10.667a42.667 42.667 0 0 0-42.667-73.898l-9.216 5.333-2.858 1.664-64.854 37.419a294.613 294.613 0 0 0-84.949-74.112 294.613 294.613 0 0 0-106.667-36.523V128a42.667 42.667 0 0 0-85.333 0v21.333-1.194 69.632a298.795 298.795 0 0 0-190.933 110.08l-56.747-32.726-2.39-1.408-18.474-10.666a42.667 42.667 0 0 0-42.667 73.898l18.475 10.667 2.517 1.45 56.619 32.683a298.923 298.923 0 0 0 0.128 220.416l-60.33 34.816 1.066-0.597-18.475 10.667a42.667 42.667 0 1 0 42.667 73.898l9.216-5.333 2.944-1.707z m151.253-307.243A170.667 170.667 0 1 1 659.84 597.29a170.667 170.667 0 0 1-295.595-170.624z m221.696 128a85.333 85.333 0 1 0-147.754-85.334 85.333 85.333 0 0 0 147.754 85.334z" /></svg>