<svg xmlns="http://www.w3.org/2000/svg" xmlns:xlink="http://www.w3.org/1999/xlink" preserveAspectRatio="xMidYMid" width="24" height="24" viewBox="0 0 24 24">
  <defs>
    <style>
      .cls-1 {
        fill: #444;
        fill-rule: evenodd;
      }
    </style>
  </defs>
  <path d="M22.000,16.000 L2.000,16.000 C0.895,16.000 0.000,15.105 0.000,14.000 L0.000,2.000 C0.000,0.895 0.895,-0.000 2.000,-0.000 L22.000,-0.000 C23.105,-0.000 24.000,0.895 24.000,2.000 L24.000,14.000 C24.000,15.105 23.105,16.000 22.000,16.000 ZM22.000,3.000 C22.000,2.448 21.552,2.000 21.000,2.000 L3.000,2.000 C2.448,2.000 2.000,2.448 2.000,3.000 L2.000,13.000 C2.000,13.552 2.448,14.000 3.000,14.000 L21.000,14.000 C21.552,14.000 22.000,13.552 22.000,13.000 L22.000,3.000 ZM19.000,12.000 L13.000,12.000 C12.448,12.000 12.000,11.552 12.000,11.000 C12.000,10.448 12.448,10.000 13.000,10.000 L19.000,10.000 C19.552,10.000 20.000,10.448 20.000,11.000 C20.000,11.552 19.552,12.000 19.000,12.000 ZM19.000,8.000 L13.000,8.000 C12.448,8.000 12.000,7.552 12.000,7.000 C12.000,6.448 12.448,6.000 13.000,6.000 L19.000,6.000 C19.552,6.000 20.000,6.448 20.000,7.000 C20.000,7.552 19.552,8.000 19.000,8.000 ZM7.000,12.000 C5.343,12.000 4.000,10.657 4.000,9.000 C4.000,7.343 5.343,6.000 7.000,6.000 C8.657,6.000 10.000,7.343 10.000,9.000 C10.000,10.657 8.657,12.000 7.000,12.000 ZM7.000,8.000 C6.448,8.000 6.000,8.448 6.000,9.000 C6.000,9.552 6.448,10.000 7.000,10.000 C7.552,10.000 8.000,9.552 8.000,9.000 C8.000,8.448 7.552,8.000 7.000,8.000 Z" transform="translate(0 4)" class="cls-1"/>
</svg>
