<svg xmlns="http://www.w3.org/2000/svg" xmlns:xlink="http://www.w3.org/1999/xlink" preserveAspectRatio="xMidYMid" width="24" height="24" viewBox="0 0 24 24">
  <defs>
    <style>
      .cls-1 {
        fill: #444;
        fill-rule: evenodd;
      }
    </style>
  </defs>
  <path d="M16.000,7.000 C16.000,7.552 15.552,8.000 15.000,8.000 L14.000,8.000 L14.000,7.000 C14.000,6.448 14.448,6.000 15.000,6.000 C15.552,6.000 16.000,6.448 16.000,7.000 ZM22.000,20.000 L13.000,20.000 L13.000,18.000 L13.000,11.534 L15.168,13.702 C15.591,14.125 16.278,14.125 16.702,13.702 C17.125,13.278 17.125,12.591 16.702,12.168 L14.534,10.000 L15.000,10.000 C16.657,10.000 18.000,8.657 18.000,7.000 C18.000,5.343 16.657,4.000 15.000,4.000 C14.228,4.000 13.532,4.300 13.000,4.779 L13.000,2.000 L13.000,0.000 L22.000,0.000 C23.105,0.000 24.000,0.896 24.000,2.000 L24.000,18.000 C24.000,19.104 23.105,20.000 22.000,20.000 ZM8.000,7.000 C8.000,6.448 8.448,6.000 9.000,6.000 C9.552,6.000 10.000,6.448 10.000,7.000 L10.000,8.000 L9.000,8.000 C8.448,8.000 8.000,7.552 8.000,7.000 ZM11.000,4.779 C10.468,4.300 9.772,4.000 9.000,4.000 C7.343,4.000 6.000,5.343 6.000,7.000 C6.000,8.657 7.343,10.000 9.000,10.000 L9.466,10.000 L7.298,12.168 C6.875,12.591 6.875,13.278 7.298,13.702 C7.722,14.125 8.409,14.125 8.833,13.702 L11.000,11.534 L11.000,20.000 L2.000,20.000 C0.896,20.000 0.000,19.104 0.000,18.000 L0.000,2.000 C0.000,0.896 0.896,0.000 2.000,0.000 L11.000,0.000 L11.000,4.779 Z" transform="translate(0 2)" class="cls-1"/>
</svg>
