<svg xmlns="http://www.w3.org/2000/svg" xmlns:xlink="http://www.w3.org/1999/xlink" preserveAspectRatio="xMidYMid" width="24" height="24" viewBox="0 0 24 24">
  <defs>
    <style>
      .cls-1 {
        fill: #444;
        fill-rule: evenodd;
      }
    </style>
  </defs>
  <path d="M22.000,20.000 L2.000,20.000 C0.895,20.000 0.000,19.105 0.000,18.000 L0.000,2.000 C0.000,0.895 0.895,-0.000 2.000,-0.000 L22.000,-0.000 C23.105,-0.000 24.000,0.895 24.000,2.000 L24.000,18.000 C24.000,19.105 23.105,20.000 22.000,20.000 ZM11.000,11.534 L8.832,13.701 C8.409,14.125 7.722,14.125 7.298,13.701 C6.875,13.278 6.875,12.591 7.298,12.167 L9.466,10.000 L9.000,10.000 C7.343,10.000 6.000,8.657 6.000,7.000 C6.000,5.343 7.343,4.000 9.000,4.000 C9.772,4.000 10.468,4.300 11.000,4.778 L11.000,2.000 L3.000,2.000 C2.448,2.000 2.000,2.448 2.000,3.000 L2.000,17.000 C2.000,17.552 2.448,18.000 3.000,18.000 L11.000,18.000 L11.000,11.534 ZM10.000,8.000 L10.000,7.000 C10.000,6.448 9.552,6.000 9.000,6.000 C8.448,6.000 8.000,6.448 8.000,7.000 C8.000,7.552 8.448,8.000 9.000,8.000 L10.000,8.000 ZM22.000,3.000 C22.000,2.448 21.552,2.000 21.000,2.000 L13.000,2.000 L13.000,4.778 C13.532,4.300 14.228,4.000 15.000,4.000 C16.657,4.000 18.000,5.343 18.000,7.000 C18.000,8.657 16.657,10.000 15.000,10.000 L14.534,10.000 L16.702,12.167 C17.125,12.591 17.125,13.278 16.702,13.701 C16.278,14.125 15.591,14.125 15.167,13.701 L13.000,11.534 L13.000,18.000 L21.000,18.000 C21.552,18.000 22.000,17.552 22.000,17.000 L22.000,3.000 ZM14.000,7.000 L14.000,8.000 L15.000,8.000 C15.552,8.000 16.000,7.552 16.000,7.000 C16.000,6.448 15.552,6.000 15.000,6.000 C14.448,6.000 14.000,6.448 14.000,7.000 Z" transform="translate(0 2)" class="cls-1"/>
</svg>
