<svg xmlns="http://www.w3.org/2000/svg" xmlns:xlink="http://www.w3.org/1999/xlink" preserveAspectRatio="xMidYMid" width="24" height="24" viewBox="0 0 24 24">
  <defs>
    <style>
      .cls-1 {
        fill: #444;
        fill-rule: evenodd;
      }
    </style>
  </defs>
  <path d="M22.000,24.000 L2.000,24.000 C0.895,24.000 0.000,23.105 0.000,22.000 L0.000,8.000 C0.000,6.895 0.895,6.000 2.000,6.000 L10.899,6.000 C10.436,3.718 8.419,2.000 6.000,2.000 C6.000,2.000 6.000,2.000 6.000,2.000 C5.448,2.000 5.000,1.552 5.000,1.000 C5.000,0.448 5.448,0.000 6.000,0.000 C8.563,0.000 10.780,1.392 12.000,3.447 C13.220,1.392 15.437,0.000 18.000,0.000 C18.552,0.000 19.000,0.448 19.000,1.000 C19.000,1.552 18.552,2.000 18.000,2.000 C18.000,2.000 18.000,2.000 18.000,2.000 C15.581,2.000 13.564,3.718 13.101,6.000 L22.000,6.000 C23.105,6.000 24.000,6.895 24.000,8.000 L24.000,22.000 C24.000,23.105 23.105,24.000 22.000,24.000 ZM2.000,21.000 C2.000,21.552 2.448,22.000 3.000,22.000 L11.000,22.000 L11.000,16.000 L2.000,16.000 L2.000,21.000 ZM3.000,8.000 C2.448,8.000 2.000,8.448 2.000,9.000 L2.000,14.000 L11.000,14.000 L11.000,8.000 L3.000,8.000 ZM22.000,9.000 C22.000,8.448 21.552,8.000 21.000,8.000 L13.000,8.000 L13.000,14.000 L22.000,14.000 L22.000,9.000 ZM22.000,16.000 L13.000,16.000 L13.000,22.000 L21.000,22.000 C21.552,22.000 22.000,21.552 22.000,21.000 L22.000,16.000 Z" class="cls-1"/>
</svg>
