<svg xmlns="http://www.w3.org/2000/svg" xmlns:xlink="http://www.w3.org/1999/xlink" preserveAspectRatio="xMidYMid" width="24" height="24" viewBox="0 0 24 24">
  <defs>
    <style>
      .cls-1 {
        fill: #444;
        fill-rule: evenodd;
      }
    </style>
  </defs>
  <path d="M-0.000,11.000 L-0.000,12.000 L0.034,12.167 C0.034,12.167 -0.000,12.386 -0.000,12.500 C-0.000,15.538 2.462,18.000 5.500,18.000 C8.538,18.000 11.000,15.538 11.000,12.500 C11.000,12.386 10.981,12.277 10.966,12.167 C10.976,12.110 11.000,12.059 11.000,12.000 L11.000,11.000 C11.000,10.653 10.942,10.321 10.859,10.000 L13.141,10.000 C13.058,10.321 13.000,10.653 13.000,11.000 L13.000,12.000 C13.000,12.059 13.024,12.110 13.034,12.167 C13.019,12.277 13.000,12.386 13.000,12.500 C13.000,15.538 15.462,18.000 18.500,18.000 C21.538,18.000 24.000,15.538 24.000,12.500 C24.000,12.386 23.981,12.277 23.966,12.167 C23.976,12.110 24.000,12.059 24.000,12.000 L24.000,11.000 L24.000,8.000 L19.000,1.000 C18.768,0.618 18.328,-0.070 17.897,0.000 L16.000,0.000 C15.448,0.000 15.000,0.448 15.000,1.000 C15.000,1.552 15.448,2.000 16.000,2.000 L17.438,2.000 L20.499,7.050 C20.334,7.030 20.171,7.000 20.000,7.000 L17.000,7.000 C15.958,7.000 15.017,7.408 14.305,8.061 C14.207,8.030 14.108,8.000 14.000,8.000 L10.000,8.000 C9.892,8.000 9.793,8.030 9.695,8.061 C8.983,7.408 8.042,7.000 7.000,7.000 L4.000,7.000 C3.829,7.000 3.666,7.030 3.501,7.050 L6.562,2.000 L8.000,2.000 C8.552,2.000 9.000,1.552 9.000,1.000 C9.000,0.448 8.552,0.000 8.000,0.000 L6.103,0.000 C5.672,-0.070 5.222,0.108 4.990,0.490 L-0.000,8.000 C-0.000,8.000 -0.000,10.522 -0.000,11.000 ZM9.000,12.000 L9.000,11.000 C9.000,9.896 8.105,9.000 7.000,9.000 L4.000,9.000 C2.895,9.000 2.000,9.896 2.000,11.000 L2.000,12.000 L2.050,12.000 C2.027,12.165 2.000,12.329 2.000,12.500 C2.000,14.433 3.567,16.000 5.500,16.000 C7.433,16.000 9.000,14.433 9.000,12.500 C9.000,12.329 8.973,12.165 8.950,12.000 L9.000,12.000 ZM22.000,12.000 L22.000,11.000 C22.000,9.896 21.105,9.000 20.000,9.000 L17.000,9.000 C15.895,9.000 15.000,9.896 15.000,11.000 L15.000,12.000 L15.050,12.000 C15.027,12.165 15.000,12.329 15.000,12.500 C15.000,14.433 16.567,16.000 18.500,16.000 C20.433,16.000 22.000,14.433 22.000,12.500 C22.000,12.329 21.973,12.165 21.950,12.000 L22.000,12.000 Z" transform="translate(0 3)" class="cls-1"/>
</svg>
