<svg xmlns="http://www.w3.org/2000/svg" xmlns:xlink="http://www.w3.org/1999/xlink" preserveAspectRatio="xMidYMid" width="24" height="24" viewBox="0 0 24 24">
  <defs>
    <style>
      .cls-1 {
        fill: #444;
        fill-rule: evenodd;
      }
    </style>
  </defs>
  <path d="M23.014,6.000 L22.914,6.000 C22.450,8.282 20.433,10.000 18.014,10.000 C15.573,10.000 13.544,8.250 13.105,5.937 C12.965,5.889 12.832,5.818 12.721,5.707 L12.014,5.000 L11.307,5.707 C11.196,5.818 11.063,5.889 10.923,5.937 C10.484,8.250 8.455,10.000 6.014,10.000 C3.595,10.000 1.578,8.282 1.114,6.000 L1.014,6.000 C0.462,6.000 0.014,5.552 0.014,5.000 C0.014,4.448 0.462,4.000 1.014,4.000 L1.114,4.000 C1.578,1.718 3.595,0.000 6.014,0.000 C8.226,0.000 10.098,1.437 10.758,3.428 L11.307,2.879 C11.697,2.488 12.331,2.488 12.721,2.879 L13.270,3.428 C13.930,1.437 15.802,0.000 18.014,0.000 C20.433,0.000 22.450,1.718 22.914,4.000 L23.014,4.000 C23.566,4.000 24.014,4.448 24.014,5.000 C24.014,5.552 23.566,6.000 23.014,6.000 ZM6.014,2.000 C4.357,2.000 3.014,3.343 3.014,5.000 C3.014,6.657 4.357,8.000 6.014,8.000 C7.671,8.000 9.014,6.657 9.014,5.000 C9.014,3.343 7.671,2.000 6.014,2.000 ZM18.014,2.000 C16.357,2.000 15.014,3.343 15.014,5.000 C15.014,6.657 16.357,8.000 18.014,8.000 C19.671,8.000 21.014,6.657 21.014,5.000 C21.014,3.343 19.671,2.000 18.014,2.000 Z" transform="translate(0 7)" class="cls-1"/>
</svg>
