<svg xmlns="http://www.w3.org/2000/svg" xmlns:xlink="http://www.w3.org/1999/xlink" preserveAspectRatio="xMidYMid" width="24" height="24" viewBox="0 0 24 24">
  <defs>
    <style>
      .cls-1 {
        fill: #444;
        fill-rule: evenodd;
      }
    </style>
  </defs>
  <path d="M16.410,17.392 C14.826,18.307 13.120,18.805 11.410,18.947 L11.410,22.000 L14.410,22.000 C14.962,22.000 15.410,22.448 15.410,23.000 C15.410,23.552 14.962,24.000 14.410,24.000 L6.410,24.000 C5.858,24.000 5.410,23.552 5.410,23.000 C5.410,22.448 5.858,22.000 6.410,22.000 L9.410,22.000 L9.410,18.952 C5.629,18.633 2.059,16.536 0.018,13.000 L1.750,12.000 C4.511,16.783 10.627,18.422 15.410,15.660 C20.193,12.899 21.832,6.783 19.070,2.000 L20.802,1.000 C24.116,6.740 22.150,14.079 16.410,17.392 ZM10.410,14.000 C6.544,14.000 3.410,10.866 3.410,7.000 C3.410,3.134 6.544,0.000 10.410,0.000 C14.276,0.000 17.410,3.134 17.410,7.000 C17.410,10.866 14.276,14.000 10.410,14.000 ZM10.410,2.000 C7.649,2.000 5.410,4.239 5.410,7.000 C5.410,9.761 7.649,12.000 10.410,12.000 C13.171,12.000 15.410,9.761 15.410,7.000 C15.410,4.239 13.171,2.000 10.410,2.000 Z" transform="translate(0.79)" class="cls-1"/>
</svg>
