<svg xmlns="http://www.w3.org/2000/svg" xmlns:xlink="http://www.w3.org/1999/xlink" preserveAspectRatio="xMidYMid" width="24" height="24" viewBox="0 0 24 24">
  <defs>
    <style>
      .cls-1 {
        fill: #444;
        fill-rule: evenodd;
      }
    </style>
  </defs>
  <path d="M23.961,3.040 C23.940,3.595 23.389,14.692 20.496,18.806 C17.513,23.046 13.256,24.000 11.999,24.000 C10.742,24.000 6.485,23.046 3.501,18.806 C0.607,14.692 0.058,3.595 0.037,3.040 L-0.004,2.000 C-0.004,2.000 6.021,0.000 12.034,0.000 C18.024,0.000 24.002,2.000 24.002,2.000 L23.961,3.040 ZM11.987,2.000 C7.031,2.000 2.080,4.000 2.080,4.000 C2.322,8.219 3.187,14.890 5.130,17.652 C7.669,21.262 11.194,22.000 11.999,22.000 C12.804,22.000 16.328,21.262 18.866,17.652 C20.809,14.890 21.676,8.219 21.917,4.000 C21.917,4.000 16.950,2.000 11.987,2.000 ZM16.000,12.000 L13.000,12.000 L13.000,15.000 C13.000,15.552 12.552,16.000 12.000,16.000 C11.448,16.000 11.000,15.552 11.000,15.000 L11.000,12.000 L8.000,12.000 C7.448,12.000 7.000,11.552 7.000,11.000 C7.000,10.448 7.448,10.000 8.000,10.000 L11.000,10.000 L11.000,7.000 C11.000,6.448 11.448,6.000 12.000,6.000 C12.552,6.000 13.000,6.448 13.000,7.000 L13.000,10.000 L16.000,10.000 C16.552,10.000 17.000,10.448 17.000,11.000 C17.000,11.552 16.552,12.000 16.000,12.000 Z" class="cls-1"/>
</svg>
