<svg xmlns="http://www.w3.org/2000/svg" xmlns:xlink="http://www.w3.org/1999/xlink" preserveAspectRatio="xMidYMid" width="24" height="24" viewBox="0 0 24 24">
  <defs>
    <style>
      .cls-1 {
        fill: #444;
        fill-rule: evenodd;
      }
    </style>
  </defs>
  <path d="M18.000,24.000 L2.000,24.000 C0.895,24.000 -0.000,23.105 -0.000,22.000 L-0.000,8.000 C-0.000,6.895 0.895,6.000 2.000,6.000 L4.000,6.000 C4.000,2.686 6.686,0.000 10.000,0.000 C13.314,0.000 16.000,2.686 16.000,6.000 L18.000,6.000 C19.105,6.000 20.000,6.895 20.000,8.000 L20.000,22.000 C20.000,23.105 19.105,24.000 18.000,24.000 ZM10.000,2.000 C7.791,2.000 6.000,3.791 6.000,6.000 L14.000,6.000 C14.000,3.791 12.209,2.000 10.000,2.000 ZM18.000,9.000 C18.000,8.448 17.552,8.000 17.000,8.000 L16.000,8.000 L16.000,10.000 C16.000,10.552 15.552,11.000 15.000,11.000 C14.448,11.000 14.000,10.552 14.000,10.000 L14.000,8.000 L6.000,8.000 L6.000,10.000 C6.000,10.552 5.552,11.000 5.000,11.000 C4.448,11.000 4.000,10.552 4.000,10.000 L4.000,8.000 L3.000,8.000 C2.448,8.000 2.000,8.448 2.000,9.000 L2.000,21.000 C2.000,21.552 2.448,22.000 3.000,22.000 L17.000,22.000 C17.552,22.000 18.000,21.552 18.000,21.000 L18.000,9.000 Z" transform="translate(2)" class="cls-1"/>
</svg>
