<svg xmlns="http://www.w3.org/2000/svg" xmlns:xlink="http://www.w3.org/1999/xlink" preserveAspectRatio="xMidYMid" width="24" height="24" viewBox="0 0 24 24">
  <defs>
    <style>
      .cls-1 {
        fill: #444;
        fill-rule: evenodd;
      }
    </style>
  </defs>
  <path d="M24.000,16.000 L24.000,16.000 C24.000,16.000 24.000,16.000 24.000,16.000 L24.000,16.000 C24.000,16.000 24.000,16.000 24.000,16.000 C24.000,18.209 22.209,20.000 20.000,20.000 C20.000,20.000 20.000,20.000 20.000,20.000 L4.000,20.000 C4.000,20.000 4.000,20.000 4.000,20.000 C1.791,20.000 0.000,18.209 0.000,16.000 C0.000,16.000 -0.000,16.000 -0.000,16.000 L-0.000,15.000 C-0.000,14.952 0.021,14.911 0.027,14.865 C0.032,14.810 0.023,14.756 0.037,14.701 L3.166,0.766 C3.180,0.710 3.213,0.668 3.234,0.616 C3.235,0.612 3.237,0.609 3.239,0.605 C3.391,0.247 3.703,0.025 4.055,0.020 C4.090,0.017 4.120,-0.000 4.156,-0.000 L19.844,-0.000 C19.880,-0.000 19.910,0.017 19.945,0.020 C20.297,0.025 20.609,0.247 20.761,0.605 C20.763,0.609 20.765,0.612 20.766,0.616 C20.787,0.668 20.820,0.710 20.834,0.766 L23.963,14.701 C23.977,14.756 23.968,14.810 23.973,14.865 C23.979,14.911 24.000,14.952 24.000,15.000 L24.000,16.000 ZM19.194,2.000 L4.806,2.000 L2.785,11.000 L21.215,11.000 L19.194,2.000 ZM2.335,13.000 L1.946,14.733 C1.971,14.820 2.000,14.905 2.000,15.000 L2.000,16.000 C2.000,16.000 2.000,16.000 2.000,16.000 C2.000,17.105 2.895,18.000 4.000,18.000 C4.000,18.000 4.000,18.000 4.000,18.000 L20.000,18.000 C20.000,18.000 20.000,18.000 20.000,18.000 C21.105,18.000 22.000,17.105 22.000,16.000 L22.000,16.000 L22.000,15.000 C22.000,14.905 22.029,14.820 22.054,14.733 L21.665,13.000 L2.335,13.000 ZM17.000,16.000 L7.000,16.000 C6.448,16.000 6.000,15.552 6.000,15.000 C6.000,14.448 6.448,14.000 7.000,14.000 L17.000,14.000 C17.552,14.000 18.000,14.448 18.000,15.000 C18.000,15.552 17.552,16.000 17.000,16.000 Z" transform="translate(0 2)" class="cls-1"/>
</svg>
