<svg xmlns="http://www.w3.org/2000/svg" xmlns:xlink="http://www.w3.org/1999/xlink" preserveAspectRatio="xMidYMid" width="24" height="24" viewBox="0 0 24 24">
  <defs>
    <style>
      .cls-1 {
        fill: #444;
        fill-rule: evenodd;
      }
    </style>
  </defs>
  <path d="M22.000,20.000 L20.000,20.000 C18.895,20.000 18.000,19.105 18.000,18.000 L18.000,12.000 C18.000,10.895 18.895,10.000 20.000,10.000 C20.000,5.582 16.418,2.000 12.000,2.000 C7.582,2.000 4.000,5.582 4.000,10.000 C5.105,10.000 6.000,10.895 6.000,12.000 L6.000,18.000 C6.000,19.105 5.105,20.000 4.000,20.000 L2.000,20.000 C0.895,20.000 0.000,19.105 0.000,18.000 L0.000,12.000 C0.000,10.895 0.895,10.000 2.000,10.000 C2.000,10.000 2.000,10.000 2.000,9.999 C2.000,4.477 6.477,-0.000 12.000,-0.000 C17.523,-0.000 22.000,4.477 22.000,10.000 C23.105,10.000 24.000,10.895 24.000,12.000 L24.000,18.000 C24.000,19.105 23.105,20.000 22.000,20.000 ZM3.000,12.000 C2.448,12.000 2.000,12.448 2.000,13.000 L2.000,17.000 C2.000,17.552 2.448,18.000 3.000,18.000 C3.552,18.000 4.000,17.552 4.000,17.000 L4.000,13.000 C4.000,12.448 3.552,12.000 3.000,12.000 ZM22.000,13.000 C22.000,12.448 21.552,12.000 21.000,12.000 C20.448,12.000 20.000,12.448 20.000,13.000 L20.000,17.000 C20.000,17.552 20.448,18.000 21.000,18.000 C21.552,18.000 22.000,17.552 22.000,17.000 L22.000,13.000 Z" transform="translate(0 2)" class="cls-1"/>
</svg>
