<svg xmlns="http://www.w3.org/2000/svg" xmlns:xlink="http://www.w3.org/1999/xlink" preserveAspectRatio="xMidYMid" width="24" height="24" viewBox="0 0 24 24">
  <defs>
    <style>
      .cls-1 {
        fill: #444;
        fill-rule: evenodd;
      }
    </style>
  </defs>
  <path d="M21.817,13.477 C21.778,13.530 21.733,13.581 21.681,13.628 L12.766,21.708 C12.551,21.903 12.266,21.993 11.985,21.984 C11.711,21.987 11.436,21.896 11.228,21.706 L2.313,13.626 C2.257,13.576 2.211,13.521 2.170,13.463 C0.825,12.032 -0.000,10.107 -0.000,7.987 C-0.000,3.569 3.582,-0.013 8.000,-0.013 C9.459,-0.013 10.823,0.381 12.000,1.064 C13.176,0.381 14.541,-0.013 16.000,-0.013 C20.418,-0.013 24.000,3.569 24.000,7.987 C24.000,10.113 23.169,12.044 21.817,13.477 Z" transform="translate(0 1.02)" class="cls-1"/>
</svg>
