<svg xmlns="http://www.w3.org/2000/svg" xmlns:xlink="http://www.w3.org/1999/xlink" preserveAspectRatio="xMidYMid" width="24" height="24" viewBox="0 0 24 24">
  <defs>
    <style>
      .cls-1 {
        fill: #444;
        fill-rule: evenodd;
      }
    </style>
  </defs>
  <path d="M13.000,7.000 L13.000,11.000 L17.000,11.000 C17.552,11.000 18.000,11.448 18.000,12.000 C18.000,12.552 17.552,13.000 17.000,13.000 L12.000,13.000 C11.448,13.000 11.000,12.552 11.000,12.000 L11.000,7.000 C11.000,6.448 11.448,6.000 12.000,6.000 C12.552,6.000 13.000,6.448 13.000,7.000 ZM13.000,22.000 C9.804,22.000 6.936,20.629 4.926,18.453 L5.065,18.324 C5.030,18.221 5.000,18.115 5.000,18.000 C5.000,17.448 5.448,17.000 6.000,17.000 C6.416,17.000 6.772,17.254 6.922,17.616 C8.524,19.090 10.651,20.000 13.000,20.000 C17.971,20.000 22.000,15.971 22.000,11.000 C22.000,6.029 17.971,2.000 13.000,2.000 C9.020,2.000 5.650,4.586 4.462,8.166 L5.343,7.286 C5.722,6.907 6.336,6.907 6.714,7.286 C7.093,7.664 7.093,8.278 6.714,8.657 L4.657,10.714 C4.475,10.896 4.239,10.986 4.000,10.993 C4.000,10.995 4.000,10.997 4.000,11.000 L2.000,11.000 C2.000,10.798 2.020,10.601 2.030,10.402 L0.286,8.657 C-0.093,8.278 -0.093,7.664 0.286,7.286 C0.665,6.907 1.278,6.907 1.657,7.286 L2.414,8.042 C3.707,3.406 7.951,0.000 13.000,0.000 C19.075,0.000 24.000,4.925 24.000,11.000 C24.000,17.075 19.075,22.000 13.000,22.000 Z" transform="translate(0 1)" class="cls-1"/>
</svg>
