<svg xmlns="http://www.w3.org/2000/svg" xmlns:xlink="http://www.w3.org/1999/xlink" preserveAspectRatio="xMidYMid" width="24" height="24" viewBox="0 0 24 24">
  <defs>
    <style>
      .cls-1 {
        fill: #444;
        fill-rule: evenodd;
      }
    </style>
  </defs>
  <path d="M23.703,12.710 C23.321,13.092 22.702,13.092 22.321,12.710 L22.000,12.389 L22.000,23.000 C22.000,23.000 22.000,23.000 22.000,23.000 C22.000,23.000 22.000,23.000 22.000,23.000 C22.000,23.221 21.914,23.415 21.793,23.580 C21.611,23.828 21.331,24.000 21.000,24.000 L21.000,24.000 L21.000,24.000 L15.000,24.000 C14.448,24.000 14.000,23.552 14.000,23.000 L14.000,19.000 L14.000,19.000 C14.000,17.896 13.105,17.000 12.000,17.000 C10.895,17.000 10.000,17.895 10.000,19.000 C10.000,19.000 10.000,19.000 10.000,19.000 L10.000,23.000 C10.000,23.552 9.552,24.000 9.000,24.000 L3.000,24.000 C3.000,24.000 3.000,24.000 3.000,24.000 C3.000,24.000 3.000,24.000 3.000,24.000 C2.867,24.000 2.742,23.971 2.626,23.924 C2.259,23.776 2.000,23.420 2.000,23.000 C2.000,23.000 2.000,23.000 2.000,23.000 C2.000,23.000 2.000,23.000 2.000,23.000 L2.000,12.358 L1.648,12.710 C1.266,13.092 0.648,13.092 0.266,12.710 C-0.116,12.328 -0.116,11.709 0.266,11.328 L11.199,0.395 C11.226,0.358 11.241,0.315 11.274,0.281 C11.470,0.085 11.728,-0.007 11.984,-0.001 C12.241,-0.007 12.499,0.085 12.695,0.281 C12.728,0.315 12.742,0.358 12.770,0.395 L23.703,11.328 C24.084,11.709 24.084,12.328 23.703,12.710 ZM11.984,2.374 L4.000,10.358 L4.000,22.000 L8.000,22.000 L8.000,19.000 C8.000,16.791 9.791,15.000 12.000,15.000 C14.209,15.000 16.000,16.791 16.000,19.000 L16.000,22.000 L20.000,22.000 L20.000,10.389 L11.984,2.374 Z" class="cls-1"/>
</svg>
