<svg xmlns="http://www.w3.org/2000/svg" xmlns:xlink="http://www.w3.org/1999/xlink" preserveAspectRatio="xMidYMid" width="24" height="24" viewBox="0 0 24 24">
  <defs>
    <style>
      .cls-1 {
        fill: #444;
        fill-rule: evenodd;
      }
    </style>
  </defs>
  <path d="M22.012,20.012 L1.988,20.012 C0.882,20.012 -0.014,19.116 -0.014,18.009 L-0.014,1.990 C-0.014,0.885 0.882,-0.012 1.988,-0.012 L22.012,-0.012 C23.118,-0.012 24.014,0.885 24.014,1.990 L24.014,18.009 C24.014,19.116 23.118,20.012 22.012,20.012 ZM8.825,18.009 L5.993,15.178 L3.161,18.009 L8.825,18.009 ZM22.012,2.992 C22.012,2.439 21.564,1.990 21.011,1.990 L2.989,1.990 C2.436,1.990 1.988,2.439 1.988,2.992 L1.988,16.351 L5.285,13.054 C5.676,12.663 6.310,12.663 6.701,13.054 L9.376,15.729 L17.299,7.805 C17.690,7.414 18.324,7.414 18.715,7.805 L22.012,11.102 L22.012,2.992 ZM22.012,13.934 L18.007,9.929 L10.791,17.145 L10.787,18.005 L15.913,18.009 L21.011,18.009 C21.564,18.009 22.012,17.561 22.012,17.009 L22.012,13.934 ZM7.495,11.001 C5.559,11.001 3.990,9.432 3.990,7.497 C3.990,5.562 5.559,3.993 7.495,3.993 C9.430,3.993 10.999,5.562 10.999,7.497 C10.999,9.432 9.430,11.001 7.495,11.001 ZM7.495,5.995 C6.665,5.995 5.993,6.668 5.993,7.497 C5.993,8.326 6.665,8.999 7.495,8.999 C8.324,8.999 8.996,8.326 8.996,7.497 C8.996,6.668 8.324,5.995 7.495,5.995 Z" transform="translate(0 2)" class="cls-1"/>
</svg>
