<svg xmlns="http://www.w3.org/2000/svg" xmlns:xlink="http://www.w3.org/1999/xlink" preserveAspectRatio="xMidYMid" width="24" height="23.97" viewBox="0 0 24 23.97">
  <defs>
    <style>
      .cls-1 {
        fill: #444;
        fill-rule: evenodd;
      }
    </style>
  </defs>
  <path d="M24.000,10.000 C24.008,10.064 23.987,10.109 23.952,10.145 C23.921,10.350 23.844,10.550 23.686,10.708 L12.723,23.686 C12.519,23.890 12.251,23.983 11.984,23.976 C11.718,23.983 11.449,23.890 11.246,23.686 L0.282,10.708 C-0.111,10.315 -0.001,9.512 -0.000,9.000 C0.000,8.929 0.023,8.875 0.061,8.834 L3.130,0.483 C3.314,0.170 3.651,0.012 3.996,0.011 C3.998,0.007 3.998,0.005 4.000,0.000 L20.000,0.000 C20.014,0.005 20.019,0.010 20.031,0.015 C20.355,0.034 20.665,0.188 20.839,0.483 L24.000,9.000 C24.000,9.615 23.961,9.677 24.000,10.000 ZM19.000,2.000 C18.899,2.035 19.082,2.000 18.969,2.000 L5.000,2.000 C4.887,2.000 5.101,2.035 5.000,2.000 L1.876,9.484 L11.984,21.450 L22.093,9.484 L19.000,2.000 ZM8.000,7.000 C8.000,6.448 8.448,6.000 9.000,6.000 L15.000,6.000 C15.552,6.000 16.000,6.448 16.000,7.000 C16.000,7.552 15.552,8.000 15.000,8.000 L9.000,8.000 C8.448,8.000 8.000,7.552 8.000,7.000 Z" class="cls-1"/>
</svg>
