<svg xmlns="http://www.w3.org/2000/svg" xmlns:xlink="http://www.w3.org/1999/xlink" preserveAspectRatio="xMidYMid" width="24" height="24" viewBox="0 0 24 24">
  <defs>
    <style>
      .cls-1 {
        fill: #444;
        fill-rule: evenodd;
      }
    </style>
  </defs>
  <path d="M12.000,18.000 C12.000,21.314 9.314,24.000 6.000,24.000 C2.686,24.000 -0.000,21.314 -0.000,18.000 C-0.000,15.028 2.163,12.567 5.000,12.090 L5.000,1.000 C5.000,0.448 5.448,0.000 6.000,0.000 C6.552,0.000 7.000,0.448 7.000,1.000 L7.000,2.000 L9.000,2.000 C9.552,2.000 10.000,2.448 10.000,3.000 C10.000,3.552 9.552,4.000 9.000,4.000 L7.000,4.000 L7.000,6.000 L9.000,6.000 C9.552,6.000 10.000,6.448 10.000,7.000 C10.000,7.552 9.552,8.000 9.000,8.000 L7.000,8.000 L7.000,12.090 C9.837,12.567 12.000,15.028 12.000,18.000 ZM2.000,18.000 C2.000,20.209 3.791,22.000 6.000,22.000 C8.209,22.000 10.000,20.209 10.000,18.000 C10.000,15.791 8.209,14.000 6.000,14.000 C3.791,14.000 2.000,15.791 2.000,18.000 Z" transform="translate(6)" class="cls-1"/>
</svg>
