<svg xmlns="http://www.w3.org/2000/svg" xmlns:xlink="http://www.w3.org/1999/xlink" preserveAspectRatio="xMidYMid" width="24" height="24" viewBox="0 0 24 24">
  <defs>
    <style>
      .cls-1 {
        fill: #444;
        fill-rule: evenodd;
      }
    </style>
  </defs>
  <path d="M21.000,6.000 L20.000,6.000 L20.000,18.000 L21.000,18.000 C22.657,18.000 24.000,19.343 24.000,21.000 C24.000,22.657 22.657,24.000 21.000,24.000 C19.343,24.000 18.000,22.657 18.000,21.000 L18.000,20.000 L6.000,20.000 L6.000,21.000 C6.000,22.657 4.657,24.000 3.000,24.000 C1.343,24.000 -0.000,22.657 -0.000,21.000 C-0.000,19.343 1.343,18.000 3.000,18.000 L4.000,18.000 L4.000,6.000 L3.000,6.000 C1.343,6.000 -0.000,4.657 -0.000,3.000 C-0.000,1.343 1.343,0.000 3.000,0.000 C4.657,0.000 6.000,1.343 6.000,3.000 L6.000,4.000 L18.000,4.000 L18.000,3.000 C18.000,1.343 19.343,0.000 21.000,0.000 C22.657,0.000 24.000,1.343 24.000,3.000 C24.000,4.657 22.657,6.000 21.000,6.000 ZM20.000,21.000 C20.000,21.551 20.449,22.000 21.000,22.000 C21.551,22.000 22.000,21.551 22.000,21.000 C22.000,20.449 21.551,20.000 21.000,20.000 L20.000,20.000 L20.000,21.000 ZM4.000,3.000 C4.000,2.449 3.551,2.000 3.000,2.000 C2.449,2.000 2.000,2.449 2.000,3.000 C2.000,3.551 2.449,4.000 3.000,4.000 L4.000,4.000 L4.000,3.000 ZM3.000,20.000 C2.449,20.000 2.000,20.449 2.000,21.000 C2.000,21.551 2.449,22.000 3.000,22.000 C3.551,22.000 4.000,21.551 4.000,21.000 L4.000,20.000 L3.000,20.000 ZM18.000,6.000 L6.000,6.000 L6.000,18.000 L18.000,18.000 L18.000,6.000 ZM21.000,2.000 C20.449,2.000 20.000,2.449 20.000,3.000 L20.000,4.000 L21.000,4.000 C21.551,4.000 22.000,3.551 22.000,3.000 C22.000,2.449 21.551,2.000 21.000,2.000 Z" class="cls-1"/>
</svg>
