<svg xmlns="http://www.w3.org/2000/svg" xmlns:xlink="http://www.w3.org/1999/xlink" preserveAspectRatio="xMidYMid" width="24" height="24.03" viewBox="0 0 24 24.03">
  <defs>
    <style>
      .cls-1 {
        fill: #444;
        fill-rule: evenodd;
      }
    </style>
  </defs>
  <path d="M15.000,10.028 L15.000,10.032 C15.000,10.048 14.992,10.061 14.991,10.076 C14.990,10.089 14.985,10.101 14.983,10.114 C14.961,10.371 14.850,10.599 14.670,10.763 L6.866,23.547 C6.589,23.996 5.978,24.149 5.499,23.890 C5.178,23.716 5.015,23.399 5.015,23.074 C5.013,23.048 5.000,23.026 5.000,22.999 L5.000,15.030 L1.000,15.030 C0.973,15.030 0.950,15.017 0.924,15.015 C0.870,15.011 0.820,14.995 0.767,14.983 C0.696,14.966 0.626,14.950 0.561,14.918 C0.541,14.909 0.520,14.909 0.501,14.899 C0.445,14.868 0.408,14.822 0.361,14.783 C0.333,14.759 0.302,14.740 0.277,14.713 C0.197,14.632 0.138,14.542 0.094,14.442 C0.088,14.430 0.081,14.420 0.076,14.408 C0.040,14.317 0.025,14.225 0.020,14.128 C0.016,14.094 0.000,14.065 0.000,14.030 C0.000,14.014 0.008,14.001 0.009,13.985 C0.011,13.969 0.016,13.954 0.018,13.939 C0.042,13.687 0.150,13.463 0.325,13.301 L8.135,0.483 C8.411,0.033 9.022,-0.121 9.501,0.139 C9.821,0.313 9.984,0.629 9.985,0.953 C9.987,0.980 10.000,1.003 10.000,1.030 L10.000,9.030 L14.002,9.030 C14.029,9.030 14.051,9.043 14.077,9.045 C14.130,9.049 14.179,9.065 14.231,9.076 C14.304,9.094 14.375,9.110 14.441,9.142 C14.460,9.151 14.481,9.151 14.499,9.161 C14.554,9.191 14.590,9.237 14.636,9.274 C14.666,9.299 14.698,9.319 14.725,9.347 C14.803,9.428 14.861,9.517 14.905,9.616 C14.911,9.628 14.919,9.638 14.924,9.651 C14.960,9.742 14.975,9.834 14.980,9.930 C14.984,9.964 15.000,9.993 15.000,10.028 Z" transform="translate(4.5)" class="cls-1"/>
</svg>
