<svg xmlns="http://www.w3.org/2000/svg" xmlns:xlink="http://www.w3.org/1999/xlink" preserveAspectRatio="xMidYMid" width="24" height="24" viewBox="0 0 24 24">
  <defs>
    <style>
      .cls-1 {
        fill: #444;
        fill-rule: evenodd;
      }
    </style>
  </defs>
  <path d="M4.000,8.000 L2.000,8.000 C0.895,8.000 -0.000,8.895 -0.000,10.000 L-0.000,22.000 C-0.000,23.105 0.895,24.000 2.000,24.000 L4.000,24.000 C4.205,24.000 20.963,24.012 21.000,24.000 C21.486,23.932 22.000,23.504 22.000,23.000 C22.000,22.840 22.067,23.134 22.000,23.000 L24.012,9.173 C24.099,8.621 23.767,8.094 23.270,7.996 C23.183,7.979 23.100,7.993 23.017,8.003 C23.011,8.003 23.006,8.000 23.000,8.000 L17.000,8.000 L17.000,3.000 C17.000,1.343 15.657,0.000 14.000,0.000 C12.696,0.000 11.597,0.837 11.184,2.000 L11.000,2.000 C11.000,5.314 8.314,8.000 5.000,8.000 C4.849,8.000 4.204,8.000 4.000,8.000 ZM4.000,11.000 C4.000,10.448 3.552,10.000 3.000,10.000 C2.448,10.000 2.000,10.448 2.000,11.000 L2.000,21.000 C2.000,21.552 2.448,22.000 3.000,22.000 C3.552,22.000 4.000,21.552 4.000,21.000 L4.000,11.000 ZM17.000,21.000 L19.000,21.000 C19.552,21.000 20.000,20.552 20.000,20.000 C20.000,19.448 19.552,19.000 19.000,19.000 L17.000,19.000 C16.448,19.000 16.000,19.448 16.000,20.000 C16.000,20.552 16.448,21.000 17.000,21.000 ZM17.000,17.000 L20.000,17.000 C20.552,17.000 21.000,16.552 21.000,16.000 C21.000,15.448 20.552,15.000 20.000,15.000 L17.000,15.000 C16.448,15.000 16.000,15.448 16.000,16.000 C16.000,16.552 16.448,17.000 17.000,17.000 ZM21.000,11.000 L17.000,11.000 C16.448,11.000 16.000,11.448 16.000,12.000 C16.000,12.552 16.448,13.000 17.000,13.000 L21.000,13.000 C21.552,13.000 22.000,12.552 22.000,12.000 C22.000,11.448 21.552,11.000 21.000,11.000 ZM22.000,10.000 L22.000,10.150 L22.024,10.000 L22.000,10.000 Z" class="cls-1"/>
</svg>
