<svg xmlns="http://www.w3.org/2000/svg" xmlns:xlink="http://www.w3.org/1999/xlink" preserveAspectRatio="xMidYMid" width="24" height="24" viewBox="0 0 24 24">
  <defs>
    <style>
      .cls-1 {
        fill: #444;
        fill-rule: evenodd;
      }
    </style>
  </defs>
  <path d="M5.001,8.000 C8.314,8.000 11.201,5.314 11.201,2.000 L11.184,2.000 C11.597,0.837 12.696,-0.000 14.001,-0.000 C15.657,-0.000 17.000,1.343 17.000,3.000 L17.000,8.000 L23.001,8.000 C23.007,8.000 23.012,8.003 23.018,8.003 C23.101,7.994 23.184,7.980 23.271,7.997 C23.768,8.094 24.100,8.621 24.012,9.173 C24.012,9.173 22.001,22.840 22.001,23.000 C22.001,23.504 21.621,23.904 21.136,23.973 C21.098,23.985 2.001,24.000 2.001,24.000 C0.896,24.000 0.000,23.105 0.000,22.000 L0.000,10.000 C0.000,8.895 0.896,8.000 2.001,8.000 L4.000,8.000 C4.205,8.000 5.001,8.000 5.001,8.000 ZM4.000,11.000 C4.000,10.448 3.553,10.000 3.001,10.000 C2.448,10.000 2.001,10.448 2.001,11.000 L2.001,21.000 C2.001,21.552 2.448,22.000 3.001,22.000 C3.553,22.000 4.000,21.552 4.000,21.000 L4.000,11.000 ZM16.000,10.000 C15.448,10.000 15.001,9.552 15.001,9.000 L15.001,3.000 C15.001,2.448 14.553,2.000 14.001,2.000 C13.448,2.000 13.000,2.448 13.000,3.000 L12.931,3.000 C12.479,6.618 9.608,9.456 5.991,9.908 C5.993,9.939 6.001,9.968 6.001,10.000 L6.001,22.000 L20.120,22.000 L22.024,10.000 L16.000,10.000 Z" class="cls-1"/>
</svg>
