<svg xmlns="http://www.w3.org/2000/svg" xmlns:xlink="http://www.w3.org/1999/xlink" preserveAspectRatio="xMidYMid" width="24" height="24" viewBox="0 0 24 24">
  <defs>
    <style>
      .cls-1 {
        fill: #444;
        fill-rule: evenodd;
      }
    </style>
  </defs>
  <path d="M23.000,12.000 L9.000,12.000 C8.448,12.000 8.000,11.552 8.000,11.000 C8.000,10.448 8.448,10.000 9.000,10.000 L23.000,10.000 C23.552,10.000 24.000,10.448 24.000,11.000 C24.000,11.552 23.552,12.000 23.000,12.000 ZM23.000,3.000 L9.000,3.000 C8.448,3.000 8.000,2.552 8.000,2.000 C8.000,1.448 8.448,1.000 9.000,1.000 L23.000,1.000 C23.552,1.000 24.000,1.448 24.000,2.000 C24.000,2.552 23.552,3.000 23.000,3.000 ZM2.000,22.000 C0.895,22.000 -0.000,21.105 -0.000,20.000 C-0.000,18.895 0.895,18.000 2.000,18.000 C3.105,18.000 4.000,18.895 4.000,20.000 C4.000,21.105 3.105,22.000 2.000,22.000 ZM2.000,13.000 C0.895,13.000 -0.000,12.105 -0.000,11.000 C-0.000,9.895 0.895,9.000 2.000,9.000 C3.105,9.000 4.000,9.895 4.000,11.000 C4.000,12.105 3.105,13.000 2.000,13.000 ZM2.000,4.000 C0.895,4.000 -0.000,3.105 -0.000,2.000 C-0.000,0.895 0.895,0.000 2.000,0.000 C3.105,0.000 4.000,0.895 4.000,2.000 C4.000,3.105 3.105,4.000 2.000,4.000 ZM9.000,19.000 L23.000,19.000 C23.552,19.000 24.000,19.448 24.000,20.000 C24.000,20.552 23.552,21.000 23.000,21.000 L9.000,21.000 C8.448,21.000 8.000,20.552 8.000,20.000 C8.000,19.448 8.448,19.000 9.000,19.000 Z" transform="translate(0 1)" class="cls-1"/>
</svg>
