<svg xmlns="http://www.w3.org/2000/svg" xmlns:xlink="http://www.w3.org/1999/xlink" preserveAspectRatio="xMidYMid" width="24" height="24" viewBox="0 0 24 24">
  <defs>
    <style>
      .cls-1 {
        fill: #444;
        fill-rule: evenodd;
      }
    </style>
  </defs>
  <path d="M23.000,17.000 L14.000,17.000 C13.448,17.000 13.000,16.552 13.000,16.000 C13.000,15.448 13.448,15.000 14.000,15.000 L23.000,15.000 C23.552,15.000 24.000,15.448 24.000,16.000 C24.000,16.552 23.552,17.000 23.000,17.000 ZM23.000,9.000 L14.000,9.000 C13.448,9.000 13.000,8.552 13.000,8.000 C13.000,7.448 13.448,7.000 14.000,7.000 L23.000,7.000 C23.552,7.000 24.000,7.448 24.000,8.000 C24.000,8.552 23.552,9.000 23.000,9.000 ZM23.000,4.000 L14.000,4.000 C13.448,4.000 13.000,3.552 13.000,3.000 C13.000,2.448 13.448,2.000 14.000,2.000 L23.000,2.000 C23.552,2.000 24.000,2.448 24.000,3.000 C24.000,3.552 23.552,4.000 23.000,4.000 ZM9.000,24.000 L2.000,24.000 C0.895,24.000 -0.000,23.105 -0.000,22.000 L-0.000,15.000 C-0.000,13.895 0.895,13.000 2.000,13.000 L9.000,13.000 C10.105,13.000 11.000,13.895 11.000,15.000 L11.000,22.000 C11.000,23.105 10.105,24.000 9.000,24.000 ZM9.000,11.000 L2.000,11.000 C0.895,11.000 -0.000,10.105 -0.000,9.000 L-0.000,2.000 C-0.000,0.895 0.895,0.000 2.000,0.000 L9.000,0.000 C10.105,0.000 11.000,0.895 11.000,2.000 L11.000,9.000 C11.000,10.105 10.105,11.000 9.000,11.000 ZM14.000,20.000 L23.000,20.000 C23.552,20.000 24.000,20.448 24.000,21.000 C24.000,21.552 23.552,22.000 23.000,22.000 L14.000,22.000 C13.448,22.000 13.000,21.552 13.000,21.000 C13.000,20.448 13.448,20.000 14.000,20.000 Z" class="cls-1"/>
</svg>
