<svg xmlns="http://www.w3.org/2000/svg" xmlns:xlink="http://www.w3.org/1999/xlink" preserveAspectRatio="xMidYMid" width="24" height="24" viewBox="0 0 24 24">
  <defs>
    <style>
      .cls-1 {
        fill: #444;
        fill-rule: evenodd;
      }
    </style>
  </defs>
  <path d="M22.000,21.000 L2.000,21.000 C0.895,21.000 0.000,20.105 0.000,19.000 L0.000,7.000 C0.000,5.895 0.895,5.000 2.000,5.000 L9.573,5.000 L6.289,1.716 C5.895,1.322 5.895,0.683 6.289,0.289 C6.683,-0.105 7.322,-0.105 7.716,0.289 L12.000,4.573 L16.284,0.289 C16.678,-0.105 17.317,-0.105 17.711,0.289 C18.105,0.683 18.105,1.322 17.711,1.716 L14.427,5.000 L22.000,5.000 C23.105,5.000 24.000,5.895 24.000,7.000 L24.000,19.000 C24.000,20.105 23.105,21.000 22.000,21.000 ZM22.000,8.000 C22.000,7.448 21.552,7.000 21.000,7.000 L12.035,7.000 C12.013,7.001 11.993,7.001 11.971,7.000 C11.969,7.000 11.967,7.000 11.965,7.000 L3.000,7.000 C2.448,7.000 2.000,7.448 2.000,8.000 L2.000,18.000 C2.000,18.552 2.448,19.000 3.000,19.000 L21.000,19.000 C21.552,19.000 22.000,18.552 22.000,18.000 L22.000,8.000 ZM10.003,10.016 L15.000,13.000 L10.003,15.997 L10.003,10.016 Z" transform="translate(0 1.5)" class="cls-1"/>
</svg>
