<svg xmlns="http://www.w3.org/2000/svg" xmlns:xlink="http://www.w3.org/1999/xlink" preserveAspectRatio="xMidYMid" width="24" height="24" viewBox="0 0 24 24">
  <defs>
    <style>
      .cls-1 {
        fill: #444;
        fill-rule: evenodd;
      }
    </style>
  </defs>
  <path d="M23.990,1.136 C23.968,1.354 23.886,1.556 23.737,1.722 L13.930,23.505 C13.734,23.839 13.373,24.008 13.007,23.999 C13.004,23.999 13.002,24.000 13.000,24.000 C12.999,24.000 12.998,23.999 12.997,23.999 C12.901,23.996 12.810,23.973 12.717,23.943 C12.667,23.928 12.618,23.917 12.571,23.895 C12.554,23.886 12.534,23.887 12.517,23.877 C12.479,23.855 12.455,23.819 12.421,23.793 C12.360,23.749 12.302,23.705 12.253,23.648 C12.215,23.604 12.188,23.556 12.158,23.507 C12.121,23.446 12.088,23.387 12.064,23.319 C12.043,23.256 12.035,23.193 12.026,23.128 C12.020,23.084 12.000,23.045 12.000,23.000 L12.000,12.000 L1.000,12.000 C0.955,12.000 0.916,11.980 0.872,11.974 C0.806,11.965 0.744,11.957 0.681,11.936 C0.613,11.912 0.554,11.879 0.493,11.842 C0.444,11.813 0.396,11.785 0.352,11.747 C0.295,11.698 0.251,11.640 0.207,11.579 C0.181,11.545 0.145,11.522 0.123,11.483 C0.113,11.466 0.114,11.446 0.105,11.429 C0.083,11.382 0.072,11.333 0.057,11.283 C0.027,11.190 0.004,11.099 0.001,11.003 C0.001,11.002 0.000,11.001 0.000,11.000 C0.000,10.998 0.001,10.996 0.001,10.993 C-0.007,10.627 0.161,10.266 0.495,10.070 L22.278,0.263 C22.444,0.114 22.646,0.032 22.864,0.010 C22.872,0.009 22.879,0.009 22.886,0.009 C22.993,0.000 23.098,0.006 23.205,0.031 C23.254,0.042 23.299,0.060 23.346,0.078 C23.391,0.096 23.439,0.099 23.483,0.123 C23.508,0.137 23.521,0.161 23.545,0.177 C23.600,0.213 23.646,0.259 23.694,0.306 C23.742,0.354 23.787,0.400 23.823,0.455 C23.839,0.479 23.863,0.493 23.877,0.517 C23.902,0.561 23.904,0.609 23.922,0.654 C23.940,0.701 23.958,0.746 23.969,0.795 C23.994,0.902 24.000,1.007 23.991,1.114 C23.991,1.121 23.991,1.128 23.990,1.136 ZM4.677,10.000 L13.000,10.000 C13.552,10.000 14.000,10.448 14.000,11.000 L14.000,19.323 L20.022,3.979 L4.677,10.000 Z" class="cls-1"/>
</svg>
