<svg xmlns="http://www.w3.org/2000/svg" xmlns:xlink="http://www.w3.org/1999/xlink" preserveAspectRatio="xMidYMid" width="24" height="24" viewBox="0 0 24 24">
  <defs>
    <style>
      .cls-1 {
        fill: #444;
        fill-rule: evenodd;
      }
    </style>
  </defs>
  <path d="M7.000,16.000 C6.448,16.000 6.000,15.552 6.000,15.000 L6.000,10.000 C6.000,9.448 6.448,9.000 7.000,9.000 C7.000,6.791 8.791,5.000 11.000,5.000 C13.209,5.000 15.000,6.791 15.000,9.000 C15.552,9.000 16.000,9.448 16.000,10.000 L16.000,15.000 C16.000,15.552 15.552,16.000 15.000,16.000 L7.000,16.000 ZM11.000,7.000 C9.895,7.000 9.000,7.895 9.000,9.000 L13.000,9.000 C13.000,7.895 12.105,7.000 11.000,7.000 ZM8.000,11.000 L8.000,14.000 L14.000,14.000 L14.000,11.000 L8.000,11.000 ZM21.000,12.000 L18.000,9.000 C18.000,9.000 18.920,9.000 19.761,9.000 C19.737,8.890 19.723,8.780 19.693,8.671 C18.407,3.869 13.472,1.020 8.671,2.307 C3.869,3.593 1.020,8.528 2.307,13.329 C3.593,18.131 8.528,20.980 13.329,19.693 C14.776,19.306 16.027,18.569 17.060,17.622 L18.395,19.105 C17.135,20.257 15.609,21.153 13.847,21.625 C7.979,23.197 1.947,19.715 0.375,13.847 C-1.198,7.979 2.285,1.947 8.153,0.375 C14.021,-1.197 20.053,2.285 21.625,8.153 C21.701,8.435 21.756,8.718 21.807,9.000 C22.680,9.000 24.000,9.000 24.000,9.000 L21.000,12.000 Z" transform="translate(0 1)" class="cls-1"/>
</svg>
