<svg xmlns="http://www.w3.org/2000/svg" xmlns:xlink="http://www.w3.org/1999/xlink" preserveAspectRatio="xMidYMid" width="24" height="24" viewBox="0 0 24 24">
  <defs>
    <style>
      .cls-1 {
        fill: #444;
        fill-rule: evenodd;
      }
    </style>
  </defs>
  <path d="M21.929,0.650 C21.971,0.760 22.000,0.875 22.000,1.000 L22.000,7.000 C22.000,7.552 21.552,8.000 21.000,8.000 C20.448,8.000 20.000,7.552 20.000,7.000 L20.000,3.445 L16.041,7.404 C17.264,8.941 18.000,10.883 18.000,13.000 C18.000,17.971 13.971,22.000 9.000,22.000 C4.029,22.000 0.000,17.971 0.000,13.000 C0.000,8.030 4.029,4.000 9.000,4.000 C11.100,4.000 13.027,4.725 14.559,5.931 L18.489,2.000 L15.000,2.000 C14.448,2.000 14.000,1.552 14.000,1.000 C14.000,0.448 14.448,-0.000 15.000,-0.000 L20.854,-0.000 C20.883,-0.002 20.910,0.013 20.940,0.012 C20.961,0.011 20.979,-0.000 21.000,-0.000 C21.190,-0.000 21.358,0.067 21.509,0.160 C21.556,0.188 21.602,0.215 21.644,0.250 C21.686,0.286 21.721,0.324 21.756,0.366 C21.802,0.419 21.839,0.476 21.872,0.538 C21.892,0.575 21.914,0.610 21.929,0.650 ZM9.000,6.000 C5.134,6.000 2.000,9.134 2.000,13.000 C2.000,16.866 5.134,20.000 9.000,20.000 C12.866,20.000 16.000,16.866 16.000,13.000 C16.000,9.134 12.866,6.000 9.000,6.000 Z" transform="translate(1 1)" class="cls-1"/>
</svg>
