<svg xmlns="http://www.w3.org/2000/svg" xmlns:xlink="http://www.w3.org/1999/xlink" preserveAspectRatio="xMidYMid" width="24" height="23.031" viewBox="0 0 24 23.031">
  <defs>
    <style>
      .cls-1 {
        fill: #444;
        fill-rule: evenodd;
      }
    </style>
  </defs>
  <path d="M22.420,7.376 L18.337,11.459 C17.585,12.211 16.366,12.211 15.614,11.459 L11.531,7.376 C10.780,6.625 10.780,5.406 11.531,4.654 L15.614,0.571 C16.366,-0.181 17.585,-0.181 18.337,0.571 L22.420,4.654 C23.171,5.406 23.171,6.625 22.420,7.376 ZM8.000,23.031 L2.000,23.031 C0.895,23.031 0.000,22.136 0.000,21.031 L0.000,15.031 C0.000,13.926 0.895,13.031 2.000,13.031 L8.000,13.031 C9.105,13.031 10.000,13.926 10.000,15.031 L10.000,21.031 C10.000,22.136 9.105,23.031 8.000,23.031 ZM8.000,12.031 L2.000,12.031 C0.895,12.031 0.000,11.136 0.000,10.031 L0.000,4.031 C0.000,2.926 0.895,2.031 2.000,2.031 L8.000,2.031 C9.105,2.031 10.000,2.926 10.000,4.031 L10.000,10.031 C10.000,11.136 9.105,12.031 8.000,12.031 ZM13.000,13.031 L19.000,13.031 C20.105,13.031 21.000,13.926 21.000,15.031 L21.000,21.031 C21.000,22.136 20.105,23.031 19.000,23.031 L13.000,23.031 C11.895,23.031 11.000,22.136 11.000,21.031 L11.000,15.031 C11.000,13.926 11.895,13.031 13.000,13.031 Z" transform="translate(0.51)" class="cls-1"/>
</svg>
