<svg xmlns="http://www.w3.org/2000/svg" xmlns:xlink="http://www.w3.org/1999/xlink" preserveAspectRatio="xMidYMid" width="24" height="23.031" viewBox="0 0 24 23.031">
  <defs>
    <style>
      .cls-1 {
        fill: #444;
        fill-rule: evenodd;
      }
    </style>
  </defs>
  <path d="M22.420,7.376 L18.337,11.459 C17.585,12.211 16.366,12.211 15.614,11.459 L11.531,7.376 C10.780,6.625 10.780,5.406 11.531,4.654 L15.614,0.571 C16.366,-0.181 17.585,-0.181 18.337,0.571 L22.420,4.654 C23.171,5.406 23.171,6.625 22.420,7.376 ZM20.392,5.335 L17.670,2.613 C17.294,2.237 16.684,2.237 16.309,2.613 L13.587,5.335 C13.211,5.711 13.211,6.320 13.587,6.696 L16.309,9.418 C16.684,9.794 17.294,9.794 17.670,9.418 L20.392,6.696 C20.768,6.320 20.768,5.711 20.392,5.335 ZM8.000,23.031 L2.000,23.031 C0.895,23.031 0.000,22.136 0.000,21.031 L0.000,15.031 C0.000,13.926 0.895,13.031 2.000,13.031 L8.000,13.031 C9.105,13.031 10.000,13.926 10.000,15.031 L10.000,21.031 C10.000,22.136 9.105,23.031 8.000,23.031 ZM8.000,16.031 C8.000,15.479 7.552,15.031 7.000,15.031 L3.000,15.031 C2.448,15.031 2.000,15.479 2.000,16.031 L2.000,20.031 C2.000,20.583 2.448,21.031 3.000,21.031 L7.000,21.031 C7.552,21.031 8.000,20.583 8.000,20.031 L8.000,16.031 ZM8.000,12.031 L2.000,12.031 C0.895,12.031 0.000,11.136 0.000,10.031 L0.000,4.031 C0.000,2.926 0.895,2.031 2.000,2.031 L8.000,2.031 C9.105,2.031 10.000,2.926 10.000,4.031 L10.000,10.031 C10.000,11.136 9.105,12.031 8.000,12.031 ZM8.000,5.031 C8.000,4.479 7.552,4.031 7.000,4.031 L3.000,4.031 C2.448,4.031 2.000,4.479 2.000,5.031 L2.000,9.031 C2.000,9.583 2.448,10.031 3.000,10.031 L7.000,10.031 C7.552,10.031 8.000,9.583 8.000,9.031 L8.000,5.031 ZM13.000,13.031 L19.000,13.031 C20.105,13.031 21.000,13.926 21.000,15.031 L21.000,21.031 C21.000,22.136 20.105,23.031 19.000,23.031 L13.000,23.031 C11.895,23.031 11.000,22.136 11.000,21.031 L11.000,15.031 C11.000,13.926 11.895,13.031 13.000,13.031 ZM13.000,20.031 C13.000,20.583 13.448,21.031 14.000,21.031 L18.000,21.031 C18.552,21.031 19.000,20.583 19.000,20.031 L19.000,16.031 C19.000,15.479 18.552,15.031 18.000,15.031 L14.000,15.031 C13.448,15.031 13.000,15.479 13.000,16.031 L13.000,20.031 Z" transform="translate(0.51)" class="cls-1"/>
</svg>
