<svg xmlns="http://www.w3.org/2000/svg" xmlns:xlink="http://www.w3.org/1999/xlink" preserveAspectRatio="xMidYMid" width="24" height="24" viewBox="0 0 24 24">
  <defs>
    <style>
      .cls-1 {
        fill: #444;
        fill-rule: evenodd;
      }
    </style>
  </defs>
  <path d="M14.653,14.133 L13.818,14.996 L15.000,15.006 L18.000,23.994 L0.000,23.994 L3.000,15.006 L4.157,14.996 L3.322,14.133 C0.193,10.900 0.193,5.658 3.322,2.424 C6.451,-0.809 11.524,-0.809 14.653,2.424 C17.782,5.658 17.782,10.900 14.653,14.133 ZM4.600,17.003 L3.000,21.997 L15.000,21.997 L13.400,16.994 L11.884,16.994 L8.988,19.987 L6.092,16.996 L4.600,17.003 ZM13.243,3.840 C10.900,1.417 7.101,1.417 4.758,3.840 C2.414,6.264 2.414,10.193 4.758,12.616 L9.000,17.004 L13.243,12.616 C15.586,10.193 15.586,6.264 13.243,3.840 ZM9.000,10.012 C7.895,10.012 7.000,9.118 7.000,8.015 C7.000,6.912 7.895,6.017 9.000,6.017 C10.105,6.017 11.000,6.912 11.000,8.015 C11.000,9.118 10.105,10.012 9.000,10.012 Z" transform="translate(3)" class="cls-1"/>
</svg>
