<svg xmlns="http://www.w3.org/2000/svg" xmlns:xlink="http://www.w3.org/1999/xlink" preserveAspectRatio="xMidYMid" width="24" height="24" viewBox="0 0 24 24">
  <defs>
    <style>
      .cls-1 {
        fill: #444;
        fill-rule: evenodd;
      }
    </style>
  </defs>
  <path d="M14.653,14.136 L13.821,14.997 L15.000,14.997 L18.000,24.000 L0.000,24.000 L3.000,14.997 L4.154,14.997 L3.322,14.136 C0.193,10.902 0.193,5.659 3.322,2.425 C6.451,-0.809 11.524,-0.809 14.653,2.425 C17.782,5.659 17.782,10.902 14.653,14.136 ZM4.600,16.995 L3.000,22.002 L15.000,22.002 L13.400,16.995 L11.888,16.995 L8.988,19.992 L6.087,16.995 L4.600,16.995 ZM9.000,6.019 C7.895,6.019 7.000,6.913 7.000,8.017 C7.000,9.120 7.895,10.015 9.000,10.015 C10.105,10.015 11.000,9.120 11.000,8.017 C11.000,6.913 10.105,6.019 9.000,6.019 Z" transform="translate(3)" class="cls-1"/>
</svg>
