<svg xmlns="http://www.w3.org/2000/svg" xmlns:xlink="http://www.w3.org/1999/xlink" preserveAspectRatio="xMidYMid" width="24" height="24" viewBox="0 0 24 24">
  <defs>
    <style>
      .cls-1 {
        fill: #444;
        fill-rule: evenodd;
      }
    </style>
  </defs>
  <path d="M19.978,20.233 C19.964,20.315 19.939,20.390 19.906,20.466 C19.883,20.522 19.860,20.574 19.828,20.625 C19.804,20.661 19.775,20.690 19.746,20.723 C19.682,20.799 19.611,20.864 19.525,20.918 C19.521,20.920 19.518,20.925 19.513,20.928 C19.504,20.933 19.494,20.933 19.484,20.938 C19.413,20.977 19.348,21.025 19.265,21.046 L16.558,21.725 L14.706,23.613 C14.704,23.616 14.701,23.618 14.698,23.621 L14.633,23.687 C14.621,23.700 14.605,23.703 14.592,23.715 C14.535,23.770 14.485,23.831 14.413,23.873 C14.005,24.108 13.510,24.002 13.207,23.666 C13.202,23.662 13.196,23.660 13.192,23.656 C13.184,23.648 13.181,23.637 13.174,23.629 C13.141,23.588 13.099,23.560 13.072,23.513 L10.127,18.413 C10.052,18.282 10.017,18.141 10.006,18.000 C10.004,18.000 10.002,18.000 10.000,18.000 C9.998,18.000 9.996,18.000 9.994,18.000 C9.983,18.141 9.948,18.282 9.873,18.413 L6.928,23.513 C6.901,23.560 6.859,23.589 6.826,23.629 C6.819,23.637 6.816,23.648 6.808,23.656 C6.804,23.660 6.798,23.662 6.793,23.666 C6.490,24.002 5.995,24.108 5.587,23.873 C5.515,23.831 5.465,23.770 5.408,23.715 C5.395,23.703 5.379,23.700 5.367,23.687 L5.302,23.621 C5.300,23.618 5.296,23.616 5.294,23.613 L3.442,21.725 L0.735,21.046 C0.652,21.025 0.587,20.977 0.516,20.938 C0.506,20.933 0.496,20.933 0.487,20.928 C0.482,20.925 0.480,20.921 0.475,20.918 C0.389,20.864 0.318,20.799 0.254,20.723 C0.225,20.690 0.196,20.661 0.172,20.625 C0.140,20.574 0.117,20.522 0.094,20.466 C0.061,20.390 0.036,20.315 0.022,20.233 C0.017,20.199 0.017,20.165 0.015,20.129 C0.010,20.034 0.016,19.942 0.040,19.848 C0.045,19.823 0.039,19.799 0.046,19.773 C0.058,19.731 0.086,19.700 0.103,19.661 C0.114,19.637 0.114,19.611 0.127,19.587 L0.220,19.427 C0.228,19.415 0.233,19.400 0.242,19.389 L2.987,14.634 C1.746,13.091 1.000,11.134 1.000,9.000 C1.000,4.029 5.029,0.000 10.000,0.000 C14.971,0.000 19.000,4.029 19.000,9.000 C19.000,11.134 18.254,13.091 17.013,14.634 L19.758,19.389 C19.767,19.400 19.772,19.415 19.780,19.427 L19.873,19.587 C19.886,19.611 19.886,19.637 19.897,19.661 C19.914,19.700 19.942,19.731 19.954,19.773 C19.961,19.799 19.955,19.823 19.960,19.848 C19.984,19.943 19.990,20.034 19.985,20.129 C19.983,20.165 19.983,20.199 19.978,20.233 ZM2.557,19.305 L4.261,19.732 C4.450,19.780 4.597,19.893 4.720,20.029 C4.723,20.032 4.727,20.032 4.729,20.035 L5.950,21.280 L7.992,17.745 C6.674,17.441 5.457,16.872 4.430,16.061 L2.557,19.305 ZM10.000,2.000 C6.134,2.000 3.000,5.134 3.000,9.000 C3.000,12.866 6.134,16.000 10.000,16.000 C13.866,16.000 17.000,12.866 17.000,9.000 C17.000,5.134 13.866,2.000 10.000,2.000 ZM15.570,16.061 C14.543,16.872 13.326,17.441 12.008,17.745 L14.050,21.280 L15.271,20.035 C15.273,20.032 15.277,20.032 15.280,20.029 C15.403,19.893 15.550,19.780 15.740,19.732 L17.443,19.305 L15.570,16.061 ZM10.000,13.000 C7.791,13.000 6.000,11.209 6.000,9.000 C6.000,6.791 7.791,5.000 10.000,5.000 C12.209,5.000 14.000,6.791 14.000,9.000 C14.000,11.209 12.209,13.000 10.000,13.000 ZM10.000,7.000 C8.895,7.000 8.000,7.895 8.000,9.000 C8.000,10.105 8.895,11.000 10.000,11.000 C11.105,11.000 12.000,10.105 12.000,9.000 C12.000,7.895 11.105,7.000 10.000,7.000 Z" transform="translate(2)" class="cls-1"/>
</svg>
