<svg xmlns="http://www.w3.org/2000/svg" xmlns:xlink="http://www.w3.org/1999/xlink" preserveAspectRatio="xMidYMid" width="24" height="24" viewBox="0 0 24 24">
  <defs>
    <style>
      .cls-1 {
        fill: #444;
        fill-rule: evenodd;
      }
    </style>
  </defs>
  <path d="M22.000,20.000 L2.000,20.000 C0.895,20.000 -0.000,19.105 -0.000,18.000 L-0.000,6.000 C-0.000,4.895 0.895,4.000 2.000,4.000 L6.000,4.000 L6.000,1.000 C6.000,0.448 6.448,-0.000 7.000,-0.000 L17.000,-0.000 C17.552,-0.000 18.000,0.448 18.000,1.000 L18.000,4.000 L22.000,4.000 C23.105,4.000 24.000,4.895 24.000,6.000 L24.000,18.000 C24.000,19.105 23.105,20.000 22.000,20.000 ZM16.000,2.000 L8.000,2.000 L8.000,4.000 L16.000,4.000 L16.000,2.000 ZM15.000,11.000 L13.000,11.000 L13.000,9.000 C13.000,8.448 12.552,8.000 12.000,8.000 C11.448,8.000 11.000,8.448 11.000,9.000 L11.000,11.000 L9.000,11.000 C8.448,11.000 8.000,11.448 8.000,12.000 C8.000,12.552 8.448,13.000 9.000,13.000 L11.000,13.000 L11.000,15.000 C11.000,15.552 11.448,16.000 12.000,16.000 C12.552,16.000 13.000,15.552 13.000,15.000 L13.000,13.000 L15.000,13.000 C15.552,13.000 16.000,12.552 16.000,12.000 C16.000,11.448 15.552,11.000 15.000,11.000 Z" transform="translate(0 2)" class="cls-1"/>
</svg>
