<svg xmlns="http://www.w3.org/2000/svg" xmlns:xlink="http://www.w3.org/1999/xlink" preserveAspectRatio="xMidYMid" width="24" height="24" viewBox="0 0 24 24">
  <defs>
    <style>
      .cls-1 {
        fill: #444;
        fill-rule: evenodd;
      }
    </style>
  </defs>
  <path d="M21.000,17.000 C21.000,17.552 20.552,18.000 20.000,18.000 L2.000,18.000 L2.000,18.000 L2.000,18.000 C1.448,18.000 1.000,17.552 1.000,17.000 L0.014,4.177 C-0.032,3.862 0.048,3.532 0.291,3.290 C0.699,2.881 1.360,2.881 1.769,3.290 L6.676,8.196 L10.049,0.673 C10.052,0.667 10.057,0.664 10.060,0.658 C10.128,0.421 10.254,0.211 10.462,0.087 C10.657,-0.029 10.879,-0.037 11.099,0.007 C11.152,0.007 11.201,0.022 11.253,0.032 C11.258,0.033 11.263,0.034 11.268,0.036 C11.360,0.055 11.454,0.068 11.538,0.118 C11.714,0.222 11.824,0.392 11.900,0.581 C11.915,0.605 11.937,0.620 11.951,0.645 L15.310,8.180 L20.200,3.290 C20.511,2.979 20.967,2.908 21.348,3.070 C21.727,3.212 22.000,3.571 22.000,4.000 L21.000,17.000 ZM2.000,20.000 L20.000,20.000 C20.552,20.000 21.000,20.448 21.000,21.000 C21.000,21.552 20.552,22.000 20.000,22.000 L2.000,22.000 C1.448,22.000 1.000,21.552 1.000,21.000 C1.000,20.448 1.448,20.000 2.000,20.000 Z" transform="translate(1 1)" class="cls-1"/>
</svg>
