<svg xmlns="http://www.w3.org/2000/svg" xmlns:xlink="http://www.w3.org/1999/xlink" preserveAspectRatio="xMidYMid" width="24" height="24" viewBox="0 0 24 24">
  <defs>
    <style>
      .cls-1 {
        fill: #444;
        fill-rule: evenodd;
      }
    </style>
  </defs>
  <path d="M22.000,16.000 L16.356,16.000 L12.674,19.712 C12.302,20.087 11.699,20.087 11.327,19.712 L7.646,16.000 L2.000,16.000 C0.895,16.000 -0.000,15.105 -0.000,14.000 L-0.000,2.000 C-0.000,0.895 0.895,-0.000 2.000,-0.000 L22.000,-0.000 C23.105,-0.000 24.000,0.895 24.000,2.000 L24.000,14.000 C24.000,15.105 23.105,16.000 22.000,16.000 ZM19.000,9.000 L17.000,9.000 C16.448,9.000 16.000,8.552 16.000,8.000 C16.000,7.448 16.448,7.000 17.000,7.000 L19.000,7.000 C19.552,7.000 20.000,7.448 20.000,8.000 C20.000,8.552 19.552,9.000 19.000,9.000 ZM13.000,9.000 L11.000,9.000 C10.448,9.000 10.000,8.552 10.000,8.000 C10.000,7.448 10.448,7.000 11.000,7.000 L13.000,7.000 C13.552,7.000 14.000,7.448 14.000,8.000 C14.000,8.552 13.552,9.000 13.000,9.000 ZM7.000,9.000 L5.000,9.000 C4.448,9.000 4.000,8.552 4.000,8.000 C4.000,7.448 4.448,7.000 5.000,7.000 L7.000,7.000 C7.552,7.000 8.000,7.448 8.000,8.000 C8.000,8.552 7.552,9.000 7.000,9.000 Z" transform="translate(0 2)" class="cls-1"/>
</svg>
