<svg xmlns="http://www.w3.org/2000/svg" xmlns:xlink="http://www.w3.org/1999/xlink" preserveAspectRatio="xMidYMid" width="24" height="24" viewBox="0 0 24 24">
  <defs>
    <style>
      .cls-1 {
        fill: #444;
        fill-rule: evenodd;
      }
    </style>
  </defs>
  <path d="M16.000,9.000 C16.000,9.000 16.000,9.000 16.000,9.000 C16.000,14.178 13.823,18.436 9.000,18.948 L9.000,22.000 L13.000,22.000 C13.552,22.000 14.000,22.448 14.000,23.000 C14.000,23.552 13.552,24.000 13.000,24.000 L3.000,24.000 C2.448,24.000 2.000,23.552 2.000,23.000 C2.000,22.448 2.448,22.000 3.000,22.000 L7.000,22.000 L7.000,18.948 C2.177,18.436 0.000,14.178 0.000,9.000 C0.000,9.000 0.000,9.000 0.000,9.000 C0.000,9.000 0.000,9.000 0.000,9.000 C0.000,9.000 0.000,9.000 0.000,9.000 L0.000,9.000 C0.000,8.448 0.448,8.000 1.000,8.000 C1.552,8.000 2.000,8.448 2.000,9.000 L2.000,9.000 C2.000,13.418 3.582,17.000 8.000,17.000 C12.418,17.000 14.000,13.419 14.000,9.000 C14.000,9.000 14.000,9.000 14.000,9.000 C14.000,8.448 14.448,8.000 15.000,8.000 C15.552,8.000 16.000,8.448 16.000,9.000 L16.000,9.000 C16.000,9.000 16.000,9.000 16.000,9.000 C16.000,9.000 16.000,9.000 16.000,9.000 ZM8.000,15.000 C5.791,15.000 4.000,13.209 4.000,11.000 L4.000,4.000 C4.000,1.791 5.791,-0.000 8.000,-0.000 C10.209,-0.000 12.000,1.791 12.000,4.000 L12.000,11.000 C12.000,13.209 10.209,15.000 8.000,15.000 Z" transform="translate(4)" class="cls-1"/>
</svg>
