<svg xmlns="http://www.w3.org/2000/svg" xmlns:xlink="http://www.w3.org/1999/xlink" preserveAspectRatio="xMidYMid" width="24" height="24" viewBox="0 0 24 24">
  <defs>
    <style>
      .cls-1 {
        fill: #444;
        fill-rule: evenodd;
      }
    </style>
  </defs>
  <path d="M21.000,7.859 L21.000,16.141 C22.722,16.587 24.000,18.138 24.000,20.000 C24.000,22.209 22.209,24.000 20.000,24.000 C18.138,24.000 16.588,22.722 16.141,21.000 L7.859,21.000 C7.412,22.722 5.862,24.000 4.000,24.000 C1.791,24.000 -0.000,22.209 -0.000,20.000 C-0.000,18.138 1.278,16.587 3.000,16.141 L3.000,7.859 C1.278,7.412 -0.000,5.862 -0.000,4.000 C-0.000,1.791 1.791,0.000 4.000,0.000 C5.862,0.000 7.412,1.278 7.858,3.000 L16.141,3.000 C16.588,1.278 18.138,0.000 20.000,0.000 C22.209,0.000 24.000,1.791 24.000,4.000 C24.000,5.862 22.722,7.412 21.000,7.859 ZM16.141,5.000 L7.859,5.000 C7.496,6.401 6.397,7.494 5.000,7.859 L5.000,16.141 C6.401,16.504 7.494,17.603 7.859,19.000 L16.141,19.000 C16.504,17.599 17.603,16.506 19.000,16.141 L19.000,7.859 C17.603,7.494 16.504,6.401 16.141,5.000 Z" class="cls-1"/>
</svg>
