<svg xmlns="http://www.w3.org/2000/svg" xmlns:xlink="http://www.w3.org/1999/xlink" preserveAspectRatio="xMidYMid" width="24" height="23.04" viewBox="0 0 25 24">
  <defs>
    <style>
      .cls-1 {
        fill: #444;
        fill-rule: evenodd;
      }
    </style>
  </defs>
  <path d="M23.979,3.040 C23.957,3.595 23.407,14.692 20.514,18.806 C17.531,23.046 13.273,24.000 12.016,24.000 C10.760,24.000 6.502,23.046 3.518,18.806 C0.625,14.692 0.076,3.595 0.054,3.040 L0.013,2.000 C0.013,2.000 6.039,0.000 12.052,0.000 C18.042,0.000 24.019,2.000 24.019,2.000 L23.979,3.040 ZM15.018,13.000 C15.570,13.000 16.018,13.448 16.018,14.000 C16.018,14.552 15.570,15.000 15.018,15.000 L13.018,15.000 L13.018,17.000 C13.018,17.552 12.570,18.000 12.018,18.000 C11.465,18.000 11.018,17.552 11.018,17.000 L11.018,15.000 L9.018,15.000 C8.465,15.000 8.018,14.552 8.018,14.000 C8.018,13.448 8.465,13.000 9.018,13.000 L11.018,13.000 L11.018,12.000 L9.018,12.000 C8.465,12.000 8.018,11.552 8.018,11.000 C8.018,10.448 8.465,10.000 9.018,10.000 L11.018,10.000 C11.018,9.838 11.017,9.400 11.017,9.400 L8.307,6.762 C7.899,6.359 7.899,5.706 8.307,5.302 C8.715,4.899 9.377,4.899 9.785,5.302 L12.001,7.492 L14.218,5.302 C14.626,4.899 15.287,4.899 15.695,5.302 C16.104,5.706 16.104,6.359 15.695,6.762 L13.018,9.400 C13.018,9.400 13.018,9.829 13.018,10.000 L15.018,10.000 C15.570,10.000 16.018,10.448 16.018,11.000 C16.018,11.552 15.570,12.000 15.018,12.000 L13.018,12.000 L13.018,13.000 L15.018,13.000 Z" transform="translate(0.49)" class="cls-1"/>
</svg>
