<svg xmlns="http://www.w3.org/2000/svg" xmlns:xlink="http://www.w3.org/1999/xlink" preserveAspectRatio="xMidYMid" width="24" height="24" viewBox="0 0 24 24">
  <defs>
    <style>
      .cls-1 {
        fill: #444;
        fill-rule: evenodd;
      }
    </style>
  </defs>
  <path d="M12.000,24.000 C5.373,24.000 -0.000,18.627 -0.000,12.000 C-0.000,5.373 5.373,0.000 12.000,0.000 C18.627,0.000 24.000,5.373 24.000,12.000 C24.000,18.627 18.627,24.000 12.000,24.000 ZM15.000,12.000 C15.552,12.000 16.000,11.552 16.000,11.000 C16.000,10.448 15.552,10.000 15.000,10.000 L13.243,10.000 L15.535,7.707 C15.926,7.317 15.926,6.683 15.535,6.293 C15.145,5.902 14.512,5.902 14.121,6.293 L12.000,8.414 L9.879,6.293 C9.488,5.902 8.855,5.902 8.464,6.293 C8.074,6.683 8.074,7.317 8.464,7.707 L10.757,10.000 L9.000,10.000 C8.448,10.000 8.000,10.448 8.000,11.000 C8.000,11.552 8.448,12.000 9.000,12.000 L11.000,12.000 L11.000,14.000 L9.000,14.000 C8.448,14.000 8.000,14.448 8.000,15.000 C8.000,15.552 8.448,16.000 9.000,16.000 L11.000,16.000 L11.000,18.000 C11.000,18.552 11.448,19.000 12.000,19.000 C12.552,19.000 13.000,18.552 13.000,18.000 L13.000,16.000 L15.000,16.000 C15.552,16.000 16.000,15.552 16.000,15.000 C16.000,14.448 15.552,14.000 15.000,14.000 L13.000,14.000 L13.000,12.000 L15.000,12.000 Z" class="cls-1"/>
</svg>
