<svg xmlns="http://www.w3.org/2000/svg" xmlns:xlink="http://www.w3.org/1999/xlink" preserveAspectRatio="xMidYMid" width="24" height="24" viewBox="0 0 24 24">
  <defs>
    <style>
      .cls-1 {
        fill: #444;
        fill-rule: evenodd;
      }
    </style>
  </defs>
  <path d="M23.950,12.997 C23.442,19.157 18.291,24.000 12.000,24.000 C5.373,24.000 0.000,18.627 0.000,12.000 C0.000,5.709 4.843,0.558 11.003,0.050 C11.002,0.033 11.000,0.017 11.000,-0.000 L13.000,-0.000 C13.000,6.075 17.925,11.000 24.000,11.000 L24.000,13.000 C23.983,13.000 23.967,12.998 23.950,12.997 ZM11.176,2.042 C6.040,2.462 2.000,6.755 2.000,12.000 C2.000,17.523 6.477,22.000 12.000,22.000 C17.245,22.000 21.538,17.960 21.958,12.824 C16.418,11.948 12.052,7.582 11.176,2.042 Z" class="cls-1"/>
</svg>
