<svg xmlns="http://www.w3.org/2000/svg" xmlns:xlink="http://www.w3.org/1999/xlink" preserveAspectRatio="xMidYMid" width="24" height="24" viewBox="0 0 24 24">
  <defs>
    <style>
      .cls-1 {
        fill: #444;
        fill-rule: evenodd;
      }
    </style>
  </defs>
  <path d="M8.000,2.088 L8.000,2.008 L8.000,1.009 C8.000,0.457 7.552,0.009 7.000,0.009 L7.000,0.009 C6.448,0.009 6.000,0.457 6.000,1.009 L6.000,2.008 L6.000,2.088 C2.609,2.574 -0.000,5.481 -0.000,9.005 L-0.000,11.004 L-0.000,16.707 C-0.000,20.538 2.954,23.879 6.785,23.994 C10.749,24.112 14.000,20.936 14.000,17.000 L14.000,11.004 L14.000,9.005 C14.000,5.481 11.391,2.574 8.000,2.088 ZM12.000,9.005 L8.000,9.005 L8.000,4.108 C10.279,4.573 12.000,6.591 12.000,9.005 ZM6.000,4.108 L6.000,9.005 L2.000,9.005 C2.000,6.591 3.721,4.573 6.000,4.108 ZM12.000,17.000 C12.000,19.756 9.757,21.998 7.000,21.998 C4.243,21.998 2.000,19.756 2.000,17.000 L2.000,11.004 L6.000,11.004 L8.000,11.004 L12.000,11.004 L12.000,17.000 Z" transform="translate(5)" class="cls-1"/>
</svg>
