<svg xmlns="http://www.w3.org/2000/svg" xmlns:xlink="http://www.w3.org/1999/xlink" preserveAspectRatio="xMidYMid" width="24" height="24" viewBox="0 0 24 24">
  <defs>
    <style>
      .cls-1 {
        fill: #444;
        fill-rule: evenodd;
      }
    </style>
  </defs>
  <path d="M21.871,13.114 C21.585,13.865 21.781,14.298 21.955,14.553 C22.460,15.289 23.682,15.624 24.000,15.630 L23.999,17.606 C23.183,17.606 21.265,17.044 20.317,15.687 C19.855,15.025 19.430,13.909 20.029,12.347 C20.361,11.635 20.655,11.114 20.914,10.656 C21.635,9.381 22.059,8.843 22.001,6.420 C21.975,5.301 20.548,5.251 20.277,5.251 L17.397,5.251 C17.932,6.398 18.240,7.671 18.240,9.017 C18.240,13.995 14.157,18.029 9.120,18.029 C4.083,18.029 -0.000,13.995 -0.000,9.017 C-0.000,4.040 4.083,0.006 9.120,0.006 C11.948,0.006 14.475,1.278 16.147,3.274 L20.273,3.274 C21.510,3.295 23.999,3.872 23.999,6.322 C23.999,9.244 23.462,10.200 22.661,11.619 C22.416,12.052 22.148,12.527 21.871,13.114 ZM9.120,1.903 C5.144,1.903 1.920,5.088 1.920,9.017 C1.920,12.947 5.144,16.132 9.120,16.132 C13.096,16.132 16.320,12.947 16.320,9.017 C16.320,5.088 13.096,1.903 9.120,1.903 ZM11.520,9.017 C11.520,8.232 12.165,7.595 12.960,7.595 C13.755,7.595 14.400,8.232 14.400,9.017 C14.400,9.803 13.755,10.440 12.960,10.440 C12.165,10.440 11.520,9.803 11.520,9.017 ZM9.120,14.235 C8.325,14.235 7.680,13.597 7.680,12.812 C7.680,12.026 8.325,11.389 9.120,11.389 C9.915,11.389 10.560,12.026 10.560,12.812 C10.560,13.597 9.915,14.235 9.120,14.235 ZM9.600,9.017 C9.600,9.279 9.385,9.492 9.120,9.492 C8.855,9.492 8.640,9.279 8.640,9.017 C8.640,8.756 8.855,8.543 9.120,8.543 C9.385,8.543 9.600,8.756 9.600,9.017 ZM9.120,6.646 C8.325,6.646 7.680,6.008 7.680,5.223 C7.680,4.438 8.325,3.800 9.120,3.800 C9.915,3.800 10.560,4.438 10.560,5.223 C10.560,6.008 9.915,6.646 9.120,6.646 ZM5.280,10.440 C4.485,10.440 3.840,9.803 3.840,9.017 C3.840,8.232 4.485,7.595 5.280,7.595 C6.075,7.595 6.720,8.232 6.720,9.017 C6.720,9.803 6.075,10.440 5.280,10.440 Z" transform="translate(0 2.98)" class="cls-1"/>
</svg>
