<svg xmlns="http://www.w3.org/2000/svg" xmlns:xlink="http://www.w3.org/1999/xlink" preserveAspectRatio="xMidYMid" width="24" height="24" viewBox="0 0 24 24">
  <defs>
    <style>
      .cls-1 {
        fill: #444;
        fill-rule: evenodd;
      }
    </style>
  </defs>
  <path d="M24.000,16.000 C24.000,18.209 22.209,20.000 20.000,20.000 C17.791,20.000 16.000,18.209 16.000,16.000 C16.000,13.791 17.791,12.000 20.000,12.000 C20.732,12.000 21.410,12.211 22.000,12.555 L22.000,2.166 L8.000,5.783 L8.000,20.000 C8.000,22.209 6.209,24.000 4.000,24.000 C1.791,24.000 0.000,22.209 0.000,20.000 C0.000,17.791 1.791,16.000 4.000,16.000 L4.000,16.000 C4.732,16.000 5.410,16.211 6.000,16.555 L6.000,5.125 C6.000,5.086 6.018,5.053 6.022,5.016 C6.028,4.947 6.041,4.879 6.063,4.813 C6.076,4.773 6.086,4.735 6.104,4.698 C6.144,4.612 6.198,4.533 6.262,4.463 C6.282,4.442 6.298,4.420 6.319,4.400 C6.383,4.344 6.454,4.296 6.530,4.258 C6.574,4.232 6.620,4.210 6.668,4.192 C6.691,4.184 6.708,4.168 6.732,4.161 L22.763,0.020 C22.828,0.003 22.892,0.012 22.957,0.009 C22.972,0.008 22.985,-0.000 23.000,-0.000 C23.008,-0.000 23.015,0.004 23.023,0.005 C23.414,0.002 23.768,0.238 23.915,0.601 L23.922,0.616 C23.932,0.641 23.951,0.660 23.959,0.686 C23.974,0.740 23.964,0.793 23.969,0.847 C23.977,0.899 24.000,0.946 24.000,1.000 L24.000,16.000 Z" class="cls-1"/>
</svg>
