<svg xmlns="http://www.w3.org/2000/svg" xmlns:xlink="http://www.w3.org/1999/xlink" preserveAspectRatio="xMidYMid" width="24" height="24" viewBox="0 0 24 24">
  <defs>
    <style>
      .cls-1 {
        fill: #444;
        fill-rule: evenodd;
      }
    </style>
  </defs>
  <path d="M24.000,16.000 C24.000,18.209 22.209,20.000 20.000,20.000 C17.791,20.000 16.000,18.209 16.000,16.000 C16.000,13.791 17.791,12.000 20.000,12.000 C20.732,12.000 21.410,12.211 22.000,12.555 L22.000,2.166 L8.000,5.783 L8.000,20.000 C8.000,22.209 6.209,24.000 4.000,24.000 C1.791,24.000 0.000,22.209 -0.000,20.000 C-0.000,17.791 1.791,16.000 4.000,16.000 L4.000,16.000 C4.732,16.000 5.410,16.211 6.000,16.555 L6.000,5.125 C6.000,5.086 6.018,5.053 6.022,5.016 C6.028,4.947 6.041,4.879 6.063,4.813 C6.076,4.773 6.086,4.735 6.104,4.698 C6.144,4.612 6.198,4.533 6.262,4.463 C6.282,4.442 6.298,4.420 6.319,4.400 C6.383,4.344 6.454,4.296 6.530,4.258 C6.574,4.232 6.620,4.210 6.668,4.192 C6.691,4.184 6.708,4.168 6.732,4.161 L22.763,0.020 C22.828,0.003 22.892,0.012 22.957,0.009 C22.972,0.008 22.985,-0.000 23.000,-0.000 C23.008,-0.000 23.015,0.004 23.023,0.005 C23.414,0.002 23.768,0.238 23.915,0.601 L23.922,0.616 C23.932,0.641 23.951,0.660 23.959,0.686 C23.974,0.740 23.964,0.793 23.969,0.847 C23.977,0.899 24.000,0.946 24.000,1.000 L24.000,16.000 ZM4.000,18.000 C2.896,17.975 1.980,18.850 1.956,19.955 C1.931,21.059 2.806,21.974 3.910,21.999 C3.940,22.000 3.969,22.000 3.999,21.999 C5.103,21.975 5.979,21.060 5.955,19.956 C5.931,18.886 5.070,18.024 4.000,18.000 ZM20.000,14.000 C18.896,13.975 17.980,14.850 17.956,15.955 C17.931,17.059 18.806,17.974 19.910,17.999 C19.940,18.000 19.969,18.000 19.999,17.999 C21.103,17.975 21.979,17.060 21.955,15.956 C21.931,14.886 21.070,14.024 20.000,14.000 Z" class="cls-1"/>
</svg>
