<svg xmlns="http://www.w3.org/2000/svg" xmlns:xlink="http://www.w3.org/1999/xlink" preserveAspectRatio="xMidYMid" width="24" height="24" viewBox="0 0 24 24">
  <defs>
    <style>
      .cls-1 {
        fill: #444;
        fill-rule: evenodd;
      }
    </style>
  </defs>
  <path d="M-0.000,23.000 L-0.000,2.000 C-0.000,0.895 0.895,0.000 2.000,0.000 L18.000,0.000 C19.105,0.000 20.000,0.895 20.000,2.000 L20.000,23.000 M20.000,23.000 C19.993,23.786 19.057,24.099 18.582,23.904 C18.397,23.961 18.204,24.000 18.000,24.000 L18.000,24.000 L10.000,19.145 L2.000,24.000 L2.000,24.000 C1.796,24.000 1.603,23.961 1.418,23.904 C0.943,24.099 0.265,23.443 -0.000,23.000 M18.000,3.000 C18.000,2.448 17.552,2.000 17.000,2.000 L3.000,2.000 C2.448,2.000 2.000,2.448 2.000,3.000 L2.000,21.000 C2.000,21.095 1.975,20.913 2.000,21.000 L9.465,17.134 C9.539,17.093 9.618,17.081 9.696,17.059 C9.725,17.050 9.750,17.039 9.779,17.032 C9.854,17.017 9.925,17.016 10.000,17.017 C10.075,17.016 10.146,17.017 10.221,17.032 C10.250,17.039 10.276,17.050 10.304,17.059 C10.382,17.081 10.461,17.093 10.535,17.134 L18.000,21.000 C18.001,19.770 18.000,21.095 18.000,21.000 L18.000,3.000 ZM14.000,14.000 L6.000,14.000 C5.448,14.000 5.000,13.552 5.000,13.000 C5.000,12.448 5.448,12.000 6.000,12.000 L14.000,12.000 C14.552,12.000 15.000,12.448 15.000,13.000 C15.000,13.552 14.552,14.000 14.000,14.000 ZM14.000,10.000 L6.000,10.000 C5.448,10.000 5.000,9.552 5.000,9.000 C5.000,8.448 5.448,8.000 6.000,8.000 L14.000,8.000 C14.552,8.000 15.000,8.448 15.000,9.000 C15.000,9.552 14.552,10.000 14.000,10.000 ZM14.000,6.000 L6.000,6.000 C5.448,6.000 5.000,5.552 5.000,5.000 C5.000,4.448 5.448,4.000 6.000,4.000 L14.000,4.000 C14.552,4.000 15.000,4.448 15.000,5.000 C15.000,5.552 14.552,6.000 14.000,6.000 Z" transform="translate(2)" class="cls-1"/>
</svg>
