<svg xmlns="http://www.w3.org/2000/svg" xmlns:xlink="http://www.w3.org/1999/xlink" preserveAspectRatio="xMidYMid" width="24" height="24" viewBox="0 0 24 24">
  <defs>
    <style>
      .cls-1 {
        fill: #444;
        fill-rule: evenodd;
      }
    </style>
  </defs>
  <path d="M20.000,22.989 C19.999,23.541 19.552,23.988 19.000,23.988 L19.000,23.988 C18.787,23.988 18.510,23.854 18.510,23.854 L9.992,18.945 L1.500,23.854 C1.500,23.854 1.235,23.955 0.991,23.988 L0.991,23.988 C0.467,24.000 0.000,23.541 0.000,22.989 L0.000,0.999 C0.000,0.447 0.448,-0.000 1.000,-0.000 L19.000,-0.000 C19.552,-0.000 20.000,0.447 20.000,0.999 L20.000,22.989 L20.000,22.989 L20.000,22.989 ZM18.000,1.999 L2.000,1.999 L2.000,21.256 L9.488,16.927 C9.520,16.909 9.556,16.908 9.589,16.893 C9.662,16.861 9.732,16.833 9.809,16.819 C9.864,16.809 9.916,16.809 9.970,16.808 C10.043,16.806 10.113,16.808 10.186,16.823 C10.245,16.835 10.299,16.857 10.355,16.879 C10.399,16.897 10.446,16.899 10.488,16.924 L18.000,21.253 L18.000,1.999 ZM5.000,12.993 C5.000,12.441 5.448,11.994 6.000,11.994 L14.000,11.994 C14.552,11.994 15.000,12.441 15.000,12.993 C15.000,13.545 14.552,13.993 14.000,13.993 L6.000,13.993 C5.448,13.993 5.000,13.545 5.000,12.993 ZM14.000,9.995 L6.000,9.995 C5.448,9.995 5.000,9.547 5.000,8.995 C5.000,8.443 5.448,7.996 6.000,7.996 L14.000,7.996 C14.552,7.996 15.000,8.443 15.000,8.995 C15.000,9.547 14.552,9.995 14.000,9.995 ZM14.000,5.997 L6.000,5.997 C5.448,5.997 5.000,5.549 5.000,4.997 C5.000,4.445 5.448,3.998 6.000,3.998 L14.000,3.998 C14.552,3.998 15.000,4.445 15.000,4.997 C15.000,5.549 14.552,5.997 14.000,5.997 Z" transform="translate(2)" class="cls-1"/>
</svg>
