<svg xmlns="http://www.w3.org/2000/svg" xmlns:xlink="http://www.w3.org/1999/xlink" preserveAspectRatio="xMidYMid" width="24" height="24" viewBox="0 0 24 24">
  <defs>
    <style>
      .cls-1 {
        fill: #444;
        fill-rule: evenodd;
      }
    </style>
  </defs>
  <path d="M24.000,21.000 C24.000,22.657 22.657,24.000 21.000,24.000 C19.343,24.000 18.000,22.657 18.000,21.000 C18.000,19.683 18.854,18.576 20.035,18.173 C20.024,18.115 20.000,18.061 20.000,18.000 L19.982,18.000 C19.982,15.791 18.181,14.001 15.960,14.000 L13.000,14.000 L13.000,18.000 C13.000,18.061 12.976,18.115 12.965,18.173 C14.146,18.576 15.000,19.683 15.000,21.000 C15.000,22.657 13.657,24.000 12.000,24.000 C10.343,24.000 9.000,22.657 9.000,21.000 C9.000,19.683 9.854,18.576 11.035,18.173 C11.024,18.115 11.000,18.061 11.000,18.000 L11.000,14.000 L8.000,14.000 C8.000,14.000 8.000,14.000 8.000,14.000 C5.791,14.000 4.000,15.791 4.000,18.000 C4.000,18.061 3.976,18.115 3.965,18.173 C5.146,18.576 6.000,19.683 6.000,21.000 C6.000,22.657 4.657,24.000 3.000,24.000 C1.343,24.000 -0.000,22.657 -0.000,21.000 C-0.000,19.683 0.854,18.576 2.035,18.173 C2.024,18.115 2.000,18.061 2.000,18.000 L2.000,18.000 C2.000,14.686 4.686,12.000 8.000,12.000 L11.000,12.000 L11.000,8.000 C11.000,7.953 11.020,7.912 11.027,7.867 C9.291,7.430 8.000,5.872 8.000,4.000 C8.000,1.791 9.791,-0.000 12.000,-0.000 C14.209,-0.000 16.000,1.791 16.000,4.000 C16.000,5.872 14.709,7.430 12.973,7.867 C12.979,7.912 13.000,7.953 13.000,8.000 L13.000,12.000 L16.000,12.000 C16.015,12.000 16.027,12.008 16.041,12.008 C19.315,12.053 21.955,14.683 21.988,17.941 C21.989,17.961 22.000,17.979 22.000,18.000 C22.000,18.061 21.976,18.115 21.965,18.173 C23.146,18.576 24.000,19.683 24.000,21.000 Z" class="cls-1"/>
</svg>
