<svg xmlns="http://www.w3.org/2000/svg" xmlns:xlink="http://www.w3.org/1999/xlink" preserveAspectRatio="xMidYMid" width="24" height="24" viewBox="0 0 24 24">
  <defs>
    <style>
      .cls-1 {
        fill: #444;
        fill-rule: evenodd;
      }
    </style>
  </defs>
  <path d="M-0.000,-0.000 L2.000,-0.000 C2.000,-0.000 2.000,-0.000 2.000,0.000 L16.000,0.000 C16.000,-0.000 16.000,-0.000 16.000,-0.000 L18.000,-0.000 C18.000,0.270 18.000,23.000 18.000,23.000 C18.000,23.552 17.552,24.000 17.000,24.000 L1.000,24.000 C0.448,24.000 -0.000,23.552 -0.000,23.000 C-0.000,23.000 -0.000,0.270 -0.000,-0.000 ZM2.294,2.000 C3.155,4.891 5.830,7.000 9.000,7.000 C12.170,7.000 14.845,4.891 15.706,2.000 L2.294,2.000 ZM16.000,5.651 C14.350,7.692 11.829,9.000 9.000,9.000 C6.171,9.000 3.650,7.692 2.000,5.651 L2.000,22.000 L16.000,22.000 L16.000,5.651 ZM6.262,11.280 C6.644,10.901 7.263,10.901 7.644,11.280 L8.996,12.621 L10.337,11.280 C10.716,10.901 11.330,10.901 11.709,11.280 C12.087,11.658 12.087,12.273 11.709,12.651 L10.360,14.000 L11.000,14.000 C11.552,14.000 12.000,14.448 12.000,15.000 C12.000,15.552 11.552,16.000 11.000,16.000 L10.000,16.000 L10.000,17.000 L11.000,17.000 C11.552,17.000 12.000,17.448 12.000,18.000 C12.000,18.552 11.552,19.000 11.000,19.000 L10.000,19.000 L10.000,20.000 C10.000,20.552 9.552,21.000 9.000,21.000 C8.448,21.000 8.000,20.552 8.000,20.000 L8.000,19.000 L7.000,19.000 C6.448,19.000 6.000,18.552 6.000,18.000 C6.000,17.448 6.448,17.000 7.000,17.000 L8.000,17.000 L8.000,16.000 L7.000,16.000 C6.448,16.000 6.000,15.552 6.000,15.000 C6.000,14.448 6.448,14.000 7.000,14.000 L7.621,14.000 L6.262,12.651 C5.881,12.273 5.881,11.658 6.262,11.280 Z" transform="translate(3)" class="cls-1"/>
</svg>
