<svg xmlns="http://www.w3.org/2000/svg" xmlns:xlink="http://www.w3.org/1999/xlink" preserveAspectRatio="xMidYMid" width="24" height="24" viewBox="0 0 24 24">
  <defs>
    <style>
      .cls-1 {
        fill: #444;
        fill-rule: evenodd;
      }
    </style>
  </defs>
  <path d="M17.000,23.000 C17.000,23.552 16.552,24.000 16.000,24.000 L11.000,24.000 C10.448,24.000 10.000,23.552 10.000,23.000 C10.000,23.000 10.000,23.000 10.000,23.000 L9.000,15.000 L8.000,23.000 C8.000,23.552 7.552,24.000 7.000,24.000 L2.000,24.000 C1.448,24.000 1.000,23.552 1.000,23.000 L0.000,1.000 C0.000,0.862 0.028,0.730 0.079,0.611 C0.088,0.589 0.107,0.574 0.118,0.553 C0.283,0.228 0.611,0.000 1.000,0.000 L17.000,0.000 C17.255,0.000 17.481,0.103 17.658,0.260 C17.864,0.443 18.000,0.702 18.000,1.000 L17.000,23.000 Z" transform="translate(3)" class="cls-1"/>
</svg>
