<svg xmlns="http://www.w3.org/2000/svg" xmlns:xlink="http://www.w3.org/1999/xlink" preserveAspectRatio="xMidYMid" width="24" height="24" viewBox="0 0 24 24">
  <defs>
    <style>
      .cls-1 {
        fill: #444;
        fill-rule: evenodd;
      }
    </style>
  </defs>
  <path d="M17.000,23.000 C17.000,23.552 16.552,24.000 16.000,24.000 C16.000,24.000 16.000,24.000 16.000,24.000 C16.000,24.000 16.000,24.000 16.000,24.000 L11.000,24.000 C10.448,24.000 10.000,23.552 10.000,23.000 C10.000,23.000 10.000,23.000 10.000,23.000 L9.000,15.000 L8.000,23.000 C8.000,23.552 7.552,24.000 7.000,24.000 L2.000,24.000 C1.448,24.000 1.000,23.552 1.000,23.000 C1.000,23.000 1.000,23.000 1.000,23.000 L0.000,1.001 C0.000,1.000 -0.000,1.000 -0.000,1.000 C-0.000,0.448 0.448,0.000 1.000,0.000 L17.000,0.000 C17.218,0.000 17.409,0.084 17.573,0.203 C17.825,0.384 18.000,0.666 18.000,1.000 L17.000,23.000 ZM2.046,2.000 L2.955,22.000 L6.125,22.000 L8.000,7.000 C8.000,6.448 8.448,6.000 9.000,6.000 C9.552,6.000 10.000,6.448 10.000,7.000 L11.875,22.000 L15.045,22.000 L15.955,2.000 L2.046,2.000 Z" transform="translate(3)" class="cls-1"/>
</svg>
