<svg xmlns="http://www.w3.org/2000/svg" xmlns:xlink="http://www.w3.org/1999/xlink" preserveAspectRatio="xMidYMid" width="24" height="24" viewBox="0 0 24 24">
  <defs>
    <style>
      .cls-1 {
        fill: #444;
        fill-rule: evenodd;
      }
    </style>
  </defs>
  <path d="M20.000,22.000 C20.000,23.105 19.105,24.000 18.000,24.000 L2.000,24.000 C0.895,24.000 -0.000,23.105 -0.000,22.000 L-0.000,2.000 C-0.000,0.896 0.895,-0.000 2.000,-0.000 L12.940,-0.000 C12.951,-0.000 12.962,0.005 12.973,0.005 C12.983,0.005 12.990,-0.000 13.000,-0.000 C13.088,-0.000 13.168,0.029 13.249,0.050 C13.281,0.059 13.313,0.058 13.344,0.069 C13.502,0.128 13.636,0.224 13.745,0.349 L19.711,6.284 C19.877,6.451 19.952,6.663 19.976,6.880 C19.981,6.921 20.000,6.957 20.000,7.000 C20.000,7.005 19.997,7.008 19.997,7.013 C19.997,7.019 20.000,7.024 20.000,7.029 L20.000,22.000 ZM12.000,2.000 L3.000,2.000 C1.895,2.000 2.000,2.935 2.000,3.000 L2.000,21.000 C2.000,22.104 3.032,22.000 3.000,22.000 L17.000,22.000 C17.014,22.000 18.000,21.948 18.000,21.000 L18.000,8.000 L13.000,8.000 C12.448,8.000 12.000,7.552 12.000,7.000 L12.000,2.000 ZM14.000,6.000 L16.564,6.000 L14.000,3.449 L14.000,6.000 ZM15.000,13.000 C15.000,13.552 14.552,14.000 14.000,14.000 L6.000,14.000 C5.448,14.000 5.000,13.552 5.000,13.000 C5.000,12.448 5.448,12.000 6.000,12.000 L14.000,12.000 C14.552,12.000 15.000,12.448 15.000,13.000 ZM6.000,16.000 L14.000,16.000 C14.552,16.000 15.000,16.448 15.000,17.000 C15.000,17.552 14.552,18.000 14.000,18.000 L6.000,18.000 C5.448,18.000 5.000,17.552 5.000,17.000 C5.000,16.448 5.448,16.000 6.000,16.000 Z" transform="translate(2)" class="cls-1"/>
</svg>
