<svg xmlns="http://www.w3.org/2000/svg" xmlns:xlink="http://www.w3.org/1999/xlink" preserveAspectRatio="xMidYMid" width="24" height="24" viewBox="0 0 24 24">
  <defs>
    <style>
      .cls-1 {
        fill: #444;
        fill-rule: evenodd;
      }
    </style>
  </defs>
  <path d="M14.000,6.000 L14.000,0.603 L19.426,6.000 L14.000,6.000 ZM13.000,8.000 L20.000,8.000 L20.000,22.000 C20.000,23.105 19.105,24.000 18.000,24.000 L2.000,24.000 C0.895,24.000 -0.000,23.105 -0.000,22.000 L-0.000,2.000 C-0.000,0.896 0.895,-0.000 2.000,-0.000 L12.000,-0.000 L12.000,7.000 C12.000,7.552 12.448,8.000 13.000,8.000 ZM6.000,18.000 L14.000,18.000 C14.552,18.000 15.000,17.552 15.000,17.000 C15.000,16.448 14.552,16.000 14.000,16.000 L6.000,16.000 C5.448,16.000 5.000,16.448 5.000,17.000 C5.000,17.552 5.448,18.000 6.000,18.000 ZM6.000,12.000 C5.448,12.000 5.000,12.448 5.000,13.000 C5.000,13.552 5.448,14.000 6.000,14.000 L14.000,14.000 C14.552,14.000 15.000,13.552 15.000,13.000 C15.000,12.448 14.552,12.000 14.000,12.000 L6.000,12.000 Z" transform="translate(2)" class="cls-1"/>
</svg>
