<svg xmlns="http://www.w3.org/2000/svg" xmlns:xlink="http://www.w3.org/1999/xlink" preserveAspectRatio="xMidYMid" width="24" height="24" viewBox="0 0 24 24">
  <defs>
    <style>
      .cls-1 {
        fill: #444;
        fill-rule: evenodd;
      }
    </style>
  </defs>
  <path d="M20.000,8.000 C18.660,8.000 17.481,7.335 16.755,6.324 L7.956,11.563 C7.972,11.708 8.000,11.850 8.000,12.000 C8.000,12.150 7.972,12.292 7.956,12.437 L16.755,17.676 C17.481,16.665 18.660,16.000 20.000,16.000 C22.209,16.000 24.000,17.791 24.000,20.000 C24.000,22.209 22.209,24.000 20.000,24.000 C17.791,24.000 16.000,22.209 16.000,20.000 C16.000,19.850 16.028,19.708 16.044,19.562 L7.245,14.324 C6.519,15.335 5.340,16.000 4.000,16.000 C1.791,16.000 -0.000,14.209 -0.000,12.000 C-0.000,9.791 1.791,8.000 4.000,8.000 C5.340,8.000 6.519,8.665 7.245,9.676 L16.044,4.438 C16.028,4.292 16.000,4.150 16.000,4.000 C16.000,1.791 17.791,-0.000 20.000,-0.000 C22.209,-0.000 24.000,1.791 24.000,4.000 C24.000,6.209 22.209,8.000 20.000,8.000 ZM20.000,22.000 C21.105,22.000 22.000,21.105 22.000,20.000 C22.000,18.895 21.105,18.000 20.000,18.000 C18.895,18.000 18.000,18.895 18.000,20.000 C18.000,21.105 18.895,22.000 20.000,22.000 ZM4.000,10.000 C2.895,10.000 2.000,10.895 2.000,12.000 C2.000,13.105 2.895,14.000 4.000,14.000 C5.105,14.000 6.000,13.105 6.000,12.000 C6.000,10.895 5.105,10.000 4.000,10.000 ZM20.000,2.000 C18.895,2.000 18.000,2.895 18.000,4.000 C18.000,5.105 18.895,6.000 20.000,6.000 C21.105,6.000 22.000,5.105 22.000,4.000 C22.000,2.895 21.105,2.000 20.000,2.000 Z" class="cls-1"/>
</svg>
