<svg xmlns="http://www.w3.org/2000/svg" xmlns:xlink="http://www.w3.org/1999/xlink" preserveAspectRatio="xMidYMid" width="24" height="24" viewBox="0 0 24 24">
  <defs>
    <style>
      .cls-1 {
        fill: #444;
        fill-rule: evenodd;
      }
    </style>
  </defs>
  <path d="M22.000,24.000 L2.000,24.000 C0.895,24.000 0.000,23.105 0.000,22.000 L0.000,12.000 C0.000,10.895 0.895,10.000 2.000,10.000 L5.000,10.000 L5.000,7.000 C5.000,3.134 8.134,0.000 12.000,0.000 C15.866,0.000 19.000,3.134 19.000,7.000 L19.000,10.000 L22.000,10.000 C23.105,10.000 24.000,10.895 24.000,12.000 L24.000,22.000 C24.000,23.105 23.105,24.000 22.000,24.000 ZM17.000,7.000 C17.000,4.239 14.761,2.000 12.000,2.000 C9.239,2.000 7.000,4.239 7.000,7.000 L7.000,10.000 L17.000,10.000 L17.000,7.000 ZM22.000,13.000 C22.000,12.448 21.552,12.000 21.000,12.000 L3.000,12.000 C2.448,12.000 2.000,12.448 2.000,13.000 L2.000,21.000 C2.000,21.552 2.448,22.000 3.000,22.000 L21.000,22.000 C21.552,22.000 22.000,21.552 22.000,21.000 L22.000,13.000 ZM12.000,20.000 C11.448,20.000 11.000,19.552 11.000,19.000 L11.000,15.000 C11.000,14.448 11.448,14.000 12.000,14.000 C12.552,14.000 13.000,14.448 13.000,15.000 L13.000,19.000 C13.000,19.552 12.552,20.000 12.000,20.000 Z" class="cls-1"/>
</svg>
