<svg xmlns="http://www.w3.org/2000/svg" xmlns:xlink="http://www.w3.org/1999/xlink" preserveAspectRatio="xMidYMid" width="24" height="24" viewBox="0 0 24 24">
  <defs>
    <style>
      .cls-1 {
        fill: #444;
        fill-rule: evenodd;
      }
    </style>
  </defs>
  <path d="M12.000,24.000 C10.895,24.000 10.000,23.105 10.000,22.000 L10.000,2.000 C10.000,0.895 10.895,0.000 12.000,0.000 C13.105,0.000 14.000,0.895 14.000,2.000 L14.000,22.000 C14.000,23.105 13.105,24.000 12.000,24.000 ZM2.000,24.000 C0.895,24.000 0.000,23.105 0.000,22.000 L0.000,2.000 C0.000,0.895 0.895,0.000 2.000,0.000 C3.105,0.000 4.000,0.895 4.000,2.000 L4.000,22.000 C4.000,23.105 3.105,24.000 2.000,24.000 Z" transform="translate(5)" class="cls-1"/>
</svg>
