<svg xmlns="http://www.w3.org/2000/svg" xmlns:xlink="http://www.w3.org/1999/xlink" preserveAspectRatio="xMidYMid" width="24" height="24" viewBox="0 0 24 24">
  <defs>
    <style>
      .cls-1 {
        fill: #444;
        fill-rule: evenodd;
      }
    </style>
  </defs>
  <path d="M14.000,24.000 L12.000,24.000 C10.895,24.000 10.000,23.105 10.000,22.000 L10.000,2.000 C10.000,0.895 10.895,0.000 12.000,0.000 L14.000,0.000 C15.105,0.000 16.000,0.895 16.000,2.000 L16.000,22.000 C16.000,23.105 15.105,24.000 14.000,24.000 ZM14.000,3.000 C14.000,2.448 13.552,2.000 13.000,2.000 C12.448,2.000 12.000,2.448 12.000,3.000 L12.000,21.000 C12.000,21.552 12.448,22.000 13.000,22.000 C13.552,22.000 14.000,21.552 14.000,21.000 L14.000,3.000 ZM4.000,24.000 L2.000,24.000 C0.895,24.000 0.000,23.105 0.000,22.000 L0.000,2.000 C0.000,0.895 0.895,0.000 2.000,0.000 L4.000,0.000 C5.105,0.000 6.000,0.895 6.000,2.000 L6.000,22.000 C6.000,23.105 5.105,24.000 4.000,24.000 ZM4.000,3.000 C4.000,2.448 3.552,2.000 3.000,2.000 C2.448,2.000 2.000,2.448 2.000,3.000 L2.000,21.000 C2.000,21.552 2.448,22.000 3.000,22.000 C3.552,22.000 4.000,21.552 4.000,21.000 L4.000,3.000 Z" transform="translate(4)" class="cls-1"/>
</svg>
