<svg xmlns="http://www.w3.org/2000/svg" xmlns:xlink="http://www.w3.org/1999/xlink" preserveAspectRatio="xMidYMid" width="24" height="24" viewBox="0 0 24 24">
  <defs>
    <style>
      .cls-1 {
        fill: #444;
        fill-rule: evenodd;
      }
    </style>
  </defs>
  <path d="M23.718,4.492 L11.740,16.657 C11.637,16.774 11.512,16.868 11.363,16.926 C11.271,16.965 11.173,16.976 11.075,16.985 C11.049,16.987 11.027,17.000 11.000,17.000 L10.997,17.000 C10.989,17.000 10.982,17.000 10.974,17.000 L8.000,17.000 C7.448,17.000 7.000,16.552 7.000,16.000 L7.000,13.097 C6.999,13.067 6.999,13.040 7.000,13.010 L7.000,13.000 C7.000,12.906 7.029,12.822 7.053,12.736 C7.059,12.718 7.057,12.698 7.065,12.679 C7.135,12.474 7.271,12.309 7.447,12.189 L19.508,0.282 C19.896,-0.106 20.524,-0.106 20.911,0.282 L23.718,3.089 C24.105,3.476 24.105,4.104 23.718,4.492 ZM20.205,2.383 L9.000,13.444 L9.000,15.000 L10.588,15.000 L21.618,3.796 L20.205,2.383 ZM12.000,2.000 L3.000,2.000 C2.448,2.000 2.000,2.448 2.000,3.000 L2.000,21.000 C2.000,21.552 2.448,22.000 3.000,22.000 L21.000,22.000 C21.552,22.000 22.000,21.552 22.000,21.000 L22.000,13.000 C22.000,12.448 22.448,12.000 23.000,12.000 C23.552,12.000 24.000,12.448 24.000,13.000 L24.000,22.000 C24.000,23.104 23.104,24.000 22.000,24.000 L2.000,24.000 C0.895,24.000 -0.000,23.104 -0.000,22.000 L-0.000,2.000 C-0.000,0.896 0.895,-0.000 2.000,-0.000 L12.000,-0.000 C12.552,-0.000 13.000,0.448 13.000,1.000 C13.000,1.552 12.552,2.000 12.000,2.000 Z" class="cls-1"/>
</svg>
