<svg xmlns="http://www.w3.org/2000/svg" xmlns:xlink="http://www.w3.org/1999/xlink" preserveAspectRatio="xMidYMid" width="24" height="24" viewBox="0 0 24 24">
  <defs>
    <style>
      .cls-1 {
        fill: #444;
        fill-rule: evenodd;
      }
    </style>
  </defs>
  <path d="M14.000,24.000 L2.000,24.000 C0.895,24.000 -0.000,23.105 -0.000,22.000 L-0.000,2.000 C-0.000,0.895 0.895,-0.000 2.000,-0.000 L14.000,-0.000 C15.105,-0.000 16.000,0.895 16.000,2.000 L16.000,22.000 C16.000,23.105 15.105,24.000 14.000,24.000 ZM8.000,22.000 C8.552,22.000 9.000,21.552 9.000,21.000 C9.000,20.448 8.552,20.000 8.000,20.000 C7.448,20.000 7.000,20.448 7.000,21.000 C7.000,21.552 7.448,22.000 8.000,22.000 ZM14.000,3.000 C14.000,2.448 13.552,2.000 13.000,2.000 L3.000,2.000 C2.448,2.000 2.000,2.448 2.000,3.000 L2.000,17.000 L14.000,17.000 L14.000,3.000 ZM6.500,3.000 L9.500,3.000 C9.776,3.000 10.000,3.224 10.000,3.500 C10.000,3.776 9.776,4.000 9.500,4.000 L6.500,4.000 C6.224,4.000 6.000,3.776 6.000,3.500 C6.000,3.224 6.224,3.000 6.500,3.000 Z" transform="translate(4)" class="cls-1"/>
</svg>
