<svg xmlns="http://www.w3.org/2000/svg" xmlns:xlink="http://www.w3.org/1999/xlink" preserveAspectRatio="xMidYMid" width="24" height="24" viewBox="0 0 24 24">
  <defs>
    <style>
      .cls-1 {
        fill: #444;
        fill-rule: evenodd;
      }
    </style>
  </defs>
  <path d="M19.000,24.000 C19.000,24.000 19.000,24.000 19.000,24.000 L19.000,24.000 C8.507,24.000 -0.000,15.493 -0.000,5.000 L0.000,5.000 C0.000,2.238 2.239,0.000 5.000,0.000 C7.761,0.000 10.000,2.239 10.000,5.000 C10.000,7.761 7.761,10.000 5.000,10.000 C4.118,10.000 3.303,9.752 2.583,9.352 C4.142,15.242 8.771,19.882 14.659,21.437 C14.252,20.713 14.000,19.890 14.000,19.000 C14.000,16.239 16.239,14.000 19.000,14.000 C21.761,14.000 24.000,16.239 24.000,19.000 C24.000,21.761 21.761,24.000 19.000,24.000 ZM5.000,8.000 C6.657,8.000 8.000,6.657 8.000,5.000 C8.000,3.343 6.657,2.000 5.000,2.000 C3.343,2.000 2.000,3.343 2.000,5.000 C2.000,6.657 3.343,8.000 5.000,8.000 ZM19.000,16.000 C17.343,16.000 16.000,17.343 16.000,19.000 C16.000,20.657 17.343,22.000 19.000,22.000 C20.657,22.000 22.000,20.657 22.000,19.000 C22.000,17.343 20.657,16.000 19.000,16.000 Z" class="cls-1"/>
</svg>
