<svg xmlns="http://www.w3.org/2000/svg" xmlns:xlink="http://www.w3.org/1999/xlink" preserveAspectRatio="xMidYMid" width="24" height="24" viewBox="0 0 24 24">
  <defs>
    <style>
      .cls-1 {
        fill: #444;
        fill-rule: evenodd;
      }
    </style>
  </defs>
  <path d="M12.000,24.000 C5.373,24.000 0.000,18.627 0.000,12.000 C0.000,5.373 5.373,-0.000 12.000,-0.000 C18.627,-0.000 24.000,5.373 24.000,12.000 C24.000,18.627 18.627,24.000 12.000,24.000 ZM12.000,2.000 C6.477,2.000 2.000,6.477 2.000,12.000 C2.000,17.523 6.477,22.000 12.000,22.000 C17.523,22.000 22.000,17.523 22.000,12.000 C22.000,6.477 17.523,2.000 12.000,2.000 ZM16.000,19.000 L8.000,19.000 C7.448,19.000 7.000,18.552 7.000,18.000 L7.000,14.000 L7.000,10.000 L7.000,6.000 C7.000,5.448 7.448,5.000 8.000,5.000 L16.000,5.000 C16.552,5.000 17.000,5.448 17.000,6.000 L17.000,10.000 L17.000,14.000 L17.000,18.000 C17.000,18.552 16.552,19.000 16.000,19.000 ZM14.000,7.000 L10.000,7.000 C9.448,7.000 9.000,7.448 9.000,8.000 C9.000,8.552 9.448,9.000 10.000,9.000 L14.000,9.000 C14.552,9.000 15.000,8.552 15.000,8.000 C15.000,7.448 14.552,7.000 14.000,7.000 ZM14.000,11.000 L10.000,11.000 C9.448,11.000 9.000,11.448 9.000,12.000 C9.000,12.552 9.448,13.000 10.000,13.000 L14.000,13.000 C14.552,13.000 15.000,12.552 15.000,12.000 C15.000,11.448 14.552,11.000 14.000,11.000 ZM14.000,15.000 L10.000,15.000 C9.448,15.000 9.000,15.448 9.000,16.000 C9.000,16.552 9.448,17.000 10.000,17.000 L14.000,17.000 C14.552,17.000 15.000,16.552 15.000,16.000 C15.000,15.448 14.552,15.000 14.000,15.000 Z" class="cls-1"/>
</svg>
