<svg xmlns="http://www.w3.org/2000/svg" xmlns:xlink="http://www.w3.org/1999/xlink" preserveAspectRatio="xMidYMid" width="23.907" height="23.91" viewBox="0 0 23.907 23.91">
  <defs>
    <style>
      .cls-1 {
        fill: #444;
        fill-rule: evenodd;
      }
    </style>
  </defs>
  <path d="M21.837,2.041 C19.104,-0.693 14.672,-0.693 11.938,2.041 L2.039,11.940 C-0.695,14.674 -0.695,19.106 2.039,21.839 C4.772,24.573 9.204,24.573 11.938,21.839 L21.837,11.940 C24.571,9.206 24.571,4.774 21.837,2.041 ZM20.423,3.455 C22.373,5.404 22.373,8.576 20.423,10.526 L16.181,14.768 L9.110,7.697 L13.352,3.455 C15.302,1.505 18.474,1.505 20.423,3.455 ZM3.453,20.425 C1.503,18.476 1.503,15.304 3.453,13.354 L7.695,9.111 L14.766,16.183 L10.524,20.425 C8.574,22.375 5.402,22.375 3.453,20.425 Z" class="cls-1"/>
</svg>
