<svg xmlns="http://www.w3.org/2000/svg" xmlns:xlink="http://www.w3.org/1999/xlink" preserveAspectRatio="xMidYMid" width="24" height="24" viewBox="0 0 24 24">
  <defs>
    <style>
      .cls-1 {
        fill: #444;
        fill-rule: evenodd;
      }
    </style>
  </defs>
  <path d="M20.000,12.086 C20.000,12.088 20.000,12.089 20.000,12.091 C19.987,12.368 19.855,12.620 19.615,12.792 C19.612,12.794 19.610,12.797 19.607,12.799 C19.573,12.822 19.552,12.856 19.514,12.875 L1.585,23.870 C1.434,23.950 1.270,23.976 1.105,23.979 C1.069,23.983 1.037,24.000 1.000,24.000 C0.623,24.000 0.308,23.784 0.137,23.476 C0.136,23.475 0.135,23.474 0.134,23.473 C0.134,23.472 0.134,23.471 0.133,23.470 C0.096,23.402 0.072,23.331 0.051,23.255 C0.013,23.141 -0.005,23.029 -0.000,22.914 L-0.000,1.000 C-0.000,0.993 0.004,0.987 0.004,0.979 C0.008,0.904 0.029,0.832 0.049,0.758 C0.066,0.689 0.081,0.623 0.112,0.561 C0.119,0.546 0.119,0.530 0.127,0.516 C0.148,0.477 0.183,0.454 0.208,0.419 C0.249,0.363 0.288,0.308 0.340,0.261 C0.404,0.202 0.473,0.161 0.547,0.122 C0.579,0.105 0.608,0.086 0.643,0.072 C0.743,0.032 0.846,0.014 0.954,0.009 C0.970,0.009 0.984,0.000 1.000,0.000 C1.007,0.000 1.014,0.004 1.021,0.004 C1.109,0.007 1.193,0.028 1.280,0.057 C1.335,0.073 1.389,0.087 1.440,0.113 C1.454,0.120 1.470,0.120 1.485,0.129 L19.514,11.056 C19.796,11.226 19.950,11.523 19.984,11.840 C20.004,11.923 20.003,12.003 20.000,12.086 Z" transform="translate(2)" class="cls-1"/>
</svg>
