<svg xmlns="http://www.w3.org/2000/svg" xmlns:xlink="http://www.w3.org/1999/xlink" preserveAspectRatio="xMidYMid" width="24" height="24" viewBox="0 0 24 24">
  <defs>
    <style>
      .cls-1 {
        fill: #444;
        fill-rule: evenodd;
      }
    </style>
  </defs>
  <path d="M23.000,13.000 L13.000,13.000 L13.000,23.000 C13.000,23.552 12.552,24.000 12.000,24.000 C11.448,24.000 11.000,23.552 11.000,23.000 L11.000,13.000 L1.000,13.000 C0.448,13.000 -0.000,12.552 -0.000,12.000 C-0.000,11.448 0.448,11.000 1.000,11.000 L11.000,11.000 L11.000,1.000 C11.000,0.448 11.448,-0.000 12.000,-0.000 C12.552,-0.000 13.000,0.448 13.000,1.000 L13.000,11.000 L23.000,11.000 C23.552,11.000 24.000,11.448 24.000,12.000 C24.000,12.552 23.552,13.000 23.000,13.000 Z" class="cls-1"/>
</svg>
