<svg xmlns="http://www.w3.org/2000/svg" xmlns:xlink="http://www.w3.org/1999/xlink" preserveAspectRatio="xMidYMid" width="24" height="24" viewBox="0 0 24 24">
  <defs>
    <style>
      .cls-1 {
        fill: #444;
        fill-rule: evenodd;
      }
    </style>
  </defs>
  <path d="M2.000,14.000 C0.895,14.000 -0.000,13.105 -0.000,12.000 C-0.000,10.895 0.895,10.000 2.000,10.000 C3.105,10.000 4.000,10.895 4.000,12.000 C4.000,13.105 3.105,14.000 2.000,14.000 ZM2.000,4.000 C0.895,4.000 -0.000,3.105 -0.000,2.000 C-0.000,0.895 0.895,-0.000 2.000,-0.000 C3.105,-0.000 4.000,0.895 4.000,2.000 C4.000,3.105 3.105,4.000 2.000,4.000 ZM2.000,20.000 C3.105,20.000 4.000,20.895 4.000,22.000 C4.000,23.105 3.105,24.000 2.000,24.000 C0.895,24.000 -0.000,23.105 -0.000,22.000 C-0.000,20.895 0.895,20.000 2.000,20.000 Z" transform="translate(10)" class="cls-1"/>
</svg>
