<svg xmlns="http://www.w3.org/2000/svg" xmlns:xlink="http://www.w3.org/1999/xlink" preserveAspectRatio="xMidYMid" width="24" height="24" viewBox="0 0 24 24">
  <defs>
    <style>
      .cls-1 {
        fill: #444;
        fill-rule: evenodd;
      }
    </style>
  </defs>
  <path d="M22.000,24.000 L2.000,24.000 C0.895,24.000 0.000,23.105 0.000,22.000 L0.000,2.000 C0.000,0.895 0.895,-0.000 2.000,-0.000 L22.000,-0.000 C23.105,-0.000 24.000,0.895 24.000,2.000 L24.000,22.000 C24.000,23.105 23.105,24.000 22.000,24.000 ZM15.536,15.536 C15.145,15.926 14.512,15.926 14.121,15.536 L9.172,10.586 L4.929,14.828 C4.538,15.219 3.905,15.219 3.515,14.828 C3.124,14.438 3.124,13.805 3.515,13.414 L8.465,8.465 C8.855,8.074 9.488,8.074 9.879,8.465 L14.828,13.414 L19.071,9.172 C19.462,8.781 20.095,8.781 20.485,9.172 C20.876,9.562 20.876,10.195 20.485,10.586 L15.536,15.536 Z" class="cls-1"/>
</svg>
