<svg xmlns="http://www.w3.org/2000/svg" xmlns:xlink="http://www.w3.org/1999/xlink" preserveAspectRatio="xMidYMid" width="24" height="24" viewBox="0 0 24 24">
  <defs>
    <style>
      .cls-1 {
        fill: #444;
        fill-rule: evenodd;
      }
    </style>
  </defs>
  <path d="M10.000,23.000 C4.477,23.000 -0.000,18.523 -0.000,13.000 C-0.000,8.523 2.943,4.734 7.000,3.459 L7.000,5.587 C4.069,6.774 2.000,9.644 2.000,13.000 C2.000,17.418 5.582,21.000 10.000,21.000 C14.418,21.000 18.000,17.418 18.000,13.000 C18.000,9.644 15.931,6.774 13.000,5.587 L13.000,3.459 C17.057,4.734 20.000,8.523 20.000,13.000 C20.000,18.523 15.523,23.000 10.000,23.000 ZM10.000,9.000 C9.448,9.000 9.000,8.552 9.000,8.000 L9.000,1.000 C9.000,0.448 9.448,-0.000 10.000,-0.000 C10.552,-0.000 11.000,0.448 11.000,1.000 L11.000,8.000 C11.000,8.552 10.552,9.000 10.000,9.000 Z" transform="translate(2 0.5)" class="cls-1"/>
</svg>
