<svg xmlns="http://www.w3.org/2000/svg" xmlns:xlink="http://www.w3.org/1999/xlink" preserveAspectRatio="xMidYMid" width="24" height="24" viewBox="0 0 24 24">
  <defs>
    <style>
      .cls-1 {
        fill: #444;
        fill-rule: evenodd;
      }
    </style>
  </defs>
  <path d="M23.000,18.000 L19.000,18.000 L19.000,23.000 C19.000,23.552 18.552,24.000 18.000,24.000 L6.000,24.000 C5.448,24.000 5.000,23.552 5.000,23.000 L5.000,18.000 L1.000,18.000 C0.448,18.000 0.000,17.552 0.000,17.000 C0.000,16.814 0.000,5.186 0.000,5.000 C0.000,4.448 0.448,4.000 1.000,4.000 L5.000,4.000 L5.000,1.000 C5.000,0.448 5.448,0.000 6.000,0.000 L18.000,0.000 C18.552,0.000 19.000,0.448 19.000,1.000 L19.000,4.000 L23.000,4.000 C23.552,4.000 24.000,4.448 24.000,5.000 C24.000,5.186 24.000,16.814 24.000,17.000 C24.000,17.552 23.552,18.000 23.000,18.000 ZM17.000,22.000 L17.000,15.000 L7.000,15.000 L7.000,22.000 L17.000,22.000 ZM17.000,2.000 L7.000,2.000 L7.000,4.000 L17.000,4.000 L17.000,2.000 ZM22.000,6.000 L2.000,6.000 L2.000,16.000 L4.228,16.000 L4.870,13.749 C5.003,13.280 5.463,12.995 5.956,13.009 C5.972,13.008 5.985,13.000 6.000,13.000 L18.000,13.000 C18.015,13.000 18.028,13.008 18.043,13.009 C18.537,12.995 18.997,13.280 19.130,13.749 L19.772,16.000 L22.000,16.000 L22.000,6.000 ZM19.000,10.000 L16.000,10.000 C15.448,10.000 15.000,9.552 15.000,9.000 C15.000,8.448 15.448,8.000 16.000,8.000 L19.000,8.000 C19.552,8.000 20.000,8.448 20.000,9.000 C20.000,9.552 19.552,10.000 19.000,10.000 Z" class="cls-1"/>
</svg>
