<svg xmlns="http://www.w3.org/2000/svg" xmlns:xlink="http://www.w3.org/1999/xlink" preserveAspectRatio="xMidYMid" width="24" height="24" viewBox="0 0 24 24">
  <defs>
    <style>
      .cls-1 {
        fill: #444;
        fill-rule: evenodd;
      }
    </style>
  </defs>
  <path d="M24.000,5.000 C24.000,5.552 23.552,6.000 23.000,6.000 L21.000,6.000 L21.000,11.000 C21.000,11.081 20.972,11.153 20.954,11.229 C22.792,12.490 24.000,14.602 24.000,17.000 C24.000,20.866 20.866,24.000 17.000,24.000 C17.000,24.000 17.000,24.000 17.000,24.000 L4.000,24.000 C3.448,24.000 3.000,23.552 3.000,23.000 L3.000,23.000 L3.000,6.000 L1.000,6.000 C0.448,6.000 -0.000,5.552 -0.000,5.000 L-0.000,1.000 C-0.000,0.448 0.448,0.000 1.000,0.000 L23.000,0.000 C23.552,0.000 24.000,0.448 24.000,1.000 C24.000,1.000 24.000,4.814 24.000,5.000 ZM17.000,22.000 C19.761,22.000 22.000,19.761 22.000,17.000 C22.000,14.239 19.761,12.000 17.000,12.000 C14.239,12.000 12.000,14.239 12.000,17.000 C12.000,19.761 14.239,22.000 17.000,22.000 ZM5.000,22.000 L12.111,22.000 C10.811,20.729 10.000,18.961 10.000,17.000 C10.000,13.134 13.134,10.000 17.000,10.000 C17.700,10.000 18.362,10.134 19.000,10.325 L19.000,6.000 L5.000,6.000 L5.000,22.000 ZM22.000,2.000 L2.000,2.000 L2.000,4.000 L22.000,4.000 L22.000,2.000 ZM17.000,14.000 C17.552,14.000 18.000,14.448 18.000,15.000 L18.000,16.000 L19.000,16.000 C19.552,16.000 20.000,16.448 20.000,17.000 C20.000,17.552 19.552,18.000 19.000,18.000 L17.000,18.000 C16.448,18.000 16.000,17.552 16.000,17.000 L16.000,15.000 C16.000,14.448 16.448,14.000 17.000,14.000 Z" class="cls-1"/>
</svg>
