<svg xmlns="http://www.w3.org/2000/svg" xmlns:xlink="http://www.w3.org/1999/xlink" preserveAspectRatio="xMidYMid" width="23.969" height="24" viewBox="0 0 23.969 24">
  <defs>
    <style>
      .cls-1 {
        fill: #444;
        fill-rule: evenodd;
      }
    </style>
  </defs>
  <path d="M23.926,8.285 L20.965,19.979 C20.965,19.987 20.969,19.993 20.969,20.000 C20.969,20.358 20.770,20.657 20.488,20.834 C20.460,20.853 20.434,20.873 20.405,20.890 C20.361,20.911 20.316,20.924 20.269,20.939 C20.175,20.974 20.080,20.995 19.978,20.998 C19.975,20.998 19.972,21.000 19.969,21.000 L3.969,21.000 C3.968,21.000 3.968,21.000 3.967,21.000 C3.887,20.995 3.814,20.978 3.739,20.954 C3.301,20.847 2.969,20.471 2.969,20.000 C2.969,19.968 2.984,19.942 2.987,19.911 L0.043,8.285 C-0.097,7.734 0.212,7.168 0.732,7.021 C1.253,6.873 1.788,7.200 1.927,7.750 L4.776,19.000 L19.192,19.000 L22.041,7.750 C22.181,7.200 22.716,6.873 23.236,7.021 C23.757,7.168 24.066,7.734 23.926,8.285 ZM16.000,17.000 L8.000,17.000 C6.895,17.000 6.000,16.105 6.000,15.000 L6.000,12.000 L6.000,10.000 L6.000,7.000 L6.000,5.000 L6.000,3.000 L6.000,2.000 C6.000,0.895 6.895,-0.000 8.000,-0.000 L16.000,-0.000 C17.105,-0.000 18.000,0.895 18.000,2.000 L18.000,3.000 L18.000,5.000 L18.000,7.000 L18.000,10.000 L18.000,12.000 L18.000,15.000 C18.000,16.105 17.105,17.000 16.000,17.000 ZM8.000,14.000 C8.000,14.552 8.448,15.000 9.000,15.000 L15.000,15.000 C15.552,15.000 16.000,14.552 16.000,14.000 L16.000,13.000 C16.000,12.448 15.552,12.000 15.000,12.000 L9.000,12.000 C8.448,12.000 8.000,12.448 8.000,13.000 L8.000,14.000 ZM8.000,9.000 C8.000,9.552 8.448,10.000 9.000,10.000 L15.000,10.000 C15.552,10.000 16.000,9.552 16.000,9.000 L16.000,8.000 C16.000,7.448 15.552,7.000 15.000,7.000 L9.000,7.000 C8.448,7.000 8.000,7.448 8.000,8.000 L8.000,9.000 ZM15.000,2.000 L9.000,2.000 C8.448,2.000 8.000,2.448 8.000,3.000 L8.000,4.000 C8.000,4.552 8.448,5.000 9.000,5.000 L15.000,5.000 C15.552,5.000 16.000,4.552 16.000,4.000 L16.000,3.000 C16.000,2.448 15.552,2.000 15.000,2.000 Z" transform="translate(0 1.5)" class="cls-1"/>
</svg>
