<svg xmlns="http://www.w3.org/2000/svg" xmlns:xlink="http://www.w3.org/1999/xlink" preserveAspectRatio="xMidYMid" width="24" height="24" viewBox="0 0 24 24">
  <defs>
    <style>
      .cls-1 {
        fill: #444;
        fill-rule: evenodd;
      }
    </style>
  </defs>
  <path d="M22.003,14.000 L15.945,14.000 L17.881,17.458 C18.268,18.149 17.785,19.013 17.011,19.013 L6.987,19.013 C6.213,19.013 5.729,18.149 6.116,17.458 L8.052,14.000 L1.998,14.000 C0.894,14.000 0.000,13.106 0.000,12.003 L0.000,1.998 C0.000,0.894 0.894,0.000 1.998,0.000 L22.003,0.000 C23.106,0.000 24.000,0.894 24.000,1.998 L24.000,12.003 C24.000,13.106 23.106,14.000 22.003,14.000 ZM15.277,16.944 L11.999,11.090 L8.721,16.944 L15.277,16.944 ZM22.000,3.004 C22.000,2.450 21.550,2.000 20.995,2.000 L3.004,2.000 C2.450,2.000 2.000,2.450 2.000,3.004 L2.000,10.996 C2.000,11.550 2.450,12.000 3.004,12.000 L9.173,12.000 L11.128,8.508 C11.515,7.817 12.482,7.817 12.869,8.508 L14.825,12.000 L20.995,12.000 C21.550,12.000 22.000,11.550 22.000,10.996 L22.000,3.004 Z" transform="translate(0 2.5)" class="cls-1"/>
</svg>
