<svg xmlns="http://www.w3.org/2000/svg" xmlns:xlink="http://www.w3.org/1999/xlink" preserveAspectRatio="xMidYMid" width="24" height="24" viewBox="0 0 24 24">
  <defs>
    <style>
      .cls-1 {
        fill: #444;
        fill-rule: evenodd;
      }
    </style>
  </defs>
  <path d="M23.000,24.000 C22.448,24.000 22.000,23.552 22.000,23.000 L22.000,15.000 C22.000,14.448 22.448,14.000 23.000,14.000 C23.552,14.000 24.000,14.448 24.000,15.000 L24.000,23.000 C24.000,23.552 23.552,24.000 23.000,24.000 ZM22.000,10.000 L16.000,10.000 C14.895,10.000 14.000,9.105 14.000,8.000 L14.000,2.000 C14.000,0.895 14.895,-0.000 16.000,-0.000 L22.000,-0.000 C23.105,-0.000 24.000,0.895 24.000,2.000 L24.000,8.000 C24.000,9.105 23.105,10.000 22.000,10.000 ZM22.000,3.000 C22.000,2.448 21.552,2.000 21.000,2.000 L17.000,2.000 C16.448,2.000 16.000,2.448 16.000,3.000 L16.000,7.000 C16.000,7.552 16.448,8.000 17.000,8.000 L21.000,8.000 C21.552,8.000 22.000,7.552 22.000,7.000 L22.000,3.000 ZM8.000,24.000 L2.000,24.000 C0.895,24.000 0.000,23.105 0.000,22.000 L0.000,16.000 C0.000,14.895 0.895,14.000 2.000,14.000 L8.000,14.000 C9.105,14.000 10.000,14.895 10.000,16.000 L10.000,22.000 C10.000,23.105 9.105,24.000 8.000,24.000 ZM8.000,17.000 C8.000,16.448 7.552,16.000 7.000,16.000 L3.000,16.000 C2.448,16.000 2.000,16.448 2.000,17.000 L2.000,21.000 C2.000,21.552 2.448,22.000 3.000,22.000 L7.000,22.000 C7.552,22.000 8.000,21.552 8.000,21.000 L8.000,17.000 ZM8.000,10.000 L2.000,10.000 C0.895,10.000 0.000,9.105 0.000,8.000 L0.000,2.000 C0.000,0.895 0.895,-0.000 2.000,-0.000 L8.000,-0.000 C9.105,-0.000 10.000,0.895 10.000,2.000 L10.000,8.000 C10.000,9.105 9.105,10.000 8.000,10.000 ZM8.000,3.000 C8.000,2.448 7.552,2.000 7.000,2.000 L3.000,2.000 C2.448,2.000 2.000,2.448 2.000,3.000 L2.000,7.000 C2.000,7.552 2.448,8.000 3.000,8.000 L7.000,8.000 C7.552,8.000 8.000,7.552 8.000,7.000 L8.000,3.000 ZM15.000,14.000 C15.552,14.000 16.000,14.448 16.000,15.000 L16.000,23.000 C16.000,23.552 15.552,24.000 15.000,24.000 C14.448,24.000 14.000,23.552 14.000,23.000 L14.000,15.000 C14.000,14.448 14.448,14.000 15.000,14.000 ZM19.000,14.000 C19.552,14.000 20.000,14.448 20.000,15.000 L20.000,23.000 C20.000,23.552 19.552,24.000 19.000,24.000 C18.448,24.000 18.000,23.552 18.000,23.000 L18.000,15.000 C18.000,14.448 18.448,14.000 19.000,14.000 Z" class="cls-1"/>
</svg>
