<svg xmlns="http://www.w3.org/2000/svg" xmlns:xlink="http://www.w3.org/1999/xlink" preserveAspectRatio="xMidYMid" width="24" height="24" viewBox="0 0 24 24">
  <defs>
    <style>
      .cls-1 {
        fill: #444;
        fill-rule: evenodd;
      }
    </style>
  </defs>
  <path d="M24.000,12.000 C24.000,14.761 21.761,17.000 19.000,17.000 L6.000,17.000 C2.686,17.000 -0.000,14.314 -0.000,11.000 C-0.000,7.686 2.686,5.000 6.000,5.000 L6.000,5.000 L6.307,5.000 C7.172,2.117 9.845,0.013 13.012,0.013 C16.877,0.012 20.010,3.142 20.009,7.004 L20.000,7.004 L20.000,7.108 C22.281,7.571 24.000,9.582 24.000,12.000 ZM6.000,18.000 C6.552,18.000 7.000,18.448 7.000,19.000 L7.000,21.000 C7.000,21.552 6.552,22.000 6.000,22.000 C5.448,22.000 5.000,21.552 5.000,21.000 L5.000,19.000 C5.000,18.448 5.448,18.000 6.000,18.000 ZM12.000,18.000 C12.552,18.000 13.000,18.448 13.000,19.000 L13.000,21.000 C13.000,21.552 12.552,22.000 12.000,22.000 C11.448,22.000 11.000,21.552 11.000,21.000 L11.000,19.000 C11.000,18.448 11.448,18.000 12.000,18.000 ZM18.000,18.000 C18.552,18.000 19.000,18.448 19.000,19.000 L19.000,21.000 C19.000,21.552 18.552,22.000 18.000,22.000 C17.448,22.000 17.000,21.552 17.000,21.000 L17.000,19.000 C17.000,18.448 17.448,18.000 18.000,18.000 Z" transform="translate(0 1)" class="cls-1"/>
</svg>
