<svg xmlns="http://www.w3.org/2000/svg" xmlns:xlink="http://www.w3.org/1999/xlink" preserveAspectRatio="xMidYMid" width="24" height="24" viewBox="0 0 24 24">
  <defs>
    <style>
      .cls-1 {
        fill: #444;
        fill-rule: evenodd;
      }
    </style>
  </defs>
  <path d="M22.000,24.000 C20.895,24.000 20.000,23.105 20.000,22.000 L20.000,2.000 C20.000,0.895 20.895,0.000 22.000,0.000 C23.105,0.000 24.000,0.895 24.000,2.000 L24.000,22.000 C24.000,23.105 23.105,24.000 22.000,24.000 ZM12.000,24.000 L12.000,24.000 C10.895,24.000 10.000,23.105 10.000,22.000 L10.000,10.000 C10.000,8.895 10.895,8.000 12.000,8.000 L12.000,8.000 C13.105,8.000 14.000,8.895 14.000,10.000 L14.000,22.000 C14.000,23.105 13.105,24.000 12.000,24.000 ZM2.000,24.000 C0.895,24.000 -0.000,23.105 -0.000,22.000 L-0.000,6.000 C-0.000,4.895 0.895,4.000 2.000,4.000 C3.105,4.000 4.000,4.895 4.000,6.000 L4.000,22.000 C4.000,23.105 3.105,24.000 2.000,24.000 Z" class="cls-1"/>
</svg>
