<svg xmlns="http://www.w3.org/2000/svg" xmlns:xlink="http://www.w3.org/1999/xlink" preserveAspectRatio="xMidYMid" width="24" height="24" viewBox="0 0 24 24">
  <defs>
    <style>
      .cls-1 {
        fill: #444;
        fill-rule: evenodd;
      }
    </style>
  </defs>
  <path d="M22.000,24.000 L20.000,24.000 C18.895,24.000 18.000,23.105 18.000,22.000 L18.000,2.000 C18.000,0.895 18.895,0.000 20.000,0.000 L22.000,0.000 C23.105,0.000 24.000,0.895 24.000,2.000 L24.000,22.000 C24.000,23.105 23.105,24.000 22.000,24.000 ZM22.000,3.000 C22.000,2.448 21.552,2.000 21.000,2.000 C20.448,2.000 20.000,2.448 20.000,3.000 L20.000,21.000 C20.000,21.552 20.448,22.000 21.000,22.000 C21.552,22.000 22.000,21.552 22.000,21.000 L22.000,3.000 ZM13.000,24.000 L11.000,24.000 C9.895,24.000 9.000,23.105 9.000,22.000 L9.000,10.000 C9.000,8.895 9.895,8.000 11.000,8.000 L13.000,8.000 C14.105,8.000 15.000,8.895 15.000,10.000 L15.000,22.000 C15.000,23.105 14.105,24.000 13.000,24.000 ZM13.000,11.000 C13.000,10.448 12.552,10.000 12.000,10.000 C11.448,10.000 11.000,10.448 11.000,11.000 L11.000,21.000 C11.000,21.552 11.448,22.000 12.000,22.000 C12.552,22.000 13.000,21.552 13.000,21.000 L13.000,11.000 ZM4.000,24.000 L2.000,24.000 C0.895,24.000 -0.000,23.105 -0.000,22.000 L-0.000,6.000 C-0.000,4.895 0.895,4.000 2.000,4.000 L4.000,4.000 C5.105,4.000 6.000,4.895 6.000,6.000 L6.000,22.000 C6.000,23.105 5.105,24.000 4.000,24.000 ZM4.000,7.000 C4.000,6.448 3.552,6.000 3.000,6.000 C2.448,6.000 2.000,6.448 2.000,7.000 L2.000,21.000 C2.000,21.552 2.448,22.000 3.000,22.000 C3.552,22.000 4.000,21.552 4.000,21.000 L4.000,7.000 Z" class="cls-1"/>
</svg>
