<?xml version="1.0" standalone="no"?><!DOCTYPE svg PUBLIC "-//W3C//DTD SVG 1.1//EN" "http://www.w3.org/Graphics/SVG/1.1/DTD/svg11.dtd"><svg class="icon" width="24px" height="24.00px" viewBox="0 0 1024 1024" version="1.1" xmlns="http://www.w3.org/2000/svg"><path fill="#666666" d="M512 1024C229.248 1024 0 794.752 0 512S229.248 0 512 0s512 229.248 512 512-229.248 512-512 512z m256-340.821a42.667 42.667 0 1 0-85.333 0h-85.334v-128h42.283l12.075 20.096c13.44 22.357 43.264 30.037 66.602 17.109 23.296-12.885 31.318-41.472 17.835-63.872l-66.475-110.805c-13.482-22.358-43.264-30.038-66.602-17.11-23.339 12.928-31.318 41.515-17.835 63.872l3.2 5.376H416.811l46.805-74.581c2.133-3.413 2.987-7.125 3.925-10.752h257.792a42.667 42.667 0 0 0 0-85.333H597.504l-79.275-75.435a42.624 42.624 0 1 0-60.33 60.33l15.872 15.105H298.667a42.667 42.667 0 1 0 0 85.333h73.173l-67.456 107.435c-0.213 0.298-0.17 0.64-0.341 0.981a38.87 38.87 0 0 0-3.158 8.576 35.2 35.2 0 0 0-1.664 8.277c-0.085 0.939-0.554 1.75-0.554 2.731 0 2.133 0.896 3.925 1.194 5.973 0.299 1.536 0.427 2.987 0.896 4.48 4.779 18.347 20.736 32.214 40.576 32.214H384v42.154a85.333 85.333 0 0 1-85.333 85.334 42.667 42.667 0 0 0 0 85.333 170.667 170.667 0 0 0 170.666-170.667V555.18H512v170.666a42.667 42.667 0 0 0 42.667 42.667h170.666A42.667 42.667 0 0 0 768 725.845V683.18z" /></svg>