<?xml version="1.0" standalone="no"?><!DOCTYPE svg PUBLIC "-//W3C//DTD SVG 1.1//EN" "http://www.w3.org/Graphics/SVG/1.1/DTD/svg11.dtd"><svg class="icon" width="24px" height="24.00px" viewBox="0 0 1024 1024" version="1.1" xmlns="http://www.w3.org/2000/svg"><path fill="#666666" d="M512 1024C229.248 1024 0 794.752 0 512S229.248 0 512 0s512 229.248 512 512-229.248 512-512 512z m0-938.667C276.352 85.333 85.333 276.352 85.333 512S276.352 938.667 512 938.667 938.667 747.648 938.667 512 747.648 85.333 512 85.333z m213.333 683.179H554.667A42.667 42.667 0 0 1 512 725.845V555.18h-42.667v42.154A170.667 170.667 0 0 1 298.667 768a42.667 42.667 0 0 1 0-85.333A85.333 85.333 0 0 0 384 597.333V555.18h-42.667a42.155 42.155 0 0 1-40.576-32.214c-0.469-1.493-0.597-2.944-0.896-4.48-0.298-2.048-1.194-3.84-1.194-5.973 0-0.981 0.469-1.792 0.554-2.73a35.2 35.2 0 0 1 1.664-8.278 38.87 38.87 0 0 1 3.158-8.576c0.17-0.341 0.128-0.683 0.341-0.981l67.456-107.435h-73.173a42.667 42.667 0 0 1 0-85.333H473.77l-15.872-15.104a42.667 42.667 0 0 1 60.33-60.331l79.275 75.435h127.83a42.667 42.667 0 1 1 0 85.333H467.54c-0.938 3.627-1.792 7.339-3.925 10.752l-46.805 74.581h171.605l-3.2-5.376c-13.483-22.357-5.504-50.944 17.835-63.872 23.338-12.928 53.162-5.248 66.602 17.11l66.475 110.805a45.696 45.696 0 0 1-17.835 63.872c-23.338 12.928-53.162 5.248-66.602-17.11l-12.075-20.095h-42.283v128h85.334a42.667 42.667 0 1 1 85.333 0v42.666a42.667 42.667 0 0 1-42.667 42.667z" /></svg>