<svg xmlns="http://www.w3.org/2000/svg" xmlns:xlink="http://www.w3.org/1999/xlink" preserveAspectRatio="xMidYMid" width="24" height="24" viewBox="0 0 24 24">
  <defs>
    <style>
      .cls-1 {
        fill: #444;
        fill-rule: evenodd;
      }
    </style>
  </defs>
  <path d="M12.000,24.000 C5.373,24.000 0.000,18.627 0.000,12.000 C0.000,5.373 5.373,0.000 12.000,0.000 C18.627,0.000 24.000,5.373 24.000,12.000 C24.000,18.627 18.627,24.000 12.000,24.000 ZM12.000,2.000 C6.477,2.000 2.000,6.477 2.000,12.000 C2.000,17.523 6.477,22.000 12.000,22.000 C17.523,22.000 22.000,17.523 22.000,12.000 C22.000,6.477 17.523,2.000 12.000,2.000 ZM17.000,18.000 L13.000,18.000 C12.448,18.000 12.000,17.552 12.000,17.000 L12.000,13.000 L11.000,13.000 L11.000,14.000 L9.000,14.000 L9.000,13.000 L8.000,13.000 C7.541,13.000 7.171,12.685 7.053,12.264 C7.039,12.221 7.035,12.178 7.027,12.133 C7.021,12.088 7.000,12.047 7.000,12.000 C7.000,11.979 7.011,11.961 7.012,11.940 C7.016,11.881 7.031,11.826 7.047,11.769 C7.069,11.676 7.100,11.591 7.146,11.510 L8.723,9.000 L7.000,9.000 C6.448,9.000 6.000,8.552 6.000,8.000 C6.000,7.448 6.448,7.000 7.000,7.000 L11.091,7.000 L10.732,6.658 C10.342,6.268 10.342,5.635 10.732,5.244 C11.123,4.854 11.756,4.854 12.146,5.244 L13.992,7.000 L17.000,7.000 C17.552,7.000 18.000,7.448 18.000,8.000 C18.000,8.552 17.552,9.000 17.000,9.000 L10.963,9.000 C10.941,9.090 10.919,9.180 10.866,9.264 L9.776,11.000 L13.784,11.000 L13.716,10.886 C13.400,10.362 13.587,9.692 14.134,9.389 C14.681,9.086 15.379,9.266 15.695,9.790 L17.253,12.387 C17.569,12.912 17.381,13.582 16.835,13.884 C16.288,14.187 15.589,14.007 15.274,13.483 L14.984,13.000 L14.000,13.000 L14.000,16.000 L16.000,16.000 C16.000,15.448 16.448,15.000 17.000,15.000 C17.552,15.000 18.000,15.448 18.000,16.000 L18.000,17.000 C18.000,17.552 17.552,18.000 17.000,18.000 ZM7.000,16.000 C7.000,16.000 7.000,16.000 7.000,16.000 C8.105,16.000 9.000,15.105 9.000,14.000 L11.000,14.000 C11.000,16.209 9.209,18.000 7.000,18.000 C6.448,18.000 6.000,17.552 6.000,17.000 C6.000,16.448 6.448,16.000 7.000,16.000 Z" class="cls-1"/>
</svg>
