<svg xmlns="http://www.w3.org/2000/svg" xmlns:xlink="http://www.w3.org/1999/xlink" preserveAspectRatio="xMidYMid" width="24" height="24" viewBox="0 0 24 24">
  <defs>
    <style>
      .cls-1 {
        fill: #444;
        fill-rule: evenodd;
      }
    </style>
  </defs>
  <path d="M23.000,7.000 L18.000,7.000 C17.448,7.000 17.000,6.552 17.000,6.000 L17.000,1.000 C17.000,0.448 17.448,0.000 18.000,0.000 C18.552,0.000 19.000,0.448 19.000,1.000 L19.000,5.000 L23.000,5.000 C23.552,5.000 24.000,5.448 24.000,6.000 C24.000,6.552 23.552,7.000 23.000,7.000 ZM6.000,24.000 C5.448,24.000 5.000,23.552 5.000,23.000 L5.000,19.000 L1.000,19.000 C0.448,19.000 -0.000,18.552 -0.000,18.000 C-0.000,17.448 0.448,17.000 1.000,17.000 L6.000,17.000 C6.552,17.000 7.000,17.448 7.000,18.000 L7.000,23.000 C7.000,23.552 6.552,24.000 6.000,24.000 ZM6.000,7.000 L1.000,7.000 C0.448,7.000 -0.000,6.552 -0.000,6.000 C-0.000,5.448 0.448,5.000 1.000,5.000 L5.000,5.000 L5.000,1.000 C5.000,0.448 5.448,0.000 6.000,0.000 C6.552,0.000 7.000,0.448 7.000,1.000 L7.000,6.000 C7.000,6.552 6.552,7.000 6.000,7.000 ZM18.000,17.000 L23.000,17.000 C23.552,17.000 24.000,17.448 24.000,18.000 C24.000,18.552 23.552,19.000 23.000,19.000 L19.000,19.000 L19.000,23.000 C19.000,23.552 18.552,24.000 18.000,24.000 C17.448,24.000 17.000,23.552 17.000,23.000 L17.000,18.000 C17.000,17.448 17.448,17.000 18.000,17.000 Z" class="cls-1"/>
</svg>
