<svg xmlns="http://www.w3.org/2000/svg" xmlns:xlink="http://www.w3.org/1999/xlink" preserveAspectRatio="xMidYMid" width="24" height="24" viewBox="0 0 24 24">
  <defs>
    <style>
      .cls-1 {
        fill: #444;
        fill-rule: evenodd;
      }
    </style>
  </defs>
  <path d="M21.790,15.657 C21.790,16.192 21.355,16.627 20.820,16.627 L17.911,16.627 C17.626,16.627 17.377,16.499 17.199,16.304 C16.846,16.150 16.598,15.799 16.597,15.389 L16.597,12.389 C16.597,11.837 17.045,11.389 17.598,11.389 C18.053,11.389 18.421,11.699 18.542,12.115 C19.288,9.434 18.646,6.452 16.537,4.343 C13.904,1.710 9.904,1.324 6.837,3.129 L5.365,1.657 C9.248,-0.915 14.530,-0.492 17.951,2.929 C21.138,6.116 21.689,10.906 19.674,14.687 L20.820,14.687 C21.355,14.687 21.790,15.121 21.790,15.657 ZM4.539,8.839 C3.994,8.813 3.531,8.349 3.505,7.804 L3.470,7.074 C2.332,9.946 2.899,13.333 5.223,15.657 C7.856,18.290 11.856,18.676 14.923,16.871 L16.395,18.343 C12.512,20.915 7.230,20.492 3.809,17.071 C0.667,13.930 0.085,9.231 1.998,5.475 L1.057,5.430 C0.495,5.403 0.017,4.926 -0.009,4.363 C-0.036,3.801 0.398,3.367 0.960,3.394 L4.015,3.539 C4.433,3.559 4.802,3.829 4.976,4.196 C5.183,4.386 5.325,4.647 5.339,4.936 L5.480,7.898 C5.506,8.444 5.085,8.865 4.539,8.839 Z" transform="translate(1.1 2)" class="cls-1"/>
</svg>
