<svg xmlns="http://www.w3.org/2000/svg" xmlns:xlink="http://www.w3.org/1999/xlink" preserveAspectRatio="xMidYMid" width="24" height="24" viewBox="0 0 24 24">
  <defs>
    <style>
      .cls-1 {
        fill: #444;
        fill-rule: evenodd;
      }
    </style>
  </defs>
  <path d="M22.000,24.000 C22.000,11.850 12.150,2.000 -0.000,2.000 L-0.000,0.000 C13.255,0.000 24.000,10.745 24.000,24.000 L22.000,24.000 ZM14.000,24.000 L12.000,24.000 C12.000,17.373 6.627,12.000 -0.000,12.000 L-0.000,10.000 C7.732,10.000 14.000,16.268 14.000,24.000 ZM2.000,20.000 C3.105,20.000 4.000,20.895 4.000,22.000 C4.000,23.105 3.105,24.000 2.000,24.000 C0.895,24.000 -0.000,23.105 -0.000,22.000 C-0.000,20.895 0.895,20.000 2.000,20.000 Z" class="cls-1"/>
</svg>
