<svg xmlns="http://www.w3.org/2000/svg" xmlns:xlink="http://www.w3.org/1999/xlink" preserveAspectRatio="xMidYMid" width="24" height="24" viewBox="0 0 24 24">
  <defs>
    <style>
      .cls-1 {
        fill: #444;
        fill-rule: evenodd;
      }
    </style>
  </defs>
  <path d="M23.000,24.000 L17.000,24.000 C16.448,24.000 16.000,23.552 16.000,23.000 C16.000,22.448 16.448,22.000 17.000,22.000 L22.000,22.000 L22.000,17.000 C22.000,16.448 22.448,16.000 23.000,16.000 C23.552,16.000 24.000,16.448 24.000,17.000 L24.000,23.000 C24.000,23.552 23.552,24.000 23.000,24.000 ZM23.000,13.000 L1.000,13.000 C0.448,13.000 0.000,12.552 0.000,12.000 C0.000,11.448 0.448,11.000 1.000,11.000 L23.000,11.000 C23.552,11.000 24.000,11.448 24.000,12.000 C24.000,12.552 23.552,13.000 23.000,13.000 ZM23.000,8.000 C22.448,8.000 22.000,7.552 22.000,7.000 L22.000,2.000 L17.000,2.000 C16.448,2.000 16.000,1.552 16.000,1.000 C16.000,0.448 16.448,-0.000 17.000,-0.000 L23.000,-0.000 C23.552,-0.000 24.000,0.448 24.000,1.000 L24.000,7.000 C24.000,7.552 23.552,8.000 23.000,8.000 ZM7.000,2.000 L2.000,2.000 L2.000,7.000 C2.000,7.552 1.552,8.000 1.000,8.000 C0.448,8.000 0.000,7.552 0.000,7.000 L0.000,1.000 C0.000,0.448 0.448,-0.000 1.000,-0.000 L7.000,-0.000 C7.552,-0.000 8.000,0.448 8.000,1.000 C8.000,1.552 7.552,2.000 7.000,2.000 ZM1.000,16.000 C1.552,16.000 2.000,16.448 2.000,17.000 L2.000,22.000 L7.000,22.000 C7.552,22.000 8.000,22.448 8.000,23.000 C8.000,23.552 7.552,24.000 7.000,24.000 L1.000,24.000 C0.448,24.000 0.000,23.552 0.000,23.000 L0.000,17.000 C0.000,16.448 0.448,16.000 1.000,16.000 Z" class="cls-1"/>
</svg>
