<svg xmlns="http://www.w3.org/2000/svg" xmlns:xlink="http://www.w3.org/1999/xlink" preserveAspectRatio="xMidYMid" width="24" height="24" viewBox="0 0 24 24">
  <defs>
    <style>
      .cls-1 {
        fill: #444;
        fill-rule: evenodd;
      }
    </style>
  </defs>
  <path d="M16.675,16.423 C16.035,20.621 14.455,24.000 12.000,24.000 C9.545,24.000 7.966,20.621 7.325,16.423 C3.246,15.758 0.000,14.197 0.000,11.792 C0.000,9.372 3.285,7.806 7.399,7.148 C8.080,3.153 9.630,0.000 12.000,0.000 C14.370,0.000 15.920,3.153 16.601,7.148 C20.715,7.806 24.000,9.372 24.000,11.792 C24.000,14.197 20.754,15.758 16.675,16.423 ZM2.000,11.792 C2.000,12.619 3.916,13.739 7.091,14.350 C7.032,13.574 7.000,12.787 7.000,12.000 C7.000,11.069 7.047,10.139 7.130,9.227 C3.933,9.836 2.000,10.961 2.000,11.792 ZM12.000,22.000 C12.847,22.000 13.998,19.988 14.598,16.678 C13.742,16.751 12.872,16.792 12.000,16.792 C11.128,16.792 10.258,16.751 9.402,16.678 C10.002,19.988 11.153,22.000 12.000,22.000 ZM12.000,2.000 C11.190,2.000 10.099,3.840 9.481,6.899 C10.311,6.830 11.155,6.792 12.000,6.792 C12.845,6.792 13.689,6.830 14.519,6.899 C13.901,3.840 12.810,2.000 12.000,2.000 ZM14.834,8.936 C13.950,8.846 13.007,8.792 12.000,8.792 C10.994,8.792 10.050,8.846 9.166,8.936 C9.061,9.883 9.000,10.907 9.000,12.000 C9.000,12.935 9.048,13.814 9.126,14.644 C10.021,14.737 10.979,14.792 12.000,14.792 C13.021,14.792 13.979,14.737 14.874,14.644 C14.952,13.814 15.000,12.935 15.000,12.000 C15.000,10.907 14.939,9.883 14.834,8.936 ZM16.870,9.227 C16.953,10.139 17.000,11.069 17.000,12.000 C17.000,12.787 16.968,13.574 16.909,14.350 C20.084,13.739 22.000,12.619 22.000,11.792 C22.000,10.961 20.067,9.836 16.870,9.227 ZM12.000,13.000 C11.448,13.000 11.000,12.552 11.000,12.000 C11.000,11.448 11.448,11.000 12.000,11.000 C12.552,11.000 13.000,11.448 13.000,12.000 C13.000,12.552 12.552,13.000 12.000,13.000 Z" class="cls-1"/>
</svg>
