<svg xmlns="http://www.w3.org/2000/svg" xmlns:xlink="http://www.w3.org/1999/xlink" preserveAspectRatio="xMidYMid" width="24" height="24" viewBox="0 0 24 24">
  <defs>
    <style>
      .cls-1 {
        fill: #444;
        fill-rule: evenodd;
      }
    </style>
  </defs>
  <path d="M23.703,5.738 L16.000,13.440 L16.000,17.000 C16.000,17.426 15.732,17.783 15.357,17.928 L9.924,23.376 C9.775,23.742 9.419,24.000 9.000,24.000 C8.990,24.000 8.982,23.995 8.972,23.994 C8.716,24.015 8.460,23.940 8.270,23.751 C8.091,23.571 8.008,23.330 8.018,23.087 C8.015,23.057 8.000,23.031 8.000,23.000 L8.000,13.455 L0.350,5.807 C0.232,5.689 0.149,5.551 0.091,5.408 C0.058,5.335 0.049,5.253 0.035,5.173 C0.026,5.123 0.006,5.074 0.005,5.024 C0.004,5.015 -0.000,5.008 -0.000,5.000 L-0.000,1.000 C-0.000,0.448 0.448,0.000 1.000,0.000 L23.000,0.000 C23.552,0.000 24.000,0.448 24.000,1.000 L24.000,4.995 C24.005,5.263 23.908,5.532 23.703,5.738 ZM22.000,2.000 L2.000,2.000 L2.000,4.574 L9.634,12.206 C9.655,12.227 9.664,12.254 9.683,12.277 C9.876,12.459 10.000,12.713 10.000,13.000 L10.000,20.730 L14.000,16.719 L14.000,13.005 C13.995,12.737 14.092,12.468 14.297,12.263 L22.000,4.560 L22.000,2.000 Z" class="cls-1"/>
</svg>
