<svg xmlns="http://www.w3.org/2000/svg" xmlns:xlink="http://www.w3.org/1999/xlink" preserveAspectRatio="xMidYMid" width="24" height="24" viewBox="0 0 24 24">
  <defs>
    <style>
      .cls-1 {
        fill: #444;
        fill-rule: evenodd;
      }
    </style>
  </defs>
  <path d="M23.678,23.678 C23.270,24.086 22.608,24.086 22.200,23.678 L16.291,17.769 C14.572,19.162 12.385,20.000 10.000,20.000 C4.477,20.000 -0.000,15.523 -0.000,10.000 C-0.000,4.477 4.477,0.000 10.000,0.000 C15.523,0.000 20.000,4.477 20.000,10.000 C20.000,12.385 19.162,14.572 17.769,16.291 L23.678,22.200 C24.086,22.608 24.086,23.270 23.678,23.678 ZM18.000,10.000 C18.000,5.582 14.418,2.000 10.000,2.000 C5.582,2.000 2.000,5.582 2.000,10.000 C2.000,14.418 5.582,18.000 10.000,18.000 C14.418,18.000 18.000,14.418 18.000,10.000 ZM10.000,16.000 C6.686,16.000 4.000,13.314 4.000,10.000 C4.000,6.686 6.686,4.000 10.000,4.000 C13.314,4.000 16.000,6.686 16.000,10.000 C16.000,13.314 13.314,16.000 10.000,16.000 Z" class="cls-1"/>
</svg>
