<svg xmlns="http://www.w3.org/2000/svg" xmlns:xlink="http://www.w3.org/1999/xlink" preserveAspectRatio="xMidYMid" width="24" height="24" viewBox="0 0 24 24">
  <defs>
    <style>
      .cls-1 {
        fill: #444;
        fill-rule: evenodd;
      }
    </style>
  </defs>
  <path d="M12.000,23.988 C5.373,23.988 -0.000,18.616 -0.000,11.988 C-0.000,8.674 1.343,5.675 3.515,3.503 L3.516,3.504 C3.517,3.503 3.518,3.501 3.519,3.500 C3.919,3.101 4.566,3.101 4.965,3.500 L12.683,11.225 C13.082,11.625 13.082,12.272 12.683,12.671 C12.284,13.071 11.636,13.071 11.237,12.671 L4.247,5.674 C2.843,7.396 2.000,9.593 2.000,11.988 C2.000,17.511 6.477,21.988 12.000,21.988 C17.523,21.988 22.000,17.511 22.000,11.988 C22.000,6.803 18.053,2.540 13.000,2.038 L13.000,4.988 C13.000,5.541 12.552,5.988 12.000,5.988 C11.448,5.988 11.000,5.541 11.000,4.988 L11.000,0.988 C11.000,0.436 11.448,-0.012 12.000,-0.012 L12.750,-0.012 C12.794,-0.012 12.964,-0.032 13.000,-0.012 C19.221,0.435 24.000,5.654 24.000,11.988 C24.000,18.616 18.627,23.988 12.000,23.988 Z" class="cls-1"/>
</svg>
