<svg xmlns="http://www.w3.org/2000/svg" xmlns:xlink="http://www.w3.org/1999/xlink" preserveAspectRatio="xMidYMid" width="24" height="24" viewBox="0 0 24 24">
  <defs>
    <style>
      .cls-1 {
        fill: #444;
        fill-rule: evenodd;
      }
    </style>
  </defs>
  <path d="M22.996,1.049 C22.995,1.082 22.975,1.111 22.972,1.143 C22.967,1.172 22.974,1.199 22.967,1.227 L17.988,20.750 C18.034,20.990 18.010,21.247 17.881,21.476 C17.725,21.755 17.461,21.918 17.175,21.971 C17.043,22.007 16.906,22.016 16.766,21.991 L14.753,20.828 L12.726,19.625 C12.722,19.631 12.720,19.637 12.715,19.642 L12.709,19.648 L8.038,16.951 C8.044,16.946 8.058,16.934 8.063,16.929 L22.767,0.357 C22.885,0.506 22.969,0.680 22.988,0.877 C22.993,0.902 23.000,0.927 23.002,0.952 C23.003,0.985 22.998,1.016 22.996,1.049 ZM0.491,11.955 C0.188,11.775 0.027,11.455 0.003,11.121 C-0.001,11.094 -0.000,11.068 -0.002,11.041 C-0.002,10.978 -0.001,10.917 0.011,10.853 C0.046,10.538 0.204,10.240 0.495,10.070 L21.489,0.139 C21.516,0.122 21.547,0.122 21.575,0.109 C21.645,0.074 21.716,0.053 21.790,0.036 C21.804,0.033 21.816,0.031 21.829,0.028 C21.981,-0.013 22.139,-0.029 22.301,0.017 C22.462,0.062 22.591,0.158 22.703,0.272 C22.708,0.276 22.713,0.278 22.718,0.282 C22.730,0.294 22.734,0.310 22.745,0.323 C22.745,0.324 22.746,0.325 22.746,0.325 L6.103,15.637 L0.491,11.955 ZM11.245,21.113 L8.824,23.533 C8.646,23.808 8.351,24.000 8.000,24.000 C7.990,24.000 7.983,23.995 7.973,23.994 C7.724,23.997 7.475,23.905 7.285,23.715 C7.095,23.525 7.003,23.276 7.005,23.027 C7.005,23.017 7.000,23.010 7.000,23.000 L7.000,18.662 L11.245,21.113 Z" transform="translate(0.5)" class="cls-1"/>
</svg>
