<svg xmlns="http://www.w3.org/2000/svg" xmlns:xlink="http://www.w3.org/1999/xlink" preserveAspectRatio="xMidYMid" width="24" height="24" viewBox="0 0 24 24">
  <defs>
    <style>
      .cls-1 {
        fill: #444;
        fill-rule: evenodd;
      }
    </style>
  </defs>
  <path d="M17.000,11.500 C17.000,12.328 16.328,13.000 15.500,13.000 C14.672,13.000 14.000,12.328 14.000,11.500 C14.000,10.672 14.672,10.000 15.500,10.000 C16.328,10.000 17.000,10.672 17.000,11.500 ZM24.000,15.000 C24.000,19.418 20.418,23.000 16.000,23.000 L16.000,22.000 L16.000,21.000 C18.971,21.000 21.421,18.835 21.899,16.000 L21.500,16.000 C20.672,16.000 20.000,15.328 20.000,14.500 L20.000,12.500 C20.000,11.672 20.672,11.000 21.500,11.000 L21.950,11.000 C21.448,5.947 17.185,2.000 12.000,2.000 C6.815,2.000 2.552,5.947 2.051,11.000 L2.500,11.000 C3.328,11.000 4.000,11.672 4.000,12.500 L4.000,14.500 C4.000,15.328 3.328,16.000 2.500,16.000 L1.500,16.000 C0.672,16.000 0.000,15.328 0.000,14.500 L0.000,12.500 C0.000,12.323 0.044,12.158 0.101,12.000 L0.000,12.000 C0.000,5.372 5.373,0.000 12.000,0.000 C18.627,0.000 24.000,5.372 24.000,12.000 C23.962,12.010 24.000,12.323 24.000,12.500 L24.000,14.500 C24.000,14.677 23.956,14.842 23.899,15.000 L24.000,15.000 ZM14.000,24.000 L10.000,24.000 C8.895,24.000 8.000,23.105 8.000,22.000 C8.000,20.895 8.895,20.000 10.000,20.000 L14.000,20.000 C15.105,20.000 16.000,20.895 16.000,22.000 C16.000,23.105 15.105,24.000 14.000,24.000 ZM8.500,10.000 C9.328,10.000 10.000,10.672 10.000,11.500 C10.000,12.328 9.328,13.000 8.500,13.000 C7.672,13.000 7.000,12.328 7.000,11.500 C7.000,10.672 7.672,10.000 8.500,10.000 Z" class="cls-1"/>
</svg>
