<svg xmlns="http://www.w3.org/2000/svg" xmlns:xlink="http://www.w3.org/1999/xlink" preserveAspectRatio="xMidYMid" width="24" height="24" viewBox="0 0 24 24">
  <defs>
    <style>
      .cls-1 {
        fill: #444;
        fill-rule: evenodd;
      }
    </style>
  </defs>
  <path d="M7.781,21.000 C7.781,20.826 7.812,20.661 7.842,20.497 C7.310,20.314 6.787,20.086 6.281,19.794 C5.775,19.502 5.316,19.163 4.892,18.794 C4.764,18.902 4.637,19.011 4.487,19.098 C3.052,19.927 1.217,19.435 0.389,18.000 C-0.440,16.565 0.052,14.730 1.487,13.902 C1.638,13.815 1.798,13.766 1.956,13.710 C1.739,12.591 1.730,11.430 1.951,10.287 C1.795,10.231 1.636,10.184 1.487,10.098 C0.052,9.270 -0.440,7.435 0.389,6.000 C1.217,4.565 3.052,4.073 4.487,4.902 C4.636,4.988 4.756,5.103 4.883,5.210 C5.761,4.447 6.772,3.874 7.849,3.503 C7.819,3.337 7.781,3.175 7.781,3.000 C7.781,1.343 9.124,0.000 10.781,0.000 C12.438,0.000 13.781,1.343 13.781,3.000 C13.781,3.174 13.750,3.339 13.720,3.503 C14.252,3.685 14.775,3.914 15.281,4.206 C15.787,4.498 16.246,4.837 16.670,5.207 C16.798,5.098 16.925,4.989 17.075,4.902 C18.510,4.073 20.345,4.565 21.173,6.000 C22.002,7.435 21.510,9.270 20.075,10.098 C19.924,10.185 19.764,10.234 19.606,10.290 C19.823,11.409 19.832,12.570 19.611,13.713 C19.767,13.769 19.926,13.816 20.075,13.902 C21.510,14.730 22.002,16.565 21.173,18.000 C20.345,19.435 18.510,19.927 17.075,19.098 C16.926,19.012 16.806,18.898 16.680,18.790 C15.801,19.553 14.790,20.126 13.713,20.497 C13.743,20.663 13.781,20.826 13.781,21.000 C13.781,22.657 12.438,24.000 10.781,24.000 C9.124,24.000 7.781,22.657 7.781,21.000 ZM3.772,17.201 L5.290,16.325 C5.822,17.006 6.485,17.602 7.281,18.062 C8.077,18.522 8.925,18.797 9.781,18.918 L9.781,20.672 L9.781,20.750 C9.781,20.750 9.781,20.896 9.781,21.000 C9.781,21.552 10.229,22.000 10.781,22.000 C11.333,22.000 11.781,21.552 11.781,21.000 C11.781,20.849 11.781,20.500 11.781,20.500 L11.781,20.522 L11.781,18.895 C13.505,18.636 15.124,17.754 16.256,16.315 L17.581,17.081 L17.642,17.116 C17.642,17.116 17.918,17.275 18.075,17.366 C18.554,17.642 19.165,17.478 19.441,17.000 C19.717,16.522 19.554,15.910 19.075,15.634 C18.918,15.543 18.642,15.384 18.642,15.384 L18.581,15.349 L17.256,14.584 C17.935,12.884 17.890,11.041 17.253,9.418 L18.664,8.603 L18.642,8.616 C18.642,8.616 18.945,8.441 19.075,8.366 C19.554,8.090 19.717,7.478 19.441,7.000 C19.165,6.522 18.554,6.358 18.075,6.634 C17.985,6.686 17.859,6.759 17.859,6.759 L17.792,6.797 L16.272,7.675 C15.740,6.994 15.077,6.398 14.281,5.938 C13.485,5.478 12.637,5.203 11.781,5.082 L11.781,3.325 L11.781,3.250 C11.781,3.250 11.781,3.103 11.781,3.000 C11.781,2.448 11.333,2.000 10.781,2.000 C10.229,2.000 9.781,2.448 9.781,3.000 C9.781,3.149 9.781,3.500 9.781,3.500 L9.781,3.473 L9.781,5.104 C8.057,5.364 6.438,6.246 5.306,7.684 L3.976,6.917 L3.920,6.884 C3.920,6.884 3.642,6.724 3.487,6.634 C3.009,6.358 2.397,6.522 2.121,7.000 C1.845,7.478 2.008,8.090 2.487,8.366 C2.643,8.456 2.920,8.616 2.920,8.616 L2.979,8.650 L4.306,9.416 C3.627,11.116 3.672,12.959 4.309,14.582 L2.896,15.398 L2.920,15.384 C2.920,15.384 2.616,15.559 2.487,15.634 C2.008,15.910 1.845,16.522 2.121,17.000 C2.397,17.478 3.009,17.642 3.487,17.366 C3.577,17.314 3.703,17.241 3.703,17.241 L3.772,17.201 ZM7.317,10.000 C8.421,8.087 10.868,7.431 12.781,8.536 C14.694,9.641 15.350,12.087 14.245,14.000 C13.141,15.913 10.694,16.569 8.781,15.464 C6.868,14.359 6.212,11.913 7.317,10.000 ZM12.513,13.000 C13.065,12.043 12.738,10.820 11.781,10.268 C10.824,9.716 9.601,10.044 9.049,11.000 C8.497,11.957 8.824,13.180 9.781,13.732 C10.738,14.284 11.961,13.957 12.513,13.000 Z" transform="translate(1.22)" class="cls-1"/>
</svg>
