<svg xmlns="http://www.w3.org/2000/svg" xmlns:xlink="http://www.w3.org/1999/xlink" preserveAspectRatio="xMidYMid" width="24" height="24" viewBox="0 0 24 24">
  <defs>
    <style>
      .cls-1 {
        fill: #444;
        fill-rule: evenodd;
      }
    </style>
  </defs>
  <path d="M7.781,21.000 C7.781,20.826 7.812,20.661 7.842,20.497 C7.310,20.314 6.787,20.086 6.281,19.794 C5.775,19.502 5.316,19.163 4.892,18.794 C4.764,18.902 4.637,19.011 4.487,19.098 C3.052,19.927 1.217,19.435 0.389,18.000 C-0.440,16.565 0.052,14.730 1.487,13.902 C1.638,13.815 1.798,13.766 1.956,13.710 C1.739,12.591 1.730,11.430 1.951,10.287 C1.795,10.231 1.636,10.184 1.487,10.098 C0.052,9.270 -0.440,7.435 0.389,6.000 C1.217,4.565 3.052,4.073 4.487,4.902 C4.636,4.988 4.756,5.103 4.883,5.210 C5.761,4.447 6.772,3.874 7.849,3.503 C7.819,3.337 7.781,3.175 7.781,3.000 C7.781,1.343 9.124,0.000 10.781,0.000 C12.438,0.000 13.781,1.343 13.781,3.000 C13.781,3.174 13.750,3.339 13.720,3.503 C14.252,3.685 14.775,3.914 15.281,4.206 C15.787,4.498 16.246,4.837 16.670,5.207 C16.798,5.098 16.925,4.989 17.075,4.902 C18.510,4.073 20.345,4.565 21.173,6.000 C22.002,7.435 21.510,9.270 20.075,10.098 C19.924,10.185 19.764,10.234 19.606,10.290 C19.823,11.409 19.832,12.570 19.611,13.713 C19.767,13.769 19.926,13.816 20.075,13.902 C21.510,14.730 22.002,16.565 21.173,18.000 C20.345,19.435 18.510,19.927 17.075,19.098 C16.926,19.012 16.806,18.898 16.680,18.790 C15.801,19.553 14.790,20.126 13.713,20.497 C13.743,20.663 13.781,20.826 13.781,21.000 C13.781,22.657 12.438,24.000 10.781,24.000 C9.124,24.000 7.781,22.657 7.781,21.000 ZM7.317,10.000 C8.421,8.087 10.868,7.431 12.781,8.536 C14.694,9.641 15.350,12.087 14.245,14.000 C13.141,15.913 10.694,16.569 8.781,15.464 C6.868,14.359 6.212,11.913 7.317,10.000 ZM12.513,13.000 C13.065,12.043 12.738,10.820 11.781,10.268 C10.824,9.716 9.601,10.044 9.049,11.000 C8.497,11.957 8.824,13.180 9.781,13.732 C10.738,14.284 11.961,13.957 12.513,13.000 Z" transform="translate(1.22)" class="cls-1"/>
</svg>
