<svg xmlns="http://www.w3.org/2000/svg" xmlns:xlink="http://www.w3.org/1999/xlink" preserveAspectRatio="xMidYMid" width="24" height="24" viewBox="0 0 24 24">
  <defs>
    <style>
      .cls-1 {
        fill: #444;
        fill-rule: evenodd;
      }
    </style>
  </defs>
  <path d="M23.000,24.000 L1.000,24.000 C0.448,24.000 -0.000,23.552 -0.000,23.000 L-0.000,1.000 C-0.000,0.448 0.448,-0.000 1.000,-0.000 L11.000,-0.000 C11.552,-0.000 12.000,0.448 12.000,1.000 C12.000,1.552 11.552,2.000 11.000,2.000 L2.000,2.000 L2.000,22.000 L22.000,22.000 L22.000,15.000 C22.000,14.448 22.448,14.000 23.000,14.000 C23.552,14.000 24.000,14.448 24.000,15.000 L24.000,23.000 C24.000,23.552 23.552,24.000 23.000,24.000 ZM23.000,8.000 C22.448,8.000 22.000,7.552 22.000,7.000 L22.000,3.449 L7.753,17.697 C7.353,18.097 6.704,18.097 6.303,17.697 C5.903,17.297 5.903,16.647 6.303,16.247 L20.551,2.000 L17.000,2.000 C16.448,2.000 16.000,1.552 16.000,1.000 C16.000,0.448 16.448,-0.000 17.000,-0.000 L23.000,-0.000 C23.552,-0.000 24.000,0.448 24.000,1.000 L24.000,7.000 C24.000,7.552 23.552,8.000 23.000,8.000 Z" class="cls-1"/>
</svg>
