<svg xmlns="http://www.w3.org/2000/svg" xmlns:xlink="http://www.w3.org/1999/xlink" preserveAspectRatio="xMidYMid" width="24" height="24" viewBox="0 0 25 25">
  <defs>
    <style>
      .cls-1 {
        fill: #444;
        fill-rule: evenodd;
      }
    </style>
  </defs>
  <path d="M3.000,-0.000 L5.000,-0.000 C5.000,1.657 6.343,3.000 8.000,3.000 C9.657,3.000 11.000,1.657 11.000,-0.000 L13.000,-0.000 C13.000,0.033 12.991,0.064 12.990,0.097 C17.137,1.070 20.862,4.218 23.771,7.329 C24.039,7.616 24.100,8.012 24.000,8.364 L24.000,14.000 C24.000,14.552 23.552,15.000 23.000,15.000 L1.000,15.000 C0.448,15.000 0.000,14.552 0.000,14.000 L0.000,3.000 C0.000,1.343 1.343,-0.000 3.000,-0.000 M2.000,6.000 L4.000,6.000 C5.657,6.000 7.000,7.343 7.000,9.000 L7.000,10.000 L12.080,10.000 C12.475,7.244 14.470,5.010 17.098,4.269 C15.654,3.303 14.118,2.527 12.505,2.133 C11.703,3.823 9.995,5.000 8.000,5.000 C5.951,5.000 4.194,3.764 3.422,2.000 L3.000,2.000 C2.448,2.000 2.000,2.448 2.000,3.000 M22.000,12.000 L2.000,12.000 L2.000,13.000 L22.000,13.000 L22.000,12.000 Z" transform="translate(0.47 5)" class="cls-1"/>
</svg>
