<svg xmlns="http://www.w3.org/2000/svg" xmlns:xlink="http://www.w3.org/1999/xlink" preserveAspectRatio="xMidYMid" width="24" height="24" viewBox="0 0 24 24">
  <defs>
    <style>
      .cls-1 {
        fill: #444;
        fill-rule: evenodd;
      }
    </style>
  </defs>
  <path d="M23.000,22.000 L19.000,22.000 C18.448,22.000 18.000,21.552 18.000,21.000 L18.000,16.264 L10.878,21.694 C10.632,21.940 10.297,22.019 9.978,21.969 L1.150,21.969 C1.099,21.977 1.053,22.000 1.000,22.000 C0.483,22.000 0.072,21.588 0.020,21.067 C0.016,21.033 0.000,21.004 0.000,20.969 C0.000,20.968 0.000,20.968 0.000,20.967 C0.000,20.966 0.000,20.966 0.000,20.965 L0.000,16.834 C-0.023,16.576 0.076,16.325 0.266,16.136 C0.389,15.996 0.548,15.903 0.728,15.849 L8.232,12.352 L15.078,0.614 C15.080,0.608 15.085,0.604 15.087,0.598 L15.152,0.488 C15.162,0.469 15.181,0.459 15.193,0.441 C15.246,0.365 15.302,0.297 15.374,0.238 C15.417,0.201 15.464,0.174 15.512,0.145 C15.566,0.114 15.618,0.086 15.678,0.065 C15.762,0.034 15.847,0.021 15.937,0.013 C15.959,0.011 15.977,0.000 16.000,0.000 L16.122,0.000 C16.131,0.001 16.140,-0.001 16.149,0.000 L23.000,0.000 C23.552,0.000 24.000,0.448 24.000,1.000 L24.000,21.000 C24.000,21.552 23.552,22.000 23.000,22.000 Z" transform="translate(0 1)" class="cls-1"/>
</svg>
