<svg xmlns="http://www.w3.org/2000/svg" xmlns:xlink="http://www.w3.org/1999/xlink" preserveAspectRatio="xMidYMid" width="24" height="24" viewBox="0 0 24 24">
  <defs>
    <style>
      .cls-1 {
        fill: #444;
        fill-rule: evenodd;
      }
    </style>
  </defs>
  <path d="M23.000,22.000 C23.000,23.104 22.105,24.000 21.000,24.000 L3.000,24.000 C1.895,24.000 1.000,23.104 1.000,22.000 L-0.000,12.000 C-0.000,10.895 0.895,10.000 2.000,10.000 L8.000,10.000 L8.000,4.000 C8.000,4.000 8.000,4.000 8.000,4.000 L8.000,4.000 C8.000,1.791 9.791,-0.000 12.000,-0.000 C14.209,-0.000 16.000,1.791 16.000,4.000 L16.000,4.000 C16.000,4.000 16.000,4.000 16.000,4.000 L16.000,10.000 L22.000,10.000 C23.105,10.000 24.000,10.895 24.000,12.000 L23.000,22.000 ZM14.000,4.000 L14.000,4.000 C14.000,2.895 13.105,2.000 12.000,2.000 C10.895,2.000 10.000,2.895 10.000,4.000 L10.000,4.000 C10.000,4.000 10.000,4.000 10.000,4.000 L10.000,10.000 L14.000,10.000 L14.000,4.000 C14.000,4.000 14.000,4.000 14.000,4.000 ZM21.000,12.000 L16.000,12.000 L16.000,14.000 C16.000,14.552 15.552,15.000 15.000,15.000 C14.448,15.000 14.000,14.552 14.000,14.000 L14.000,12.000 L10.000,12.000 L10.000,14.000 C10.000,14.552 9.552,15.000 9.000,15.000 C8.448,15.000 8.000,14.552 8.000,14.000 L8.000,12.000 L3.000,12.000 C2.448,12.000 2.000,12.448 2.000,13.000 L3.000,21.000 C3.000,21.552 3.448,22.000 4.000,22.000 L20.000,22.000 C20.552,22.000 21.000,21.552 21.000,21.000 L22.000,13.000 C22.000,12.448 21.552,12.000 21.000,12.000 Z" class="cls-1"/>
</svg>
