<svg xmlns="http://www.w3.org/2000/svg" xmlns:xlink="http://www.w3.org/1999/xlink" preserveAspectRatio="xMidYMid" width="24" height="24" viewBox="0 0 24 24">
  <defs>
    <style>
      .cls-1 {
        fill: #444;
        fill-rule: evenodd;
      }
    </style>
  </defs>
  <path d="M21.000,24.000 L1.000,24.000 C0.448,24.000 0.000,23.552 0.000,23.000 L0.926,6.834 C1.013,6.359 1.434,6.040 1.914,6.017 C1.944,6.015 1.970,6.000 2.000,6.000 L6.000,6.000 L6.000,5.000 C6.000,5.000 6.000,5.000 6.000,5.000 L6.000,5.000 C6.000,2.239 8.239,-0.000 11.000,-0.000 C13.761,-0.000 16.000,2.238 16.000,4.999 C16.000,4.999 16.000,5.000 16.000,5.000 L16.000,6.000 L20.000,6.000 C20.030,6.000 20.056,6.015 20.086,6.017 C20.566,6.040 20.987,6.359 21.074,6.834 L22.000,23.000 C22.000,23.552 21.552,24.000 21.000,24.000 ZM14.000,5.000 C14.000,3.343 12.657,2.000 11.000,2.000 C9.343,2.000 8.000,3.343 8.000,5.000 L8.000,5.000 C8.000,5.000 8.000,5.000 8.000,5.000 L8.000,6.000 L14.000,6.000 L14.000,5.000 C14.000,5.000 14.000,5.000 14.000,5.000 L14.000,5.000 ZM16.000,8.000 L16.000,10.277 C16.595,10.624 17.000,11.262 17.000,12.000 C17.000,13.105 16.105,14.000 15.000,14.000 C13.895,14.000 13.000,13.105 13.000,12.000 C13.000,11.262 13.405,10.624 14.000,10.277 L14.000,8.000 L8.000,8.000 L8.000,10.277 C8.595,10.624 9.000,11.262 9.000,12.000 C9.000,13.105 8.105,14.000 7.000,14.000 C5.895,14.000 5.000,13.105 5.000,12.000 C5.000,11.262 5.405,10.624 6.000,10.277 L6.000,8.000 L2.952,8.000 L2.142,22.000 L19.858,22.000 L19.048,8.000 L16.000,8.000 Z" transform="translate(1)" class="cls-1"/>
</svg>
