<svg xmlns="http://www.w3.org/2000/svg" xmlns:xlink="http://www.w3.org/1999/xlink" preserveAspectRatio="xMidYMid" width="24" height="24" viewBox="0 0 24 24">
  <defs>
    <style>
      .cls-1 {
        fill: #444;
        fill-rule: evenodd;
      }
    </style>
  </defs>
  <path d="M22.000,23.000 C22.000,23.012 21.994,23.022 21.993,23.033 C21.988,23.141 21.970,23.242 21.931,23.340 C21.917,23.379 21.899,23.413 21.880,23.450 C21.844,23.517 21.806,23.578 21.756,23.635 C21.710,23.690 21.659,23.734 21.602,23.778 C21.561,23.809 21.522,23.838 21.475,23.863 C21.403,23.904 21.327,23.929 21.245,23.951 C21.210,23.960 21.182,23.982 21.145,23.988 C21.118,23.993 21.094,23.984 21.067,23.986 C21.044,23.988 21.024,24.000 21.000,24.000 L1.000,24.000 C0.976,24.000 0.956,23.988 0.933,23.986 C0.906,23.984 0.882,23.993 0.855,23.988 C0.818,23.982 0.790,23.960 0.755,23.951 C0.673,23.929 0.597,23.904 0.525,23.863 C0.478,23.838 0.439,23.809 0.398,23.778 C0.341,23.734 0.290,23.690 0.245,23.635 C0.194,23.578 0.155,23.516 0.119,23.450 C0.101,23.413 0.083,23.379 0.069,23.340 C0.030,23.242 0.012,23.141 0.007,23.033 C0.006,23.021 0.000,23.012 0.000,23.000 C0.000,22.991 0.005,22.984 0.005,22.975 C0.006,22.920 -0.009,22.869 0.001,22.813 L0.926,6.834 C1.013,6.359 1.434,6.040 1.915,6.017 C1.944,6.015 1.970,6.000 2.000,6.000 L6.000,6.000 L6.000,5.000 L6.000,5.000 L6.000,5.000 C6.000,2.239 8.239,-0.000 11.000,-0.000 C13.761,-0.000 15.999,2.238 16.000,4.999 C16.000,4.999 16.000,5.000 16.000,5.000 L16.000,6.000 L20.000,6.000 C20.030,6.000 20.056,6.015 20.086,6.017 C20.566,6.040 20.987,6.359 21.074,6.834 L21.999,22.813 C22.009,22.868 21.994,22.920 21.995,22.974 C21.995,22.983 22.000,22.991 22.000,23.000 ZM14.000,5.000 C14.000,3.343 12.657,2.000 11.000,2.000 C9.343,2.000 8.000,3.343 8.000,5.000 C8.000,5.000 8.000,5.000 8.000,5.000 L8.000,6.000 L14.000,6.000 L14.000,5.000 L14.000,5.000 L14.000,5.000 Z" transform="translate(1)" class="cls-1"/>
</svg>
