<svg xmlns="http://www.w3.org/2000/svg" xmlns:xlink="http://www.w3.org/1999/xlink" preserveAspectRatio="xMidYMid" width="24" height="24" viewBox="0 0 24 24">
  <defs>
    <style>
      .cls-1 {
        fill: #444;
        fill-rule: evenodd;
      }
    </style>
  </defs>
  <path d="M19.987,1.062 C19.984,1.145 19.962,1.223 19.939,1.305 C19.926,1.344 19.918,1.383 19.901,1.420 C19.886,1.455 19.885,1.492 19.866,1.526 L11.000,15.292 L11.000,22.000 L15.000,22.000 C15.552,22.000 16.000,22.448 16.000,23.000 C16.000,23.552 15.552,24.000 15.000,24.000 L5.000,24.000 C4.448,24.000 4.000,23.552 4.000,23.000 C4.000,22.448 4.448,22.000 5.000,22.000 L9.000,22.000 L9.000,15.292 L0.134,1.526 C0.115,1.492 0.114,1.455 0.099,1.420 C0.082,1.383 0.074,1.344 0.062,1.305 C0.038,1.224 0.016,1.145 0.013,1.063 C0.011,1.041 0.000,1.022 0.000,1.000 C0.000,0.955 0.020,0.917 0.026,0.874 C0.034,0.809 0.043,0.747 0.064,0.685 C0.085,0.621 0.115,0.566 0.148,0.508 C0.181,0.449 0.216,0.393 0.261,0.341 C0.295,0.302 0.333,0.271 0.373,0.239 C0.417,0.201 0.449,0.154 0.500,0.124 C0.528,0.107 0.560,0.107 0.589,0.093 C0.612,0.083 0.637,0.077 0.661,0.068 C0.770,0.028 0.877,0.003 0.989,0.002 C0.993,0.002 0.996,-0.000 1.000,-0.000 L19.000,-0.000 C19.004,-0.000 19.007,0.002 19.011,0.002 C19.123,0.003 19.230,0.028 19.339,0.068 C19.363,0.077 19.388,0.083 19.411,0.093 C19.440,0.107 19.472,0.107 19.500,0.124 C19.551,0.154 19.583,0.201 19.627,0.239 C19.667,0.271 19.705,0.302 19.739,0.341 C19.785,0.393 19.819,0.449 19.853,0.508 C19.886,0.566 19.915,0.621 19.936,0.685 C19.957,0.747 19.966,0.809 19.975,0.874 C19.980,0.917 20.000,0.955 20.000,1.000 C20.000,1.022 19.989,1.041 19.987,1.062 ZM2.832,2.000 L10.000,13.130 L17.168,2.000 L2.832,2.000 Z" transform="translate(2)" class="cls-1"/>
</svg>
