<svg xmlns="http://www.w3.org/2000/svg" xmlns:xlink="http://www.w3.org/1999/xlink" preserveAspectRatio="xMidYMid" width="24" height="24.03" viewBox="0 0 24 24.03">
  <defs>
    <style>
      .cls-1 {
        fill: #444;
        fill-rule: evenodd;
      }
    </style>
  </defs>
  <path d="M23.713,1.638 L17.321,8.030 L21.000,8.030 C21.552,8.030 22.000,8.478 22.000,9.030 C22.000,9.582 21.552,10.030 21.000,10.030 L15.000,10.030 C14.982,10.030 14.967,10.021 14.949,10.020 C14.699,10.024 14.448,9.934 14.257,9.743 C14.040,9.526 13.965,9.233 14.000,8.950 L14.000,3.030 C14.000,2.478 14.448,2.030 15.000,2.030 C15.552,2.030 16.000,2.478 16.000,3.030 L16.000,6.649 L22.362,0.287 C22.735,-0.086 23.340,-0.086 23.713,0.287 C24.086,0.660 24.086,1.265 23.713,1.638 ZM9.969,21.002 C9.969,21.552 9.522,21.999 8.972,21.999 L8.966,21.999 C8.415,21.999 7.969,21.552 7.969,21.002 L7.969,17.407 L1.633,23.743 C1.261,24.115 0.658,24.115 0.286,23.743 C-0.086,23.371 -0.086,22.768 0.286,22.396 L6.652,16.030 L2.997,16.030 C2.446,16.030 2.000,15.584 2.000,15.033 L2.000,15.027 C2.000,14.476 2.446,14.030 2.997,14.030 L8.966,14.030 L8.972,14.030 C8.990,14.030 9.005,14.039 9.023,14.040 C9.272,14.036 9.522,14.126 9.713,14.316 C9.929,14.532 10.004,14.825 9.969,15.107 L9.969,21.002 Z" class="cls-1"/>
</svg>
