<svg xmlns="http://www.w3.org/2000/svg" xmlns:xlink="http://www.w3.org/1999/xlink" preserveAspectRatio="xMidYMid" width="23.01" height="24" viewBox="0 0 23.969 25">
  <defs>
    <style>
      .cls-1 {
        fill: #444;
        fill-rule: evenodd;
      }
    </style>
  </defs>
  <path d="M18.000,0.031 C18.000,0.194 18.000,0.031 18.000,0.031 L23.678,6.231 C23.713,6.266 23.728,6.312 23.757,6.350 C23.806,6.404 23.839,6.464 23.873,6.526 C23.885,6.550 23.902,6.572 23.911,6.597 C23.995,6.788 24.005,6.993 23.940,7.197 C23.898,7.383 23.823,7.564 23.678,7.709 C23.674,7.712 23.669,7.713 23.666,7.717 L21.866,10.583 C21.656,10.917 21.254,11.082 20.862,11.032 C20.688,11.027 20.513,10.997 20.350,10.911 L18.000,9.663 L19.000,17.031 L19.956,22.733 C19.969,22.775 19.958,22.815 19.965,22.857 C19.976,22.916 20.000,22.969 20.000,23.031 C20.000,23.061 19.985,23.087 19.983,23.117 C19.980,23.136 19.975,23.154 19.971,23.174 C19.899,23.655 19.502,24.031 19.000,24.031 L5.000,24.031 C4.498,24.031 4.101,23.655 4.029,23.174 C4.025,23.154 4.020,23.136 4.017,23.117 C4.015,23.087 4.000,23.061 4.000,23.031 C4.000,22.969 4.025,22.916 4.035,22.857 C4.042,22.815 4.031,22.775 4.044,22.733 L5.000,17.031 C5.042,16.888 6.000,9.522 6.000,9.522 L3.644,10.803 C3.596,10.842 3.558,10.889 3.500,10.920 C3.259,11.048 2.985,11.072 2.737,11.010 C2.491,10.955 2.269,10.813 2.133,10.591 C2.129,10.585 2.130,10.577 2.126,10.571 L0.356,7.752 C0.336,7.735 0.310,7.728 0.291,7.709 C0.025,7.442 -0.050,7.071 0.032,6.729 C0.035,6.716 0.036,6.703 0.039,6.690 C0.086,6.523 0.160,6.363 0.291,6.231 L6.000,0.031 C5.989,-0.119 6.000,0.184 6.000,0.031 L8.000,0.031 C8.000,2.240 9.791,4.031 12.000,4.031 C14.209,4.031 16.000,2.240 16.000,0.031 M16.000,8.031 C16.000,8.001 16.015,7.975 16.017,7.946 C16.021,7.903 16.033,7.862 16.043,7.820 C16.064,7.722 16.094,7.632 16.142,7.547 C16.148,7.538 16.147,7.528 16.152,7.520 C16.160,7.508 16.173,7.502 16.181,7.490 C16.248,7.389 16.329,7.304 16.427,7.233 C16.439,7.225 16.450,7.218 16.461,7.210 C16.549,7.152 16.643,7.110 16.747,7.082 C16.812,7.061 16.876,7.052 16.944,7.042 C16.964,7.041 16.980,7.031 17.000,7.031 C17.010,7.031 17.019,7.037 17.029,7.037 C17.239,7.024 17.453,7.047 17.650,7.151 L20.697,8.768 L21.685,7.194 L17.293,2.801 C16.289,4.713 14.309,6.031 12.000,6.031 C9.683,6.031 7.696,4.704 6.697,2.781 L2.303,7.175 L3.375,8.882 L6.508,7.179 C6.585,7.134 6.666,7.103 6.755,7.080 C7.180,6.937 7.662,7.077 7.895,7.458 C8.031,7.680 8.000,8.555 8.000,8.031 C8.000,8.031 7.012,16.989 7.000,17.031 L6.000,22.031 L18.000,22.031 L17.000,17.031 L16.000,8.031 Z" transform="translate(0 0.48)" class="cls-1"/>
</svg>
