<svg xmlns="http://www.w3.org/2000/svg" xmlns:xlink="http://www.w3.org/1999/xlink" preserveAspectRatio="xMidYMid" width="24" height="24" viewBox="0 0 24 24">
  <defs>
    <style>
      .cls-1 {
        fill: #444;
        fill-rule: evenodd;
      }
    </style>
  </defs>
  <path d="M12.000,24.000 C5.373,24.000 0.000,18.627 0.000,12.000 C0.000,5.373 5.373,-0.000 12.000,-0.000 C18.627,-0.000 24.000,5.373 24.000,12.000 C24.000,18.627 18.627,24.000 12.000,24.000 ZM12.000,2.000 C6.477,2.000 2.000,6.477 2.000,12.000 C2.000,17.523 6.477,22.000 12.000,22.000 C17.523,22.000 22.000,17.523 22.000,12.000 C22.000,6.477 17.523,2.000 12.000,2.000 ZM16.500,12.000 C15.672,12.000 15.000,11.328 15.000,10.500 C15.000,9.672 15.672,9.000 16.500,9.000 C17.328,9.000 18.000,9.672 18.000,10.500 C18.000,11.328 17.328,12.000 16.500,12.000 ZM15.809,16.274 C16.231,16.667 16.006,17.624 15.168,18.121 C13.210,19.282 10.790,19.282 8.832,18.121 C7.994,17.624 7.769,16.667 8.191,16.274 C8.613,15.875 9.315,15.951 9.847,16.256 C11.178,17.045 12.822,17.045 14.153,16.256 C14.685,15.951 15.387,15.875 15.809,16.274 ZM7.500,12.000 C6.672,12.000 6.000,11.328 6.000,10.500 C6.000,9.672 6.672,9.000 7.500,9.000 C8.328,9.000 9.000,9.672 9.000,10.500 C9.000,11.328 8.328,12.000 7.500,12.000 Z" class="cls-1"/>
</svg>
