<svg xmlns="http://www.w3.org/2000/svg" xmlns:xlink="http://www.w3.org/1999/xlink" preserveAspectRatio="xMidYMid" width="24" height="24" viewBox="0 0 24 24">
  <defs>
    <style>
      .cls-1 {
        fill: #444;
        fill-rule: evenodd;
      }
    </style>
  </defs>
  <path d="M20.000,21.000 L20.000,23.000 C20.000,23.552 19.552,24.000 19.000,24.000 C18.448,24.000 18.000,23.552 18.000,23.000 L18.000,21.000 L6.000,21.000 L6.000,23.000 C6.000,23.552 5.552,24.000 5.000,24.000 C4.448,24.000 4.000,23.552 4.000,23.000 L4.000,21.000 L0.000,21.000 L0.000,7.000 C0.000,5.895 0.895,5.000 2.000,5.000 L4.000,5.000 L4.000,0.000 L20.000,0.000 L20.000,5.000 L22.000,5.000 C23.105,5.000 24.000,5.895 24.000,7.000 L24.000,21.000 L20.000,21.000 ZM18.000,2.000 L6.000,2.000 L6.000,12.000 L18.000,12.000 L18.000,2.000 ZM22.000,8.000 C22.000,7.448 21.552,7.000 21.000,7.000 L20.000,7.000 L20.000,14.000 L4.000,14.000 L4.000,7.000 L3.000,7.000 C2.448,7.000 2.000,7.448 2.000,8.000 L2.000,19.000 L22.000,19.000 L22.000,8.000 Z" class="cls-1"/>
</svg>
