<svg xmlns="http://www.w3.org/2000/svg" xmlns:xlink="http://www.w3.org/1999/xlink" preserveAspectRatio="xMidYMid" width="24" height="24" viewBox="0 0 24 24">
  <defs>
    <style>
      .cls-1 {
        fill: #444;
        fill-rule: evenodd;
      }
    </style>
  </defs>
  <path d="M14.000,24.000 L2.000,24.000 C0.895,24.000 0.000,23.105 0.000,22.000 L0.000,2.000 C0.000,0.895 0.895,-0.000 2.000,-0.000 L14.000,-0.000 C15.105,-0.000 16.000,0.895 16.000,2.000 L16.000,22.000 C16.000,23.105 15.105,24.000 14.000,24.000 ZM8.000,5.000 C6.895,5.000 6.000,5.895 6.000,7.000 C6.000,8.105 6.895,9.000 8.000,9.000 C9.105,9.000 10.000,8.105 10.000,7.000 C10.000,5.895 9.105,5.000 8.000,5.000 ZM8.000,12.000 C5.791,12.000 4.000,13.791 4.000,16.000 C4.000,18.209 5.791,20.000 8.000,20.000 C10.209,20.000 12.000,18.209 12.000,16.000 C12.000,13.791 10.209,12.000 8.000,12.000 ZM8.000,18.000 C6.897,18.000 6.000,17.103 6.000,16.000 C6.000,14.897 6.897,14.000 8.000,14.000 C9.103,14.000 10.000,14.897 10.000,16.000 C10.000,17.103 9.103,18.000 8.000,18.000 Z" transform="translate(4)" class="cls-1"/>
</svg>
