<svg xmlns="http://www.w3.org/2000/svg" xmlns:xlink="http://www.w3.org/1999/xlink" preserveAspectRatio="xMidYMid" width="24" height="23.04" viewBox="0 0 25 24">
  <defs>
    <style>
      .cls-1 {
        fill: #444;
        fill-rule: evenodd;
      }
    </style>
  </defs>
  <path d="M23.532,12.766 L12.711,18.758 C12.556,18.892 12.367,18.966 12.164,18.987 C12.118,18.994 12.075,18.994 12.030,18.996 C11.984,18.994 11.941,18.994 11.896,18.987 C11.693,18.966 11.505,18.892 11.350,18.759 L0.500,12.742 C0.029,12.481 -0.132,11.903 0.140,11.451 C0.411,11.000 1.013,10.845 1.483,11.105 L12.037,16.958 L22.551,11.136 C23.020,10.876 23.620,11.031 23.891,11.480 C24.162,11.931 24.002,12.506 23.532,12.766 ZM23.171,7.966 L12.711,13.758 C12.556,13.892 12.367,13.966 12.164,13.987 C12.118,13.994 12.075,13.994 12.029,13.996 C11.984,13.994 11.941,13.994 11.896,13.987 C11.693,13.966 11.505,13.892 11.350,13.759 L0.843,7.932 C0.570,7.884 0.320,7.737 0.170,7.490 C0.128,7.420 0.114,7.344 0.093,7.269 C-0.015,7.009 -0.017,6.712 0.140,6.451 C0.307,6.174 0.600,6.025 0.909,6.000 L11.336,0.241 C11.492,0.108 11.680,0.034 11.883,0.013 C11.928,0.006 11.972,0.006 12.017,0.004 C12.062,0.006 12.105,0.006 12.150,0.013 C12.353,0.034 12.541,0.107 12.696,0.240 L23.170,6.034 C23.461,6.072 23.733,6.218 23.891,6.481 C23.990,6.645 24.014,6.824 24.004,7.000 C24.014,7.176 23.990,7.355 23.891,7.519 C23.733,7.781 23.462,7.928 23.171,7.966 ZM12.009,2.034 L3.057,6.978 L12.037,11.958 L20.990,7.001 L12.009,2.034 ZM1.483,16.106 L12.037,21.958 L22.551,16.136 C23.020,15.877 23.620,16.031 23.891,16.481 C24.162,16.931 24.002,17.506 23.532,17.766 L12.711,23.758 C12.556,23.892 12.367,23.966 12.163,23.987 C12.118,23.994 12.075,23.994 12.030,23.996 C11.984,23.994 11.941,23.994 11.896,23.987 C11.693,23.966 11.505,23.892 11.350,23.759 L0.500,17.742 C0.029,17.481 -0.132,16.903 0.140,16.451 C0.411,15.999 1.013,15.845 1.483,16.106 Z" transform="translate(0.48)" class="cls-1"/>
</svg>
