<svg xmlns="http://www.w3.org/2000/svg" xmlns:xlink="http://www.w3.org/1999/xlink" preserveAspectRatio="xMidYMid" width="23.969" height="24" viewBox="0 0 23.969 24">
  <defs>
    <style>
      .cls-1 {
        fill: #444;
        fill-rule: evenodd;
      }
    </style>
  </defs>
  <path d="M6.222,23.001 C5.637,23.001 5.140,22.846 4.715,22.543 C3.278,21.517 3.203,19.154 4.489,14.920 C0.918,12.287 -0.439,10.346 0.098,8.670 C0.635,6.993 2.871,6.192 7.316,6.100 C8.729,1.908 10.166,0.024 11.934,0.014 C11.938,0.014 11.943,0.014 11.948,0.014 C13.711,0.014 15.164,1.884 16.621,6.049 C21.065,6.092 23.310,6.868 23.866,8.539 C24.422,10.209 23.086,12.165 19.545,14.838 C20.878,19.057 20.829,21.421 19.405,22.463 C17.979,23.506 15.698,22.846 12.047,20.321 C9.497,22.128 7.614,23.001 6.222,23.001 ZM11.946,2.004 C11.945,2.004 11.945,2.004 11.945,2.004 C11.894,2.004 10.689,2.071 8.997,7.386 C8.866,7.799 8.482,8.079 8.048,8.081 C2.443,8.101 2.018,9.226 2.003,9.274 C1.988,9.322 1.680,10.484 6.238,13.726 C6.591,13.978 6.741,14.428 6.608,14.839 C4.895,20.148 5.840,20.898 5.881,20.928 C5.921,20.956 6.938,21.609 11.447,18.297 C11.796,18.040 12.272,18.037 12.625,18.290 C17.172,21.554 18.177,20.889 18.220,20.860 C18.260,20.830 19.197,20.071 17.425,14.781 C17.288,14.370 17.432,13.920 17.783,13.664 C22.305,10.371 21.984,9.212 21.967,9.164 C21.953,9.117 21.482,7.992 15.911,8.038 C15.501,8.045 15.090,7.765 14.954,7.354 C13.206,2.070 12.001,2.004 11.946,2.004 Z" transform="translate(0 0.5)" class="cls-1"/>
</svg>
