<svg xmlns="http://www.w3.org/2000/svg" xmlns:xlink="http://www.w3.org/1999/xlink" preserveAspectRatio="xMidYMid" width="24" height="24" viewBox="0 0 24 24">
  <defs>
    <style>
      .cls-1 {
        fill: #444;
        fill-rule: evenodd;
      }
    </style>
  </defs>
  <path d="M6.234,22.993 C5.649,22.993 5.151,22.840 4.726,22.536 C3.289,21.509 3.214,19.146 4.500,14.913 C0.929,12.280 -0.429,10.339 0.108,8.662 C0.646,6.986 2.883,6.185 7.328,6.093 C8.743,1.901 10.180,0.016 11.949,0.007 C11.953,0.007 11.957,0.007 11.962,0.007 C13.724,0.007 15.179,1.876 16.636,6.042 C21.082,6.085 23.327,6.861 23.884,8.532 C24.439,10.202 23.103,12.158 19.561,14.831 C20.894,19.050 20.845,21.413 19.420,22.455 C17.997,23.496 15.713,22.839 12.061,20.313 C9.510,22.119 7.627,22.993 6.234,22.993 Z" transform="translate(0 0.5)" class="cls-1"/>
</svg>
