<svg xmlns="http://www.w3.org/2000/svg" xmlns:xlink="http://www.w3.org/1999/xlink" preserveAspectRatio="xMidYMid" width="24" height="24" viewBox="0 0 24 24">
  <defs>
    <style>
      .cls-1 {
        fill: #444;
        fill-rule: evenodd;
      }
    </style>
  </defs>
  <path d="M23.000,24.000 L1.000,24.000 C0.448,24.000 -0.000,23.552 -0.000,23.000 L-0.000,1.000 C-0.000,0.448 0.448,0.000 1.000,0.000 C1.552,0.000 2.000,0.448 2.000,1.000 L2.000,22.000 L6.000,22.000 L6.000,13.000 C6.000,12.448 6.448,12.000 7.000,12.000 L9.000,12.000 C9.552,12.000 10.000,12.448 10.000,13.000 L10.000,22.000 L12.000,22.000 L12.000,1.000 C12.000,0.448 12.448,0.000 13.000,0.000 L15.000,0.000 C15.552,0.000 16.000,0.448 16.000,1.000 L16.000,22.000 L18.000,22.000 L18.000,8.000 C18.000,7.448 18.448,7.000 19.000,7.000 L21.000,7.000 C21.552,7.000 22.000,7.448 22.000,8.000 L22.000,22.000 L23.000,22.000 C23.552,22.000 24.000,22.448 24.000,23.000 C24.000,23.552 23.552,24.000 23.000,24.000 Z" class="cls-1"/>
</svg>
