<svg xmlns="http://www.w3.org/2000/svg" xmlns:xlink="http://www.w3.org/1999/xlink" preserveAspectRatio="xMidYMid" width="24" height="24" viewBox="0 0 24 24">
  <defs>
    <style>
      .cls-1 {
        fill: #444;
        fill-rule: evenodd;
      }
    </style>
  </defs>
  <path d="M23.000,24.000 L20.000,24.000 L17.000,24.000 L15.000,24.000 L12.000,24.000 L10.000,24.000 L7.000,24.000 L1.000,24.000 C0.448,24.000 0.000,23.552 0.000,23.000 L0.000,1.000 C0.000,0.448 0.448,0.000 1.000,0.000 C1.552,0.000 2.000,0.448 2.000,1.000 L2.000,22.000 L5.000,22.000 L5.000,14.000 C5.000,12.895 5.895,12.000 7.000,12.000 L10.000,12.000 L10.000,2.000 C10.000,0.895 10.895,0.000 12.000,0.000 L15.000,0.000 C16.105,0.000 17.000,0.895 17.000,2.000 L17.000,7.000 L20.000,7.000 C21.105,7.000 22.000,7.895 22.000,9.000 L22.000,22.000 L23.000,22.000 C23.552,22.000 24.000,22.448 24.000,23.000 C24.000,23.552 23.552,24.000 23.000,24.000 ZM10.000,15.000 C10.000,14.448 9.552,14.000 9.000,14.000 L8.000,14.000 C7.448,14.000 7.000,14.448 7.000,15.000 L7.000,21.000 C7.000,21.552 7.448,22.000 8.000,22.000 L9.000,22.000 C9.552,22.000 10.000,21.552 10.000,21.000 L10.000,15.000 ZM15.000,9.000 L15.000,3.094 C15.000,2.542 14.552,2.094 14.000,2.094 L13.000,2.094 C12.448,2.094 12.000,2.542 12.000,3.094 L12.000,20.906 C12.000,21.459 12.448,21.906 13.000,21.906 L14.000,21.906 C14.552,21.906 15.000,21.459 15.000,20.906 L15.000,9.000 ZM20.000,21.000 L20.000,10.000 C20.000,9.448 19.552,9.000 19.000,9.000 L18.000,9.000 C17.448,9.000 17.000,9.448 17.000,10.000 L17.000,21.000 C17.000,21.552 17.448,22.000 18.000,22.000 L19.000,22.000 C19.552,22.000 20.000,21.552 20.000,21.000 Z" class="cls-1"/>
</svg>
