<svg xmlns="http://www.w3.org/2000/svg" xmlns:xlink="http://www.w3.org/1999/xlink" preserveAspectRatio="xMidYMid" width="24" height="24" viewBox="0 0 24 24">
  <defs>
    <style>
      .cls-1 {
        fill: #444;
        fill-rule: evenodd;
      }
    </style>
  </defs>
  <path d="M24.000,7.000 C24.000,9.049 22.764,10.806 21.000,11.578 L21.000,23.000 C21.000,23.552 20.552,24.000 20.000,24.000 L4.000,24.000 C3.448,24.000 3.000,23.552 3.000,23.000 L3.000,11.578 C1.236,10.806 -0.000,9.049 -0.000,7.000 L-0.000,7.000 L3.541,0.642 C3.559,0.596 3.587,0.559 3.610,0.517 L3.672,0.407 C3.684,0.386 3.706,0.374 3.720,0.354 C3.747,0.324 3.771,0.294 3.800,0.267 C4.006,0.050 4.308,-0.055 4.624,-0.000 L19.500,-0.000 C19.549,-0.000 19.592,0.021 19.639,0.028 C19.683,0.036 19.726,0.041 19.768,0.054 C20.083,0.144 20.329,0.371 20.435,0.678 L24.000,7.000 L24.000,7.000 ZM18.911,2.000 L5.045,2.000 L2.016,6.949 C2.006,6.965 1.993,6.984 1.984,7.000 L2.000,7.000 C2.000,8.657 3.343,10.000 5.000,10.000 C6.657,10.000 8.000,8.657 8.000,7.000 L10.000,7.000 C10.000,8.104 10.895,9.000 12.000,9.000 C13.105,9.000 14.000,8.104 14.000,7.000 L16.000,7.000 C16.000,8.657 17.343,10.000 19.000,10.000 C20.657,10.000 22.000,8.657 22.000,7.000 L22.000,7.000 L18.911,2.000 Z" class="cls-1"/>
</svg>
