<svg xmlns="http://www.w3.org/2000/svg" xmlns:xlink="http://www.w3.org/1999/xlink" preserveAspectRatio="xMidYMid" width="24" height="23.87" viewBox="0 0 24 23.87">
  <defs>
    <style>
      .cls-1 {
        fill: #444;
        fill-rule: evenodd;
      }
    </style>
  </defs>
  <path d="M18.000,18.895 L16.881,18.895 L18.854,22.387 C19.155,22.860 18.976,23.464 18.455,23.736 C17.933,24.009 17.266,23.846 16.964,23.375 L14.434,18.895 L5.566,18.895 L3.036,23.375 C2.734,23.846 2.067,24.009 1.545,23.736 C1.024,23.464 0.845,22.860 1.146,22.387 L3.119,18.895 L2.000,18.895 C0.895,18.895 -0.000,18.005 -0.000,16.906 L-0.000,1.987 C-0.000,0.888 0.895,-0.002 2.000,-0.002 L18.000,-0.002 C19.105,-0.002 20.000,0.888 20.000,1.987 L20.000,16.906 C20.000,18.005 19.105,18.895 18.000,18.895 ZM18.000,2.982 C18.000,2.433 17.552,1.987 17.000,1.987 L3.000,1.987 C2.448,1.987 2.000,2.433 2.000,2.982 L2.000,15.912 C2.000,16.460 2.448,16.906 3.000,16.906 L17.000,16.906 C17.552,16.906 18.000,16.460 18.000,15.912 L18.000,2.982 ZM15.000,14.917 L5.000,14.917 C4.448,14.917 4.000,14.471 4.000,13.922 C4.000,13.373 4.448,12.928 5.000,12.928 L15.000,12.928 C15.552,12.928 16.000,13.373 16.000,13.922 C16.000,14.471 15.552,14.917 15.000,14.917 ZM14.000,10.939 L6.000,10.939 C4.895,10.939 4.000,10.048 4.000,8.949 L4.000,5.965 C4.000,4.866 4.895,3.976 6.000,3.976 L14.000,3.976 C15.105,3.976 16.000,4.866 16.000,5.965 L16.000,8.949 C16.000,10.048 15.105,10.939 14.000,10.939 ZM14.000,6.960 C14.000,6.411 13.552,5.965 13.000,5.965 L7.000,5.965 C6.448,5.965 6.000,6.411 6.000,6.960 L6.000,7.955 C6.000,8.504 6.448,8.949 7.000,8.949 L13.000,8.949 C13.552,8.949 14.000,8.504 14.000,7.955 L14.000,6.960 Z" transform="translate(2)" class="cls-1"/>
</svg>
