<svg xmlns="http://www.w3.org/2000/svg" xmlns:xlink="http://www.w3.org/1999/xlink" preserveAspectRatio="xMidYMid" width="24" height="24" viewBox="0 0 24 24">
  <defs>
    <style>
      .cls-1 {
        fill: #444;
        fill-rule: evenodd;
      }
    </style>
  </defs>
  <path d="M23.000,13.000 L21.000,13.000 C20.448,13.000 20.000,12.552 20.000,12.000 C20.000,11.448 20.448,11.000 21.000,11.000 L23.000,11.000 C23.552,11.000 24.000,11.448 24.000,12.000 C24.000,12.552 23.552,13.000 23.000,13.000 ZM19.247,6.202 C18.847,6.602 18.198,6.602 17.798,6.202 C17.398,5.802 17.398,5.153 17.798,4.753 L19.247,3.303 C19.647,2.903 20.296,2.903 20.697,3.303 C21.097,3.704 21.097,4.352 20.697,4.753 L19.247,6.202 ZM12.000,18.000 C8.686,18.000 6.000,15.314 6.000,12.000 C6.000,8.686 8.686,6.000 12.000,6.000 C15.314,6.000 18.000,8.686 18.000,12.000 C18.000,15.314 15.314,18.000 12.000,18.000 ZM12.000,8.000 C9.791,8.000 8.000,9.791 8.000,12.000 C8.000,14.209 9.791,16.000 12.000,16.000 C14.209,16.000 16.000,14.209 16.000,12.000 C16.000,9.791 14.209,8.000 12.000,8.000 ZM12.000,4.000 C11.448,4.000 11.000,3.552 11.000,3.000 L11.000,1.000 C11.000,0.448 11.448,-0.000 12.000,-0.000 C12.552,-0.000 13.000,0.448 13.000,1.000 L13.000,3.000 C13.000,3.552 12.552,4.000 12.000,4.000 ZM4.753,6.202 L3.303,4.753 C2.903,4.352 2.903,3.704 3.303,3.303 C3.704,2.903 4.353,2.903 4.753,3.303 L6.202,4.753 C6.603,5.153 6.603,5.802 6.202,6.202 C5.802,6.602 5.153,6.602 4.753,6.202 ZM4.000,12.000 C4.000,12.552 3.552,13.000 3.000,13.000 L1.000,13.000 C0.448,13.000 -0.000,12.552 -0.000,12.000 C-0.000,11.448 0.448,11.000 1.000,11.000 L3.000,11.000 C3.552,11.000 4.000,11.448 4.000,12.000 ZM4.753,17.798 C5.153,17.398 5.802,17.398 6.202,17.798 C6.603,18.198 6.603,18.847 6.202,19.247 L4.753,20.697 C4.353,21.097 3.704,21.097 3.303,20.697 C2.903,20.297 2.903,19.647 3.303,19.247 L4.753,17.798 ZM12.000,20.000 C12.552,20.000 13.000,20.448 13.000,21.000 L13.000,23.000 C13.000,23.552 12.552,24.000 12.000,24.000 C11.448,24.000 11.000,23.552 11.000,23.000 L11.000,21.000 C11.000,20.448 11.448,20.000 12.000,20.000 ZM19.247,17.798 L20.697,19.247 C21.097,19.647 21.097,20.297 20.697,20.697 C20.296,21.097 19.647,21.097 19.247,20.697 L17.798,19.247 C17.398,18.847 17.398,18.198 17.798,17.798 C18.198,17.398 18.847,17.398 19.247,17.798 Z" class="cls-1"/>
</svg>
