<svg xmlns="http://www.w3.org/2000/svg" xmlns:xlink="http://www.w3.org/1999/xlink" preserveAspectRatio="xMidYMid" width="24" height="24" viewBox="0 0 24 24">
  <defs>
    <style>
      .cls-1 {
        fill: #444;
        fill-rule: evenodd;
      }
    </style>
  </defs>
  <path d="M23.984,6.291 L22.965,10.175 C22.891,10.579 22.585,10.887 22.180,10.964 C22.148,10.970 22.119,10.979 22.086,10.983 C22.056,10.985 22.030,11.000 22.000,11.000 L19.000,11.000 L19.000,23.000 C19.000,23.552 18.552,24.000 18.000,24.000 L6.000,24.000 C5.448,24.000 5.000,23.552 5.000,23.000 L5.000,11.000 L2.000,11.000 C1.969,11.000 1.944,10.985 1.914,10.983 C1.882,10.979 1.852,10.970 1.820,10.964 C1.415,10.887 1.109,10.579 1.035,10.173 L0.017,6.291 C0.004,6.245 0.014,6.199 0.008,6.153 C-0.006,6.070 -0.014,5.990 -0.007,5.907 C-0.005,5.887 0.001,5.870 0.004,5.850 C0.034,5.642 0.112,5.438 0.272,5.277 L5.266,0.283 C5.480,0.069 5.764,-0.018 6.044,0.000 L8.000,0.000 C8.000,0.000 8.000,0.000 8.001,0.000 L9.000,0.000 C9.000,1.657 10.343,3.000 12.000,3.000 C13.657,3.000 15.000,1.657 15.000,0.000 L15.999,0.000 C15.999,0.000 16.000,0.000 16.000,0.000 L17.925,0.000 C18.205,-0.018 18.489,0.069 18.702,0.283 L23.697,5.277 C23.723,5.303 23.733,5.338 23.755,5.366 C23.818,5.439 23.873,5.515 23.913,5.603 C23.917,5.612 23.919,5.621 23.922,5.631 C24.008,5.834 24.044,6.061 23.984,6.291 ZM17.565,2.000 L16.578,2.000 C15.806,3.764 14.049,5.000 12.000,5.000 C9.951,5.000 8.194,3.764 7.422,2.000 L6.404,2.000 L2.092,6.311 L2.798,9.000 L6.000,9.000 C6.000,9.000 6.000,9.000 6.000,9.000 C6.552,9.000 7.000,9.448 7.000,10.000 L7.000,22.000 L17.000,22.000 L17.000,10.000 C17.000,9.448 17.448,9.000 18.000,9.000 L21.202,9.000 L21.901,6.336 L17.565,2.000 Z" class="cls-1"/>
</svg>
