<svg xmlns="http://www.w3.org/2000/svg" xmlns:xlink="http://www.w3.org/1999/xlink" preserveAspectRatio="xMidYMid" width="24" height="24" viewBox="0 0 24 24">
  <defs>
    <style>
      .cls-1 {
        fill: #444;
        fill-rule: evenodd;
      }
    </style>
  </defs>
  <path d="M23.984,6.291 L22.965,10.174 C22.891,10.579 22.585,10.887 22.181,10.963 C22.148,10.970 22.119,10.979 22.086,10.983 C22.056,10.985 22.030,11.000 22.000,11.000 L19.000,11.000 L19.000,23.000 C19.000,23.552 18.552,24.000 18.000,24.000 L6.000,24.000 C5.448,24.000 5.000,23.552 5.000,23.000 L5.000,11.000 L2.000,11.000 C1.970,11.000 1.944,10.985 1.914,10.983 C1.881,10.979 1.852,10.970 1.820,10.964 C1.415,10.887 1.108,10.579 1.035,10.173 L0.017,6.291 C0.004,6.245 0.014,6.199 0.008,6.153 C-0.006,6.070 -0.014,5.990 -0.007,5.907 C-0.005,5.887 0.001,5.869 0.004,5.850 C0.034,5.641 0.112,5.438 0.272,5.277 L5.266,0.283 C5.480,0.070 5.764,-0.018 6.043,0.000 L8.000,0.000 C8.000,0.000 8.000,0.000 8.001,0.000 L9.000,0.000 C9.000,1.657 10.343,3.000 12.000,3.000 C13.657,3.000 15.000,1.657 15.000,0.000 L15.999,0.000 C16.000,0.000 16.000,0.000 16.000,0.000 L17.926,0.000 C18.205,-0.018 18.489,0.070 18.702,0.283 L23.697,5.277 C23.723,5.304 23.733,5.337 23.755,5.366 C23.818,5.439 23.873,5.515 23.913,5.603 C23.917,5.612 23.919,5.621 23.922,5.630 C24.008,5.834 24.044,6.061 23.984,6.291 Z" class="cls-1"/>
</svg>
