<svg xmlns="http://www.w3.org/2000/svg" xmlns:xlink="http://www.w3.org/1999/xlink" preserveAspectRatio="xMidYMid" width="24" height="24" viewBox="0 0 24 24">
  <defs>
    <style>
      .cls-1 {
        fill: #444;
        fill-rule: evenodd;
      }
    </style>
  </defs>
  <path d="M23.000,21.000 L1.000,21.000 C0.448,21.000 0.000,20.552 0.000,20.000 L0.000,16.000 C0.000,15.448 0.448,15.000 1.000,15.000 C1.000,9.848 4.547,5.535 9.329,4.340 C9.126,3.935 9.000,3.484 9.000,3.000 C9.000,1.343 10.343,0.000 12.000,0.000 C13.657,0.000 15.000,1.343 15.000,3.000 C15.000,3.484 14.874,3.935 14.671,4.340 C19.453,5.535 23.000,9.848 23.000,15.000 C23.552,15.000 24.000,15.448 24.000,16.000 L24.000,20.000 C24.000,20.552 23.552,21.000 23.000,21.000 ZM12.000,2.000 C11.448,2.000 11.000,2.448 11.000,3.000 C11.000,3.552 11.448,4.000 12.000,4.000 C12.552,4.000 13.000,3.552 13.000,3.000 C13.000,2.448 12.552,2.000 12.000,2.000 ZM12.000,6.000 C7.029,6.000 3.000,10.029 3.000,15.000 L21.000,15.000 C21.000,10.029 16.971,6.000 12.000,6.000 ZM22.000,17.000 L2.000,17.000 L2.000,19.000 L22.000,19.000 L22.000,17.000 Z" transform="translate(0 1.5)" class="cls-1"/>
</svg>
