<svg xmlns="http://www.w3.org/2000/svg" xmlns:xlink="http://www.w3.org/1999/xlink" preserveAspectRatio="xMidYMid" width="24" height="24" viewBox="0 0 24 24">
  <defs>
    <style>
      .cls-1 {
        fill: #444;
        fill-rule: evenodd;
      }
    </style>
  </defs>
  <path d="M23.000,21.000 L21.000,21.000 L21.000,23.000 C21.000,23.552 20.552,24.000 20.000,24.000 C19.448,24.000 19.000,23.552 19.000,23.000 L19.000,21.000 L4.000,21.000 C3.448,21.000 3.000,20.552 3.000,20.000 L3.000,5.000 L1.000,5.000 C0.448,5.000 -0.000,4.552 -0.000,4.000 C-0.000,3.448 0.448,3.000 1.000,3.000 L3.000,3.000 L3.000,1.000 C3.000,0.448 3.448,0.000 4.000,0.000 C4.552,0.000 5.000,0.448 5.000,1.000 L5.000,3.000 L20.000,3.000 C20.552,3.000 21.000,3.448 21.000,4.000 L21.000,19.000 L23.000,19.000 C23.552,19.000 24.000,19.448 24.000,20.000 C24.000,20.552 23.552,21.000 23.000,21.000 ZM19.000,5.000 L5.000,5.000 L5.000,19.000 L19.000,19.000 L19.000,5.000 Z" class="cls-1"/>
</svg>
