<svg xmlns="http://www.w3.org/2000/svg" xmlns:xlink="http://www.w3.org/1999/xlink" preserveAspectRatio="xMidYMid" width="24" height="24" viewBox="0 0 24 24">
  <defs>
    <style>
      .cls-1 {
        fill: #444;
        fill-rule: evenodd;
      }
    </style>
  </defs>
  <path d="M18.000,23.000 L2.000,23.000 C0.895,23.000 -0.000,22.105 -0.000,21.000 L-0.000,2.000 C-0.000,0.895 0.895,-0.000 2.000,-0.000 L6.277,-0.000 C6.106,0.295 6.000,0.634 6.000,1.000 C6.000,2.105 6.895,3.000 8.000,3.000 L12.000,3.000 C13.105,3.000 14.000,2.105 14.000,1.000 C14.000,0.634 13.894,0.295 13.723,-0.000 L18.000,-0.000 C19.105,-0.000 20.000,0.895 20.000,2.000 L20.000,21.000 C20.000,22.105 19.105,23.000 18.000,23.000 ZM14.596,8.732 C14.206,8.342 13.573,8.342 13.182,8.732 L8.939,12.975 L6.818,10.853 C6.428,10.463 5.794,10.463 5.404,10.853 C5.013,11.244 5.013,11.877 5.404,12.268 L8.232,15.096 C8.623,15.487 9.256,15.487 9.646,15.096 L14.596,10.146 C14.987,9.756 14.987,9.123 14.596,8.732 ZM11.000,2.000 L9.000,2.000 C8.448,2.000 8.000,1.552 8.000,1.000 C8.000,0.448 8.448,-0.000 9.000,-0.000 L11.000,-0.000 C11.552,-0.000 12.000,0.448 12.000,1.000 C12.000,1.552 11.552,2.000 11.000,2.000 Z" transform="translate(2 0.5)" class="cls-1"/>
</svg>
