<svg xmlns="http://www.w3.org/2000/svg" xmlns:xlink="http://www.w3.org/1999/xlink" preserveAspectRatio="xMidYMid" width="24" height="24" viewBox="0 0 24 24">
  <defs>
    <style>
      .cls-1 {
        fill: #444;
        fill-rule: evenodd;
      }
    </style>
  </defs>
  <path d="M18.000,24.000 L2.000,24.000 C0.895,24.000 -0.000,23.105 -0.000,22.000 L-0.000,3.000 C-0.000,1.895 0.895,1.000 2.000,1.000 L6.277,1.000 C6.624,0.405 7.262,0.000 8.000,0.000 L12.000,0.000 C12.738,0.000 13.376,0.405 13.723,1.000 L18.000,1.000 C19.105,1.000 20.000,1.895 20.000,3.000 L20.000,22.000 C20.000,23.105 19.105,24.000 18.000,24.000 ZM18.000,4.000 C18.000,3.448 17.552,3.000 17.000,3.000 L13.723,3.000 C13.376,3.595 12.738,4.000 12.000,4.000 L8.000,4.000 C7.262,4.000 6.624,3.595 6.277,3.000 L3.000,3.000 C2.448,3.000 2.000,3.448 2.000,4.000 L2.000,21.000 C2.000,21.552 2.448,22.000 3.000,22.000 L17.000,22.000 C17.552,22.000 18.000,21.552 18.000,21.000 L18.000,4.000 ZM9.646,16.096 C9.256,16.487 8.623,16.487 8.232,16.096 L5.404,13.268 C5.013,12.877 5.013,12.244 5.404,11.853 C5.794,11.463 6.427,11.463 6.818,11.853 L8.939,13.975 L13.182,9.732 C13.572,9.342 14.206,9.342 14.596,9.732 C14.987,10.123 14.987,10.756 14.596,11.146 L9.646,16.096 Z" transform="translate(2)" class="cls-1"/>
</svg>
