<svg xmlns="http://www.w3.org/2000/svg" xmlns:xlink="http://www.w3.org/1999/xlink" preserveAspectRatio="xMidYMid" width="23.04" height="24" viewBox="0 0 24 25">
  <defs>
    <style>
      .cls-1 {
        fill: #444;
        fill-rule: evenodd;
      }
    </style>
  </defs>
  <path d="M23.875,20.987 L23.877,20.988 C23.442,22.727 21.874,24.018 20.000,24.018 C19.887,24.018 19.777,24.010 19.666,24.001 C19.445,24.008 19.223,24.018 19.000,24.018 C8.507,24.018 -0.000,15.511 -0.000,5.018 C-0.000,4.794 0.009,4.573 0.017,4.351 C0.008,4.241 -0.000,4.130 -0.000,4.018 C-0.000,2.129 1.310,0.551 3.069,0.131 L3.074,0.139 C3.550,-0.122 4.154,0.038 4.429,0.500 L7.366,5.311 C7.640,5.773 7.480,6.362 7.011,6.634 L7.014,6.639 C6.619,7.091 6.124,7.451 5.564,7.690 C5.565,7.694 5.565,7.699 5.566,7.703 C5.015,7.925 4.625,8.462 4.625,9.092 C4.625,9.189 4.636,9.283 4.653,9.375 C4.651,9.376 4.649,9.377 4.647,9.378 C4.672,9.460 4.700,9.541 4.726,9.623 C4.733,9.641 4.737,9.661 4.744,9.679 C6.293,14.417 10.135,18.116 14.961,19.463 C15.483,19.609 16.030,19.314 16.188,18.793 C16.188,18.792 16.188,18.791 16.189,18.790 C16.189,18.790 16.189,18.790 16.189,18.790 C16.193,18.790 16.197,18.791 16.201,18.791 C16.403,18.165 16.752,17.605 17.212,17.156 C17.215,17.152 17.216,17.146 17.219,17.141 C17.491,16.684 18.102,16.533 18.586,16.805 L23.492,19.667 C23.974,19.938 24.146,20.529 23.875,20.987 ZM21.969,12.014 C21.367,12.021 20.909,11.465 20.841,10.805 C20.435,6.732 17.305,3.610 13.219,3.206 C12.557,3.137 11.999,2.682 12.007,2.081 C12.012,1.482 12.743,0.955 13.595,1.040 C18.644,1.540 22.512,5.397 23.013,10.431 C23.098,11.280 22.570,12.008 21.969,12.014 ZM16.931,10.372 C17.171,11.267 16.690,12.053 16.145,12.027 C15.596,12.005 15.171,11.480 15.012,10.918 C14.633,9.495 13.520,8.382 12.098,8.003 C11.535,7.845 11.010,7.419 10.988,6.870 C10.962,6.325 11.748,5.844 12.643,6.083 C14.736,6.641 16.374,8.279 16.931,10.372 Z" transform="translate(0 0.48)" class="cls-1"/>
</svg>
