<svg xmlns="http://www.w3.org/2000/svg" xmlns:xlink="http://www.w3.org/1999/xlink" preserveAspectRatio="xMidYMid" width="24" height="23.011" viewBox="0 0 25 23.97">
  <defs>
    <style>
      .cls-1 {
        fill: #444;
        fill-rule: evenodd;
      }
    </style>
  </defs>
  <path d="M21.969,11.984 C21.367,11.991 20.909,11.435 20.841,10.775 C20.435,6.702 17.305,3.580 13.219,3.176 C12.557,3.107 11.999,2.652 12.006,2.051 C12.012,1.452 12.743,0.925 13.595,1.010 C18.644,1.510 22.512,5.367 23.013,10.401 C23.098,11.250 22.570,11.978 21.969,11.984 ZM16.931,10.342 C17.171,11.237 16.690,12.023 16.145,11.997 C15.596,11.975 15.171,11.450 15.012,10.888 C14.633,9.465 13.520,8.352 12.098,7.973 C11.535,7.815 11.010,7.389 10.988,6.840 C10.962,6.295 11.748,5.814 12.643,6.053 C14.736,6.611 16.374,8.249 16.931,10.342 ZM15.215,17.200 C15.267,17.130 15.326,17.035 15.395,16.928 C15.866,16.205 16.600,15.068 17.696,15.120 C18.489,15.126 19.242,15.532 19.793,15.830 C20.003,15.943 20.206,16.029 20.444,16.132 C21.776,16.709 24.547,17.908 23.943,20.189 C23.506,21.945 22.390,23.150 20.715,23.672 C20.053,23.879 19.324,23.971 18.556,23.971 C14.073,23.971 8.235,20.846 6.308,19.143 C3.803,16.931 1.953,14.086 0.957,10.914 C-0.031,7.770 -0.752,3.549 1.422,1.301 C2.341,0.349 3.219,-0.072 4.114,0.006 C5.489,0.130 6.319,1.374 7.121,2.577 L7.581,3.246 C8.193,4.106 8.707,4.874 8.804,5.555 C9.025,7.097 8.054,7.739 7.474,8.122 C7.259,8.265 7.055,8.399 6.897,8.563 C5.778,9.723 6.996,12.029 8.379,13.653 C10.663,16.334 13.874,17.993 15.215,17.200 ZM6.867,14.941 C4.297,11.924 3.760,8.952 5.467,7.184 C5.777,6.862 6.110,6.642 6.378,6.465 C6.879,6.133 6.879,6.133 6.837,5.836 C6.781,5.550 6.186,4.713 5.962,4.398 C5.863,4.259 5.774,4.134 5.703,4.029 L5.469,3.680 C4.976,2.942 4.363,2.023 3.935,1.985 C3.926,1.984 3.917,1.983 3.907,1.983 C3.667,1.983 3.276,2.242 2.850,2.682 C1.700,3.871 1.701,6.655 2.853,10.319 C3.740,13.146 5.390,15.682 7.624,17.654 C9.616,19.415 16.582,22.884 20.123,21.775 C21.144,21.457 21.746,20.798 22.016,19.703 L22.021,19.684 C22.191,19.054 20.347,18.256 19.654,17.955 C19.353,17.825 19.098,17.712 18.923,17.619 C18.535,17.409 18.062,17.152 17.757,17.113 C17.549,17.261 17.210,17.782 17.059,18.014 C16.833,18.361 16.670,18.612 16.424,18.783 C13.861,20.567 9.587,18.135 6.867,14.941 Z" transform="translate(0.48)" class="cls-1"/>
</svg>
