<svg xmlns="http://www.w3.org/2000/svg" xmlns:xlink="http://www.w3.org/1999/xlink" preserveAspectRatio="xMidYMid" width="24" height="24" viewBox="0 0 24 24">
  <defs>
    <style>
      .cls-1 {
        fill: #444;
        fill-rule: evenodd;
      }
    </style>
  </defs>
  <path d="M22.000,24.000 L2.000,24.000 C0.895,24.000 -0.000,23.105 -0.000,22.000 L-0.000,2.000 C-0.000,0.895 0.895,0.000 2.000,0.000 L22.000,0.000 C23.105,0.000 24.000,0.895 24.000,2.000 L24.000,22.000 C24.000,23.105 23.105,24.000 22.000,24.000 ZM22.000,3.000 C22.000,2.448 21.552,2.000 21.000,2.000 L3.000,2.000 C2.448,2.000 2.000,2.448 2.000,3.000 L2.000,21.000 C2.000,21.552 2.448,22.000 3.000,22.000 L21.000,22.000 C21.552,22.000 22.000,21.552 22.000,21.000 L22.000,3.000 ZM18.000,8.000 C17.448,8.000 17.000,7.552 17.000,7.000 L13.000,7.000 L13.000,17.000 L14.000,17.000 C14.552,17.000 15.000,17.448 15.000,18.000 C15.000,18.552 14.552,19.000 14.000,19.000 L10.000,19.000 C9.448,19.000 9.000,18.552 9.000,18.000 C9.000,17.448 9.448,17.000 10.000,17.000 L11.000,17.000 L11.000,7.000 L7.000,7.000 C7.000,7.552 6.552,8.000 6.000,8.000 C5.448,8.000 5.000,7.552 5.000,7.000 L5.000,6.000 C5.000,5.448 5.448,5.000 6.000,5.000 L18.000,5.000 C18.552,5.000 19.000,5.448 19.000,6.000 L19.000,7.000 C19.000,7.552 18.552,8.000 18.000,8.000 Z" class="cls-1"/>
</svg>
