<svg xmlns="http://www.w3.org/2000/svg" xmlns:xlink="http://www.w3.org/1999/xlink" preserveAspectRatio="xMidYMid" width="24" height="24" viewBox="0 0 24 24">
  <defs>
    <style>
      .cls-1 {
        fill: #444;
        fill-rule: evenodd;
      }
    </style>
  </defs>
  <path d="M18.500,11.000 L13.000,11.000 L13.000,5.500 C13.000,2.462 15.462,-0.000 18.500,-0.000 C21.538,-0.000 24.000,2.462 24.000,5.500 C24.000,8.538 21.538,11.000 18.500,11.000 ZM18.500,2.000 C16.567,2.000 15.000,3.567 15.000,5.500 L15.000,9.000 L18.500,9.000 C20.433,9.000 22.000,7.433 22.000,5.500 C22.000,3.567 20.433,2.000 18.500,2.000 ZM5.500,24.000 C2.462,24.000 0.000,21.538 0.000,18.500 C0.000,15.462 2.462,13.000 5.500,13.000 L11.000,13.000 L11.000,18.500 C11.000,21.538 8.538,24.000 5.500,24.000 ZM9.000,15.000 L5.500,15.000 C3.567,15.000 2.000,16.567 2.000,18.500 C2.000,20.433 3.567,22.000 5.500,22.000 C7.433,22.000 9.000,20.433 9.000,18.500 L9.000,15.000 ZM0.000,5.500 C0.000,2.462 2.462,-0.000 5.500,-0.000 C8.538,-0.000 11.000,2.462 11.000,5.500 L11.000,11.000 L5.500,11.000 C2.462,11.000 0.000,8.538 0.000,5.500 ZM9.000,5.500 C9.000,3.567 7.433,2.000 5.500,2.000 C3.567,2.000 2.000,3.567 2.000,5.500 C2.000,7.433 3.567,9.000 5.500,9.000 L9.000,9.000 L9.000,5.500 ZM24.000,18.500 C24.000,21.538 21.538,24.000 18.500,24.000 C15.462,24.000 13.000,21.538 13.000,18.500 L13.000,13.000 L18.500,13.000 C21.538,13.000 24.000,15.462 24.000,18.500 ZM15.000,18.500 C15.000,20.433 16.567,22.000 18.500,22.000 C20.433,22.000 22.000,20.433 22.000,18.500 C22.000,16.567 20.433,15.000 18.500,15.000 L15.000,15.000 L15.000,18.500 Z" class="cls-1"/>
</svg>
