<svg xmlns="http://www.w3.org/2000/svg" xmlns:xlink="http://www.w3.org/1999/xlink" preserveAspectRatio="xMidYMid" width="24" height="24" viewBox="0 0 24 24">
  <defs>
    <style>
      .cls-1 {
        fill: #444;
        fill-rule: evenodd;
      }
    </style>
  </defs>
  <path d="M22.000,10.000 L23.000,10.000 L24.000,10.000 L24.000,14.000 C24.000,15.105 23.105,16.000 22.000,16.000 L2.000,16.000 C0.895,16.000 -0.000,15.105 -0.000,14.000 L-0.000,10.000 L1.000,10.000 L2.000,10.000 C2.366,10.000 2.705,9.894 3.000,9.723 L3.000,6.277 C2.705,6.106 2.366,6.000 2.000,6.000 L1.000,6.000 L-0.000,6.000 L-0.000,2.000 C-0.000,0.895 0.895,-0.000 2.000,-0.000 L22.000,-0.000 C23.105,-0.000 24.000,0.895 24.000,2.000 L24.000,6.000 L23.000,6.000 L22.000,6.000 C20.895,6.000 20.000,6.895 20.000,8.000 C20.000,9.105 20.895,10.000 22.000,10.000 ZM13.000,2.000 C13.000,1.448 12.552,1.000 12.000,1.000 C11.448,1.000 11.000,1.448 11.000,2.000 L11.000,3.000 C11.000,3.552 11.448,4.000 12.000,4.000 C12.552,4.000 13.000,3.552 13.000,3.000 L13.000,2.000 ZM13.000,7.000 C13.000,6.448 12.552,6.000 12.000,6.000 C11.448,6.000 11.000,6.448 11.000,7.000 L11.000,9.000 C11.000,9.552 11.448,10.000 12.000,10.000 C12.552,10.000 13.000,9.552 13.000,9.000 L13.000,7.000 ZM13.000,13.000 C13.000,12.448 12.552,12.000 12.000,12.000 C11.448,12.000 11.000,12.448 11.000,13.000 L11.000,14.000 C11.000,14.552 11.448,15.000 12.000,15.000 C12.552,15.000 13.000,14.552 13.000,14.000 L13.000,13.000 Z" transform="translate(0 4)" class="cls-1"/>
</svg>
