<svg xmlns="http://www.w3.org/2000/svg" xmlns:xlink="http://www.w3.org/1999/xlink" preserveAspectRatio="xMidYMid" width="24" height="24" viewBox="0 0 24 24">
  <defs>
    <style>
      .cls-1 {
        fill: #444;
        fill-rule: evenodd;
      }
    </style>
  </defs>
  <path d="M22.000,16.000 L2.000,16.000 C0.896,16.000 0.000,15.104 0.000,14.000 L0.000,10.000 L1.000,10.000 L2.000,10.000 C3.105,10.000 4.000,9.105 4.000,8.000 C4.000,6.895 3.105,6.000 2.000,6.000 L1.000,6.000 L0.000,6.000 L0.000,2.000 C0.000,0.895 0.896,0.000 2.000,0.000 L22.000,0.000 C23.105,0.000 24.000,0.895 24.000,2.000 L24.000,6.000 L23.000,6.000 L22.000,6.000 C20.896,6.000 20.000,6.895 20.000,8.000 C20.000,9.105 20.896,10.000 22.000,10.000 L23.000,10.000 L24.000,10.000 L24.000,14.000 C24.000,15.104 23.105,16.000 22.000,16.000 ZM18.000,8.000 C18.000,5.791 19.791,4.000 22.000,4.000 L22.000,3.000 C22.000,2.448 21.552,2.000 21.000,2.000 L3.000,2.000 C2.448,2.000 2.000,2.448 2.000,3.000 L2.000,4.000 C4.209,4.000 6.000,5.791 6.000,8.000 C6.000,10.209 4.209,12.000 2.000,12.000 L2.000,13.000 C2.000,13.552 2.448,14.000 3.000,14.000 L21.000,14.000 C21.552,14.000 22.000,13.552 22.000,13.000 L22.000,12.000 C19.791,12.000 18.000,10.209 18.000,8.000 Z" transform="translate(0 4)" class="cls-1"/>
</svg>
