<svg xmlns="http://www.w3.org/2000/svg" xmlns:xlink="http://www.w3.org/1999/xlink" preserveAspectRatio="xMidYMid" width="24" height="24" viewBox="0 0 24 24">
  <defs>
    <style>
      .cls-1 {
        fill: #444;
        fill-rule: evenodd;
      }
    </style>
  </defs>
  <path d="M9.990,18.975 C9.985,19.039 9.971,19.098 9.954,19.160 C9.937,19.242 9.913,19.320 9.874,19.397 C9.864,19.415 9.851,19.430 9.840,19.448 C9.801,19.513 9.770,19.582 9.714,19.639 L5.674,23.712 C5.302,24.087 4.699,24.087 4.327,23.712 L0.287,19.639 C0.234,19.585 0.205,19.518 0.166,19.455 C0.152,19.433 0.137,19.414 0.125,19.392 C0.088,19.320 0.066,19.247 0.049,19.170 C0.031,19.103 0.015,19.039 0.010,18.970 C0.010,18.960 0.012,18.951 0.012,18.941 C0.008,18.840 0.004,18.738 0.031,18.635 L2.914,5.151 C2.352,4.605 2.000,3.845 2.000,3.000 C2.000,1.343 3.343,-0.000 5.000,-0.000 C6.657,-0.000 8.000,1.343 8.000,3.000 C8.000,3.845 7.648,4.605 7.086,5.151 L9.969,18.635 C9.995,18.734 9.990,18.832 9.987,18.930 C9.988,18.946 9.990,18.960 9.990,18.975 ZM5.000,2.000 C4.448,2.000 4.000,2.448 4.000,3.000 C4.000,3.552 4.448,4.000 5.000,4.000 C5.552,4.000 6.000,3.552 6.000,3.000 C6.000,2.448 5.552,2.000 5.000,2.000 ZM5.000,6.000 C4.940,6.000 4.883,5.986 4.824,5.982 L2.094,18.745 L5.001,21.675 L7.906,18.746 L5.176,5.982 C5.117,5.986 5.060,6.000 5.000,6.000 Z" transform="translate(7)" class="cls-1"/>
</svg>
