<svg xmlns="http://www.w3.org/2000/svg" xmlns:xlink="http://www.w3.org/1999/xlink" preserveAspectRatio="xMidYMid" width="24" height="24" viewBox="0 0 24 24">
  <defs>
    <style>
      .cls-1 {
        fill: #444;
        fill-rule: evenodd;
      }
    </style>
  </defs>
  <path d="M12.000,24.000 C5.373,24.000 -0.000,18.628 -0.000,12.000 C-0.000,5.373 5.373,0.000 12.000,0.000 C18.627,0.000 24.000,5.373 24.000,12.000 C24.000,18.628 18.627,24.000 12.000,24.000 ZM17.000,14.000 L11.000,14.000 C10.448,14.000 10.000,13.552 10.000,13.000 L10.000,7.000 C10.000,6.448 10.448,6.000 11.000,6.000 C11.552,6.000 12.000,6.448 12.000,7.000 L12.000,12.000 L17.000,12.000 C17.552,12.000 18.000,12.448 18.000,13.000 C18.000,13.552 17.552,14.000 17.000,14.000 Z" class="cls-1"/>
</svg>
