<svg xmlns="http://www.w3.org/2000/svg" xmlns:xlink="http://www.w3.org/1999/xlink" preserveAspectRatio="xMidYMid" width="24" height="24" viewBox="0 0 24 24">
  <defs>
    <style>
      .cls-1 {
        fill: #444;
        fill-rule: evenodd;
      }
    </style>
  </defs>
  <path d="M23.000,6.000 L20.000,6.000 L20.000,23.000 C20.000,23.552 19.552,24.000 19.000,24.000 L5.000,24.000 C4.448,24.000 4.000,23.552 4.000,23.000 L4.000,6.000 L1.000,6.000 C0.448,6.000 -0.000,5.552 -0.000,5.000 C-0.000,4.448 0.448,4.000 1.000,4.000 L23.000,4.000 C23.552,4.000 24.000,4.448 24.000,5.000 C24.000,5.552 23.552,6.000 23.000,6.000 ZM6.000,22.000 L18.000,22.000 L18.000,6.000 L6.000,6.000 L6.000,22.000 ZM15.000,18.000 C14.448,18.000 14.000,17.552 14.000,17.000 L14.000,11.000 C14.000,10.448 14.448,10.000 15.000,10.000 C15.552,10.000 16.000,10.448 16.000,11.000 L16.000,17.000 C16.000,17.552 15.552,18.000 15.000,18.000 ZM9.000,18.000 C8.448,18.000 8.000,17.552 8.000,17.000 L8.000,11.000 C8.000,10.448 8.448,10.000 9.000,10.000 C9.552,10.000 10.000,10.448 10.000,11.000 L10.000,17.000 C10.000,17.552 9.552,18.000 9.000,18.000 ZM15.000,2.000 L9.000,2.000 C8.448,2.000 8.000,1.552 8.000,1.000 C8.000,0.448 8.448,0.000 9.000,0.000 L15.000,0.000 C15.552,0.000 16.000,0.448 16.000,1.000 C16.000,1.552 15.552,2.000 15.000,2.000 Z" class="cls-1"/>
</svg>
