<svg xmlns="http://www.w3.org/2000/svg" xmlns:xlink="http://www.w3.org/1999/xlink" preserveAspectRatio="xMidYMid" width="24" height="24" viewBox="0 0 24 24">
  <defs>
    <style>
      .cls-1 {
        fill: #444;
        fill-rule: evenodd;
      }
    </style>
  </defs>
  <path d="M22.000,20.000 L2.000,20.000 C0.895,20.000 -0.000,19.105 -0.000,18.000 L-0.000,6.000 C-0.000,4.895 0.895,4.000 2.000,4.000 L6.000,4.000 L6.000,1.000 C6.000,0.448 6.448,-0.000 7.000,-0.000 L17.000,-0.000 C17.552,-0.000 18.000,0.448 18.000,1.000 L18.000,4.000 L22.000,4.000 C23.105,4.000 24.000,4.895 24.000,6.000 L24.000,18.000 C24.000,19.105 23.105,20.000 22.000,20.000 ZM6.000,7.000 C6.000,6.448 5.552,6.000 5.000,6.000 C4.448,6.000 4.000,6.448 4.000,7.000 L4.000,17.000 C4.000,17.552 4.448,18.000 5.000,18.000 C5.552,18.000 6.000,17.552 6.000,17.000 L6.000,7.000 ZM16.000,2.000 L8.000,2.000 L8.000,4.000 L16.000,4.000 L16.000,2.000 ZM20.000,7.000 C20.000,6.448 19.552,6.000 19.000,6.000 C18.448,6.000 18.000,6.448 18.000,7.000 L18.000,17.000 C18.000,17.552 18.448,18.000 19.000,18.000 C19.552,18.000 20.000,17.552 20.000,17.000 L20.000,7.000 Z" transform="translate(0 2)" class="cls-1"/>
</svg>
