<svg xmlns="http://www.w3.org/2000/svg" xmlns:xlink="http://www.w3.org/1999/xlink" preserveAspectRatio="xMidYMid" width="24" height="24" viewBox="0 0 24 24">
  <defs>
    <style>
      .cls-1 {
        fill: #444;
        fill-rule: evenodd;
      }
    </style>
  </defs>
  <path d="M22.000,20.000 L2.000,20.000 C0.895,20.000 -0.000,19.105 -0.000,18.000 L-0.000,6.000 C-0.000,4.895 0.895,4.000 2.000,4.000 L6.000,4.000 L6.000,1.000 C6.000,0.448 6.448,-0.000 7.000,-0.000 L17.000,-0.000 C17.552,-0.000 18.000,0.448 18.000,1.000 L18.000,4.000 L22.000,4.000 C23.105,4.000 24.000,4.895 24.000,6.000 L24.000,18.000 C24.000,19.105 23.105,20.000 22.000,20.000 ZM4.000,6.000 L3.000,6.000 C2.448,6.000 2.000,6.448 2.000,7.000 L2.000,17.000 C2.000,17.552 2.448,18.000 3.000,18.000 L4.000,18.000 L4.000,6.000 ZM16.000,2.000 L8.000,2.000 L8.000,4.000 L16.000,4.000 L16.000,2.000 ZM6.000,6.000 L6.000,18.000 L18.000,18.000 L18.000,6.000 L6.000,6.000 ZM22.000,7.000 C22.000,6.448 21.552,6.000 21.000,6.000 L20.000,6.000 L20.000,18.000 L21.000,18.000 C21.552,18.000 22.000,17.552 22.000,17.000 L22.000,7.000 Z" transform="translate(0 2)" class="cls-1"/>
</svg>
