<svg xmlns="http://www.w3.org/2000/svg" xmlns:xlink="http://www.w3.org/1999/xlink" preserveAspectRatio="xMidYMid" width="24" height="24" viewBox="0 0 24 24">
  <defs>
    <style>
      .cls-1 {
        fill: #444;
        fill-rule: evenodd;
      }
    </style>
  </defs>
  <path d="M19.000,13.000 L11.000,13.000 L11.000,20.000 C11.000,21.105 11.895,22.000 13.000,22.000 C14.105,22.000 15.000,21.105 15.000,20.000 C15.000,19.448 15.448,19.000 16.000,19.000 C16.552,19.000 17.000,19.448 17.000,20.000 C17.000,22.209 15.209,24.000 13.000,24.000 C10.791,24.000 9.000,22.209 9.000,20.000 L9.000,13.000 L1.000,13.000 C0.448,13.000 -0.000,12.552 -0.000,12.000 C-0.000,6.648 4.208,2.291 9.494,2.026 L10.000,0.000 L10.506,2.026 C15.792,2.291 20.000,6.648 20.000,12.000 C20.000,12.552 19.552,13.000 19.000,13.000 Z" transform="translate(2)" class="cls-1"/>
</svg>
