<svg xmlns="http://www.w3.org/2000/svg" xmlns:xlink="http://www.w3.org/1999/xlink" preserveAspectRatio="xMidYMid" width="24" height="24" viewBox="0 0 24 24">
  <defs>
    <style>
      .cls-1 {
        fill: #444;
        fill-rule: evenodd;
      }
    </style>
  </defs>
  <path d="M16.000,19.000 L5.000,19.000 L5.000,19.000 C4.448,19.000 4.000,18.552 4.000,18.000 C4.000,17.448 4.448,17.000 5.000,17.000 L5.000,17.000 L16.000,17.000 C19.314,17.000 22.000,14.314 22.000,11.000 C22.000,7.686 19.314,5.000 16.000,5.000 L3.502,5.000 L4.696,6.200 C5.101,6.608 5.101,7.270 4.696,7.678 C4.290,8.086 3.632,8.086 3.226,7.678 L0.288,4.723 C-0.118,4.315 -0.118,3.653 0.288,3.245 L3.226,0.289 C3.632,-0.119 4.290,-0.119 4.696,0.289 C5.101,0.698 5.101,1.359 4.696,1.767 L3.470,3.000 L16.000,3.000 C20.418,3.000 24.000,6.582 24.000,11.000 C24.000,15.418 20.418,19.000 16.000,19.000 Z" transform="translate(0 2.5)" class="cls-1"/>
</svg>
