<svg xmlns="http://www.w3.org/2000/svg" xmlns:xlink="http://www.w3.org/1999/xlink" preserveAspectRatio="xMidYMid" width="24" height="24" viewBox="0 0 24 24">
  <defs>
    <style>
      .cls-1 {
        fill: #444;
        fill-rule: evenodd;
      }
    </style>
  </defs>
  <path d="M22.000,24.000 L2.000,24.000 C0.895,24.000 0.000,23.104 0.000,22.000 L0.000,16.000 C0.000,15.448 0.448,15.000 1.000,15.000 C1.552,15.000 2.000,15.448 2.000,16.000 L2.000,21.000 C2.000,21.552 2.448,22.000 3.000,22.000 L21.000,22.000 C21.552,22.000 22.000,21.552 22.000,21.000 L22.000,16.000 C22.000,15.448 22.448,15.000 23.000,15.000 C23.552,15.000 24.000,15.448 24.000,16.000 L24.000,22.000 C24.000,23.104 23.105,24.000 22.000,24.000 ZM17.266,7.536 L13.031,3.405 L13.031,17.000 C13.031,17.552 12.584,18.000 12.031,18.000 L12.000,18.000 C11.448,18.000 11.000,17.552 11.000,17.000 L11.000,3.405 L6.766,7.536 C6.365,7.926 5.716,7.926 5.316,7.536 C4.916,7.145 4.916,6.512 5.316,6.121 L11.115,0.464 C11.144,0.436 11.184,0.431 11.216,0.407 C11.398,0.166 11.674,-0.000 12.000,-0.000 L12.031,-0.000 C12.357,-0.000 12.632,0.166 12.815,0.407 C12.847,0.431 12.887,0.436 12.917,0.464 L18.716,6.121 C19.116,6.512 19.116,7.145 18.716,7.536 C18.316,7.926 17.667,7.926 17.266,7.536 Z" class="cls-1"/>
</svg>
