<?xml version="1.0" standalone="no"?><!DOCTYPE svg PUBLIC "-//W3C//DTD SVG 1.1//EN" "http://www.w3.org/Graphics/SVG/1.1/DTD/svg11.dtd"><svg class="icon" width="24px" height="24.00px" viewBox="0 0 1024 1024" version="1.1" xmlns="http://www.w3.org/2000/svg"><path fill="#666666" d="M981.333 938.667a42.667 42.667 0 0 1-85.333 0 384 384 0 0 0-384-384 384 384 0 0 0-384 384 42.667 42.667 0 0 1-85.333 0c0-203.222 129.408-375.723 310.058-441.046C294.23 450.731 256 379.52 256 298.667a256 256 0 1 1 512 0c0 80.853-38.23 152.064-96.725 198.954 180.65 65.323 310.058 237.824 310.058 441.046z m-298.666-640a170.667 170.667 0 1 0-341.334 0 170.667 170.667 0 0 0 341.334 0z" /></svg>