<svg xmlns="http://www.w3.org/2000/svg" xmlns:xlink="http://www.w3.org/1999/xlink" preserveAspectRatio="xMidYMid" width="24" height="24" viewBox="0 0 24 24">
  <defs>
    <style>
      .cls-1 {
        fill: #444;
        fill-rule: evenodd;
      }
    </style>
  </defs>
  <path d="M23.000,5.000 L21.000,5.000 L21.000,7.000 C21.000,7.553 20.552,8.000 20.000,8.000 C19.448,8.000 19.000,7.553 19.000,7.000 L19.000,5.000 L17.000,5.000 C16.448,5.000 16.000,4.552 16.000,4.000 C16.000,3.448 16.448,3.000 17.000,3.000 L19.000,3.000 L19.000,1.000 C19.000,0.448 19.448,0.000 20.000,0.000 C20.552,0.000 21.000,0.448 21.000,1.000 L21.000,3.000 L23.000,3.000 C23.552,3.000 24.000,3.448 24.000,4.000 C24.000,4.552 23.552,5.000 23.000,5.000 ZM18.000,18.000 L18.000,18.000 C18.000,18.552 17.552,19.000 17.000,19.000 C16.448,19.000 16.000,18.552 16.000,18.000 L16.000,18.000 C16.000,14.134 12.866,11.000 9.000,11.000 C5.134,11.000 2.000,14.134 2.000,18.000 L2.000,18.000 L2.000,18.000 C2.000,18.552 1.552,19.000 1.000,19.000 C0.448,19.000 -0.000,18.552 -0.000,18.000 L-0.000,18.000 L-0.000,18.000 C-0.000,14.226 2.325,11.000 5.619,9.663 C4.629,8.749 4.000,7.453 4.000,6.000 C4.000,3.239 6.239,1.000 9.000,1.000 C11.761,1.000 14.000,3.239 14.000,6.000 C14.000,7.453 13.371,8.749 12.381,9.663 C15.675,11.000 18.000,14.226 18.000,18.000 ZM9.000,3.000 C7.343,3.000 6.000,4.343 6.000,6.000 C6.000,7.657 7.343,9.000 9.000,9.000 C10.657,9.000 12.000,7.657 12.000,6.000 C12.000,4.343 10.657,3.000 9.000,3.000 Z" transform="translate(0 2.5)" class="cls-1"/>
</svg>
