<svg xmlns="http://www.w3.org/2000/svg" xmlns:xlink="http://www.w3.org/1999/xlink" preserveAspectRatio="xMidYMid" width="24" height="24" viewBox="0 0 24 24">
  <defs>
    <style>
      .cls-1 {
        fill: #444;
        fill-rule: evenodd;
      }
    </style>
  </defs>
  <path d="M18.000,24.000 C14.686,24.000 12.000,21.314 12.000,18.000 C12.000,15.830 13.163,13.947 14.888,12.893 C14.888,12.893 14.888,12.893 14.888,12.893 C13.710,12.327 12.395,12.000 11.000,12.000 C6.029,12.000 2.000,16.030 2.000,21.000 L2.000,21.000 C2.000,21.552 1.552,22.000 1.000,22.000 C0.448,22.000 -0.000,21.552 -0.000,21.000 C-0.000,21.000 0.000,20.999 0.000,20.999 C0.001,16.237 3.033,12.194 7.267,10.663 C5.896,9.564 5.000,7.895 5.000,6.000 C5.000,2.686 7.686,-0.000 11.000,-0.000 C14.314,-0.000 17.000,2.686 17.000,6.000 C17.000,7.895 16.104,9.564 14.733,10.663 C15.680,11.006 16.555,11.491 17.362,12.064 C17.574,12.042 17.781,12.000 18.000,12.000 C21.314,12.000 24.000,14.686 24.000,18.000 C24.000,21.314 21.314,24.000 18.000,24.000 ZM15.000,6.000 C15.000,3.791 13.209,2.000 11.000,2.000 C8.791,2.000 7.000,3.791 7.000,6.000 C7.000,8.209 8.791,10.000 11.000,10.000 C13.209,10.000 15.000,8.209 15.000,6.000 ZM18.000,14.000 C15.791,14.000 14.000,15.791 14.000,18.000 C14.000,20.209 15.791,22.000 18.000,22.000 C20.209,22.000 22.000,20.209 22.000,18.000 C22.000,15.791 20.209,14.000 18.000,14.000 ZM18.000,20.692 C17.625,21.097 17.017,21.097 16.642,20.692 L15.285,19.223 C14.910,18.817 14.910,18.159 15.285,17.753 C15.660,17.348 16.267,17.348 16.642,17.753 L17.321,18.488 L19.358,16.284 C19.733,15.878 20.340,15.878 20.715,16.284 C21.090,16.690 21.090,17.348 20.715,17.753 L18.000,20.692 Z" class="cls-1"/>
</svg>
