<svg xmlns="http://www.w3.org/2000/svg" xmlns:xlink="http://www.w3.org/1999/xlink" preserveAspectRatio="xMidYMid" width="24" height="24" viewBox="0 0 24 24">
  <defs>
    <style>
      .cls-1 {
        fill: #444;
        fill-rule: evenodd;
      }
    </style>
  </defs>
  <path d="M22.000,20.999 C22.000,21.000 22.000,21.000 22.000,21.000 C22.000,21.552 21.552,22.000 21.000,22.000 L1.000,22.000 C0.724,22.000 0.474,21.888 0.293,21.707 C0.112,21.526 -0.000,21.276 -0.000,21.000 C-0.000,16.237 3.032,12.193 7.267,10.663 C5.896,9.564 5.000,7.895 5.000,6.000 C5.000,2.686 7.686,0.000 11.000,0.000 C14.314,0.000 17.000,2.686 17.000,6.000 C17.000,7.895 16.104,9.564 14.733,10.663 C18.967,12.193 22.000,16.237 22.000,20.999 Z" transform="translate(1 1)" class="cls-1"/>
</svg>
