<?xml version="1.0" standalone="no"?><!DOCTYPE svg PUBLIC "-//W3C//DTD SVG 1.1//EN" "http://www.w3.org/Graphics/SVG/1.1/DTD/svg11.dtd"><svg class="icon" width="24px" height="24.00px" viewBox="0 0 1024 1024" version="1.1" xmlns="http://www.w3.org/2000/svg"><path fill="#666666" d="M512 1024C229.248 1024 0 794.752 0 512S229.248 0 512 0s512 229.248 512 512-229.248 512-512 512z m146.56-442.965333A212.053333 212.053333 0 0 0 725.333333 426.666667a213.333333 213.333333 0 0 0-426.666666 0 212.053333 212.053333 0 0 0 66.773333 154.368 428.330667 428.330667 0 0 0-209.408 165.930666A426.026667 426.026667 0 0 0 512 938.666667a426.026667 426.026667 0 0 0 355.968-191.701334 428.330667 428.330667 0 0 0-209.408-165.930666z" /></svg>