<svg xmlns="http://www.w3.org/2000/svg" xmlns:xlink="http://www.w3.org/1999/xlink" preserveAspectRatio="xMidYMid" width="24" height="24" viewBox="0 0 24 24">
  <defs>
    <style>
      .cls-1 {
        fill: #444;
        fill-rule: evenodd;
      }
    </style>
  </defs>
  <path d="M12.000,24.000 C5.373,24.000 -0.000,18.627 -0.000,12.000 C-0.000,5.373 5.373,0.000 12.000,0.000 C18.627,0.000 24.000,5.373 24.000,12.000 C24.000,18.627 18.627,24.000 12.000,24.000 ZM15.435,13.618 C16.395,12.707 17.000,11.428 17.000,10.000 C17.000,7.239 14.761,5.000 12.000,5.000 C9.239,5.000 7.000,7.239 7.000,10.000 C7.000,11.428 7.605,12.707 8.565,13.618 C6.541,14.360 4.827,15.738 3.657,17.507 C5.446,20.213 8.513,22.000 12.000,22.000 C15.487,22.000 18.554,20.213 20.343,17.507 C19.173,15.738 17.459,14.360 15.435,13.618 Z" class="cls-1"/>
</svg>
