<svg xmlns="http://www.w3.org/2000/svg" xmlns:xlink="http://www.w3.org/1999/xlink" preserveAspectRatio="xMidYMid" width="24" height="24" viewBox="0 0 24 24">
  <defs>
    <style>
      .cls-1 {
        fill: #444;
        fill-rule: evenodd;
      }
    </style>
  </defs>
  <path d="M22.000,20.999 C22.000,20.999 22.000,21.000 22.000,21.000 C22.000,21.552 21.552,22.000 21.000,22.000 L1.000,22.000 C1.000,22.000 1.000,22.000 1.000,22.000 C1.000,22.000 1.000,22.000 1.000,22.000 C0.448,22.000 -0.000,21.552 -0.000,21.000 C-0.000,16.237 3.032,12.193 7.267,10.663 C5.896,9.564 5.000,7.895 5.000,6.000 C5.000,2.686 7.686,0.000 11.000,0.000 C14.314,0.000 17.000,2.686 17.000,6.000 C17.000,7.895 16.104,9.564 14.733,10.663 C18.967,12.193 22.000,16.237 22.000,20.999 ZM15.000,6.000 C15.000,3.791 13.209,2.000 11.000,2.000 C8.791,2.000 7.000,3.791 7.000,6.000 C7.000,8.209 8.791,10.000 11.000,10.000 C13.209,10.000 15.000,8.209 15.000,6.000 ZM11.000,12.000 C6.368,12.000 2.557,15.501 2.059,20.000 L19.941,20.000 C19.443,15.501 15.632,12.000 11.000,12.000 Z" transform="translate(1 1)" class="cls-1"/>
</svg>
