<svg xmlns="http://www.w3.org/2000/svg" xmlns:xlink="http://www.w3.org/1999/xlink" preserveAspectRatio="xMidYMid" width="24" height="24" viewBox="0 0 24 24">
  <defs>
    <style>
      .cls-1 {
        fill: #444;
        fill-rule: evenodd;
      }
    </style>
  </defs>
  <path d="M12.000,24.000 C5.373,24.000 0.000,18.627 0.000,12.000 C0.000,5.373 5.373,0.000 12.000,0.000 C18.628,0.000 24.000,5.373 24.000,12.000 C24.000,18.627 18.628,24.000 12.000,24.000 ZM18.786,19.330 C18.038,16.272 15.289,14.000 12.000,14.000 C8.711,14.000 5.963,16.272 5.214,19.330 C6.997,20.982 9.377,22.000 12.000,22.000 C14.623,22.000 17.003,20.982 18.786,19.330 ZM15.000,9.000 C15.000,7.343 13.657,6.000 12.000,6.000 C10.343,6.000 9.000,7.343 9.000,9.000 C9.000,10.657 10.343,12.000 12.000,12.000 C13.657,12.000 15.000,10.657 15.000,9.000 ZM12.000,2.000 C6.477,2.000 2.000,6.477 2.000,12.000 C2.000,14.072 2.631,15.997 3.710,17.593 C4.623,15.362 6.383,13.571 8.619,12.662 C7.630,11.749 7.000,10.453 7.000,9.000 C7.000,6.239 9.239,4.000 12.000,4.000 C14.762,4.000 17.000,6.239 17.000,9.000 C17.000,10.453 16.371,11.749 15.382,12.662 C17.617,13.571 19.377,15.362 20.290,17.593 C21.370,15.997 22.000,14.072 22.000,12.000 C22.000,6.477 17.523,2.000 12.000,2.000 Z" class="cls-1"/>
</svg>
