<svg xmlns="http://www.w3.org/2000/svg" xmlns:xlink="http://www.w3.org/1999/xlink" preserveAspectRatio="xMidYMid" width="24" height="24" viewBox="0 0 24 24">
  <defs>
    <style>
      .cls-1 {
        fill: #444;
        fill-rule: evenodd;
      }
    </style>
  </defs>
  <path d="M22.000,17.000 L21.816,17.000 C21.403,18.162 20.304,19.000 19.000,19.000 C17.696,19.000 16.597,18.162 16.184,17.000 L15.000,17.000 C14.634,17.000 14.295,16.894 14.000,16.722 C13.705,16.894 13.366,17.000 13.000,17.000 L9.816,17.000 C9.403,18.162 8.304,19.000 7.000,19.000 C5.696,19.000 4.597,18.162 4.184,17.000 L2.000,17.000 C0.895,17.000 0.000,16.105 0.000,15.000 L0.000,2.000 C0.000,0.895 0.895,0.000 2.000,0.000 L13.000,0.000 C14.105,0.000 15.000,0.895 15.000,2.000 L15.000,5.000 L22.000,5.000 C23.105,5.000 24.000,5.895 24.000,7.000 L24.000,15.000 C24.000,16.105 23.105,17.000 22.000,17.000 ZM7.000,17.000 C7.552,17.000 8.000,16.552 8.000,16.000 C8.000,15.448 7.552,15.000 7.000,15.000 C6.448,15.000 6.000,15.448 6.000,16.000 C6.000,16.552 6.448,17.000 7.000,17.000 ZM13.000,7.000 L13.000,3.000 C13.000,2.448 12.552,2.000 12.000,2.000 L3.000,2.000 C2.448,2.000 2.000,2.448 2.000,3.000 L2.000,14.000 C2.000,14.552 2.448,15.000 3.000,15.000 L4.184,15.000 C4.597,13.837 5.696,13.000 7.000,13.000 C8.304,13.000 9.403,13.837 9.816,15.000 L12.000,15.000 C12.552,15.000 13.000,14.552 13.000,14.000 L13.000,7.000 ZM19.000,17.000 C19.552,17.000 20.000,16.552 20.000,16.000 C20.000,15.448 19.552,15.000 19.000,15.000 C18.448,15.000 18.000,15.448 18.000,16.000 C18.000,16.552 18.448,17.000 19.000,17.000 ZM22.000,11.000 L18.500,11.000 C18.224,11.000 18.000,10.776 18.000,10.500 L18.000,9.500 C18.000,9.224 18.224,9.000 18.500,9.000 L22.000,9.000 L22.000,8.000 C22.000,7.448 21.552,7.000 21.000,7.000 L16.000,7.000 C15.448,7.000 15.000,7.448 15.000,8.000 L15.000,14.000 C15.000,14.552 15.448,15.000 16.000,15.000 L16.184,15.000 C16.597,13.837 17.696,13.000 19.000,13.000 C20.194,13.000 21.216,13.703 21.699,14.712 C21.884,14.531 22.000,14.280 22.000,14.000 L22.000,11.000 Z" transform="translate(0 2.5)" class="cls-1"/>
</svg>
