<svg xmlns="http://www.w3.org/2000/svg" xmlns:xlink="http://www.w3.org/1999/xlink" preserveAspectRatio="xMidYMid" width="24" height="24" viewBox="0 0 24 24">
  <defs>
    <style>
      .cls-1 {
        fill: #444;
        fill-rule: evenodd;
      }
    </style>
  </defs>
  <path d="M24.000,1.000 C24.000,0.448 23.552,0.000 23.000,0.000 L22.000,0.000 L2.000,0.000 L1.000,0.000 C0.448,0.000 -0.000,0.448 -0.000,1.000 C-0.000,1.150 -0.000,22.000 -0.000,22.000 C-0.000,23.105 0.895,24.000 2.000,24.000 L22.000,24.000 C23.105,24.000 24.000,23.105 24.000,22.000 C24.000,22.000 24.000,1.150 24.000,1.000 ZM9.987,19.017 L15.992,15.005 L9.987,10.993 L9.987,19.017 ZM2.131,2.533 C2.055,2.675 2.000,2.828 2.000,3.000 L2.000,6.000 C2.000,6.552 2.448,7.000 3.000,7.000 L6.404,7.000 L2.282,2.767 C2.215,2.698 2.175,2.614 2.131,2.533 ZM8.094,2.000 L4.413,2.000 L9.282,7.000 L12.509,7.000 L8.387,2.767 C8.181,2.556 8.087,2.277 8.094,2.000 ZM15.387,7.000 L18.614,7.000 L14.492,2.767 C14.286,2.556 14.192,2.277 14.199,2.000 L10.518,2.000 L15.387,7.000 ZM22.000,3.000 C22.000,2.448 21.552,2.000 21.000,2.000 L16.623,2.000 L21.405,6.911 C21.754,6.755 22.000,6.407 22.000,6.000 L22.000,3.000 Z" class="cls-1"/>
</svg>
