<svg xmlns="http://www.w3.org/2000/svg" xmlns:xlink="http://www.w3.org/1999/xlink" preserveAspectRatio="xMidYMid" width="24" height="24" viewBox="0 0 24 24">
  <defs>
    <style>
      .cls-1 {
        fill: #444;
        fill-rule: evenodd;
      }
    </style>
  </defs>
  <path d="M24.000,12.000 C24.000,12.039 23.982,12.073 23.978,12.111 C23.972,12.148 23.981,12.184 23.971,12.222 C23.965,12.242 23.951,12.257 23.944,12.277 C23.913,12.381 23.867,12.473 23.806,12.561 C23.794,12.577 23.785,12.594 23.773,12.609 C23.703,12.699 23.619,12.771 23.523,12.831 C23.505,12.843 23.489,12.856 23.471,12.866 C23.390,12.910 23.304,12.937 23.212,12.957 C23.163,12.969 23.117,12.982 23.066,12.987 C23.043,12.988 23.024,13.000 23.000,13.000 C22.955,13.000 22.916,12.980 22.872,12.974 C22.818,12.969 22.765,12.979 22.711,12.964 L17.000,10.582 L17.000,12.000 C17.000,13.105 16.105,14.000 15.000,14.000 L2.000,14.000 C0.895,14.000 -0.000,13.105 -0.000,12.000 L-0.000,2.000 C-0.000,0.895 0.895,0.000 2.000,0.000 L15.000,0.000 C16.105,0.000 17.000,0.895 17.000,2.000 L17.000,3.418 L22.711,1.036 C22.765,1.021 22.818,1.032 22.872,1.026 C22.916,1.020 22.955,1.000 23.000,1.000 C23.024,1.000 23.043,1.012 23.067,1.013 C23.117,1.018 23.163,1.031 23.212,1.043 C23.304,1.063 23.390,1.090 23.471,1.134 C23.490,1.144 23.505,1.157 23.523,1.169 C23.619,1.230 23.703,1.301 23.773,1.390 C23.785,1.406 23.795,1.423 23.806,1.440 C23.867,1.527 23.913,1.619 23.944,1.723 C23.951,1.743 23.965,1.757 23.971,1.778 C23.981,1.815 23.972,1.852 23.978,1.889 C23.982,1.927 24.000,1.961 24.000,2.000 L24.000,12.000 ZM15.000,3.000 C15.000,2.448 14.552,2.000 14.000,2.000 L3.000,2.000 C2.448,2.000 2.000,2.448 2.000,3.000 L2.000,11.000 C2.000,11.552 2.448,12.000 3.000,12.000 L14.000,12.000 C14.552,12.000 15.000,11.552 15.000,11.000 L15.000,3.000 ZM17.000,8.333 L22.000,10.418 L22.000,3.582 L17.000,5.667 L17.000,8.333 Z" transform="translate(0 5)" class="cls-1"/>
</svg>
