<svg xmlns="http://www.w3.org/2000/svg" xmlns:xlink="http://www.w3.org/1999/xlink" preserveAspectRatio="xMidYMid" width="24" height="24" viewBox="0 0 24 24">
  <defs>
    <style>
      .cls-1 {
        fill: #444;
        fill-rule: evenodd;
      }
    </style>
  </defs>
  <path d="M22.000,24.000 L2.000,24.000 C0.895,24.000 0.000,23.105 0.000,22.000 L0.000,2.000 C0.000,0.895 0.895,0.000 2.000,0.000 L22.000,0.000 C23.105,0.000 24.000,0.895 24.000,2.000 L24.000,22.000 C24.000,23.105 23.105,24.000 22.000,24.000 ZM2.000,21.000 C2.000,21.553 2.448,22.000 3.000,22.000 L21.000,22.000 C21.552,22.000 22.000,21.553 22.000,21.000 L22.000,9.000 L2.000,9.000 L2.000,21.000 ZM2.000,7.000 L5.549,7.000 L2.000,3.451 L2.000,7.000 ZM3.451,2.000 L8.451,7.000 L13.025,7.000 L8.048,2.000 L3.451,2.000 ZM15.920,7.000 L19.660,7.000 L14.978,2.000 L10.943,2.000 L15.920,7.000 ZM21.000,2.000 L17.788,2.000 L22.000,6.936 L22.000,3.000 C22.000,2.448 21.552,2.000 21.000,2.000 ZM9.987,10.994 L15.992,15.005 L9.987,19.017 L9.987,10.994 Z" class="cls-1"/>
</svg>
