<svg xmlns="http://www.w3.org/2000/svg" xmlns:xlink="http://www.w3.org/1999/xlink" preserveAspectRatio="xMidYMid" width="23.969" height="24" viewBox="0 0 23.969 24">
  <defs>
    <style>
      .cls-1 {
        fill: #444;
        fill-rule: evenodd;
      }
    </style>
  </defs>
  <path d="M17.969,12.000 C17.895,12.000 17.827,11.981 17.753,11.978 C17.725,12.016 17.711,12.060 17.677,12.094 L7.228,21.071 C6.254,22.044 4.795,22.215 3.633,21.613 L1.524,23.723 C1.171,24.076 0.599,24.076 0.246,23.723 C-0.107,23.370 -0.107,22.798 0.246,22.445 L2.345,20.346 C1.717,19.181 1.882,17.703 2.868,16.720 L11.862,6.292 C11.900,6.254 11.948,6.238 11.990,6.207 C11.987,6.137 11.969,6.071 11.969,6.000 C11.969,2.686 14.655,0.000 17.969,0.000 C21.283,0.000 23.969,2.686 23.969,6.000 C23.969,9.314 21.283,12.000 17.969,12.000 ZM12.581,8.594 L4.321,18.170 C3.920,18.571 3.920,19.220 4.321,19.621 C4.723,20.021 5.373,20.021 5.775,19.621 L15.363,11.382 C14.148,10.792 13.169,9.811 12.581,8.594 ZM17.969,2.000 C15.760,2.000 13.969,3.791 13.969,6.000 C13.969,8.209 15.760,10.000 17.969,10.000 C20.178,10.000 21.969,8.209 21.969,6.000 C21.969,3.791 20.178,2.000 17.969,2.000 Z" class="cls-1"/>
</svg>
