<?xml version="1.0" standalone="no"?><!DOCTYPE svg PUBLIC "-//W3C//DTD SVG 1.1//EN" "http://www.w3.org/Graphics/SVG/1.1/DTD/svg11.dtd"><svg class="icon" width="24px" height="24.00px" viewBox="0 0 1024 1024" version="1.1" xmlns="http://www.w3.org/2000/svg"><path fill="#666666" d="M554.666667 808.448V938.666667h170.666666a42.666667 42.666667 0 0 1 0 85.333333H298.666667a42.666667 42.666667 0 0 1 0-85.333333h170.666666v-130.218667C263.552 786.602667 170.666667 604.928 170.666667 384a42.666667 42.666667 0 0 1 85.333333 0c0 188.501333 67.498667 341.333333 256 341.333333s256-152.832 256-341.333333a42.666667 42.666667 0 0 1 85.333333 0c0 220.928-92.885333 402.602667-298.666666 424.448zM512 640a170.666667 170.666667 0 0 1-170.666667-170.666667V170.666667a170.666667 170.666667 0 0 1 341.333334 0v298.666666a170.666667 170.666667 0 0 1-170.666667 170.666667z m85.333333-469.333333a85.333333 85.333333 0 1 0-170.666666 0v298.666666a85.333333 85.333333 0 1 0 170.666666 0V170.666667z" /></svg>