<svg xmlns="http://www.w3.org/2000/svg" xmlns:xlink="http://www.w3.org/1999/xlink" preserveAspectRatio="xMidYMid" width="24.031" height="24.06" viewBox="0 0 24.031 24.06">
  <defs>
    <style>
      .cls-1 {
        fill: #444;
        fill-rule: evenodd;
      }
    </style>
  </defs>
  <path d="M20.935,20.510 C20.445,21.101 19.663,21.218 19.271,20.816 C18.877,20.414 18.940,19.724 19.343,19.236 C22.815,15.050 22.815,9.010 19.343,4.824 C18.940,4.336 18.877,3.646 19.271,3.244 C19.663,2.842 20.445,2.959 20.935,3.550 C25.021,8.476 25.021,15.585 20.935,20.510 ZM17.122,17.391 C16.588,18.067 15.689,18.221 15.270,17.813 C14.847,17.405 14.919,16.713 15.313,16.209 C17.280,13.720 17.280,10.340 15.313,7.851 C14.919,7.347 14.847,6.655 15.270,6.246 C15.689,5.839 16.588,5.993 17.122,6.669 C19.645,9.862 19.645,14.198 17.122,17.391 ZM12.346,23.960 C11.966,24.121 11.511,24.049 11.202,23.738 L5.418,17.932 C5.290,17.992 5.150,18.030 5.000,18.030 L1.000,18.030 C0.448,18.030 0.000,17.582 0.000,17.030 L0.000,7.030 C0.000,6.478 0.448,6.030 1.000,6.030 L5.000,6.030 C5.150,6.030 5.289,6.068 5.417,6.127 L11.200,0.322 C11.510,0.011 11.964,-0.061 12.345,0.100 C12.725,0.241 13.000,0.600 13.000,1.030 L13.000,23.030 C13.000,23.459 12.726,23.818 12.346,23.960 Z" class="cls-1"/>
</svg>
