<svg xmlns="http://www.w3.org/2000/svg" xmlns:xlink="http://www.w3.org/1999/xlink" preserveAspectRatio="xMidYMid" width="24" height="24.06" viewBox="0 0 24 24.06">
  <defs>
    <style>
      .cls-1 {
        fill: #444;
        fill-rule: evenodd;
      }
    </style>
  </defs>
  <path d="M20.904,12.530 L23.713,15.339 C24.101,15.727 24.101,16.356 23.713,16.743 C23.325,17.131 22.697,17.131 22.309,16.743 L19.500,13.935 L16.691,16.743 C16.303,17.131 15.674,17.131 15.287,16.743 C14.899,16.356 14.899,15.727 15.287,15.339 L18.096,12.530 L15.287,9.721 C14.899,9.333 14.899,8.705 15.287,8.317 C15.674,7.929 16.303,7.929 16.691,8.317 L19.500,11.125 L22.309,8.317 C22.697,7.929 23.325,7.929 23.713,8.317 C24.101,8.705 24.101,9.333 23.713,9.721 L20.904,12.530 ZM12.346,23.960 C11.966,24.121 11.511,24.049 11.202,23.738 L5.418,17.932 C5.290,17.992 5.150,18.030 5.000,18.030 L1.000,18.030 C0.448,18.030 -0.000,17.582 -0.000,17.030 L-0.000,7.030 C-0.000,6.478 0.448,6.030 1.000,6.030 L5.000,6.030 C5.150,6.030 5.289,6.068 5.417,6.127 L11.200,0.322 C11.510,0.011 11.964,-0.061 12.345,0.099 C12.726,0.241 13.000,0.600 13.000,1.030 L13.000,23.030 C13.000,23.459 12.726,23.819 12.346,23.960 Z" class="cls-1"/>
</svg>
