<svg xmlns="http://www.w3.org/2000/svg" xmlns:xlink="http://www.w3.org/1999/xlink" preserveAspectRatio="xMidYMid" width="24" height="24" viewBox="0 0 24 24">
  <defs>
    <style>
      .cls-1 {
        fill: #444;
        fill-rule: evenodd;
      }
    </style>
  </defs>
  <path d="M22.000,20.000 L2.000,20.000 C0.896,20.000 -0.000,19.105 -0.000,18.000 L-0.000,2.000 C-0.000,0.896 0.896,0.000 2.000,0.000 L22.000,0.000 C23.105,0.000 24.000,0.896 24.000,2.000 L24.000,6.000 L13.000,6.000 C12.448,6.000 12.000,6.448 12.000,7.000 L12.000,13.000 C12.000,13.552 12.448,14.000 13.000,14.000 L24.000,14.000 L24.000,18.000 C24.000,19.105 23.105,20.000 22.000,20.000 ZM14.000,8.000 L24.000,8.000 L24.000,12.000 L14.000,12.000 L14.000,8.000 ZM17.000,11.000 C17.552,11.000 18.000,10.552 18.000,10.000 C18.000,9.448 17.552,9.000 17.000,9.000 C16.448,9.000 16.000,9.448 16.000,10.000 C16.000,10.552 16.448,11.000 17.000,11.000 Z" transform="translate(0 2)" class="cls-1"/>
</svg>
