<svg xmlns="http://www.w3.org/2000/svg" xmlns:xlink="http://www.w3.org/1999/xlink" preserveAspectRatio="xMidYMid" width="24" height="24" viewBox="0 0 24 24">
  <defs>
    <style>
      .cls-1 {
        fill: #444;
        fill-rule: evenodd;
      }
    </style>
  </defs>
  <path d="M22.000,20.000 L2.000,20.000 C0.895,20.000 0.000,19.105 0.000,18.000 L0.000,2.000 C0.000,0.896 0.895,-0.000 2.000,-0.000 L22.000,-0.000 C23.105,-0.000 24.000,0.896 24.000,2.000 L24.000,18.000 C24.000,19.105 23.105,20.000 22.000,20.000 ZM22.000,8.000 L14.000,8.000 L14.000,12.000 L22.000,12.000 L22.000,8.000 ZM22.000,14.000 L13.000,14.000 C12.448,14.000 12.000,13.552 12.000,13.000 L12.000,7.000 C12.000,6.448 12.448,6.000 13.000,6.000 L22.000,6.000 L22.000,3.000 C22.000,2.447 21.552,2.000 21.000,2.000 L3.000,2.000 C2.448,2.000 2.000,2.447 2.000,3.000 L2.000,17.000 C2.000,17.552 2.448,18.000 3.000,18.000 L21.000,18.000 C21.552,18.000 22.000,17.552 22.000,17.000 L22.000,14.000 ZM17.000,9.000 C17.552,9.000 18.000,9.448 18.000,10.000 C18.000,10.552 17.552,11.000 17.000,11.000 C16.448,11.000 16.000,10.552 16.000,10.000 C16.000,9.448 16.448,9.000 17.000,9.000 Z" transform="translate(0 2)" class="cls-1"/>
</svg>
