<svg xmlns="http://www.w3.org/2000/svg" xmlns:xlink="http://www.w3.org/1999/xlink" preserveAspectRatio="xMidYMid" width="24" height="24" viewBox="0 0 24 24">
  <defs>
    <style>
      .cls-1 {
        fill: #444;
        fill-rule: evenodd;
      }
    </style>
  </defs>
  <path d="M23.786,20.253 C23.516,20.719 23.010,21.009 22.468,21.009 L1.509,21.009 C0.968,21.009 0.463,20.720 0.192,20.255 C-0.079,19.790 -0.079,19.212 0.191,18.746 L0.191,18.746 L10.671,0.746 C10.942,0.282 11.446,-0.007 11.987,-0.008 C11.988,-0.008 11.988,-0.008 11.989,-0.008 C12.530,-0.008 13.034,0.280 13.305,0.745 L23.785,18.746 C24.056,19.209 24.057,19.787 23.786,20.253 ZM13.000,9.000 C13.000,8.448 12.552,8.000 12.000,8.000 C11.448,8.000 11.000,8.448 11.000,9.000 L11.000,14.000 C11.000,14.552 11.448,15.000 12.000,15.000 C12.552,15.000 13.000,14.552 13.000,14.000 L13.000,9.000 ZM12.000,16.000 C11.448,16.000 11.000,16.448 11.000,17.000 C11.000,17.552 11.448,18.000 12.000,18.000 C12.552,18.000 13.000,17.552 13.000,17.000 C13.000,16.448 12.552,16.000 12.000,16.000 Z" transform="translate(0 1.5)" class="cls-1"/>
</svg>
