<svg xmlns="http://www.w3.org/2000/svg" xmlns:xlink="http://www.w3.org/1999/xlink" preserveAspectRatio="xMidYMid" width="24" height="24" viewBox="0 0 24 24">
  <defs>
    <style>
      .cls-1 {
        fill: #444;
        fill-rule: evenodd;
      }
    </style>
  </defs>
  <path d="M9.150,15.115 C7.713,15.983 7.500,14.628 7.500,14.628 L5.700,10.078 C5.007,7.916 6.299,9.104 6.299,9.104 C6.299,9.104 7.408,10.012 8.250,10.566 C9.091,11.119 10.049,10.728 10.049,10.728 L21.819,4.844 C19.647,1.917 16.061,0.004 11.999,0.004 C5.372,0.004 -0.000,5.096 -0.000,11.379 C-0.000,14.992 1.779,18.208 4.550,20.293 L4.050,23.404 C4.050,23.404 3.806,24.312 4.650,23.891 C5.226,23.604 6.692,22.574 7.565,21.948 C8.983,22.482 10.485,22.755 12.000,22.754 C18.627,22.754 24.000,17.661 24.000,11.379 C24.000,9.559 23.547,7.841 22.745,6.315 C18.995,8.759 10.273,14.438 9.150,15.115 Z" class="cls-1"/>
</svg>
