<?xml version="1.0" standalone="no"?><!DOCTYPE svg PUBLIC "-//W3C//DTD SVG 1.1//EN" "http://www.w3.org/Graphics/SVG/1.1/DTD/svg11.dtd"><svg class="icon" width="24px" height="19.40px" viewBox="0 0 1267 1024" version="1.1" xmlns="http://www.w3.org/2000/svg"><path fill="#666666" d="M835.81904778 334.09999971c12.72857168 0 25.37142891 0.85714277 37.88571446 2.27142862C839.67619026 179 670.17619056 62 476.76190501 62 260.50476165 62 83.33333333 208.35714307 83.33333333 394.27142891c0 107.31428614 58.92857138 195.42857168 157.41428555 263.78571357l-39.34285664 117.51428585 137.57142832-68.48571446c49.20000029 9.64285752 88.67142862 19.62857109 137.78571444 19.62857197 12.34285752 0 24.55714248-0.64285752 36.72857111-1.58571475a289.02857167 289.02857167 0 0 1-12.17142862-81.85714276c0-170.70000029 147.6-309.17142862 334.50000029-309.17142862z m-211.54285723-105.98571387c29.61428555 0 49.28571386 19.37142862 49.28571387 48.77142803 0 29.31428584-19.67142832 48.85714248-49.28571387 48.85714336-29.48571386 0-59.05714307-19.54285752-59.05714306-48.85714336 0-29.40000029 29.57142832-48.77142891 59.05714306-48.77142803zM348.96190501 325.78571445c-29.48571386 0-59.27142832-19.58571386-59.2714292-48.90000059 0-29.40000029 29.74285722-48.77142891 59.2714292-48.77142802 29.48571386 0 49.07142862 19.37142862 49.07142861 48.77142802 0 29.31428584-19.58571386 48.85714248-49.07142861 48.85714336z"  /><path fill="#666666" d="M1197.61904778 640.35714307C1197.61904778 484.65714307 1040.5904764 357.71428584 864.1904764 357.71428584c-186.77142862 0-333.85714277 126.94285723-333.85714278 282.64285723 0 155.99999971 147.08571416 282.68571445 333.85714278 282.68571445 39.08571416 0 78.51428614-9.81428555 117.77142831-19.54285752L1089.66190501 962l-29.5714292-97.32857168C1138.99047611 806.00000029 1197.61904778 728.21428613 1197.61904778 640.35714307z m-441.64285752-48.72857169c-19.54285752 0-39.25714307-19.28571416-39.25714307-38.9999997 0-19.37142862 19.71428555-38.91428614 39.25714307-38.91428613 29.65714277 0 49.11428584 19.54285752 49.11428584 38.95714336 0 19.71428555-19.45714307 38.95714248-49.11428584 38.95714247z m215.8714292 0c-19.37142862 0-38.99999971-19.28571416-39.00000058-38.9999997 0-19.37142862 19.62857109-38.91428614 39.00000058-38.91428613 29.44285752 0 49.15714307 19.54285752 49.15714219 38.95714336 0 19.71428555-19.71428555 38.95714248-49.15714219 38.95714247z"  /></svg>