<svg xmlns="http://www.w3.org/2000/svg" xmlns:xlink="http://www.w3.org/1999/xlink" preserveAspectRatio="xMidYMid" width="23.969" height="24" viewBox="0 0 23.969 24">
  <defs>
    <style>
      .cls-1 {
        fill: #444;
        fill-rule: evenodd;
      }
    </style>
  </defs>
  <path d="M17.775,9.313 C17.502,9.257 17.324,9.176 17.242,9.069 C17.160,8.961 17.146,8.861 17.201,8.771 L17.283,8.636 C17.305,8.612 17.324,8.584 17.338,8.555 C17.357,8.518 17.394,8.442 17.448,8.324 C17.502,8.206 17.544,8.089 17.572,7.972 C17.600,7.855 17.622,7.711 17.639,7.539 C17.657,7.376 17.653,7.212 17.626,7.051 C17.592,6.878 17.537,6.710 17.461,6.550 C17.376,6.368 17.260,6.204 17.118,6.063 C16.862,5.809 16.528,5.647 16.117,5.575 C15.709,5.503 15.293,5.498 14.884,5.561 C14.473,5.624 14.085,5.705 13.720,5.804 C13.354,5.905 13.052,5.999 12.816,6.089 L12.459,6.252 C12.311,6.298 12.159,6.334 12.006,6.360 C11.915,6.380 11.821,6.375 11.733,6.346 C11.679,6.325 11.629,6.298 11.582,6.265 C11.545,6.238 11.532,6.175 11.540,6.075 C11.550,5.976 11.558,5.890 11.568,5.818 C11.577,5.745 11.600,5.632 11.636,5.479 C11.672,5.325 11.700,5.204 11.718,5.114 C11.718,4.897 11.705,4.693 11.678,4.504 C11.650,4.315 11.590,4.104 11.499,3.868 C11.417,3.648 11.280,3.453 11.101,3.301 C10.905,3.144 10.682,3.024 10.444,2.948 C10.179,2.858 9.836,2.831 9.415,2.867 C8.996,2.903 8.520,3.011 7.991,3.191 C7.305,3.431 6.651,3.753 6.044,4.153 C5.387,4.577 4.815,5.019 4.332,5.479 C3.847,5.940 3.405,6.386 3.003,6.819 C2.600,7.252 2.289,7.605 2.070,7.875 L1.768,8.308 C1.166,9.084 0.718,9.860 0.425,10.637 C0.133,11.413 -0.004,11.999 0.015,12.396 L0.015,12.965 C0.124,13.831 0.394,14.607 0.823,15.293 C1.252,15.979 1.763,16.535 2.358,16.958 C3.006,17.411 3.711,17.775 4.455,18.042 C5.258,18.339 6.030,18.556 6.771,18.691 C7.510,18.827 8.292,18.922 9.114,18.975 C10.467,19.084 11.868,18.980 13.321,18.664 C14.757,18.355 16.129,17.800 17.378,17.025 C18.630,16.250 19.511,15.320 20.022,14.237 C20.332,13.605 20.492,13.010 20.502,12.450 C20.512,11.891 20.416,11.435 20.214,11.084 C20.011,10.729 19.746,10.412 19.433,10.150 C19.161,9.909 18.856,9.709 18.529,9.553 C18.289,9.440 18.036,9.358 17.775,9.310 L17.775,9.313 ZM9.417,17.732 C7.443,17.822 5.768,17.442 4.388,16.594 C3.009,15.746 2.320,14.672 2.320,13.372 C2.320,12.091 3.004,10.986 4.375,10.056 C5.746,9.127 7.426,8.617 9.417,8.527 C11.409,8.437 13.090,8.761 14.460,9.501 C15.831,10.242 16.516,11.253 16.516,12.533 C16.516,13.833 15.817,15.001 14.419,16.039 C13.020,17.077 11.354,17.641 9.417,17.731 L9.417,17.732 ZM8.622,10.233 C8.131,10.277 7.650,10.400 7.197,10.598 C6.777,10.787 6.448,11.003 6.210,11.248 C5.978,11.484 5.776,11.748 5.607,12.033 C5.442,12.312 5.327,12.587 5.264,12.858 C5.200,13.128 5.159,13.377 5.140,13.603 C5.122,13.828 5.112,14.003 5.113,14.130 L5.140,14.346 L5.140,14.454 C5.140,14.509 5.159,14.617 5.196,14.780 C5.232,14.942 5.283,15.090 5.346,15.226 C5.410,15.363 5.516,15.511 5.662,15.674 C5.808,15.836 5.981,15.971 6.182,16.079 C7.388,16.657 8.512,16.833 9.553,16.607 C10.594,16.382 11.436,15.863 12.075,15.050 C12.331,14.744 12.500,14.364 12.582,13.913 C12.664,13.459 12.645,12.992 12.527,12.546 C12.409,12.089 12.200,11.661 11.910,11.288 C11.618,10.907 11.184,10.615 10.608,10.407 C10.033,10.200 9.371,10.142 8.621,10.232 L8.622,10.232 L8.622,10.233 ZM7.636,15.349 C7.439,15.383 7.237,15.369 7.047,15.310 C6.963,15.281 6.881,15.250 6.800,15.214 C6.721,15.181 6.651,15.130 6.595,15.065 C6.542,15.004 6.492,14.941 6.444,14.875 C6.346,14.737 6.293,14.571 6.293,14.401 C6.293,14.203 6.348,14.009 6.458,13.820 C6.568,13.630 6.718,13.467 6.911,13.332 C7.100,13.198 7.323,13.118 7.554,13.102 C7.714,13.084 7.875,13.088 8.034,13.115 C8.294,13.154 8.535,13.278 8.719,13.467 C8.800,13.547 8.861,13.644 8.897,13.752 C8.933,13.859 8.952,13.977 8.952,14.102 C8.952,14.302 8.892,14.491 8.774,14.671 C8.655,14.851 8.495,15.005 8.294,15.131 C8.093,15.257 7.874,15.329 7.636,15.347 L7.636,15.349 ZM9.964,13.400 C9.850,13.486 9.710,13.529 9.567,13.522 C9.430,13.513 9.335,13.455 9.280,13.346 L9.225,13.238 C9.207,13.205 9.198,13.168 9.198,13.130 L9.198,13.022 C9.198,12.968 9.207,12.922 9.225,12.887 L9.280,12.779 C9.297,12.742 9.326,12.713 9.363,12.696 L9.444,12.588 C9.591,12.480 9.732,12.435 9.869,12.453 C10.006,12.472 10.102,12.543 10.157,12.669 C10.211,12.739 10.235,12.826 10.225,12.914 C10.216,13.004 10.188,13.092 10.143,13.171 C10.095,13.256 10.035,13.333 9.965,13.401 L9.965,13.400 L9.964,13.400 ZM19.696,7.742 C19.801,7.742 19.905,7.714 19.996,7.661 C20.166,7.562 20.286,7.394 20.324,7.200 C20.342,7.182 20.351,7.155 20.351,7.119 C20.571,5.061 19.840,3.888 18.159,3.599 C17.707,3.510 17.243,3.500 16.788,3.572 C16.671,3.569 16.556,3.602 16.458,3.667 C16.366,3.732 16.287,3.815 16.226,3.910 C16.164,4.002 16.131,4.110 16.131,4.221 C16.131,4.401 16.195,4.555 16.323,4.681 C16.446,4.805 16.614,4.874 16.788,4.871 C18.214,4.546 18.981,4.997 19.090,6.225 C19.127,6.531 19.108,6.821 19.035,7.091 C19.035,7.271 19.099,7.425 19.227,7.552 C19.350,7.676 19.518,7.744 19.693,7.742 L19.696,7.742 ZM19.229,0.108 C18.425,-0.072 17.347,-0.037 15.995,0.216 C15.976,0.216 15.958,0.225 15.939,0.243 L15.912,0.297 L15.885,0.324 C15.686,0.377 15.512,0.497 15.391,0.664 C15.268,0.822 15.201,1.017 15.200,1.218 C15.200,1.489 15.291,1.715 15.473,1.895 C15.656,2.075 15.876,2.165 16.132,2.165 L16.214,2.165 C16.232,2.165 16.274,2.157 16.338,2.139 C16.402,2.121 16.470,2.108 16.542,2.099 C16.615,2.089 16.692,2.071 16.776,2.044 C16.859,2.017 16.932,1.990 16.996,1.962 C17.058,1.935 17.182,1.922 17.366,1.922 C17.549,1.922 17.772,1.935 18.037,1.962 C18.301,1.990 18.594,2.057 18.914,2.165 C19.234,2.274 19.554,2.409 19.874,2.572 C20.193,2.734 20.513,2.960 20.833,3.249 C21.153,3.536 21.432,3.869 21.669,4.250 C22.145,5.315 22.236,6.343 21.944,7.336 C21.943,7.355 21.938,7.374 21.929,7.390 C21.912,7.434 21.898,7.479 21.889,7.526 C21.872,7.594 21.853,7.661 21.833,7.729 C21.810,7.809 21.792,7.890 21.778,7.972 C21.761,8.057 21.752,8.143 21.750,8.229 C21.750,8.391 21.796,8.527 21.887,8.636 C21.977,8.744 22.097,8.824 22.231,8.866 C22.368,8.911 22.527,8.933 22.710,8.933 C23.222,8.933 23.524,8.627 23.614,8.012 C23.824,7.359 23.949,6.681 23.984,5.996 C24.012,5.355 23.966,4.791 23.847,4.304 C23.732,3.826 23.553,3.366 23.314,2.937 C23.094,2.537 22.817,2.172 22.490,1.854 C22.171,1.550 21.822,1.278 21.449,1.042 C21.097,0.815 20.725,0.620 20.338,0.459 C19.978,0.314 19.607,0.196 19.229,0.108 Z" transform="translate(0 2.48)" class="cls-1"/>
</svg>
