<svg xmlns="http://www.w3.org/2000/svg" xmlns:xlink="http://www.w3.org/1999/xlink" preserveAspectRatio="xMidYMid" width="23.969" height="24" viewBox="0 0 23.969 24">
  <defs>
    <style>
      .cls-1 {
        fill: #444;
        fill-rule: evenodd;
      }
    </style>
  </defs>
  <path d="M21.002,16.906 L21.638,18.957 L19.321,17.724 C18.476,17.929 17.628,18.136 16.787,18.136 C12.768,18.136 9.604,15.466 9.604,12.178 C9.604,8.896 12.768,6.220 16.787,6.220 C20.582,6.220 23.961,8.896 23.961,12.178 C23.961,14.029 22.700,15.669 21.002,16.906 ZM14.459,9.508 C14.038,9.508 13.614,9.920 13.614,10.328 C13.614,10.744 14.038,11.150 14.459,11.150 C15.097,11.150 15.515,10.745 15.515,10.329 C15.515,9.920 15.097,9.508 14.459,9.508 ZM19.103,9.508 C18.687,9.508 18.264,9.920 18.264,10.328 C18.264,10.744 18.687,11.150 19.103,11.150 C19.737,11.150 20.161,10.745 20.161,10.329 C20.161,9.920 19.737,9.508 19.103,9.508 ZM8.979,12.239 C8.982,12.823 9.070,13.405 9.241,13.964 C8.979,13.984 8.717,13.998 8.451,13.998 C7.394,13.998 6.545,13.787 5.487,13.584 L2.527,15.028 L3.373,12.551 C1.254,11.110 -0.014,9.252 -0.014,6.990 C-0.014,3.072 3.798,-0.013 8.451,-0.013 C12.612,-0.013 16.260,2.453 16.992,5.770 C16.722,5.740 16.450,5.722 16.177,5.722 C12.155,5.722 8.979,8.641 8.979,12.239 ZM5.701,3.488 C5.066,3.488 4.426,3.896 4.426,4.516 C4.426,5.134 5.067,5.547 5.701,5.547 L5.701,5.546 C6.336,5.546 6.757,5.134 6.757,4.516 C6.757,3.896 6.336,3.488 5.701,3.488 ZM11.625,3.488 C10.990,3.488 10.354,3.896 10.354,4.516 C10.354,5.134 10.990,5.546 11.625,5.546 C12.262,5.546 12.685,5.134 12.685,4.516 C12.685,3.896 12.262,3.488 11.625,3.488 Z" transform="translate(0 2.52)" class="cls-1"/>
</svg>
