<svg xmlns="http://www.w3.org/2000/svg" xmlns:xlink="http://www.w3.org/1999/xlink" preserveAspectRatio="xMidYMid" width="24" height="24" viewBox="0 0 24 24">
  <defs>
    <style>
      .cls-1 {
        fill: #444;
        fill-rule: evenodd;
      }
    </style>
  </defs>
  <path d="M22.386,7.278 C19.932,4.144 16.193,2.138 12.000,2.138 C7.807,2.138 4.068,4.144 1.614,7.278 L0.014,5.933 C2.846,2.315 7.161,0.000 12.000,0.000 C16.839,0.000 21.154,2.315 23.986,5.933 L22.386,7.278 ZM12.000,5.346 C15.223,5.346 18.098,6.886 19.986,9.295 L18.386,10.640 C16.876,8.715 14.577,7.485 12.000,7.485 C9.423,7.485 7.125,8.715 5.614,10.640 L4.014,9.295 C5.902,6.886 8.777,5.346 12.000,5.346 ZM12.000,10.692 C13.607,10.692 15.024,11.473 15.968,12.671 L14.375,14.011 C13.809,13.296 12.961,12.831 12.000,12.831 C11.039,12.831 10.192,13.296 9.625,14.011 L8.032,12.671 C8.976,11.473 10.393,10.692 12.000,10.692 ZM12.000,16.000 C12.552,16.000 13.000,16.448 13.000,17.000 C13.000,17.552 12.552,18.000 12.000,18.000 C11.448,18.000 11.000,17.552 11.000,17.000 C11.000,16.448 11.448,16.000 12.000,16.000 Z" transform="translate(0 3)" class="cls-1"/>
</svg>
