<svg xmlns="http://www.w3.org/2000/svg" xmlns:xlink="http://www.w3.org/1999/xlink" preserveAspectRatio="xMidYMid" width="24" height="24" viewBox="0 0 24 24">
  <defs>
    <style>
      .cls-1 {
        fill: #444;
        fill-rule: evenodd;
      }
    </style>
  </defs>
  <path d="M20.000,20.000 C17.791,20.000 16.000,18.209 16.000,16.000 L18.000,16.000 C18.000,17.105 18.896,18.000 20.000,18.000 C21.105,18.000 22.000,17.105 22.000,16.000 C22.000,14.895 21.105,14.000 20.000,14.000 L20.000,14.000 C20.000,14.000 20.000,14.000 20.000,14.000 L3.000,14.000 C2.448,14.000 2.000,13.552 2.000,13.000 C2.000,12.448 2.448,12.000 3.000,12.000 L20.000,12.000 C20.000,12.000 20.001,12.000 20.001,12.000 C22.210,12.001 24.000,13.791 24.000,16.000 C24.000,18.209 22.209,20.000 20.000,20.000 ZM19.000,10.000 L19.000,10.000 C19.000,10.000 19.000,10.000 19.000,10.000 L18.000,10.000 C17.448,10.000 17.000,9.552 17.000,9.000 C17.000,8.448 17.448,8.000 18.000,8.000 L19.000,8.000 C19.000,8.000 19.000,8.000 19.000,8.000 L19.000,8.000 C19.552,8.000 20.000,7.552 20.000,7.000 C20.000,6.448 19.552,6.000 19.000,6.000 C19.000,6.000 19.000,6.000 19.000,6.000 L19.000,6.000 C19.000,6.000 19.000,6.000 19.000,6.000 L18.000,6.000 C17.448,6.000 17.000,5.552 17.000,5.000 C17.000,4.448 17.448,4.000 18.000,4.000 L19.000,4.000 C19.000,4.000 19.001,4.000 19.001,4.000 C20.658,4.001 22.000,5.344 22.000,7.000 C22.000,8.657 20.657,10.000 19.000,10.000 ZM11.000,8.000 L11.000,8.000 C11.000,8.000 11.000,8.000 11.000,8.000 L1.000,8.000 C0.448,8.000 -0.000,7.552 -0.000,7.000 C-0.000,6.448 0.448,6.000 1.000,6.000 L11.000,6.000 C11.000,6.000 11.000,6.000 11.000,6.000 L11.000,6.000 C12.105,6.000 13.000,5.105 13.000,4.000 C13.000,2.896 12.105,2.000 11.000,2.000 C9.896,2.000 9.000,2.896 9.000,4.000 L7.000,4.000 C7.000,1.791 8.791,-0.000 11.000,-0.000 C13.209,-0.000 15.000,1.791 15.000,4.000 C15.000,6.209 13.209,8.000 11.000,8.000 Z" transform="translate(0 2)" class="cls-1"/>
</svg>
