<svg xmlns="http://www.w3.org/2000/svg" xmlns:xlink="http://www.w3.org/1999/xlink" preserveAspectRatio="xMidYMid" width="24" height="24" viewBox="0 0 24 24">
  <defs>
    <style>
      .cls-1 {
        fill: #444;
        fill-rule: evenodd;
      }
    </style>
  </defs>
  <path d="M11.000,16.000 L10.000,16.000 L10.000,22.000 L14.000,22.000 C14.552,22.000 15.000,22.448 15.000,23.000 C15.000,23.552 14.552,24.000 14.000,24.000 L4.000,24.000 C3.448,24.000 3.000,23.552 3.000,23.000 C3.000,22.448 3.448,22.000 4.000,22.000 L8.000,22.000 L8.000,16.000 L7.000,16.000 C3.134,16.000 -0.000,12.866 -0.000,9.000 L-0.000,-0.000 L18.000,-0.000 L18.000,9.000 C18.000,12.866 14.866,16.000 11.000,16.000 ZM2.000,2.000 L2.000,6.000 C2.000,6.000 5.703,4.838 9.007,6.000 C12.995,7.403 16.000,6.000 16.000,6.000 L16.000,2.000 L2.000,2.000 Z" transform="translate(3)" class="cls-1"/>
</svg>
