<svg xmlns="http://www.w3.org/2000/svg" xmlns:xlink="http://www.w3.org/1999/xlink" preserveAspectRatio="xMidYMid" width="24" height="24" viewBox="0 0 24 24">
  <defs>
    <style>
      .cls-1 {
        fill: #444;
        fill-rule: evenodd;
      }
    </style>
  </defs>
  <path d="M22.000,24.000 L10.000,24.000 L8.000,24.000 L6.000,24.000 L4.000,24.000 L2.000,24.000 C0.895,24.000 -0.000,23.105 -0.000,22.000 L-0.000,9.000 L-0.000,8.000 L-0.000,6.000 L-0.000,4.000 L-0.000,2.000 C-0.000,0.895 0.895,-0.000 2.000,-0.000 L22.000,-0.000 C23.105,-0.000 24.000,0.895 24.000,2.000 L24.000,4.000 L24.000,6.000 L24.000,8.000 L24.000,22.000 C24.000,23.105 23.105,24.000 22.000,24.000 ZM2.000,21.000 C2.000,21.552 2.448,22.000 3.000,22.000 L4.000,22.000 L5.000,22.000 C5.552,22.000 6.000,21.552 6.000,21.000 L6.000,9.000 C6.000,8.448 5.552,8.000 5.000,8.000 L3.000,8.000 C2.448,8.000 2.000,8.448 2.000,9.000 L2.000,21.000 ZM22.000,4.000 L22.000,3.000 C22.000,2.448 21.552,2.000 21.000,2.000 L3.000,2.000 C2.448,2.000 2.000,2.448 2.000,3.000 L2.000,4.000 L2.000,5.000 C2.000,5.552 2.448,6.000 3.000,6.000 L6.000,6.000 L8.000,6.000 L21.000,6.000 C21.552,6.000 22.000,5.552 22.000,5.000 L22.000,4.000 ZM22.000,9.000 C22.000,8.448 21.552,8.000 21.000,8.000 L9.000,8.000 C8.448,8.000 8.000,8.448 8.000,9.000 L8.000,21.000 C8.000,21.552 8.448,22.000 9.000,22.000 L10.000,22.000 L21.000,22.000 C21.552,22.000 22.000,21.552 22.000,21.000 L22.000,9.000 Z" class="cls-1"/>
</svg>
