<svg xmlns="http://www.w3.org/2000/svg" xmlns:xlink="http://www.w3.org/1999/xlink" preserveAspectRatio="xMidYMid" width="24" height="24" viewBox="0 0 24 24">
  <defs>
    <style>
      .cls-1 {
        fill: #444;
        fill-rule: evenodd;
      }
    </style>
  </defs>
  <path d="M19.242,16.010 L19.242,13.828 C20.655,13.828 21.801,12.688 21.801,11.281 C21.801,9.875 20.655,8.735 19.242,8.735 L19.120,8.735 L19.120,13.828 L19.242,13.828 L19.242,16.010 L19.120,16.010 L17.780,16.010 L16.927,16.010 L16.927,8.735 L10.592,8.735 L10.592,6.552 L16.927,6.552 C16.927,4.141 14.963,2.187 12.541,2.187 C10.119,2.187 8.155,4.141 8.155,6.552 L8.155,11.766 L5.962,11.766 L5.962,6.552 L5.840,6.552 C3.821,6.552 2.185,8.181 2.185,10.190 C2.185,12.199 3.821,13.828 5.840,13.828 L5.962,13.828 L8.155,13.828 L14.490,13.828 L14.490,16.010 L5.840,16.010 C2.610,16.010 -0.008,13.404 -0.008,10.190 C-0.008,6.975 2.610,4.370 5.840,4.370 L6.338,4.370 C7.241,1.827 9.677,0.004 12.541,0.004 C16.175,0.004 19.120,2.936 19.120,6.552 L19.608,6.552 L19.608,6.568 C22.061,6.753 23.994,8.792 23.994,11.281 C23.994,13.893 21.866,16.010 19.242,16.010 Z" transform="translate(0 4)" class="cls-1"/>
</svg>
